<svg xmlns="http://www.w3.org/2000/svg" xmlns:xlink="http://www.w3.org/1999/xlink" width="280" height="80" viewBox="0 0 280 80">
  <defs>
    <clipPath id="clip-path">
      <rect id="사각형_597" data-name="사각형 597" width="157.126" height="40" fill="#fff"/>
    </clipPath>
  </defs>
  <g id="그룹_498" data-name="그룹 498" transform="translate(-3362 -13796)">
    <rect id="사각형_585" data-name="사각형 585" width="280" height="80" transform="translate(3362 13796)" fill="none"/>
    <g id="그룹_468" data-name="그룹 468" transform="translate(3423 13813)">
      <g id="그룹_467" data-name="그룹 467" transform="translate(0 0)" clip-path="url(#clip-path)">
        <path id="패스_167" data-name="패스 167" d="M24.729,5.992a.937.937,0,0,1,.187.343c.114.348.435.557.475.912.013.12.167.167.247.218.086.112.027.239.194.4.08.051.02.177.032.3.08.051.162.1.241.156a3.154,3.154,0,0,1-.045,3.658,1.275,1.275,0,0,0-.316.51c-.067.068-.208.14-.277.206.014.119.094.171.18.284-.361.094-.4.4-.68.6l-.295.027a3.573,3.573,0,0,1-.626.418c-.065.066-.047.245-.04.3a2.184,2.184,0,0,1-1.374.428c-.071.008-.126.192-.2.2-.371.036-.82.018-1.19.051-.155-.044-.241-.156-.4-.2a1.171,1.171,0,0,1-.451-.016,3.986,3.986,0,0,0-.779-.287c-.155-.047-.436.1-.6,0a6.326,6.326,0,0,1-1.266-1.321c-.182-.281-.49-.371-.6-.661-.014-.12.043-.3-.113-.349-.309-.093-.18-.283-.2-.462a1.429,1.429,0,0,0-.275-.455c-.094-.17.028-.422-.071-.651-.007-.059.06-.127.054-.185-.113-.349.07-.725.037-1.021a1.744,1.744,0,0,1,.082-.608,5.324,5.324,0,0,1,.69-1.2c-.008-.058-.02-.177-.026-.235.065-.067.14-.074.207-.141a2.966,2.966,0,0,1,.433-.818c.263-.325.68-.6,1.017-.935a3.1,3.1,0,0,0,.672-.663c.068-.066.3.031.372-.034.2-.2.5-.167.711-.308s.167.164.383.084a.881.881,0,0,0,.356-.152c.215-.08.456.076.686.114a1.061,1.061,0,0,1,.691.175c.321.209,1.061.139,1.18.55.181.281.5.49.683.773" transform="translate(-2.475 -0.654)" fill="#fff"/>
        <path id="패스_168" data-name="패스 168" d="M37.338,10.028a1.311,1.311,0,0,0-.074-.494c-.02-.184.126-.389.062-.643-.042-.068-.136-.149-.124-.207a2.933,2.933,0,0,0,.1-1.169.839.839,0,0,0-.116-.266c.009-.057.031-.171.053-.286a2.64,2.64,0,0,0-.21-.942c-.031-.125-.126-.206-.146-.388-.042-.07-.136-.151-.127-.208A4.1,4.1,0,0,0,36.529,4c-.116-.56-.648-.916-.816-1.49.009-.058.184-.034.236-.022A2.92,2.92,0,0,1,36.943,3.9c.074.2.042.366.127.5a2.825,2.825,0,0,1,.482,1.537c-.01.057.1.022.146.093a.385.385,0,0,0,.01.241c.272.3.1.618.158.929a.849.849,0,0,0,.114.264c-.01.058-.145.208-.157.263a1.31,1.31,0,0,1,.254,1.011c.252.116.136.447.2.7a.193.193,0,0,0,.148.092.885.885,0,0,0,.167-.322A4.963,4.963,0,0,0,38.556,7.9a.48.48,0,0,1,.042-.528c-.105-.023-.138-.15-.179-.219-.188-.757-.266-1.606-.49-2.38a.216.216,0,0,0,.075-.1,10.594,10.594,0,0,0-.842-2c-.039-.122-.238-.269-.332-.4,0,0,.008-.059.014-.116a1.029,1.029,0,0,1,.605.488A3.612,3.612,0,0,1,38.128,3.9a10.193,10.193,0,0,1,.451,1.181,2.326,2.326,0,0,0,.363.629,2.036,2.036,0,0,1,.051.552c.076.439.208.863.292,1.3a1.518,1.518,0,0,1,.043.964c-.145.5.19,1.055.325,1.5a.732.732,0,0,1-.1.574c-.009.059.083.139.072.2-.094.218-.02.414-.062.644-.062.045.073.194,0,.295-.062.049-.113.037-.177.083-.084.162-.011.355-.042.529-.167.32-.082.757-.4.986-.116.033-.127.093-.19.137.053.012.1.081.135.15-.062.045-.115.033-.177.08-.02.114.2.256.244.323-.084.461-.428.863-.417,1.4-.021.115-.054.286-.072.4-.106.275-.3.472-.409.745-.02.115-.24.126-.262.241-.136.149-.123.39-.219.609-.072.1-.23.07-.355.16a2.617,2.617,0,0,0-.218.608c-.158.264-.349.549-.5.813a3.362,3.362,0,0,1-.8,1.031.381.381,0,0,0-.23.068,1.441,1.441,0,0,1-.713.725c-.054-.011-.132.238-.194.284a6.317,6.317,0,0,1-.683.563c-.111.034-.173.081-.3-.127a6.167,6.167,0,0,1-1.471,1.7c-.294.172-.593.153-.788.347a16.035,16.035,0,0,1-1.779,1.4c-.049-.011-.246.281-.246.281-.207.018-.088.037-.28-.008,0,0-.009.324-.27.378-.553.108-.7.751-.741,1.015-.022.133-.113.043-.178.1s-.021.132-.083.185a3.564,3.564,0,0,0-.647.669c-.061.054-.1-.026-.166.029a2.348,2.348,0,0,0-.462.736,5.817,5.817,0,0,1-.872,1.455c-.085.1.2.469.174.6-.08.176-.24.206-.318.383-.071.438-.091.927-.167,1.391a2.5,2.5,0,0,0,.093,1.179,8.073,8.073,0,0,1,0,1.111c.025.268.207.557.177.816.009.4-.081.344.005.678a1.7,1.7,0,0,0-.031.521c-.016.262-.058.423-.072.683-.056.063-.17.186-.173.251a2.652,2.652,0,0,1-.914,1.656c-.277.178-.517.45-.834.427a7.338,7.338,0,0,0-.867.37,2.963,2.963,0,0,1-1.292.072,1.836,1.836,0,0,1-1.232-.768c-.2-.225-.552-.142-.683-.49-.039-.137-.326-.208-.373-.281a3.922,3.922,0,0,1-.592-.806c-.132-.347-.037-.584-.193-.921-.163-.207-.234-.352-.4-.558-.217-.274.049-.667-.11-.938a.771.771,0,0,1-.271-.345,6.3,6.3,0,0,0-.239-.939,7.9,7.9,0,0,1,.034-1.9c.012-.067-.179-.162-.167-.227a10.662,10.662,0,0,0,.154-1.433c.05-.264.026-.476.266-.7,0,0-.114-.094-.1-.159a6.189,6.189,0,0,0,.213-1.08c.013-.067.152-.107.166-.173a3.538,3.538,0,0,1-.031-1.152c.026-.133.369-.331.449-.45a.79.79,0,0,1,.078-.466c.032-.057.122-.039.189-.093.01-.067-.032-.145-.021-.212.033-.2.369-.343.393-.474a3.454,3.454,0,0,1,.6-1.007,1.93,1.93,0,0,1,.258-.481c.063-.045.094,0,.1-.059s-.018-.184-.01-.242c.134-.15.318-.287.349-.459a1.832,1.832,0,0,1,.306-.529,2.24,2.24,0,0,0,.643-.63c.132-.15.286-.116.42-.265a4.311,4.311,0,0,0,.387-.689,6.007,6.007,0,0,1,1.073-.953,8.54,8.54,0,0,1,.991-.495c.306-.23.49-.664.787-.837.182-.138.4-.149.582-.286s.337-.4.613-.461a2.659,2.659,0,0,0,.745-.218c.357-.218.209-.278.566-.5a9.184,9.184,0,0,1,.951-.554.3.3,0,0,0,.143-.207,4.518,4.518,0,0,1,1.015-.773c.112-.034.246.115.377-.034.071-.1-.072-.195,0-.3a6.366,6.366,0,0,1,.57-.6c.062-.044.209.047.324.011.062-.045.083-.16.146-.2.073-.1-.063-.252.009-.358.084-.161.167-.32.283-.354.179-.081.418-.207.388-.332a.742.742,0,0,1,.376-.575c.01-.055.022-.116.031-.173.136-.149.262-.24.4-.388.145-.207.082-.459.167-.621a1.923,1.923,0,0,0,.606-.941c-.02-.184-.136-.448-.052-.609.072-.1.3-.172.323-.285a3.627,3.627,0,0,0-.084-.735c.031-.173.218-.31.2-.494a13.812,13.812,0,0,0-.062-1.445c.166-.022.188-.139.207-.254a9.779,9.779,0,0,0-.344-1.09c-.011-.241.186-.437.177-.676a1.039,1.039,0,0,0-.388-.563c-.177-.218-.061-.551-.124-.8-.053-.31-.284-.541-.326-.907-.021-.184-.241-.173-.314-.368a3.148,3.148,0,0,1-.126-.8c-.032-.126-.2-.1-.293-.182-.211-.345-.136-1.046-.6-1.2.042-.23-.167-.278-.241-.471a.708.708,0,0,1,.68.447c.042.068.2.1.251.116.137.149.127.5.274.6.187.16.469.1.543.3.1.32.346.492.462.756a.479.479,0,0,0,.061.253c.19.161.211.343.344.492.315.368.63.736.483,1.24-.092.218.189.161.275.3.209.344.124.8.4,1.1a3.993,3.993,0,0,0,.41,1.641,2.016,2.016,0,0,0,.105,1.765s.167-.022.179-.08c.051-.285.572-.382.488-.519a5.947,5.947,0,0,1-.262-1.29,6.052,6.052,0,0,0-.022-1.379c-.042-.07-.083-.138-.125-.206a1.808,1.808,0,0,1-.073-.792c-.031-.128-.126-.2-.157-.333.01-.058.031-.173.042-.23.116-.034.262.057.366.082.1.078.01.239.053.309.168.275.418.39.471.7-.01.056-.031.171-.04.23.041.366.26.654.314.964.021.183-.134.446-.062.643a2.88,2.88,0,0,1,.211,1.538c-.043.229.249.412.166.572s.022.184-.063.346c-.01.057-.125.09-.134.15.156.332-.08.836-.133,1.124-.009.057.179.119.218-.093.023-.127.241-.126.354-.16a.669.669,0,0,0,.209-.551m1.127,1.147a3.477,3.477,0,0,0,.094-.814c-.1-.322-.34,0-.509.02a1.559,1.559,0,0,1-.177.975c-.072.1-.124.389.042.367a.512.512,0,0,0,.551-.548m-.448,1.572a.3.3,0,0,0-.06-.358c-.145-.091-.335.048-.419.207s-.02.413.2.4c.051.012.2-.147.278-.251" transform="translate(-2.573 0)" fill="#fff"/>
        <path id="패스_169" data-name="패스 169" d="M37.9,3.279c.279.211.388.564.608.85l-.021.116c-.386.331-.723-.22-.827-.541a2.527,2.527,0,0,0-.6-.907l.034-.173c-.138-.15-.314-.366-.138-.447.072-.1.2.1.345.2.22.286.261.652.6.905" transform="translate(-5.532 -0.323)" fill="#fff"/>
        <path id="패스_170" data-name="패스 170" d="M39.789,1.631c0,.059-.089.157-.1.214a2.355,2.355,0,0,1-.522-.618.33.33,0,0,1-.2-.113c-.051-.014-.039-.07-.026-.127.167-.015.3.139.442.235.05.014.116-.028.167-.014a.532.532,0,0,1,.237.422" transform="translate(-5.839 -0.148)" fill="#fff"/>
        <path id="패스_171" data-name="패스 171" d="M10.337,14.108a1.251,1.251,0,0,1,.164.157.257.257,0,0,0,.263.023c.087.006.164.231.252.237.126.06.2.283.327.39.084.053.173.133.256.19a2.9,2.9,0,0,0,.32.41c.08.1.214.066.3.072.17.063.239.309.36.463.044,0,.12.156.118.2a1.858,1.858,0,0,0,.291.214c.038.053.033.149.071.2a15.261,15.261,0,0,1,1,1.381.575.575,0,0,1,.032.148,9.617,9.617,0,0,1,.75,1.122,5.9,5.9,0,0,1,.218.594c.082.1.166.158.244.262a1.822,1.822,0,0,1,.257.7c-.007.094-.07.378-.235.221-.2-.21-.183-.495-.389-.658a.484.484,0,0,0-.094-.223c-.083-.1-.233-.094-.268-.24.011-.144-.15-.261-.233-.361-.208-.3-.51-.408-.759-.709a.16.16,0,0,0-.135.042c-.046.094-.182.233-.058.382.171.1.251.3.467.408.126.1.159.391.236.636a.845.845,0,0,0,.3.255c.128.1.077.254.2.409,0,.048-.05.092-.054.139.078.153.254.116.376.272.093-.088.221-.019.3.121-.142.133-.106.233-.16.375-.148.227.186.446.4.56.132.01.113.25.238.356.077.151.294.169.411.371.037.1-.054.14-.1.232-.011.145.161.206.244.26a.493.493,0,0,1,.156.254c-.134.037-.393-.141-.524-.153-.082-.037-.24-.225-.406-.262-.059-.014-.1.125-.161.112l-.251-.048c-.093-.016-.315-.261-.41-.275s-.243.182-.349.163a1.587,1.587,0,0,1-.533-.145,3.473,3.473,0,0,1-.415-.2c-.085-.046-.062-.158-.141-.21s-.251-.052-.332-.1c-.315-.194-.613-.63-.882-.77-.178-.092-.326-.184-.524-.277-.1-.06-.166-.2-.286-.235-.37-.124-.667-.359-1.09-.478a2.854,2.854,0,0,0-2.115.568.274.274,0,0,0-.139.018,4.461,4.461,0,0,1-.475.295,5.46,5.46,0,0,1-.7.332c-.071.043-.078.172-.147.213-.106.062-.295.075-.4.139S6,22.83,5.9,22.9a2.9,2.9,0,0,1-.621.391,10.345,10.345,0,0,1-1.543.282c-.309,0-.524.258-.984.258a3.175,3.175,0,0,1-1.984-.451c-.123-.106-.147-.4-.229-.452-.252-.165-.227-.5-.3-.746-.082-.054-.257-.067-.247-.213a3.6,3.6,0,0,1,.882-1.856c.1-.185.326-.262.344-.5a7.073,7.073,0,0,1,.626-.768c.051-.092-.026-.244.025-.335a11.042,11.042,0,0,1,1.535-1.8c.141-.132.242-.318.463-.348.09.007.175.014.225-.078a1.034,1.034,0,0,1,.429-.446c.507-.344.932-.865,1.511-.962.09-.04.141-.132.23-.174.1-.088.264.021.354-.02.43-.194.823-.609,1.265-.67.09-.04.142-.134.184-.13.394.033.855-.315,1.224.053a1.448,1.448,0,0,1,1.039.179m3.006,4.206c0-.048,0-.1,0-.144-.17-.1-.247-.4-.464-.456-.043,0-.132.042-.134.089a1.44,1.44,0,0,0,.234.733c.051-.19.181-.183.264-.036a.4.4,0,0,0,.1-.187" transform="translate(0 -2.064)" fill="#fff"/>
        <path id="패스_172" data-name="패스 172" d="M62.384,32.23,60.4,34.292l-5.511-5.374A12.636,12.636,0,0,1,52.3,32.189a17.262,17.262,0,0,1-3,2.184l-1.927-2.2a11.638,11.638,0,0,0,2.781-1.9,11.187,11.187,0,0,0,1.886-2.281,9.311,9.311,0,0,0,1.412-4.885v-3.8h3.04v3.257a13.029,13.029,0,0,1-.122,1.819c-.082.58-.187,1.14-.314,1.684Zm6.3,9.336H65.8V27.018h-6V24.249h6V16.866h2.877Z" transform="translate(-7.106 -2.53)" fill="#fff"/>
        <path id="패스_173" data-name="패스 173" d="M98.974,30.732H88.687v1.357h5.1v6.379H83.937v1.221h10.5v2.768H80.952V35.834h9.825V34.749H80.816v-2.66h4.967V30.732H75.713V28.018H98.974Zm-5.429-8.741a4.526,4.526,0,0,1-.5,2.131,5.456,5.456,0,0,1-1.341,1.67,6.613,6.613,0,0,1-2.051,1.058,8.768,8.768,0,0,1-5.021.025,6.472,6.472,0,0,1-2.049-1.03A5.018,5.018,0,0,1,81.208,24.2a4.668,4.668,0,0,1-.5-2.185,4.916,4.916,0,0,1,.488-2.211,5.05,5.05,0,0,1,1.357-1.7,5.976,5.976,0,0,1,2.009-1.085,8.547,8.547,0,0,1,5.035,0,6.277,6.277,0,0,1,2.049,1.085,5.078,5.078,0,0,1,1.384,1.67,4.713,4.713,0,0,1,.515,2.212m-2.985-.027a2.331,2.331,0,0,0-1.031-2.008,4.1,4.1,0,0,0-2.443-.733,4.058,4.058,0,0,0-2.457.72,2.35,2.35,0,0,0-.99,2.02,2.268,2.268,0,0,0,.99,1.956,4.126,4.126,0,0,0,2.457.7,4.478,4.478,0,0,0,2.443-.65,2.209,2.209,0,0,0,1.031-2.009" transform="translate(-11.356 -2.497)" fill="#fff"/>
        <path id="패스_174" data-name="패스 174" d="M127.73,32.687H104.5V29.946H127.73Zm-5.048,9.95h-2.9v-5.66h-10.4V34.208h13.3Zm-.054-14.1H109.49V17.841h12.975v2.74h-10.1V21.75h9.772v2.768h-9.772v1.277h10.261Z" transform="translate(-15.673 -2.676)" fill="#fff"/>
        <path id="패스_175" data-name="패스 175" d="M145.212,29.488H134.166V18.2h2.876v3.258h5.267V18.2h2.9Zm-2.9-5.292h-5.267v2.551h5.267ZM153.381,42.49H140.056V35.677h9.688V34.265H139.92V31.524H152.73v6.814H143.1v1.412h10.286Zm.218-11.753h-2.85V28.105h-4.669V25.388h4.669V23.436h-4.669V20.695h4.669V16.867h2.85Z" transform="translate(-20.123 -2.53)" fill="#fff"/>
        <path id="패스_176" data-name="패스 176" d="M175.209,32.311l-1.981,2.061-5.484-5.4a12.05,12.05,0,0,1-2.564,3.3,16.3,16.3,0,0,1-3.054,2.185l-1.928-2.2a13.3,13.3,0,0,0,2.809-1.981,11.537,11.537,0,0,0,1.888-2.253,10,10,0,0,0,1.044-2.414,9.014,9.014,0,0,0,.339-2.417V19.309h3.04v3.339a12.607,12.607,0,0,1-.122,1.805q-.121.854-.311,1.641Zm5.944,9.254h-2.9v-24.7h2.9Z" transform="translate(-24.027 -2.53)" fill="#fff"/>
      </g>
    </g>
  </g>
</svg>
