<svg xmlns="http://www.w3.org/2000/svg" width="280" height="80" viewBox="0 0 280 80">
  <g id="그룹_499" data-name="그룹 499" transform="translate(-3069 -13796)">
    <g id="Feyp9sLnTIRYF60QrWBkqsM4wg2enXIJvAiFICgVoDiWS4zsHAVu_NYdt7QKReYxLbSj3UdrQ-OH0q56j-hzv9-fwlBJXqjNtPJnxJ3M-z9Xpl5hZyEsKU7MtaA3OkHNDBFJLjUJnKvOzNw6Ik5p8g" transform="translate(3132.999 13817.998)">
      <path id="패스_157" data-name="패스 157" d="M187.128,10.178a17.182,17.182,0,0,0-7.873-1.9c-6.228,0-9.115,2.785-9.115,6.76,0,3.418,2.583,5.493,5.393,6.582,1.392.507,2.937,1.039,4.1,1.368,1.873.531,2.607,1.418,2.607,2.709,0,1.621-1.14,2.582-4.1,2.582a14.662,14.662,0,0,1-6.582-1.9l-1.773,3.95a17.934,17.934,0,0,0,8.405,2.127c5.823,0,9.216-2.911,9.216-6.937,0-3.823-2.025-5.165-4.3-6.152-.886-.355-2.531-.886-3.393-1.14-2.911-.81-4.481-1.545-4.481-3.468,0-1.418.937-2.532,4.127-2.532a12.8,12.8,0,0,1,6.1,1.671ZM163.2,8.609V27.672h-.583L155.885,8.609h-9.114V32.027h4.937V12.659h.633L159,32.027h9.114V8.609Zm-18.077,2.76c-2.025-2.254-5.342-3.114-8.329-3.114-6.912,0-11.115,4.127-11.115,12.077,0,7.6,3.241,12.077,11.064,12.077a16.811,16.811,0,0,0,8.051-1.9l-1.164-3.9A15.627,15.627,0,0,1,137.1,28c-4.911,0-6.2-3.139-6.2-7.722,0-5.341,2.379-7.9,6.1-7.9a7.32,7.32,0,0,1,5.292,2.254Z" transform="translate(-35.476 -2.329)" fill="#fff"/>
      <path id="빼기_2" data-name="빼기 2" d="M18,36A18.021,18.021,0,0,1,0,18a18,18,0,0,1,34.586-7A17.988,17.988,0,0,1,18,36ZM18,2.936A15.072,15.072,0,1,0,33.064,18v-.688H22.327v1.394h9.317v.2A13.645,13.645,0,0,1,8.377,27.643,13.389,13.389,0,0,1,4.353,18,13.656,13.656,0,0,1,18,4.353c.152,0,.556,0,.734.025V2.961c-.088,0-.219-.005-.346-.012h-.036C18.226,2.942,18.095,2.936,18,2.936ZM17.291,10.1V25.872h5.036V24.48h-3.6l0-14.381Zm-5.015,0a2.149,2.149,0,0,0-2.151,2.153A2.15,2.15,0,0,0,12.276,14.4a2.149,2.149,0,0,0,1.524-.63,2.175,2.175,0,0,0,.63-1.521A2.149,2.149,0,0,0,12.276,10.1Z" transform="translate(0.001 0.002)" fill="#fff"/>
      <path id="패스_161" data-name="패스 161" d="M90.051,23.125h4.405v4.1a12.7,12.7,0,0,1-3.9.607c-4.861,0-6.481-2.481-6.481-7.494,0-4.785,1.544-7.621,6.405-7.621A6.254,6.254,0,0,1,96,15.2l3.367-3.088c-2.051-2.937-5.646-3.823-9.013-3.823-7.57,0-11.57,4.127-11.57,12.026,0,7.848,3.594,12.1,11.52,12.1,3.645,0,7.189-.936,9.114-2.278V18.771H90.025v4.354ZM66.936,8.618H61.518V32.037H78.151V27.48H66.936Z" transform="translate(-17.365 -2.339)" fill="#fff"/>
    </g>
    <rect id="사각형_589" data-name="사각형 589" width="280" height="80" transform="translate(3069 13796)" fill="none"/>
  </g>
</svg>
