<svg xmlns="http://www.w3.org/2000/svg" width="280" height="80" viewBox="0 0 280 80">
  <g id="그룹_495" data-name="그룹 495" transform="translate(-3069 -13585)">
    <g id="CJ_logo" transform="translate(3178 13598)">
      <path id="패스_162" data-name="패스 162" d="M137.173,159.267c-.92-6.935-4.333-12.591-7.823-12.619-3.49,0-8.588,5.663-11.559,12.63s.391,12.618,7.863,12.618c7.52-.079,12.437-5.681,11.519-12.628" transform="translate(-93.832 -117.895)" fill="#fff"/>
      <path id="패스_163" data-name="패스 163" d="M7.716,116.852h0A7.7,7.7,0,0,0,0,124.841a7.61,7.61,0,0,0,7.716,7.882,8.151,8.151,0,0,0,6.374-3.047,2.3,2.3,0,0,0-2.034-1.071c-1.354,0-1.659,1.356-4.34,1.356a4.946,4.946,0,0,1-4.8-5.119,5.039,5.039,0,0,1,4.8-5.223c2.393,0,2.969,1.423,4.2,1.423a2.928,2.928,0,0,0,2.117-1.139,8.034,8.034,0,0,0-6.317-3.049" transform="translate(0 -93.941)" fill="#fff"/>
      <path id="패스_164" data-name="패스 164" d="M82.582,119.2H76.31a1.633,1.633,0,0,0-1.8,1.648v.925h2.8s.106,9.447-.014,10.467l0,0a4.023,4.023,0,0,1-2.172,3.487,2.223,2.223,0,0,0-1.565,2.378c.021.074.052.119.094.121h.008a.029.029,0,0,0,.017,0c.053-.014,1.464-.361,1.67-.447l-.006-.005a7.132,7.132,0,0,0,4.321-3.2,8.465,8.465,0,0,0,.888-4.384v-8.418h.132a1.724,1.724,0,0,0,1.908-1.648V119.2" transform="translate(-59.129 -95.83)" fill="#fff"/>
      <path id="패스_165" data-name="패스 165" d="M221.647,86.684c-6.542-2.571-13.151-2.3-14.839.746-1.646,3.092.8,10.238,5.45,16.214s11.221,5.777,14.847-.76c3.584-6.516,1.065-13.633-5.458-16.2" transform="translate(-165.847 -68.28)" fill="#fff"/>
      <path id="패스_166" data-name="패스 166" d="M94.7,20.491c5.806,3.966,12.309,5.164,14.612,2.592,2.325-2.592,1.523-10.165-1.684-17.03s-9.658-8.13-14.643-2.567c-4.924,5.557-4.076,13.051,1.715,17" transform="translate(-72.165 0)" fill="#fff"/>
    </g>
    <rect id="사각형_591" data-name="사각형 591" width="280" height="80" transform="translate(3069 13585)" fill="none"/>
  </g>
</svg>
