<svg xmlns="http://www.w3.org/2000/svg" width="280" height="80" viewBox="0 0 280 80">
  <g id="그룹_472" data-name="그룹 472" transform="translate(-4259 -13585)">
    <g id="w_Kazqs6oejfjgzeBHjA5sw7xhukKjQAETq8lfK7SN6J3n61QGw8fAMQvX5oQulWQYxxfToSi0ACdAihI88AkaE9ZhkjACbs6FLnNaCkI5ocYfR1ALNNRcocFcSjB4qhwB44rDHgyW4-Tz2X_d8LkA" transform="translate(4352 13600.996)">
      <path id="패스_156" data-name="패스 156" d="M105.375-309.293a9.494,9.494,0,0,1-2.209,4.155,7.994,7.994,0,0,1-4.042,2.284c-.294.056-.382.1-.382.181s.119.138.557.238a8.3,8.3,0,0,1,6.013,6.169c.138.513.15.538.319.538s.181-.031.244-.269a9.288,9.288,0,0,1,2.753-4.718,7.749,7.749,0,0,1,3.585-1.771c.544-.106.469-.238-.238-.413a9.131,9.131,0,0,1-.97-.294,8.41,8.41,0,0,1-5.031-5.8c-.138-.513-.15-.532-.338-.551S105.438-309.543,105.375-309.293Zm.97,4.868a6.563,6.563,0,0,0,1.927,1.633c.094.044.169.094.169.113s-.106.094-.232.163a7.356,7.356,0,0,0-1.514,1.2,7.036,7.036,0,0,0-.976,1.4c-.056.175-.131.156-.219-.069a6.2,6.2,0,0,0-2.008-2.24c-.294-.2-.582-.382-.626-.407s-.063-.05-.019-.069a6.879,6.879,0,0,0,2.465-2.3l.332-.544.219.388A7.487,7.487,0,0,0,106.345-304.425ZM86.51-303.4a5.047,5.047,0,0,0-2.853,1.589,4.364,4.364,0,0,0-1,1.652,5.428,5.428,0,0,0-.307,1.714,4.253,4.253,0,0,0,.713,2.184c.257.344.25.369-.063.15a17.682,17.682,0,0,1-1.339-1.27c-2.578-2.634-2.784-2.828-3.329-3.185a4.947,4.947,0,0,0-5.124-.569,4.635,4.635,0,0,0-1.727,1.714,4.018,4.018,0,0,0-.019,3.679,3.137,3.137,0,0,0,1.9,1.683,5.654,5.654,0,0,0,3.028-.013c.175-.056.325-.125.325-.156s-.075-.113-.169-.169c-.131-.088-.319-.113-.882-.125a2.861,2.861,0,0,1-2.353-.838,2.264,2.264,0,0,1-.526-1.771,1.934,1.934,0,0,1,1.915-2.034,4.005,4.005,0,0,1,1.789.181c.838.288,1.226.519,4.261,2.572,3.36,2.265,5.932,2.947,8.272,2.184.538-.175.582-.219.407-.394s-.507-.181-1.326-.056a3.468,3.468,0,0,1-3.648-1.865,3.03,3.03,0,0,1,1.3-4.073,3.77,3.77,0,0,1,1.877-.282c1.739.106,3.122.72,6.758,2.978,1.433.895,3.1,1.833,4.067,2.29a5.261,5.261,0,0,0,2.634.688c.169-.044.169-.05.05-.163-.263-.25-8.353-6.363-8.879-6.707a10.976,10.976,0,0,0-3.4-1.5A7.072,7.072,0,0,0,86.51-303.4Zm36.478-.025A10.7,10.7,0,0,0,119-301.816c-.238.15-2.359,1.739-4.718,3.535a49.668,49.668,0,0,0-4.2,3.31,4.277,4.277,0,0,0,2.49-.544c.688-.3,2.69-1.408,3.785-2.09,3.7-2.3,5.031-2.947,6.626-3.222a4.935,4.935,0,0,1,1.871,0,2.961,2.961,0,0,1,1.946,4.286,3.449,3.449,0,0,1-3.642,1.871c-.838-.131-1.17-.113-1.339.056s-.144.2.513.413c2.34.751,4.905.025,8.447-2.39,2.622-1.789,3.46-2.278,4.317-2.5a4.849,4.849,0,0,1,1.946,0,2,2,0,0,1,1.42,2.29,2.1,2.1,0,0,1-.613,1.564,2.976,2.976,0,0,1-2.253.713c-.576.013-.763.038-.895.125-.094.056-.169.131-.169.163a2.679,2.679,0,0,0,1.032.319,6.352,6.352,0,0,0,1.921-.031,3.306,3.306,0,0,0,2.315-1.783,3.631,3.631,0,0,0,.407-1.971,3.979,3.979,0,0,0-2.766-3.7,3.174,3.174,0,0,0-1.377-.175,3.976,3.976,0,0,0-2.059.419c-1.1.463-1.915,1.151-4.13,3.51a14.318,14.318,0,0,1-1.915,1.758c-.05.038.019-.069.144-.244a3.741,3.741,0,0,0,.776-2.6,4.426,4.426,0,0,0-.513-1.977,5.182,5.182,0,0,0-3.216-2.6A7.02,7.02,0,0,0,122.988-303.424ZM58.2-288.313a1.3,1.3,0,0,0,.294.544,1.665,1.665,0,0,0,.588.2,6.261,6.261,0,0,1,.626.15.981.981,0,0,1,.494.638c.044.156.056,2.822.05,7.834-.019,7.171-.025,7.6-.131,7.8-.156.288-.432.432-.97.519a1.315,1.315,0,0,0-.638.225c-.175.144-.338.476-.269.544.025.019,3.354.038,7.408.038h7.364l.038-.238c.094-.613.419-4.092.388-4.123-.056-.063-.576.163-.713.313a3.9,3.9,0,0,0-.375.713,3.312,3.312,0,0,1-1.777,2.015,7.527,7.527,0,0,1-3.7.695c-1.089,0-1.151-.006-1.483-.163a1.4,1.4,0,0,1-.77-.682c-.138-.244-.138-.3-.156-4.023l-.019-3.767h1.583c1.783.006,2.359.075,2.878.357.394.213.551.482.745,1.27.138.563.357.876.619.876.125,0,.125-.05.125-2.816,0-2.734-.006-2.816-.119-2.816a.618.618,0,0,0-.307.156c-.15.125-.213.263-.319.7-.194.807-.35,1.076-.745,1.289-.519.282-1.095.35-2.872.357H64.454v-8.09l1.771.038a11.871,11.871,0,0,1,2.39.169,7.007,7.007,0,0,1,1.821.669,3.031,3.031,0,0,1,1.283,2.04c.144.576.325.826.619.87l.156.019v-.738c0-.4-.006-1.383-.019-2.171l-.013-1.439H65.33C61.407-288.345,58.2-288.332,58.2-288.313Zm17.876.169c-.05.275-.075,4.111-.025,4.155.063.063.457-.1.6-.25a1.887,1.887,0,0,0,.263-.607,3.979,3.979,0,0,1,.932-1.764,5.068,5.068,0,0,1,1.84-.914,10.885,10.885,0,0,1,2.309-.257h.482l-.013,8.147-.019,8.153-.15.263c-.2.35-.526.507-1.233.588-.307.038-.626.081-.707.094a.782.782,0,0,0-.507.551v.163h9.511v-.144c0-.369-.332-.569-1.014-.632-.957-.081-1.4-.338-1.545-.895-.044-.163-.069-2.853-.069-8.265v-8.021h.526a7.557,7.557,0,0,1,3.279.632,3.057,3.057,0,0,1,1.727,2.2,3.614,3.614,0,0,0,.288.695c.138.175.544.338.619.257.025-.031.031-1.014.013-2.184l-.038-2.127-8.516-.019-8.522-.013Zm19.04-.106a.769.769,0,0,0,.363.551,3.013,3.013,0,0,0,.619.163,1.054,1.054,0,0,1,.882.526c.1.181.106.657.144,5.863.031,4.787.05,5.756.138,6.257.444,2.628,1.671,4.3,3.673,4.993a6.367,6.367,0,0,0,2.221.35,5.715,5.715,0,0,0,4.117-1.646,5.335,5.335,0,0,0,1.151-1.533l.257-.5.025,1.026c.019.926.038,1.057.163,1.3a1.915,1.915,0,0,0,.876.876l.357.175,2.4.019c2.271.019,2.39.013,2.39-.094a.99.99,0,0,0-.357-.569,2.9,2.9,0,0,0-.557-.131c-.763-.131-.976-.344-1.089-1.114-.038-.263-.063-3.541-.063-8.516v-8.084h-6.194v.156a.623.623,0,0,0,.175.344c.138.156.257.206.663.282.638.119.845.244,1.039.626l.156.313.019,5.863c.019,6.551.038,6.194-.425,7.12a7.05,7.05,0,0,1-1.283,1.739,3.252,3.252,0,0,1-4.4-.063,4.763,4.763,0,0,1-1.189-2.916c-.044-.432-.069-2.778-.069-7.052v-6.413h-3.1C95.458-288.345,95.113-288.332,95.113-288.251Zm22.337-.063a1.336,1.336,0,0,0,.294.544,1.81,1.81,0,0,0,.607.206c.582.106.832.244,1.007.532.125.219.125.288.125,7.946s0,7.727-.125,7.946a1.246,1.246,0,0,1-.982.507,1.622,1.622,0,0,0-.551.175c-.169.119-.388.494-.338.582s8.3.063,9.192-.019a10.909,10.909,0,0,0,4.13-1.151,9.835,9.835,0,0,0,2.791-2.034,8.336,8.336,0,0,0,2.615-5.688,8.926,8.926,0,0,0-.838-4.636,9.675,9.675,0,0,0-6.413-4.524c-1.527-.375-1.571-.375-6.739-.4C119.6-288.345,117.451-288.338,117.451-288.313Zm8.14.588a6.508,6.508,0,0,1,3.829,1.758,7.674,7.674,0,0,1,2.24,5.118,23.624,23.624,0,0,1-.119,4.392,8.137,8.137,0,0,1-1.377,3.5,7.2,7.2,0,0,1-2.559,2.077,4.861,4.861,0,0,1-2.177.451c-.751.006-.838-.006-1.12-.15a.85.85,0,0,1-.438-.407c-.131-.25-.131-.319-.15-8.528l-.013-8.272h.669C124.753-287.781,125.3-287.756,125.591-287.725Zm12.195-.519a.855.855,0,0,0,.425.576,2.33,2.33,0,0,0,.482.106,1.145,1.145,0,0,1,.982.544l.144.269v15.267l-.131.288c-.156.332-.388.469-.976.563-.482.075-.713.194-.832.432-.213.407-.845.375,7.289.375,5.857,0,7.4-.019,7.415-.081.038-.106.463-4.261.438-4.286a.715.715,0,0,0-.263.044,1.29,1.29,0,0,0-.77.82,5.227,5.227,0,0,1-.851,1.483,5.51,5.51,0,0,1-2.928,1.3,13.291,13.291,0,0,1-3.122.006,1.678,1.678,0,0,1-.863-.682l-.15-.263-.019-3.8-.019-3.811,1.8.031a11.271,11.271,0,0,1,2.115.119c.807.238,1.039.513,1.251,1.477a4.108,4.108,0,0,0,.169.563.755.755,0,0,0,.488.325,22.529,22.529,0,0,0,.063-2.816,22.529,22.529,0,0,0-.063-2.816.755.755,0,0,0-.488.325,4.111,4.111,0,0,0-.169.563c-.213.964-.444,1.239-1.251,1.477a11.232,11.232,0,0,1-2.109.119l-1.8.031v-8.1l1.739.038a9.423,9.423,0,0,1,3.122.357,4.589,4.589,0,0,1,1.621.888,4.287,4.287,0,0,1,.745,1.583c.144.588.25.776.5.882a1.5,1.5,0,0,0,.25.088c.019,0,.025-.976.019-2.177l-.019-2.171-7.114-.019C138.349-288.345,137.786-288.338,137.786-288.244Z" transform="translate(-58.198 309.552)" fill="#fff"/>
    </g>
    <rect id="사각형_573" data-name="사각형 573" width="280" height="80" transform="translate(4259 13585)" fill="none"/>
  </g>
</svg>
