<svg xmlns="http://www.w3.org/2000/svg" width="280" height="80" viewBox="0 0 280 80">
  <g id="그룹_494" data-name="그룹 494" transform="translate(-4259 -13902)">
    <g id="LJMCd8e6YnhnGJ_fvC0k6xJqPLh4hfFQdGQA0bJBOiGpHOj90_5yvLbq_4W_T88xw7CmmByM5lZSIFubEGYluiXu-S5DAOYZnB9jYm8Ulg3gPsq-TCcbrLFnjuLvLn3Fvke84EYf8V8e5yLz3KO5Ug" transform="translate(4339 13926.002)">
      <path id="빼기_1" data-name="빼기 1" d="M9.266,25.876h0a16.572,16.572,0,0,1-2.95-1.322,13.487,13.487,0,0,1-2.247-1.618A12.047,12.047,0,0,1,1.3,19.312,12.571,12.571,0,0,1,.2,16,11.173,11.173,0,0,1,0,14.011V0H18.538V14.011A11.155,11.155,0,0,1,18.34,16a12.568,12.568,0,0,1-1.1,3.308,12.052,12.052,0,0,1-2.771,3.624,13.5,13.5,0,0,1-2.249,1.618,16.585,16.585,0,0,1-2.951,1.322ZM7.613,13.527h0l-4.9,4.9L4.85,20.561l2.776-2.8,2.747,2.747H14.01V12.543h2.382v-2.9H14.01v-.86h2.382V6.113H13.927V2.7H6.263V5.337h4.675V16.818L7.613,13.527Z" transform="translate(101.72 -0.002)" fill="#fff"/>
      <path id="패스_152" data-name="패스 152" d="M-174.98,0h-5.64V16.97c0,4.353-.735,6.564-4.767,6.564-3.887,0-4.648-2.408-4.648-6.564V0h-5.839V17.25c0,4.887,1.27,9.41,10.487,9.41,9.323,0,10.61-4.523,10.61-9.41V0Z" transform="translate(245.879 5.338)" fill="#fff"/>
      <path id="패스_153" data-name="패스 153" d="M-128.812-219.834h5.841v-26.249h-5.841v10.87h-9.537v-10.87h-5.843v26.249h5.843V-231.6h9.537Z" transform="translate(219.295 251.42)" fill="#fff"/>
      <path id="패스_154" data-name="패스 154" d="M-138.113,0V17.618L-148.345,0H-154.6V26.249h5.436l0-18.557L-138.4,26.249h5.718V0h-5.434Z" transform="translate(178.627 5.338)" fill="#fff"/>
      <path id="패스_155" data-name="패스 155" d="M-102.276-89.229c-3.351-1.456-6.246-2.715-6.246-4.843,0-1.479,1.632-2.492,4.059-2.475a26.284,26.284,0,0,1,8.884,1.871l.326.136v-4.548l-.108-.019a56.209,56.209,0,0,0-8.28-.776c-6.79,0-10.847,2.567-10.847,6.863,0,4.538,4.516,6.6,8.5,8.418,3.3,1.5,6.4,2.923,6.4,5.493,0,2.764-4.215,2.876-4.7,2.876a20.74,20.74,0,0,1-9.363-2.658l-.343-.176v5.05l.4.093a37.791,37.791,0,0,0,8.348,1.113c7.9,0,12.078-2.726,12.078-7.874,0-4.584-4.843-6.689-9.118-8.545" transform="translate(114.487 104.808)" fill="#fff"/>
    </g>
    <rect id="사각형_567" data-name="사각형 567" width="280" height="80" transform="translate(4259 13902)" fill="none"/>
  </g>
</svg>
