<svg xmlns="http://www.w3.org/2000/svg" width="280" height="80" viewBox="0 0 280 80">
  <g id="그룹_479" data-name="그룹 479" transform="translate(-3653 -13690.714)">
    <rect id="사각형_582" data-name="사각형 582" width="280" height="80" transform="translate(3653 13690.714)" fill="none"/>
    <g id="그룹_7750" data-name="그룹 7750" transform="translate(5686 22011.063)">
      <path id="패스_13" data-name="패스 13" d="M1540.872,75.472h-4.042V59.431l-5.558,16.041-4.613-.005L1521.044,59.3c0,5.275,0,16.167,0,16.167H1517V54h5.558l6.377,16.915L1535.315,54s3.894,0,5.557,0Z" transform="translate(-3327.286 -8345.17)" fill="#fff"/>
      <path id="패스_14" data-name="패스 14" d="M327.789,75.5H324V54.051c1.04,0,3.284.013,3.284.013s2.849,4.005,4.149,5.866c2.315,3.314,7.219,10.281,7.219,10.281s.015-10.817.015-16.152c1.281,0,2.516-.009,3.78-.009,0,7.1,0,21.462,0,21.462l-4.678,0S328.5,62.2,327.789,61.207Z" transform="translate(-2284.971 -8345.214)" fill="#fff"/>
      <path id="패스_15" data-name="패스 15" d="M674.218,60.6V63s.758,10.231-10.231,10.231S653.882,63,653.882,63V60.6a9.489,9.489,0,0,1,2.675-7.074c1.5-1.44,3.821-2.525,7.429-2.525C674.723,51,674.218,60.6,674.218,60.6Zm-4.294-.632s0-5.81-5.936-5.81-5.81,5.81-5.81,5.81V64.01s-.253,6.063,5.81,6.063,5.936-6.063,5.936-6.063Z" transform="translate(-2573.172 -8342.549)" fill="#fff"/>
      <path id="패스_16" data-name="패스 16" d="M1370.271,66.421c1.775,2.982,5.412,9.05,5.412,9.05h-4.168l-5.052-8.451-4.421-.011v8.463H1358V54h10.231a5.918,5.918,0,0,1,6.063,6.315C1374.294,64.1,1372.131,65.925,1370.271,66.421Zm-8.229-2.44,5.431,0s2.021.126,2.653-2.526V59.683a2.66,2.66,0,0,0-2.4-2.526h-5.684Z" transform="translate(-3188.369 -8345.169)" fill="#fff"/>
      <path id="패스_17" data-name="패스 17" d="M1025.315,54V75.472H1021.4V66h-10.484v9.473H1007V54h3.916v8.589H1021.4V54Z" transform="translate(-2881.703 -8345.17)" fill="#fff"/>
      <path id="패스_18" data-name="패스 18" d="M508,75.472V54h15.283l-.758,3.158h-10.61v5.431H522.4L521.641,66h-9.726s-.035,3.684,0,4.968a1.335,1.335,0,0,0,1.512,1.348h10.484l-.884,3.158Z" transform="translate(-2445.73 -8345.17)" fill="#fff"/>
      <path id="패스_19" data-name="패스 19" d="M1174.976,75.458H1171L1178.7,54h5.81l7.735,21.463-3.946-.02-1.642-4.894-10.1-.008Zm10.549-8.07-3.158-9.6h-1.516l-3.158,9.6Z" transform="translate(-3024.988 -8345.17)" fill="#fff"/>
      <path id="패스_20" data-name="패스 20" d="M850.042,67.768v7.7H846V54h10.862s4.926.253,5.535,4.763a11.11,11.11,0,0,1-.208,4.816c-1.032,4.441-6.716,4.188-6.716,4.188Zm0-3.154,5.81,0a3.049,3.049,0,0,0,2.526-2.652V59.684a2.834,2.834,0,0,0-2.526-2.525h-5.81Z" transform="translate(-2741.038 -8345.17)" fill="#fff"/>
      <path id="패스_21" data-name="패스 21" d="M24.3,27.314H20.013A5.012,5.012,0,0,1,15,22.3v-.351A8.951,8.951,0,0,1,23.951,13H24.3a5.013,5.013,0,0,1,5.013,5.013V22.3A5.013,5.013,0,0,1,24.3,27.314Z" transform="translate(-2015 -8309.348)" fill="#fff"/>
      <path id="패스_22" data-name="패스 22" d="M162.013,27.306H166.3a5.013,5.013,0,0,0,5.013-5.013v-.351a8.951,8.951,0,0,0-8.951-8.951h-.351A5.015,5.015,0,0,0,157,18v4.289A5.012,5.012,0,0,0,162.013,27.306Z" transform="translate(-2139.064 -8309.34)" fill="#fff"/>
      <path id="패스_23" data-name="패스 23" d="M24.3,153H20.013A5.013,5.013,0,0,0,15,158.013v.351a8.951,8.951,0,0,0,8.951,8.951H24.3a5.013,5.013,0,0,0,5.013-5.013v-4.289A5.014,5.014,0,0,0,24.3,153Z" transform="translate(-2015 -8431.665)" fill="#fff"/>
      <path id="패스_24" data-name="패스 24" d="M162.013,153H166.3a5.013,5.013,0,0,1,5.013,5.013v.351a8.951,8.951,0,0,1-8.951,8.951h-.351A5.013,5.013,0,0,1,157,162.3v-4.289A5.013,5.013,0,0,1,162.013,153Z" transform="translate(-2139.064 -8431.665)" fill="#fff"/>
    </g>
  </g>
</svg>
