<svg xmlns="http://www.w3.org/2000/svg" width="280" height="80" viewBox="0 0 280 80">
  <g id="그룹_512" data-name="그룹 512" transform="translate(-3954 -13902)">
    <path id="YWJSMKXR98eAI_HtxOEA46vH0WELg9M_rWQnBm8ov8YVHjT7uMhaYaLUf2VjP-560ahmqvTAJUxFqncozrg6wbuR7d9FOyKXaOh5wphwAErveplWDewwaUsJZUqfmieYGlNSOgSfEyOfJE3IQb8qsQ" d="M82.9,66.713q.017.351.02.7v.013A15.974,15.974,0,0,1,67.646,83.408q-.52.023-1.041.014A16,16,0,0,1,51.022,69.184q-.055-.514-.076-1.03-.017-.348-.02-.7v-.034A16,16,0,0,1,82.9,66.713ZM75.369,59.4c-.936-.259-1.628-.481-1.832-.911a.4.4,0,0,1,.1-.5c.144-.105.339-.07.566.04a4.149,4.149,0,0,0,1.06.442c.918.111.75-1.292-.9-2.107a6.217,6.217,0,0,0-3.2-.631,6.8,6.8,0,0,1-1.323-.061c-.6-.093-1.337-.348-1.833-.451-.379-.08-.6-.07-.686.057s-.057.3.174.589a2.713,2.713,0,0,1,.821,2.758c-.926,3.774.342,5.5,1.633,5.784a1.889,1.889,0,0,0,1.8-.432,1.357,1.357,0,0,0,.181-1.669c-.57-.888-.771-1.66-.262-1.981.465-.294,1.127-.023,1.63,1.1.8,1.8,1.851,2.281,2.9,1,.858-1.05.824-2.571-.817-3.024Zm-2.913,9.85c-4.339-2.6-6.491-3.628-8.247-4.882-2.91-2.075-3.37-3.621-3.459-4.7a5.045,5.045,0,0,1,2.781-4.475c.115-.069.311-.229.225-.449s-.352-.179-.451-.157c-3.317.7-6.54,3.625-6.04,7.524.2,1.545,1.182,4.153,6.27,7.149,1.735,1.021,3.233,1.8,5.585,3.142,3.184,1.82,4.65,4.166,2.678,6.725-.15.179-.278.364-.225.526.061.187.307.219.537.116a7.958,7.958,0,0,0,3.36-2.714C76.518,75.344,77.04,71.993,72.456,69.245ZM67.381,79.627a12.472,12.472,0,0,1-1.455-.5,5.4,5.4,0,0,1-1.413-.8.381.381,0,0,1-.057-.53A9.26,9.26,0,0,0,65.6,75.822c.436-1.05.005-1.152-.67-.958-.735.21-1.316.425-1.766.594-.632.236-1.022.38-1.252.268s-.283-.532-.369-1.222a14.712,14.712,0,0,0-.3-1.6c-.272-1.094-.74-.884-1.127-.437a8.485,8.485,0,0,0-.947,1.689c-.107.2-.229.271-.379.239-.333-.071-.774-.588-1.256-1.2-.7-.9-1.016-1.589-1.382-1.631-.777-.091-.432,1.748.3,3.264a9.7,9.7,0,0,0,3.664,4.112,11.913,11.913,0,0,0,7.141,1.551C67.865,80.406,67.984,79.8,67.381,79.627Zm40.047-8.311V58.42a2.332,2.332,0,0,0-.621-1.835c-.3-.373-.1-.7.273-.7h4.242V71.316Zm4.315,4.811v2.8H97.583c-3,0-4.192-.769-4.192-3.274v-3.6a1.9,1.9,0,0,0-.521-1.289c-.3-.373-.1-.72.248-.72h4.217v5.085c0,.769.248.991,1.016.991ZM95.425,58.792a2.25,2.25,0,0,0-.521-1.787c-.3-.371-.1-.719.248-.719h4.29v3.3c0,3.249,3.176,5.158,6.052,6.125l-1.066,2.009c-.323.6-1.537.371-3.671-.943A11.426,11.426,0,0,1,97.608,64a12.486,12.486,0,0,1-3.374,3.274c-1.512.991-3.447,1.935-3.769,1.314l-1.141-2.157c3.3-1.291,6.1-3.448,6.1-6.6Zm36.133,12.872V58.42a2.387,2.387,0,0,0-.6-1.835c-.323-.371-.123-.7.248-.7h4.242v5.854h2.826v2.8h-2.826v7.118Zm-9.8-4.986a2.95,2.95,0,1,0-2.7-2.9,2.683,2.683,0,0,0,2.7,2.9m13.988,9.45v2.8H121.837c-3,0-4.192-.769-4.192-3.274v-2.6a1.915,1.915,0,0,0-.521-1.291c-.3-.371-.1-.719.248-.719h4.217v4.092c0,.769.248.993,1.016.993H135.75Zm-15.8-18.4a2.36,2.36,0,0,0-.522-1.836c-.321-.371-.123-.694.25-.694h4.24v2.778h5.629V60.7h-2.6a4.724,4.724,0,0,1,1.239,3.2c0,3.126-2.305,5.506-6.422,5.506-4.092,0-6.422-2.38-6.422-5.506a4.711,4.711,0,0,1,1.189-3.2h-2.6V57.974h6.027v-.248Zm35.836,21.5V58.445a2.387,2.387,0,0,0-.6-1.835c-.323-.373-.123-.72.248-.72h4.242v8.086h3.224v2.851h-3.224v12.4h-3.894Zm-3.645-17.955a15.411,15.411,0,0,1-4.763,11.756c-3.5,3.422-5.208,3.644-5.629,3.124l-1.614-2.033c3.548-2.083,6.127-4.538,7.318-7.763h-7.911V63.578h8.58a25.315,25.315,0,0,0,.148-2.8V59.611H140.09V56.833h11.458a.519.519,0,0,1,.6.57v3.869Zm13.82-4.267h18.5v2.778H170.354v5.679c0,.868.323,1.562,1.489,1.562H184.59V69.8H170.974c-2.951,0-4.638-.991-4.638-3.5V59.559a2.4,2.4,0,0,0-.6-1.835c-.3-.371-.148-.719.223-.719m21.429,20.038H163.756v-2.8h23.636Z" transform="translate(3975.074 13874.575)" fill="#fff"/>
    <rect id="사각형_576" data-name="사각형 576" width="280" height="80" transform="translate(3954 13902)" fill="none"/>
  </g>
</svg>
