<svg xmlns="http://www.w3.org/2000/svg" width="244.937" height="143.806" viewBox="0 0 244.937 143.806">
  <g id="그룹_2309" data-name="그룹 2309" transform="translate(0 143.805) rotate(-90)">
    <g id="패스_23692" data-name="패스 23692" transform="translate(71.903 0) rotate(45)" fill="none">
      <path d="M1.207,1.207,101.686,0l-1.207,100.479L0,101.686Z" stroke="none"/>
      <path d="M 100.6736831665039 1.012229919433594 L 2.194808959960938 2.194808959960938 L 1.012229919433594 100.6736831665039 L 99.49111938476562 99.49111938476562 L 100.6736831665039 1.012229919433594 M 101.6859130859375 0 L 100.4793319702148 100.4793319702148 L 0 101.6859130859375 L 1.206596374511719 1.206596374511719 L 101.6859130859375 0 Z" stroke="none" fill="#fff"/>
    </g>
    <g id="패스_23694" data-name="패스 23694" transform="translate(71.903 50.991) rotate(45)" fill="none">
      <path d="M1.207,1.207,101.686,0l-1.207,100.479L0,101.686Z" stroke="none"/>
      <path d="M 100.6736831665039 1.012229919433594 L 2.194808959960938 2.194808959960938 L 1.012229919433594 100.6736831665039 L 99.49111938476562 99.49111938476562 L 100.6736831665039 1.012229919433594 M 101.6859130859375 0 L 100.4793319702148 100.4793319702148 L 0 101.6859130859375 L 1.206596374511719 1.206596374511719 L 101.6859130859375 0 Z" stroke="none" fill="#fff"/>
    </g>
    <g id="패스_23698" data-name="패스 23698" transform="translate(71.903 101.132) rotate(45)" fill="none">
      <path d="M1.207,1.207,101.686,0l-1.207,100.479L0,101.686Z" stroke="none"/>
      <path d="M 100.6736831665039 1.012229919433594 L 2.194808959960938 2.194808959960938 L 1.012229919433594 100.6736831665039 L 99.49111938476562 99.49111938476562 L 100.6736831665039 1.012229919433594 M 101.6859130859375 0 L 100.4793319702148 100.4793319702148 L 0 101.6859130859375 L 1.206596374511719 1.206596374511719 L 101.6859130859375 0 Z" stroke="none" fill="#fff"/>
    </g>
    <g id="패스_23693" data-name="패스 23693" transform="translate(71.903 0) rotate(45)" fill="none">
      <path d="M.88.88,74.191,0l-.88,73.311L0,74.191Z" stroke="none"/>
      <path d="M 73.17879486083984 1.012229919433594 L 1.868553161621094 1.868553161621094 L 1.012229919433594 73.17879486083984 L 72.32248687744141 72.32248687744141 L 73.17879486083984 1.012229919433594 M 74.19102478027344 0 L 73.31069183349609 73.31069183349609 L 0 74.19102478027344 L 0.880340576171875 0.880340576171875 L 74.19102478027344 0 Z" stroke="none" fill="#11e4ff"/>
    </g>
  </g>
</svg>
