<svg xmlns="http://www.w3.org/2000/svg" width="270" height="270" viewBox="0 0 270 270">
  <g id="그룹_7802" data-name="그룹 7802" transform="translate(-820 -3022)">
    <g id="그룹_7783" data-name="그룹 7783" transform="translate(845 3024)">
      <g id="패스_23695" data-name="패스 23695" transform="translate(109.511 45.042) rotate(45)" fill="none">
        <path d="M45.6,45.6,154.871,0l-45.6,109.268L0,154.871Z" stroke="none"/>
        <path d="M 153.0116729736328 1.859771728515625 L 46.36741638183594 46.36737823486328 L 1.859786987304688 153.0115051269531 L 108.5039672851562 108.5038070678711 L 153.0116729736328 1.859771728515625 M 154.8714447021484 0 L 109.2685012817383 109.2683410644531 L 0 154.8712768554688 L 45.60288238525391 45.60285949707031 L 154.8714447021484 0 Z" stroke="none" fill="#fff"/>
      </g>
      <g id="패스_23696" data-name="패스 23696" transform="translate(109.511 22.946) rotate(45)" fill="none">
        <path d="M45.6,45.6,154.871,0l-45.6,109.268L0,154.871Z" stroke="none"/>
        <path d="M 153.0116729736328 1.859771728515625 L 46.36741638183594 46.36737823486328 L 1.859786987304688 153.0115051269531 L 108.5039672851562 108.5038070678711 L 153.0116729736328 1.859771728515625 M 154.8714447021484 0 L 109.2685012817383 109.2683410644531 L 0 154.8712768554688 L 45.60288238525391 45.60285949707031 L 154.8714447021484 0 Z" stroke="none" fill="#11e4ff"/>
      </g>
      <g id="패스_23697" data-name="패스 23697" transform="translate(109.511 0) rotate(45)" fill="none">
        <path d="M45.6,45.6,154.871,0l-45.6,109.268L0,154.871Z" stroke="none"/>
        <path d="M 153.0116729736328 1.859771728515625 L 46.36741638183594 46.36737823486328 L 1.859786987304688 153.0115051269531 L 108.5039672851562 108.5038070678711 L 153.0116729736328 1.859771728515625 M 154.8714447021484 0 L 109.2685012817383 109.2683410644531 L 0 154.8712768554688 L 45.60288238525391 45.60285949707031 L 154.8714447021484 0 Z" stroke="none" fill="#fff"/>
      </g>
    </g>
    <rect id="사각형_3106" data-name="사각형 3106" width="270" height="270" transform="translate(820 3022)" fill="none"/>
  </g>
</svg>
