<svg xmlns="http://www.w3.org/2000/svg" width="277.304" height="36" viewBox="0 0 277.304 36">
  <g id="그룹_2807" data-name="그룹 2807" transform="translate(-119 -363.65)" opacity="0.6">
    <g id="그룹_186" data-name="그룹 186" transform="translate(119 363.68)">
      <path id="패스_4" data-name="패스 4" d="M284.18,363.72H291.3l8.374,25.378-3.63,10.582Z" transform="translate(-202.385 -363.715)" fill="#fff"/>
      <path id="패스_5" data-name="패스 5" d="M119,363.72h7.116l8.364,25.349-3.615,10.612Z" transform="translate(-119 -363.715)" fill="#fff"/>
      <path id="패스_6" data-name="패스 6" d="M173.865,392.83l-3.625,10.587,3.536,10.963,3.625-10.587Z" transform="translate(-144.867 -378.41)" fill="#fff"/>
      <path id="패스_7" data-name="패스 7" d="M610.366,370.836l2.441-7.116H583.126l-2.436,7.116Z" transform="translate(-352.068 -363.715)" fill="#fff"/>
      <path id="패스_8" data-name="패스 8" d="M657.431,363.72l-2.441,7.116h9.453l2.436-7.116Z" transform="translate(-389.575 -363.715)" fill="#fff"/>
      <path id="패스_9" data-name="패스 9" d="M443.386,421.97l-2.436,7.121h19.639l2.441-7.121Z" transform="translate(-281.525 -393.12)" fill="#fff"/>
      <path id="패스_10" data-name="패스 10" d="M340.236,392.83l-2.436,7.116h17.128l2.436-7.116Z" transform="translate(-229.453 -378.41)" fill="#fff"/>
      <path id="패스_11" data-name="패스 11" d="M330.656,421.97l-2.436,7.121h17.128l2.436-7.121Z" transform="translate(-224.617 -393.12)" fill="#fff"/>
      <path id="패스_12" data-name="패스 12" d="M209.026,392.84l-2.436,7.121h17.44l2.441-7.121Z" transform="translate(-163.217 -378.415)" fill="#fff"/>
      <path id="패스_13" data-name="패스 13" d="M206.887,363.72l-9.557,7.116h26.963l2.436-7.116Z" transform="translate(-158.542 -363.715)" fill="#fff"/>
      <path id="패스_14" data-name="패스 14" d="M199.046,421.97l-2.436,7.121h17.445l2.436-7.121Z" transform="translate(-158.179 -393.12)" fill="#fff"/>
      <path id="패스_15" data-name="패스 15" d="M578.546,392.83l-2.436,7.116h17.128l2.436-7.116Z" transform="translate(-349.756 -378.41)" fill="#fff"/>
      <path id="패스_16" data-name="패스 16" d="M513.285,429.006l9.562-7.136-19.456.05-2.431,7.1Z" transform="translate(-311.819 -393.07)" fill="#fff"/>
      <path id="패스_17" data-name="패스 17" d="M516.122,363.71l-9.572,7.1,19.426.025,2.436-7.116Z" transform="translate(-314.641 -363.71)" fill="#fff"/>
      <path id="패스_18" data-name="패스 18" d="M414.613,370.836l2.441-7.116H405l-2.441,7.116Z" transform="translate(-262.145 -363.715)" fill="#fff"/>
      <path id="패스_19" data-name="패스 19" d="M407.079,392.83H395.031l-2.441,7.116h12.053Z" transform="translate(-257.112 -378.41)" fill="#fff"/>
      <path id="패스_20" data-name="패스 20" d="M337.647,363.72l-9.557,7.116h27.161l2.436-7.116Z" transform="translate(-224.552 -363.715)" fill="#fff"/>
      <path id="패스_21" data-name="패스 21" d="M274.44,363.76l-3.63,10.587,3.659,11.087h7.121Z" transform="translate(-195.636 -363.735)" fill="#fff"/>
    </g>
    <g id="그룹_187" data-name="그룹 187" transform="translate(130.875 363.65)">
      <path id="패스_22" data-name="패스 22" d="M387.676,363.72l-12.32,35.96H368.24l9.879-28.845Z" transform="translate(-256.695 -363.685)" fill="#ddd"/>
      <path id="패스_23" data-name="패스 23" d="M325.13,378.09l-9.879,28.845H308.13l9.884-28.845Z" transform="translate(-226.35 -370.94)" fill="#ddd"/>
      <path id="패스_24" data-name="패스 24" d="M441.379,363.72H448.5l-12.32,35.96-4.679-7.116Z" transform="translate(-288.629 -363.685)" fill="#ddd"/>
      <path id="패스_25" data-name="패스 25" d="M506.068,378.065l-9.874,28.825-4.675-7.136,7.443-21.714Z" transform="translate(-318.928 -370.914)" fill="#ddd"/>
      <path id="패스_26" data-name="패스 26" d="M540.649,363.65l4.68,7.121-7.438,21.709-7.131.035Z" transform="translate(-338.737 -363.65)" fill="#ddd"/>
      <path id="패스_27" data-name="패스 27" d="M565.791,363.72l-12.32,35.96H546.35l9.884-28.845Z" transform="translate(-346.607 -363.685)" fill="#ddd"/>
      <path id="패스_28" data-name="패스 28" d="M632.985,363.72l4.675,7.116-9.879,28.845H620.66Z" transform="translate(-384.12 -363.685)" fill="#ddd"/>
      <path id="패스_29" data-name="패스 29" d="M151.492,385.77h7.116L150.1,410.816H142.98Z" transform="translate(-142.98 -374.816)" fill="#ddd"/>
      <path id="패스_30" data-name="패스 30" d="M194.38,378.09,184.5,406.935H177.38l9.879-28.845Z" transform="translate(-160.346 -370.94)" fill="#ddd"/>
      <path id="패스_31" data-name="패스 31" d="M251.22,363.72h7.116l-12.32,35.96H238.9Z" transform="translate(-191.402 -363.685)" fill="#ddd"/>
      <path id="패스_32" data-name="패스 32" d="M419.265,363.72l4.675,7.116-2.5,7.3h-7.121L419,385.251l-4.942,14.43H406.94Z" transform="translate(-276.231 -363.685)" fill="#ddd"/>
      <path id="패스_33" data-name="패스 33" d="M278.364,407.53H266.856l-2.436,7.121H273.6Z" transform="translate(-204.285 -385.801)" fill="#ddd"/>
    </g>
  </g>
</svg>
