<svg xmlns="http://www.w3.org/2000/svg" width="36" height="36" viewBox="0 0 36 36">
  <g id="그룹_6912" data-name="그룹 6912" transform="translate(-156 -562)">
    <g id="그룹_516" data-name="그룹 516" transform="translate(164 572)">
      <path id="패스_438" data-name="패스 438" d="M-167.9,119.945a.714.714,0,0,0-.544.233.965.965,0,0,0-.217.681.978.978,0,0,0,.213.676.69.69,0,0,0,.534.236.73.73,0,0,0,.549-.236.935.935,0,0,0,.227-.676.956.956,0,0,0-.22-.678A.708.708,0,0,0-167.9,119.945Z" transform="translate(178.7 -112.943)" fill="#ccc"/>
      <path id="패스_439" data-name="패스 439" d="M-160.877,119.956a.764.764,0,0,0-.569.24.905.905,0,0,0-.232.66.929.929,0,0,0,.232.667.755.755,0,0,0,.569.246.762.762,0,0,0,.569-.243.926.926,0,0,0,.232-.664.923.923,0,0,0-.232-.664A.761.761,0,0,0-160.877,119.956Z" transform="translate(175.905 -112.948)" fill="#ccc"/>
      <path id="패스_440" data-name="패스 440" d="M-178.2,119.956a.757.757,0,0,0-.568.243.916.916,0,0,0-.233.664.919.919,0,0,0,.233.664.759.759,0,0,0,.568.243.766.766,0,0,0,.573-.246.926.926,0,0,0,.236-.667.906.906,0,0,0-.234-.66A.769.769,0,0,0-178.2,119.956Z" transform="translate(182.841 -112.948)" fill="#ccc"/>
      <path id="패스_441" data-name="패스 441" d="M-165.729,110.744a.854.854,0,0,0-.016-.161c0-.023-.014-.046-.021-.069a.672.672,0,0,0-.026-.083.862.862,0,0,0-.043-.081c-.011-.02-.02-.041-.033-.061a.788.788,0,0,0-.1-.125h0a9.532,9.532,0,0,0-5.088-1.895,7.647,7.647,0,0,0-4.508,1.38,7.647,7.647,0,0,0-4.508-1.38,9.529,9.529,0,0,0-5.087,1.895h0a.788.788,0,0,0-.1.125c-.013.019-.021.039-.032.059a.776.776,0,0,0-.044.083c-.01.025-.016.05-.023.075s-.018.051-.023.078a.837.837,0,0,0-.015.149v13.157c0,.023,0,.044.007.066s0,.061.01.092a.762.762,0,0,0,.029.1c.006.018.009.036.016.053a.867.867,0,0,0,.056.107c.007.011.011.023.019.034a.832.832,0,0,0,.231.231l0,0a.777.777,0,0,0,.138.073l.01,0a.813.813,0,0,0,.3.059.847.847,0,0,0,.112-.011c.015,0,.03,0,.045,0a.779.779,0,0,0,.1-.03c.017-.006.034-.009.051-.016a.948.948,0,0,0,.092-.048c.017-.01.034-.017.05-.028a.782.782,0,0,0,.1-.08c.009-.008.019-.013.027-.022a6.789,6.789,0,0,1,3.931-1.418,6.788,6.788,0,0,1,3.93,1.417.817.817,0,0,0,.579.239.817.817,0,0,0,.429-.123l.02-.011a.94.94,0,0,0,.077-.062c.017-.014.036-.026.052-.043a6.787,6.787,0,0,1,3.93-1.418,6.788,6.788,0,0,1,3.93,1.417c.008.008.017.013.026.021a.781.781,0,0,0,.1.08.766.766,0,0,0,.069.038c.024.013.047.027.072.038a.884.884,0,0,0,.086.026c.023.007.044.016.067.02a.807.807,0,0,0,.161.016.807.807,0,0,0,.161-.016c.025,0,.047-.014.07-.02s.056-.015.083-.026a.851.851,0,0,0,.077-.041.673.673,0,0,0,.065-.035.849.849,0,0,0,.125-.1h0c.007-.008.012-.016.019-.023a.843.843,0,0,0,.082-.1c.014-.022.025-.046.037-.068a.7.7,0,0,0,.038-.073.726.726,0,0,0,.026-.085c.007-.023.016-.045.02-.069a.864.864,0,0,0,.014-.142c0-.006,0-.012,0-.019V110.744Zm-13.3,6.43a1.608,1.608,0,0,1-.582.664,1.51,1.51,0,0,1-.822.233,1.42,1.42,0,0,1-.676-.154,1.209,1.209,0,0,1-.454-.41v.512h-1.124v-4.863h1.124v1.716a1.153,1.153,0,0,1,.454-.414,1.4,1.4,0,0,1,.676-.158,1.519,1.519,0,0,1,.822.23,1.585,1.585,0,0,1,.582.657,2.192,2.192,0,0,1,.213.992A2.217,2.217,0,0,1-179.025,117.174Zm1.928.844h-1.123v-4.863h1.123Zm4.15-.838a1.7,1.7,0,0,1-.689.66,2.055,2.055,0,0,1-.977.23,2.01,2.01,0,0,1-.968-.23,1.68,1.68,0,0,1-.678-.657,1.963,1.963,0,0,1-.246-1,1.953,1.953,0,0,1,.25-1,1.694,1.694,0,0,1,.683-.66,2.045,2.045,0,0,1,.973-.23,2.046,2.046,0,0,1,.973.23,1.69,1.69,0,0,1,.683.66,1.959,1.959,0,0,1,.251,1A1.92,1.92,0,0,1-172.947,117.18Zm4.5.832a2.088,2.088,0,0,1-.2.917,1.539,1.539,0,0,1-.612.654,1.982,1.982,0,0,1-1.023.243,2.13,2.13,0,0,1-1.321-.384,1.45,1.45,0,0,1-.577-1.042h1.111a.532.532,0,0,0,.249.332.913.913,0,0,0,.486.122.763.763,0,0,0,.555-.2.856.856,0,0,0,.207-.641v-.519a1.246,1.246,0,0,1-.452.417,1.371,1.371,0,0,1-.678.161,1.508,1.508,0,0,1-.822-.233,1.609,1.609,0,0,1-.58-.664,2.186,2.186,0,0,1-.215-1,2.161,2.161,0,0,1,.215-.992,1.587,1.587,0,0,1,.58-.657,1.516,1.516,0,0,1,.822-.23,1.4,1.4,0,0,1,.681.158,1.159,1.159,0,0,1,.449.414v-.52h1.124Z" transform="translate(185.403 -108.269)" fill="#ccc"/>
    </g>
    <rect id="사각형_2778" data-name="사각형 2778" width="36" height="36" transform="translate(156 562)" fill="none"/>
  </g>
</svg>
