<svg xmlns="http://www.w3.org/2000/svg" xmlns:xlink="http://www.w3.org/1999/xlink" width="36" height="36" viewBox="0 0 36 36">
  <defs>
    <clipPath id="clip-path">
      <rect id="사각형_426" data-name="사각형 426" width="18.377" height="18.373" fill="#ccc"/>
    </clipPath>
  </defs>
  <g id="그룹_6913" data-name="그룹 6913" transform="translate(-103 -562)">
    <g id="그룹_515" data-name="그룹 515" transform="translate(112 571)">
      <g id="그룹_1028" data-name="그룹 1028" transform="translate(0 0)" clip-path="url(#clip-path)">
        <g id="그룹_1027" data-name="그룹 1027" transform="translate(0 0.002)">
          <g id="그룹_1026" data-name="그룹 1026">
            <path id="패스_416" data-name="패스 416" d="M-35.307,3.583a4.71,4.71,0,0,0-4.71,4.71A4.71,4.71,0,0,0-35.307,13a4.71,4.71,0,0,0,4.71-4.71h0a4.7,4.7,0,0,0-4.7-4.71Zm0,7.773A3.063,3.063,0,0,1-38.37,8.293a3.062,3.062,0,0,1,3.063-3.063,3.062,3.062,0,0,1,3.063,3.063A3.069,3.069,0,0,1-35.307,11.356Zm6-7.966a1.1,1.1,0,0,1-1.1,1.1,1.1,1.1,0,0,1-1.1-1.1,1.1,1.1,0,0,1,1.1-1.1,1.1,1.1,0,0,1,1.1,1.094Zm3.12,1.115A5.435,5.435,0,0,0-27.669.656,5.472,5.472,0,0,0-31.519-.828c-1.517-.086-6.063-.086-7.58,0A5.464,5.464,0,0,0-42.949.651,5.454,5.454,0,0,0-44.433,4.5c-.086,1.517-.086,6.063,0,7.58a5.438,5.438,0,0,0,1.484,3.85A5.479,5.479,0,0,0-39.1,17.415c1.517.086,6.063.086,7.58,0a5.442,5.442,0,0,0,3.849-1.484,5.474,5.474,0,0,0,1.485-3.846c.086-1.517.086-6.059,0-7.576Zm-1.959,9.2a3.1,3.1,0,0,1-1.746,1.748c-1.209.482-4.079.369-5.416.369s-4.208.1-5.412-.369a3.1,3.1,0,0,1-1.746-1.746c-.482-1.209-.369-4.079-.369-5.416s-.107-4.211.369-5.416a3.1,3.1,0,0,1,1.746-1.747C-39.51.65-36.64.762-35.3.762s4.211-.107,5.416.369a3.1,3.1,0,0,1,1.742,1.746c.482,1.209.369,4.079.369,5.416S-27.665,12.5-28.144,13.709Z" transform="translate(44.497 0.892)" fill="#ccc"/>
          </g>
        </g>
      </g>
    </g>
    <rect id="사각형_2777" data-name="사각형 2777" width="36" height="36" transform="translate(103 562)" fill="none"/>
  </g>
</svg>
