<svg xmlns="http://www.w3.org/2000/svg" width="60" height="60" viewBox="0 0 60 60">
  <g id="그룹_1029" data-name="그룹 1029" transform="translate(-315 -13664)">
    <g id="타원_18" data-name="타원 18" transform="translate(315 13664)" fill="none" stroke="#ccc" stroke-width="1">
      <circle cx="30" cy="30" r="30" stroke="none"/>
      <circle cx="30" cy="30" r="29.5" fill="none"/>
    </g>
    <g id="그룹_516" data-name="그룹 516" transform="translate(514.403 13571.731)">
      <path id="패스_438" data-name="패스 438" d="M-167.388,119.945a1.19,1.19,0,0,0-.908.388,1.61,1.61,0,0,0-.362,1.136,1.631,1.631,0,0,0,.356,1.128,1.15,1.15,0,0,0,.891.394,1.217,1.217,0,0,0,.915-.394,1.559,1.559,0,0,0,.378-1.128,1.6,1.6,0,0,0-.367-1.13A1.181,1.181,0,0,0-167.388,119.945Z" fill="#ccc"/>
      <path id="패스_439" data-name="패스 439" d="M-160.342,119.956a1.274,1.274,0,0,0-.949.4,1.51,1.51,0,0,0-.387,1.1,1.549,1.549,0,0,0,.387,1.113,1.259,1.259,0,0,0,.949.411,1.271,1.271,0,0,0,.949-.405,1.544,1.544,0,0,0,.387-1.107,1.539,1.539,0,0,0-.387-1.107A1.268,1.268,0,0,0-160.342,119.956Z" fill="#ccc"/>
      <path id="패스_440" data-name="패스 440" d="M-177.667,119.956a1.262,1.262,0,0,0-.947.406,1.527,1.527,0,0,0-.389,1.107,1.532,1.532,0,0,0,.389,1.107,1.265,1.265,0,0,0,.947.405,1.278,1.278,0,0,0,.955-.411,1.544,1.544,0,0,0,.394-1.113,1.511,1.511,0,0,0-.39-1.1A1.282,1.282,0,0,0-177.667,119.956Z" fill="#ccc"/>
      <path id="패스_441" data-name="패스 441" d="M-152.6,112.4a1.425,1.425,0,0,0-.027-.268c-.008-.039-.023-.076-.035-.115a1.118,1.118,0,0,0-.043-.139,1.436,1.436,0,0,0-.071-.135c-.019-.034-.033-.069-.055-.1a1.315,1.315,0,0,0-.171-.208h0c-.171-.17-4.223-3.16-8.484-3.16a12.752,12.752,0,0,0-7.518,2.3,12.753,12.753,0,0,0-7.518-2.3c-4.26,0-8.313,2.99-8.483,3.16h0a1.315,1.315,0,0,0-.171.208c-.021.031-.035.065-.053.1a1.294,1.294,0,0,0-.073.138c-.017.041-.026.083-.039.125s-.03.085-.039.13a1.394,1.394,0,0,0-.025.249l0,.019v21.922c0,.038.008.073.011.11s.006.1.016.153a1.274,1.274,0,0,0,.049.166c.01.03.015.06.027.088a1.444,1.444,0,0,0,.093.179c.012.018.019.038.031.057a1.387,1.387,0,0,0,.385.386l.007,0a1.3,1.3,0,0,0,.23.122l.016.005a1.356,1.356,0,0,0,.5.1,1.413,1.413,0,0,0,.186-.018c.025,0,.05,0,.075-.008a1.3,1.3,0,0,0,.172-.05c.028-.01.057-.015.085-.026a1.58,1.58,0,0,0,.153-.08c.028-.016.057-.028.084-.046a1.3,1.3,0,0,0,.164-.133c.015-.013.031-.022.045-.036a11.322,11.322,0,0,1,6.555-2.364,11.319,11.319,0,0,1,6.553,2.363,1.362,1.362,0,0,0,.965.4,1.362,1.362,0,0,0,.715-.205c.011-.007.023-.011.034-.018a1.559,1.559,0,0,0,.128-.1c.028-.024.06-.044.087-.071a11.318,11.318,0,0,1,6.554-2.364,11.32,11.32,0,0,1,6.554,2.363c.013.013.029.022.043.035a1.3,1.3,0,0,0,.164.133,1.28,1.28,0,0,0,.115.063c.04.021.078.045.12.063a1.474,1.474,0,0,0,.143.044c.038.011.074.026.112.033a1.346,1.346,0,0,0,.268.027,1.346,1.346,0,0,0,.268-.027c.041-.008.078-.023.117-.034s.093-.025.138-.043a1.418,1.418,0,0,0,.128-.068,1.12,1.12,0,0,0,.108-.058,1.416,1.416,0,0,0,.208-.17h0c.012-.013.02-.027.032-.039a1.4,1.4,0,0,0,.137-.169c.024-.036.041-.076.062-.114a1.156,1.156,0,0,0,.063-.121,1.208,1.208,0,0,0,.044-.141c.011-.039.026-.075.034-.115a1.441,1.441,0,0,0,.024-.236c0-.01,0-.02,0-.031V112.4Zm-22.173,10.722a2.681,2.681,0,0,1-.97,1.107,2.519,2.519,0,0,1-1.37.388,2.368,2.368,0,0,1-1.128-.257,2.016,2.016,0,0,1-.757-.684v.854h-1.874v-8.11h1.874v2.861a1.923,1.923,0,0,1,.757-.69,2.343,2.343,0,0,1,1.128-.264,2.533,2.533,0,0,1,1.37.384,2.643,2.643,0,0,1,.97,1.1,3.655,3.655,0,0,1,.356,1.654A3.7,3.7,0,0,1-174.768,123.118Zm3.215,1.408h-1.873v-8.11h1.873Zm6.921-1.4a2.838,2.838,0,0,1-1.149,1.1,3.428,3.428,0,0,1-1.63.384,3.353,3.353,0,0,1-1.614-.384,2.8,2.8,0,0,1-1.13-1.095,3.273,3.273,0,0,1-.411-1.665,3.257,3.257,0,0,1,.417-1.661,2.825,2.825,0,0,1,1.139-1.1,3.41,3.41,0,0,1,1.622-.384,3.411,3.411,0,0,1,1.623.384,2.819,2.819,0,0,1,1.139,1.1,3.267,3.267,0,0,1,.418,1.661A3.2,3.2,0,0,1-164.632,123.128Zm7.5,1.387a3.482,3.482,0,0,1-.333,1.529,2.567,2.567,0,0,1-1.02,1.09,3.3,3.3,0,0,1-1.706.4,3.552,3.552,0,0,1-2.2-.641,2.417,2.417,0,0,1-.963-1.737h1.853a.887.887,0,0,0,.415.554,1.523,1.523,0,0,0,.811.2,1.272,1.272,0,0,0,.926-.334,1.428,1.428,0,0,0,.345-1.069v-.866a2.078,2.078,0,0,1-.754.7,2.286,2.286,0,0,1-1.13.268,2.514,2.514,0,0,1-1.37-.388,2.684,2.684,0,0,1-.968-1.107,3.646,3.646,0,0,1-.359-1.661,3.6,3.6,0,0,1,.359-1.654,2.646,2.646,0,0,1,.968-1.1,2.528,2.528,0,0,1,1.37-.384,2.34,2.34,0,0,1,1.135.264,1.934,1.934,0,0,1,.749.69v-.867h1.875Z" fill="#ccc"/>
    </g>
  </g>
</svg>
