<svg xmlns="http://www.w3.org/2000/svg" width="800" height="565" viewBox="0 0 800 565">
  <g id="그룹_5019" data-name="그룹 5019" transform="translate(-560 -6635)">
    <g id="그룹_4953" data-name="그룹 4953" transform="translate(-9 17)">
      <rect id="사각형_2065" data-name="사각형 2065" width="226" height="281" rx="6" transform="translate(600 6760)" fill="#182e3c"/>
      <g id="구성_요소_16_555" data-name="구성 요소 16 – 555" transform="translate(617 6829)">
        <rect id="사각형_2072" data-name="사각형 2072" width="93" height="32" rx="4" fill="#2a4252"/>
        <path id="패스_27421" data-name="패스 27421" d="M-12.584-10.3h-1.222V1.066h1.222Zm-9.36,8.32.65.988c3.9-1.872,5.317-4.758,5.33-8.086h-5.408v.962H-17.2C-17.433-5.46-18.9-3.406-21.944-1.976ZM-8.268-9.854h-1.2v4.576H-6.24v1.144h-4.576v.962H-.442v-.962H-5.018V-5.278h3.224V-9.854h-1.2v1.326H-8.268ZM-9.49.832h7.878V-.13H-8.294V-2.34h-1.2ZM-8.268-6.24V-7.566H-2.99V-6.24ZM9.906-10.3H8.71v1.95H6.292v.988H8.71v2.912h1.2ZM.39-5.356l.624.962A4.587,4.587,0,0,0,3.835-7.033,4.575,4.575,0,0,0,6.526-4.654l.65-.936A3.645,3.645,0,0,1,4.42-8.944v-.988h-1.2v.988A3.832,3.832,0,0,1,.39-5.356ZM2.47-2.964H8.71v.988H2.5V.936h7.8V-.026H3.666V-1.092h6.24V-3.9H2.47ZM21.138-10.3h-1.2v2.912H17.81V-6.4h2.132v2.86h1.2ZM11.648-4.55l.624.962a4.843,4.843,0,0,0,2.873-2.8A4.549,4.549,0,0,0,17.836-3.9l.624-.962a3.737,3.737,0,0,1-2.73-3.432v-.234h2.444v-.988H12.038v.988h2.47v.26A4.1,4.1,0,0,1,11.648-4.55Zm1.82,3.484c0,1.352,1.469,2.132,3.848,2.132s3.848-.78,3.848-2.132S19.708-3.211,17.316-3.2C14.937-3.211,13.468-2.418,13.468-1.066Zm1.2,0c0-.767.988-1.209,2.652-1.222,1.664.013,2.652.455,2.652,1.222S18.98.143,17.316.13C15.652.143,14.664-.3,14.664-1.066Z" transform="translate(46.5 21)" fill="#ddd"/>
      </g>
      <g id="구성_요소_16_556" data-name="구성 요소 16 – 556" transform="translate(617 6869)">
        <rect id="사각형_2072-2" data-name="사각형 2072" width="93" height="32" rx="4" fill="#2a4252"/>
        <path id="패스_27423" data-name="패스 27423" d="M-17.1-3.9H-27.469v.988h4.576V1.066h1.17V-2.912H-17.1Zm-9.8-1.794.468.936a5.629,5.629,0,0,0,4.147-2.483,5.659,5.659,0,0,0,4.173,2.483l.442-.936c-2.158-.3-3.913-1.573-3.926-2.964h3.536V-9.62h-8.45v.962h3.536C-23-7.267-24.752-5.993-26.9-5.694ZM-5.837-4.55h-10.4v.988h4.706v2.21h1.17v-2.21h4.524ZM-14.963.832h7.982V-.13h-6.76V-2.444h-1.222Zm.052-6.552h7.722V-9.776h-7.722Zm1.17-.962V-8.814h5.356v2.132ZM2.093-9.62H.871l-2.964,11H-.871Zm5.278.39H6.227v7.514h4.42V-9.23H9.529v2.7H7.371Zm0,6.526v-2.86H9.529V-2.7ZM11.921.52h1.144V-4.862h1.4V1.066h1.144V-10.3H14.469V-5.85h-1.4v-4.238H11.921Zm10.92-6.838h-1.2v1.612H17.069v.962H27.443v-.962h-4.6ZM17.667-6.63l.442.936a5.725,5.725,0,0,0,4.134-2.418,5.721,5.721,0,0,0,4.108,2.418l.494-.936c-2.21-.286-3.991-1.56-3.978-3.016v-.468H21.645v.468C21.632-8.2,19.851-6.916,17.667-6.63Zm.624,5.72C18.3.351,19.773,1.066,22.243,1.066S26.169.351,26.169-.91c0-1.287-1.456-2-3.926-2S18.3-2.2,18.291-.91Zm1.248,0c-.026-.7.949-1.066,2.7-1.066s2.717.364,2.73,1.066c-.013.676-.988,1.053-2.73,1.04C20.488.143,19.513-.234,19.539-.91Z" transform="translate(46.5 21)" fill="#ddd"/>
      </g>
      <g id="구성_요소_16_557" data-name="구성 요소 16 – 557" transform="translate(617 6909)">
        <rect id="사각형_2072-3" data-name="사각형 2072" width="93" height="32" rx="4" fill="#2a4252"/>
        <path id="패스_27425" data-name="패스 27425" d="M-6.656-10.3H-7.8V1.066h1.144Zm-9.8,8.086.676.858a8.526,8.526,0,0,0,3.367-3.406h2.223V.52h1.144V-10.01h-1.144v4.29H-12a9.435,9.435,0,0,0,.507-3.172h-4.446V-7.9h3.25A7.083,7.083,0,0,1-16.458-2.21Zm15.444-5.2V-9.36H-2.236v1.95A5.733,5.733,0,0,1-5.278-2.262l.728,1.014A6.009,6.009,0,0,0-1.612-4.94,5.807,5.807,0,0,0,1.274-1.508l.7-.936A5.547,5.547,0,0,1-1.014-7.41Zm4.03,8.5H4.238V-10.3H3.016ZM12.48-9.256H6.344v.962H7.436v3.731l-1.4.013.13.988a46.639,46.639,0,0,0,6.916-.416l-.1-.91c-.494.065-1.027.117-1.56.156V-8.294H12.48ZM7.774.832h7.7V-.13H8.97V-2.7h-1.2Zm.832-5.421V-8.294h1.638v3.64C9.7-4.628,9.139-4.6,8.606-4.589ZM13.78-1.924h1.2V-5.9h1.638V-6.916H14.976V-10.3h-1.2Z" transform="translate(46.5 21)" fill="#ddd"/>
      </g>
      <g id="구성_요소_16_558" data-name="구성 요소 16 – 558" transform="translate(617 6949)">
        <rect id="사각형_2072-4" data-name="사각형 2072" width="93" height="32" rx="4" fill="#2a4252"/>
        <path id="패스_27427" data-name="패스 27427" d="M-12.558-10.3h-1.2V-7.2h-2.184v.962h2.184v4.29h1.2Zm-9.49,5.954.624.988A4.707,4.707,0,0,0-18.564-6.1a4.532,4.532,0,0,0,2.7,2.483l.624-.962a3.72,3.72,0,0,1-2.73-3.406v-.442h2.444v-.988h-6.136v.988h2.47v.442A3.967,3.967,0,0,1-22.048-4.342ZM-19.942.832h7.67V-.13h-6.474V-2.7h-1.2ZM-6.63-7.41V-9.36H-7.852v1.95a5.733,5.733,0,0,1-3.042,5.148l.728,1.014A6.009,6.009,0,0,0-7.228-4.94,5.807,5.807,0,0,0-4.342-1.508l.7-.936A5.547,5.547,0,0,1-6.63-7.41Zm4.03,8.5h1.222V-10.3H-2.6ZM6.76-9.438H1.014v.988h4.55a14.717,14.717,0,0,1-.286,2.912l1.2.1A18.575,18.575,0,0,0,6.76-8.788ZM.338-4.446l.1.962a43.211,43.211,0,0,0,7.1-.468l-.078-.884a35.6,35.6,0,0,1-3.614.312V-6.89h-1.2v2.4C1.82-4.459,1.027-4.446.338-4.446ZM2.054.832H9.776V-.13H3.25V-2.522h-1.2ZM8.19-1.742H9.412V-5.668H11V-6.682H9.412V-10.3H8.19Zm12.9-8.554h-1.2V1.092h1.2Zm-8.814,2H16.38v2.21H12.3v4.446h.962a32.849,32.849,0,0,0,5.746-.39l-.1-1.014a31.386,31.386,0,0,1-5.356.416v-2.5H17.6v-4.16h-5.33Z" transform="translate(46.5 21)" fill="#ddd"/>
      </g>
      <g id="구성_요소_16_559" data-name="구성 요소 16 – 559" transform="translate(617 6989)">
        <rect id="사각형_2072-5" data-name="사각형 2072" width="93" height="32" rx="4" fill="#2a4252"/>
        <path id="패스_27429" data-name="패스 27429" d="M-.442-4.316h-4.6V-5.3h3.406V-6.24h-6.63V-7.2H-2v-.91H-8.268v-.91h6.552v-.962H-9.464V-5.3H-6.24v.988h-4.6v.962h10.4ZM-9.594-.78c.013,1.209,1.43,1.846,3.952,1.846S-1.716.429-1.716-.78c0-1.183-1.417-1.846-3.926-1.846S-9.581-1.963-9.594-.78Zm1.222,0c-.013-.611.949-.936,2.73-.936s2.717.325,2.73.936c-.013.624-.949.936-2.73.936S-8.385-.156-8.372-.78ZM10.192-10.3H9.048V1.066h1.144ZM.364-2.21l.7.858a8.152,8.152,0,0,0,3.9-4.836H6.734v1.846H4.784v.988h1.95V.52H7.878V-10.01H6.734v2.834H5.2a10.665,10.665,0,0,0,.13-1.716H.91V-7.9H4.134A7.083,7.083,0,0,1,.364-2.21Z" transform="translate(46.5 21)" fill="#ddd"/>
      </g>
      <g id="구성_요소_16_560" data-name="구성 요소 16 – 560" transform="translate(718 6829)">
        <rect id="사각형_2072-6" data-name="사각형 2072" width="93" height="32" rx="4" fill="#2a4252"/>
        <path id="패스_27422" data-name="패스 27422" d="M-18.122-8.476V-9.7h-1.2V-8.58a4.09,4.09,0,0,1-2.808,3.848l.65.962a4.664,4.664,0,0,0,2.769-2.769,4.617,4.617,0,0,0,2.691,2.457l.65-.962A3.708,3.708,0,0,1-18.122-8.476Zm-2.47,7.41c0,1.352,1.456,2.132,3.822,2.132,2.327,0,3.77-.78,3.77-2.132,0-1.326-1.443-2.093-3.77-2.106C-19.136-3.159-20.592-2.392-20.592-1.066Zm1.2,0c0-.715.975-1.144,2.626-1.144,1.625,0,2.587.429,2.6,1.144C-14.183-.3-15.145.1-16.77.1-18.421.1-19.4-.3-19.4-1.066Zm5.1-2.366h1.2v-2.99h1.638V-7.436H-13.1V-10.3h-1.2ZM-.442-4.862H-10.816v.988H-6.24v1.222H-9.568V.936h7.852V-2.652H-5.044V-3.874h4.6ZM-9.854-8.97H-8.19v2.184H-9.8v.962h8.346v-.962H-3.068V-8.97H-1.4v-.988h-8.45ZM-8.372-.052V-1.716h5.486V-.052Zm1.378-6.734V-8.97h2.73v2.184ZM6.76-9.438H1.014v.988h4.55a14.717,14.717,0,0,1-.286,2.912l1.2.1A18.575,18.575,0,0,0,6.76-8.788ZM.338-4.446l.1.962a43.211,43.211,0,0,0,7.1-.468l-.078-.884a35.6,35.6,0,0,1-3.614.312V-6.89h-1.2v2.4C1.82-4.459,1.027-4.446.338-4.446ZM2.054.832H9.776V-.13H3.25V-2.522h-1.2ZM8.19-1.742H9.412V-5.668H11V-6.682H9.412V-10.3H8.19Zm12.9-8.554h-1.2V1.092h1.2Zm-8.814,2H16.38v2.21H12.3v4.446h.962a32.849,32.849,0,0,0,5.746-.39l-.1-1.014a31.386,31.386,0,0,1-5.356.416v-2.5H17.6v-4.16h-5.33Z" transform="translate(46.5 21)" fill="#ddd"/>
      </g>
      <g id="구성_요소_16_561" data-name="구성 요소 16 – 561" transform="translate(718 6869)">
        <rect id="사각형_2072-7" data-name="사각형 2072" width="93" height="32" rx="4" fill="#2a4252"/>
        <path id="패스_27424" data-name="패스 27424" d="M-12.636-10.3h-1.2V1.066h1.2ZM-22-2l.182.988a46.559,46.559,0,0,0,7.358-.442l-.1-.91c-.988.13-2.041.208-3.094.26V-3.211c1.313-.182,2.171-.962,2.158-2.067.013-1.274-1.131-2.119-2.782-2.106-1.651-.013-2.769.832-2.756,2.106-.013,1.118.845,1.9,2.158,2.067v1.157C-19.981-2.028-21.06-2.015-22-2Zm.26-5.98h6.942v-.962h-2.86V-10.27h-1.222v1.326h-2.86Zm1.82,2.7c0-.715.676-1.183,1.638-1.2.975.013,1.638.481,1.638,1.2S-17.3-4.1-18.278-4.108C-19.24-4.1-19.916-4.55-19.916-5.278ZM-1.352-10.3H-2.574v6.682H-4.836v.858h2.262v1.092h1.222Zm-9.516,5.2.156.962c.923,0,1.989,0,3.094-.039v2.145h1.2v-2.21a28.422,28.422,0,0,0,2.99-.338l-.078-.858A66.618,66.618,0,0,1-10.868-5.1Zm.884-2.756c0,1.222,1.157,1.989,2.834,1.976,1.664.013,2.821-.754,2.834-1.976-.013-1.2-1.17-2-2.834-2S-9.984-9.048-9.984-7.852Zm.7,8.684h8.216V-.13h-7.02V-2.5h-1.2Zm.442-8.684c0-.676.689-1.1,1.69-1.092.975-.013,1.677.416,1.69,1.092-.013.676-.715,1.1-1.69,1.092C-8.151-6.747-8.84-7.176-8.84-7.852ZM6.76-9.438H1.014v.988h4.55a14.717,14.717,0,0,1-.286,2.912l1.2.1A18.575,18.575,0,0,0,6.76-8.788ZM.338-4.446l.1.962a43.211,43.211,0,0,0,7.1-.468l-.078-.884a35.6,35.6,0,0,1-3.614.312V-6.89h-1.2v2.4C1.82-4.459,1.027-4.446.338-4.446ZM2.054.832H9.776V-.13H3.25V-2.522h-1.2ZM8.19-1.742H9.412V-5.668H11V-6.682H9.412V-10.3H8.19Zm12.9-8.554h-1.2V1.092h1.2Zm-8.814,2H16.38v2.21H12.3v4.446h.962a32.849,32.849,0,0,0,5.746-.39l-.1-1.014a31.386,31.386,0,0,1-5.356.416v-2.5H17.6v-4.16h-5.33Z" transform="translate(46.5 21)" fill="#ddd"/>
      </g>
      <g id="구성_요소_16_562" data-name="구성 요소 16 – 562" transform="translate(718 6909)">
        <rect id="사각형_2072-8" data-name="사각형 2072" width="93" height="32" rx="4" fill="#2a4252"/>
        <path id="패스_27426" data-name="패스 27426" d="M-12.844-9.2h-8.112v.988h6.916v.13a25.813,25.813,0,0,1-.442,5.174l1.2.13a25.553,25.553,0,0,0,.442-5.3Zm-9.2,8.736h10.374v-.988H-16.9v-4h-1.2v4h-3.952ZM-1.118-10.3H-2.262v2.782H-3.64v-2.574H-4.784v6.422H-3.64v-2.86h1.378v2.938h1.144Zm-9.7,5.9.6.91c2.9-1.209,4.381-3.224,4.394-5.98h-4.5V-8.5h3.25C-7.267-6.708-8.528-5.291-10.816-4.394Zm1.924,2.262h6.578v3.2h1.2v-4.16H-8.892ZM4.6-6.942V-8.164H7.2v-.988H.78v.988h2.6v1.222A5.68,5.68,0,0,1,.39-2.054l.7.962a6.135,6.135,0,0,0,2.925-3.64A5.7,5.7,0,0,0,6.942-1.378l.676-.962A5.172,5.172,0,0,1,4.6-6.942Zm4.03,8.008H9.854V-10.3H8.632ZM21.112-10.3H19.89v6.682H17.628v.858H19.89v1.092h1.222ZM11.6-5.1l.156.962c.923,0,1.989,0,3.094-.039v2.145h1.2v-2.21a28.422,28.422,0,0,0,2.99-.338l-.078-.858A66.618,66.618,0,0,1,11.6-5.1Zm.884-2.756c0,1.222,1.157,1.989,2.834,1.976,1.664.013,2.821-.754,2.834-1.976-.013-1.2-1.17-2-2.834-2S12.48-9.048,12.48-7.852Zm.7,8.684H21.4V-.13h-7.02V-2.5h-1.2Zm.442-8.684c0-.676.689-1.1,1.69-1.092.975-.013,1.677.416,1.69,1.092-.013.676-.715,1.1-1.69,1.092C14.313-6.747,13.624-7.176,13.624-7.852Z" transform="translate(46.5 21)" fill="#ddd"/>
      </g>
      <g id="구성_요소_16_563" data-name="구성 요소 16 – 563" transform="translate(718 6949)">
        <rect id="사각형_2072-9" data-name="사각형 2072" width="93" height="32" rx="4" fill="#2a4252"/>
        <path id="패스_27428" data-name="패스 27428" d="M-11.622-1.352H-22.048V-.338h10.426Zm-9.542-6.864h1.742v3.8h-1.716v.962h8.528V-4.42h-1.716v-3.8h1.742V-9.2h-8.58Zm2.938,3.8v-3.8h2.73v3.8ZM-.39-1.3H-5.044v-2H-1.4V-4.29H-8.346V-5.928h6.682V-9.49h-7.9V-8.5H-2.86v1.586H-9.542V-3.3h3.3v2h-4.576V-.286H-.39Zm11.232-.052H6.188V-3.978H9.594V-9.386H1.612v5.408h3.38v2.626H.416V-.338H10.842ZM2.782-4.914v-3.51H8.4v3.51Zm12.9-3.328v-1.4h-1.2v1.4a4.356,4.356,0,0,1-2.834,4.03l.65.936a4.863,4.863,0,0,0,2.782-2.9,4.7,4.7,0,0,0,2.626,2.717l.676-.936A4.112,4.112,0,0,1,15.678-8.242ZM13.7.832h7.7V-.13H14.924V-2.678H13.7Zm4.03-6.24h2.21V-1.82h1.2V-10.3h-1.2v1.612h-2.21V-7.7h2.21V-6.37h-2.21Z" transform="translate(46.5 21)" fill="#ddd"/>
      </g>
      <g id="구성_요소_16_564" data-name="구성 요소 16 – 564" transform="translate(718 6989)">
        <rect id="사각형_2072-10" data-name="사각형 2072" width="93" height="32" rx="4" fill="#2a4252"/>
        <path id="패스_27430" data-name="패스 27430" d="M-6.994-10.3H-8.216V1.092h1.222ZM-15.7-1.69h.936A27.5,27.5,0,0,0-9.23-2.08l-.1-.988a26.611,26.611,0,0,1-5.148.338V-8.242h4.238V-9.23H-15.7ZM-1.222-6.942V-8.164h2.47v-.988h-6.24v.988h2.574v1.222a5.773,5.773,0,0,1-2.99,4.888l.7.962A6.184,6.184,0,0,0-1.82-4.758,5.824,5.824,0,0,0,.988-1.378l.676-.962A5.316,5.316,0,0,1-1.222-6.942ZM2.47,1.066h1.2V-4.758h1.82V-5.8H3.666v-4.5H2.47Zm13-11.362h-1.2v8.268h1.2Zm-9.2,3.588A2.845,2.845,0,0,0,9.308-3.874a2.838,2.838,0,0,0,3.016-2.834A2.841,2.841,0,0,0,9.308-9.516,2.848,2.848,0,0,0,6.266-6.708Zm1.17,0A1.772,1.772,0,0,1,9.308-8.476a1.743,1.743,0,0,1,1.82,1.768,1.741,1.741,0,0,1-1.82,1.794A1.769,1.769,0,0,1,7.436-6.708Zm.6,7.54h7.774V-.13H9.23V-2.86h-1.2Z" transform="translate(46.5 21)" fill="#ddd"/>
      </g>
      <path id="패스_27420" data-name="패스 27420" d="M-30.032-5.376h-5.6V-6.432h4.16V-7.776h-8.064v-.992h7.616v-1.28h-7.616v-.96h7.968v-1.344H-41.3v5.92h3.936v1.056h-5.568V-4h12.9ZM-41.424-.928c.016,1.5,1.792,2.3,4.928,2.3,3.12,0,4.9-.8,4.9-2.3,0-1.488-1.776-2.3-4.9-2.3C-39.632-3.232-41.408-2.416-41.424-.928Zm1.76,0C-39.68-1.6-38.608-1.936-36.5-1.952c2.1.016,3.152.352,3.168,1.024C-33.344-.24-34.4.08-36.5.064-38.608.08-39.68-.24-39.664-.928Zm21.728-11.808H-19.7V-4.48h1.76V-7.808h1.984v-1.44h-1.984Zm-11.136,2.688h8.384v-1.376h-3.328v-1.408h-1.728v1.408h-3.328Zm.736,2.976c-.016,1.52,1.392,2.5,3.456,2.5,2.048,0,3.44-.976,3.456-2.5-.016-1.488-1.408-2.48-3.456-2.464C-26.944-9.552-28.352-8.56-28.336-7.072Zm1.248,8.288h9.152V-3.936H-19.7v1.248H-25.36V-3.936h-1.728Zm.416-8.288c0-.736.72-1.2,1.792-1.184,1.072-.016,1.792.448,1.792,1.184,0,.768-.72,1.216-1.792,1.216S-26.672-6.3-26.672-7.072ZM-25.36-.16V-1.344H-19.7V-.16Zm16.1-11.68H-10.9v6.752h5.568V-11.84h-1.6v2.08H-9.264Zm0,5.376V-8.416h2.336v1.952Zm.224,4.352H-1.1V1.376H.624v-4.9H-9.04ZM-4.048-4.32h1.6V-7.776h1.44v3.552H.624V-12.7H-1.008v3.52h-1.44v-3.264h-1.6ZM8.816-11.936c-3.024,0-5.264,1.52-5.248,3.808C3.552-6,5.376-4.608,7.952-4.336V-1.76H2.384V-.32h12.9V-1.76H9.648V-4.336C12.224-4.592,14.064-6,14.064-8.128,14.064-10.416,11.824-11.936,8.816-11.936ZM5.264-8.128c-.016-1.472,1.472-2.416,3.552-2.4,2.064-.016,3.536.928,3.552,2.4C12.352-6.592,10.88-5.7,8.816-5.7,6.736-5.7,5.248-6.592,5.264-8.128Zm22.72-4.608h-1.76V1.376h1.76ZM16.176-3.392l.16,1.44A58.769,58.769,0,0,0,25.264-2.5L25.2-3.776c-.656.08-1.328.128-2.016.176V-9.952H24.56V-11.36h-8v1.408H17.9v6.56ZM19.6-3.424V-9.952h1.888v6.464C20.848-3.456,20.224-3.44,19.6-3.424Zm17.728-7.36V-11.84H35.472v1.056c-.016,2.16-2.144,4.352-5.056,4.864l.768,1.472a7.61,7.61,0,0,0,5.232-3.824,7.362,7.362,0,0,0,5.2,3.824l.8-1.472C39.456-6.416,37.312-8.608,37.328-10.784ZM30.032-.416h12.9v-1.44h-12.9Z" transform="translate(713 6793)" fill="#fff"/>
      <line id="선_45" data-name="선 45" x2="194" transform="translate(616.5 6813)" fill="none" stroke="#2a4252" stroke-width="1"/>
    </g>
    <g id="그룹_4951" data-name="그룹 4951" transform="translate(9 17)">
      <rect id="사각형_2070" data-name="사각형 2070" width="226" height="281" rx="6" transform="translate(1094 6760)" fill="#182e3c"/>
      <g id="구성_요소_16_565" data-name="구성 요소 16 – 565" transform="translate(1110 6829)">
        <rect id="사각형_2072-11" data-name="사각형 2072" width="93" height="32" rx="4" fill="#2a4252"/>
        <path id="패스_27442" data-name="패스 27442" d="M-17.03-8.476V-9.7h-1.2V-8.58a4.09,4.09,0,0,1-2.808,3.848l.65.962a4.664,4.664,0,0,0,2.769-2.769,4.617,4.617,0,0,0,2.691,2.457l.65-.962A3.708,3.708,0,0,1-17.03-8.476Zm-2.47,7.41c0,1.352,1.456,2.132,3.822,2.132,2.327,0,3.77-.78,3.77-2.132,0-1.326-1.443-2.093-3.77-2.106C-18.044-3.159-19.5-2.392-19.5-1.066Zm1.2,0c0-.715.975-1.144,2.626-1.144,1.625,0,2.587.429,2.6,1.144C-13.091-.3-14.053.1-15.678.1-17.329.1-18.3-.3-18.3-1.066Zm5.1-2.366h1.2v-2.99h1.638V-7.436h-1.638V-10.3h-1.2ZM.65-4.862H-9.724v.988h4.576v1.222H-8.476V.936H-.624V-2.652H-3.952V-3.874H.65ZM-8.762-8.97H-7.1v2.184H-8.71v.962H-.364v-.962H-1.976V-8.97H-.312v-.988h-8.45ZM-7.28-.052V-1.716h5.486V-.052ZM-5.9-6.786V-8.97h2.73v2.184ZM8.19,0c2.8,0,4.407-1.742,4.42-4.6C12.6-7.475,10.985-9.191,8.268-9.2H5.2V0ZM6.6-1.222v-6.76H8.19c2,.013,3.029,1.209,3.042,3.38-.013,2.171-1.04,3.38-3.12,3.38ZM14.17,0h3.536C19.838,0,20.8-1.066,20.8-2.47a2.15,2.15,0,0,0-1.9-2.288v-.078a1.868,1.868,0,0,0,1.534-1.95c.013-1.352-.936-2.4-2.886-2.418H14.17Zm1.4-1.2V-4.134H17.6a1.65,1.65,0,0,1,1.82,1.586c0,.767-.533,1.352-1.872,1.352Zm0-4.03V-8.008h1.872c1.1.013,1.625.585,1.612,1.326A1.473,1.473,0,0,1,17.42-5.226Z" transform="translate(46.5 21)" fill="#ddd"/>
      </g>
      <g id="구성_요소_16_566" data-name="구성 요소 16 – 566" transform="translate(1110 6869)">
        <rect id="사각형_2072-12" data-name="사각형 2072" width="93" height="32" rx="4" fill="#2a4252"/>
        <path id="패스_27444" data-name="패스 27444" d="M-10.582-3.9H-20.956v.988h4.576V1.066h1.17V-2.912h4.628Zm-9.8-1.794.468.936a5.629,5.629,0,0,0,4.147-2.483A5.659,5.659,0,0,0-11.6-4.758l.442-.936c-2.158-.3-3.913-1.573-3.926-2.964h3.536V-9.62h-8.45v.962h3.536C-16.484-7.267-18.239-5.993-20.384-5.694ZM.676-4.55h-10.4v.988h4.706v2.21h1.17v-2.21H.676ZM-8.45.832H-.468V-.13h-6.76V-2.444H-8.45ZM-8.4-5.72H-.676V-9.776H-8.4Zm1.17-.962V-8.814h5.356v2.132ZM8.19,0c2.8,0,4.407-1.742,4.42-4.6C12.6-7.475,10.985-9.191,8.268-9.2H5.2V0ZM6.6-1.222v-6.76H8.19c2,.013,3.029,1.209,3.042,3.38-.013,2.171-1.04,3.38-3.12,3.38ZM14.17,0h3.536C19.838,0,20.8-1.066,20.8-2.47a2.15,2.15,0,0,0-1.9-2.288v-.078a1.868,1.868,0,0,0,1.534-1.95c.013-1.352-.936-2.4-2.886-2.418H14.17Zm1.4-1.2V-4.134H17.6a1.65,1.65,0,0,1,1.82,1.586c0,.767-.533,1.352-1.872,1.352Zm0-4.03V-8.008h1.872c1.1.013,1.625.585,1.612,1.326A1.473,1.473,0,0,1,17.42-5.226Z" transform="translate(46.5 21)" fill="#ddd"/>
      </g>
      <g id="구성_요소_16_567" data-name="구성 요소 16 – 567" transform="translate(1110 6909)">
        <rect id="사각형_2072-13" data-name="사각형 2072" width="194" height="32" rx="4" fill="#2a4252"/>
        <path id="패스_27446" data-name="패스 27446" d="M-19.422-9.23h-1.144v7.514h4.42V-9.23h-1.118v2.7h-2.158Zm0,6.526v-2.86h2.158V-2.7ZM-14.872.52h1.144V-4.862h1.4V1.066h1.144V-10.3h-1.144V-5.85h-1.4v-4.238h-1.144Zm10.92-6.838h-1.2v1.612H-9.724v.962H.65v-.962h-4.6ZM-9.126-6.63l.442.936A5.725,5.725,0,0,0-4.55-8.112,5.721,5.721,0,0,0-.442-5.694L.052-6.63c-2.21-.286-3.991-1.56-3.978-3.016v-.468H-5.148v.468C-5.161-8.2-6.942-6.916-9.126-6.63ZM-8.5-.91C-8.489.351-7.02,1.066-4.55,1.066S-.624.351-.624-.91c0-1.287-1.456-2-3.926-2S-8.489-2.2-8.5-.91Zm1.248,0c-.026-.7.949-1.066,2.7-1.066s2.717.364,2.73,1.066C-1.833-.234-2.808.143-4.55.13-6.305.143-7.28-.234-7.254-.91ZM8.19,0c2.8,0,4.407-1.742,4.42-4.6C12.6-7.475,10.985-9.191,8.268-9.2H5.2V0ZM6.6-1.222v-6.76H8.19c2,.013,3.029,1.209,3.042,3.38-.013,2.171-1.04,3.38-3.12,3.38ZM14.17,0h3.536C19.838,0,20.8-1.066,20.8-2.47a2.15,2.15,0,0,0-1.9-2.288v-.078a1.868,1.868,0,0,0,1.534-1.95c.013-1.352-.936-2.4-2.886-2.418H14.17Zm1.4-1.2V-4.134H17.6a1.65,1.65,0,0,1,1.82,1.586c0,.767-.533,1.352-1.872,1.352Zm0-4.03V-8.008h1.872c1.1.013,1.625.585,1.612,1.326A1.473,1.473,0,0,1,17.42-5.226Z" transform="translate(97 21)" fill="#ddd"/>
      </g>
      <g id="구성_요소_16_568" data-name="구성 요소 16 – 568" transform="translate(1110 6949)">
        <rect id="사각형_2072-14" data-name="사각형 2072" width="194" height="32" rx="4" fill="#2a4252"/>
        <path id="패스_27447" data-name="패스 27447" d="M-27.833-10.3h-1.144V-5.85h-1.4v-4.238h-1.144V.52h1.144V-4.862h1.4V1.066h1.144Zm-9.386,8.372h4.42v-7.1h-4.42Zm1.144-.962V-8.06h2.132v5.174ZM-16-5.3H-26.351v.91h4.55v.936h-3.328v.884h6.63v.858h-6.6V.962h8.112V.052h-6.942V-.884h6.63V-3.458h-3.3v-.936H-16Zm-9.854-1.352.338.91c1.989-.143,3.614-.728,4.329-1.716.7.988,2.314,1.573,4.3,1.716l.364-.91c-2.21-.13-3.757-.806-3.978-1.768h3.458v-.91h-3.562v-1.014h-1.2v1.014h-3.536v.91h3.445C-22.126-7.462-23.66-6.786-25.857-6.656ZM-8.047-9.62H-9.269l-2.964,11h1.222ZM5.187-10.3h-1.2v2.912H1.859V-6.4H3.991v2.86h1.2ZM-4.3-4.55l.624.962a4.843,4.843,0,0,0,2.873-2.8A4.549,4.549,0,0,0,1.885-3.9l.624-.962A3.737,3.737,0,0,1-.221-8.294v-.234H2.223v-.988H-3.913v.988h2.47v.26A4.1,4.1,0,0,1-4.3-4.55Zm1.82,3.484c0,1.352,1.469,2.132,3.848,2.132S5.213.286,5.213-1.066,3.757-3.211,1.365-3.2C-1.014-3.211-2.483-2.418-2.483-1.066Zm1.2,0c0-.767.988-1.209,2.652-1.222,1.664.013,2.652.455,2.652,1.222S3.029.143,1.365.13C-.3.143-1.287-.3-1.287-1.066Zm12.168-7.15V-9.594h-1.2v1.352A4,4,0,0,1,6.851-4.42l.65.962a4.729,4.729,0,0,0,2.821-2.756,4.612,4.612,0,0,0,2.717,2.5l.624-.962A3.841,3.841,0,0,1,10.881-8.216ZM8.671.832h7.7V-.13H9.893v-2.6H8.671Zm6.006-2.756h1.2V-5.85h1.638V-6.89H15.873V-10.3h-1.2ZM24.843,0c2.8,0,4.407-1.742,4.42-4.6-.013-2.873-1.625-4.589-4.342-4.6H21.853V0ZM23.257-1.222v-6.76h1.586c2,.013,3.029,1.209,3.042,3.38-.013,2.171-1.04,3.38-3.12,3.38ZM30.823,0h3.536c2.132,0,3.094-1.066,3.094-2.47a2.15,2.15,0,0,0-1.9-2.288v-.078a1.868,1.868,0,0,0,1.534-1.95c.013-1.352-.936-2.4-2.886-2.418h-3.38Zm1.4-1.2V-4.134h2.028a1.65,1.65,0,0,1,1.82,1.586c0,.767-.533,1.352-1.872,1.352Zm0-4.03V-8.008H34.1c1.105.013,1.625.585,1.612,1.326a1.473,1.473,0,0,1-1.638,1.456Z" transform="translate(97 21)" fill="#ddd"/>
      </g>
      <g id="구성_요소_16_569" data-name="구성 요소 16 – 569" transform="translate(1110 6989)">
        <rect id="사각형_2072-15" data-name="사각형 2072" width="194" height="32" rx="4" fill="#2a4252"/>
        <path id="패스_27448" data-name="패스 27448" d="M-22.724-10.3h-1.222V1.066h1.222Zm-9.36,8.32.65.988c3.9-1.872,5.317-4.758,5.33-8.086h-5.408v.962h4.173C-27.573-5.46-29.042-3.406-32.084-1.976ZM-11.518-9.75h-8.476v.962h3.432c-.078,1.248-1.69,2.327-3.822,2.6l.468.936a5.22,5.22,0,0,0,4.147-2.431A5.2,5.2,0,0,0-11.6-5.252l.442-.936c-2.119-.273-3.757-1.352-3.822-2.6h3.458Zm-9.438,6.214h4.706v2.21h1.17v-2.21h4.524V-4.5h-10.4ZM-19.682.832H-11.7V-.13h-6.76V-2.418h-1.222ZM-.234-10.3h-1.2v2.912H-3.562V-6.4H-1.43v2.86h1.2ZM-9.724-4.55l.624.962a4.843,4.843,0,0,0,2.873-2.8A4.549,4.549,0,0,0-3.536-3.9l.624-.962a3.737,3.737,0,0,1-2.73-3.432v-.234H-3.2v-.988H-9.334v.988h2.47v.26A4.1,4.1,0,0,1-9.724-4.55ZM-7.9-1.066c0,1.352,1.469,2.132,3.848,2.132S-.208.286-.208-1.066-1.664-3.211-4.056-3.2C-6.435-3.211-7.9-2.418-7.9-1.066Zm1.2,0c0-.767.988-1.209,2.652-1.222,1.664.013,2.652.455,2.652,1.222S-2.392.143-4.056.13C-5.72.143-6.708-.3-6.708-1.066Zm18.642-.26H7.28v-2.34h3.406v-5.85H9.49v1.95H3.9v-1.95H2.7v5.85h3.38v2.34H1.508v.988H11.934ZM3.9-4.628v-1.95H9.49v1.95ZM19.422,0c2.8,0,4.407-1.742,4.42-4.6-.013-2.873-1.625-4.589-4.342-4.6H16.432V0ZM17.836-1.222v-6.76h1.586c2,.013,3.029,1.209,3.042,3.38-.013,2.171-1.04,3.38-3.12,3.38ZM25.4,0h3.536c2.132,0,3.094-1.066,3.094-2.47a2.15,2.15,0,0,0-1.9-2.288v-.078a1.868,1.868,0,0,0,1.534-1.95c.013-1.352-.936-2.4-2.886-2.418H25.4Zm1.4-1.2V-4.134h2.028a1.65,1.65,0,0,1,1.82,1.586c0,.767-.533,1.352-1.872,1.352Zm0-4.03V-8.008h1.872c1.1.013,1.625.585,1.612,1.326a1.473,1.473,0,0,1-1.638,1.456Z" transform="translate(97 21)" fill="#ddd"/>
      </g>
      <g id="구성_요소_16_570" data-name="구성 요소 16 – 570" transform="translate(1211 6829)">
        <rect id="사각형_2072-16" data-name="사각형 2072" width="93" height="32" rx="4" fill="#2a4252"/>
        <path id="패스_27443" data-name="패스 27443" d="M-11.544-10.3h-1.2V1.066h1.2ZM-20.9-2l.182.988a46.559,46.559,0,0,0,7.358-.442l-.1-.91c-.988.13-2.041.208-3.094.26V-3.211c1.313-.182,2.171-.962,2.158-2.067.013-1.274-1.131-2.119-2.782-2.106-1.651-.013-2.769.832-2.756,2.106-.013,1.118.845,1.9,2.158,2.067v1.157C-18.889-2.028-19.968-2.015-20.9-2Zm.26-5.98H-13.7v-.962h-2.86V-10.27h-1.222v1.326h-2.86Zm1.82,2.7c0-.715.676-1.183,1.638-1.2.975.013,1.638.481,1.638,1.2s-.663,1.183-1.638,1.17C-18.148-4.1-18.824-4.55-18.824-5.278ZM-.26-10.3H-1.482v6.682H-3.744v.858h2.262v1.092H-.26ZM-9.776-5.1l.156.962c.923,0,1.989,0,3.094-.039v2.145h1.2v-2.21a28.422,28.422,0,0,0,2.99-.338l-.078-.858A66.618,66.618,0,0,1-9.776-5.1Zm.884-2.756c0,1.222,1.157,1.989,2.834,1.976,1.664.013,2.821-.754,2.834-1.976-.013-1.2-1.17-2-2.834-2S-8.892-9.048-8.892-7.852Zm.7,8.684H.026V-.13h-7.02V-2.5h-1.2Zm.442-8.684c0-.676.689-1.1,1.69-1.092.975-.013,1.677.416,1.69,1.092-.013.676-.715,1.1-1.69,1.092C-7.059-6.747-7.748-7.176-7.748-7.852ZM8.19,0c2.8,0,4.407-1.742,4.42-4.6C12.6-7.475,10.985-9.191,8.268-9.2H5.2V0ZM6.6-1.222v-6.76H8.19c2,.013,3.029,1.209,3.042,3.38-.013,2.171-1.04,3.38-3.12,3.38ZM14.17,0h3.536C19.838,0,20.8-1.066,20.8-2.47a2.15,2.15,0,0,0-1.9-2.288v-.078a1.868,1.868,0,0,0,1.534-1.95c.013-1.352-.936-2.4-2.886-2.418H14.17Zm1.4-1.2V-4.134H17.6a1.65,1.65,0,0,1,1.82,1.586c0,.767-.533,1.352-1.872,1.352Zm0-4.03V-8.008h1.872c1.1.013,1.625.585,1.612,1.326A1.473,1.473,0,0,1,17.42-5.226Z" transform="translate(46.5 21)" fill="#ddd"/>
      </g>
      <g id="구성_요소_16_571" data-name="구성 요소 16 – 571" transform="translate(1211 6869)">
        <rect id="사각형_2072-17" data-name="사각형 2072" width="93" height="32" rx="4" fill="#2a4252"/>
        <path id="패스_27445" data-name="패스 27445" d="M-11.466-10.3h-1.2V-8.71h-2.483a5.614,5.614,0,0,0,.091-1.066h-5.122v.988h3.8c-.195,1.677-1.677,2.938-4.394,3.536l.416.988c2.522-.572,4.238-1.742,4.94-3.51h2.756v1.248h-2.912v.936h2.912V-4.5h1.2ZM-18.9-3.068h6.214v1.014h-6.188V.962h7.748V0H-17.68V-1.144h6.214V-4.03H-18.9ZM.026-10.3H-1.118V1.066H.026ZM-9.88-2.054l.728.884A5.663,5.663,0,0,0-6.864-4.6,5.287,5.287,0,0,0-4.628-1.43l.728-.884a5.414,5.414,0,0,1-2.392-4.81v-.91h1.95v-.988h-5.2v.988h2.08v.91A5.863,5.863,0,0,1-9.88-2.054Zm4.706-3.224h1.768V.494h1.144V-10.062H-3.406v3.8H-5.174ZM8.19,0c2.8,0,4.407-1.742,4.42-4.6C12.6-7.475,10.985-9.191,8.268-9.2H5.2V0ZM6.6-1.222v-6.76H8.19c2,.013,3.029,1.209,3.042,3.38-.013,2.171-1.04,3.38-3.12,3.38ZM14.17,0h3.536C19.838,0,20.8-1.066,20.8-2.47a2.15,2.15,0,0,0-1.9-2.288v-.078a1.868,1.868,0,0,0,1.534-1.95c.013-1.352-.936-2.4-2.886-2.418H14.17Zm1.4-1.2V-4.134H17.6a1.65,1.65,0,0,1,1.82,1.586c0,.767-.533,1.352-1.872,1.352Zm0-4.03V-8.008h1.872c1.1.013,1.625.585,1.612,1.326A1.473,1.473,0,0,1,17.42-5.226Z" transform="translate(46.5 21)" fill="#ddd"/>
      </g>
      <path id="패스_27441" data-name="패스 27441" d="M-30.736-12.736H-32.4V1.376h1.664ZM-42.448-1.856h.96a24.672,24.672,0,0,0,5.152-.384l-.16-1.44a20.419,20.419,0,0,1-4.256.384V-9.7h3.68v-1.376h-5.376Zm4.416-4.224h2.72V.7h1.632V-12.448h-1.632v4.96h-2.72Zm20.7-6.656h-1.76V1.408h1.76Zm-11.3,6.016c-.016,3.072,1.536,5.008,3.68,4.992,2.128.016,3.68-1.92,3.68-4.992,0-3.04-1.552-4.976-3.68-4.992C-27.088-11.7-28.64-9.76-28.624-6.72Zm1.664,0c0-2.144.816-3.424,2.016-3.424,1.184,0,2,1.28,2.016,3.424-.016,2.176-.832,3.44-2.016,3.424C-26.144-3.28-26.96-4.544-26.96-6.72Zm23.552-6.016H-5.136v5.12H-7.792V-6.24h2.656V1.408h1.728Zm-11.2,10.88h1.088a37.493,37.493,0,0,0,6.4-.416l-.192-1.376a37.113,37.113,0,0,1-5.568.384V-6.176h4.32V-7.552h-4.32v-2.56h4.864V-11.52h-6.592Zm28.832-10.88h-1.76v4.992H9.776V-6.3h2.688V1.408h1.76ZM2.192-2.656,3.216-1.28A7.455,7.455,0,0,0,6.688-5.792,6.889,6.889,0,0,0,10.128-1.6l1.024-1.376A6.538,6.538,0,0,1,7.568-8.992V-9.92h3.04v-1.408H2.768V-9.92H5.776v.928A7.019,7.019,0,0,1,2.192-2.656Zm19.072-7.52v-.16h2.944v-1.408h-7.68v1.408H19.5v.16a4.684,4.684,0,0,1-3.456,4.448l.864,1.376a5.682,5.682,0,0,0,3.52-3.216A5.4,5.4,0,0,0,23.76-4.8l.832-1.344A4.287,4.287,0,0,1,21.264-10.176Zm-3.3,8.864c0,1.68,1.824,2.688,4.768,2.688S27.472.368,27.472-1.312C27.472-3.008,25.68-4,22.736-4S17.968-3.008,17.968-1.312Zm1.728,0c0-.864,1.1-1.328,3.04-1.312,1.936-.016,3.024.448,3.04,1.312C25.76-.448,24.672.016,22.736,0,20.8.016,19.7-.448,19.7-1.312ZM25.584-4.32h1.76V-7.9h1.984v-1.44H27.344v-3.392h-1.76ZM42.928-1.76H37.264V-5.024H35.536V-1.76h-5.5V-.352h12.9ZM30.384-6.112l.768,1.44A7.378,7.378,0,0,0,36.4-8.336a7.407,7.407,0,0,0,5.28,3.664l.736-1.44c-2.96-.48-5.1-2.592-5.088-4.736v-1.024H35.472v1.024C35.456-8.72,33.36-6.592,30.384-6.112Z" transform="translate(1207 6793)" fill="#fff"/>
      <line id="선_47" data-name="선 47" x2="194" transform="translate(1110.5 6813)" fill="none" stroke="#2a4252" stroke-width="1"/>
    </g>
    <g id="사각형_2073" data-name="사각형 2073" transform="translate(560 6635)" fill="none" stroke="#3f4b64" stroke-width="1">
      <rect width="800" height="565" rx="6" stroke="none"/>
      <rect x="0.5" y="0.5" width="799" height="564" rx="5.5" fill="none"/>
    </g>
    <g id="그룹_4986" data-name="그룹 4986" transform="translate(0 10)">
      <rect id="사각형_2065-2" data-name="사각형 2065" width="738" height="59" rx="6" transform="translate(591 7088)" fill="#006476"/>
      <path id="패스_27449" data-name="패스 27449" d="M-83.856,0h4.576c2.576,0,3.856-1.312,3.84-3.072a2.605,2.605,0,0,0-2.4-2.784v-.128a2.371,2.371,0,0,0,1.984-2.4c-.016-1.68-1.232-2.928-3.68-2.944h-4.32Zm2.016-1.7V-5.024h2.3a1.843,1.843,0,0,1,2.048,1.792c0,.9-.624,1.536-2.112,1.536Zm0-4.8V-9.632h2.112c1.2,0,1.824.64,1.824,1.5A1.691,1.691,0,0,1-79.792-6.5Zm7.584,4.128A2.494,2.494,0,0,0-71.44.16a2.6,2.6,0,0,0,2.5-1.312h.064V0h1.92V-5.664c0-2.272-1.856-2.928-3.456-2.944C-72.544-8.592-73.84-7.5-74-6.08h1.952a1.437,1.437,0,0,1,1.568-.992c.992,0,1.536.48,1.536,1.312v.688c-.352.016-1.568.064-2.176.112C-72.688-4.848-74.272-4.3-74.256-2.368Zm1.92-.032c-.016-.752.592-1.152,1.536-1.216.4-.048,1.472-.112,1.856-.128v.7a1.817,1.817,0,0,1-1.984,1.76C-71.744-1.3-72.352-1.68-72.336-2.4ZM-61.36.16a3.308,3.308,0,0,0,3.616-3.04h-1.888A1.651,1.651,0,0,1-61.36-1.472c-1.248.016-2.064-1.024-2.048-2.784-.016-1.7.816-2.736,2.048-2.752a1.708,1.708,0,0,1,1.728,1.44h1.888c-.128-1.824-1.568-3.024-3.648-3.04-2.464.016-4.048,1.808-4.032,4.416C-65.44-1.648-63.9.176-61.36.16ZM-56.24,0h1.984V-2.832l.752-.8L-50.9,0h2.368l-3.488-4.848,3.3-3.632h-2.336l-3.072,3.424h-.128v-6.272H-56.24Zm12.1.16C-42.16.176-40.8-.8-40.432-2.272h-1.952a1.837,1.837,0,0,1-1.728.9,2.11,2.11,0,0,1-2.176-2.3h5.92v-.64c0-2.976-1.792-4.272-3.872-4.288-2.416.016-4.016,1.792-4,4.416C-48.256-1.536-46.688.176-44.144.16Zm-2.144-5.216a2.057,2.057,0,0,1,2.08-1.984,1.874,1.874,0,0,1,1.92,1.984Zm9.472.1a1.752,1.752,0,0,1,1.792-1.952A1.588,1.588,0,0,1-33.36-5.088V0h1.984V-5.408c.016-2.032-1.136-3.184-2.88-3.2A2.545,2.545,0,0,0-36.784-7.04h-.128V-8.48H-38.8V0h1.984ZM-26.288.16a2.633,2.633,0,0,0,2.432-1.5h.1V0h1.952V-11.328h-1.984V-7.1h-.064a2.607,2.607,0,0,0-2.432-1.5c-1.968.016-3.52,1.552-3.52,4.384C-29.808-1.44-28.3.144-26.288.16ZM-27.76-4.256c-.016-1.568.672-2.7,2.016-2.72,1.28.016,2,1.088,1.984,2.72.016,1.664-.72,2.768-1.984,2.784C-27.072-1.488-27.776-2.64-27.76-4.256ZM-3.6-5.376H-9.2V-6.432h4.16V-7.776H-13.1v-.992h7.616v-1.28H-13.1v-.96h7.968v-1.344h-9.728v5.92h3.936v1.056H-16.5V-4H-3.6ZM-14.992-.928c.016,1.5,1.792,2.3,4.928,2.3,3.12,0,4.9-.8,4.9-2.3,0-1.488-1.776-2.3-4.9-2.3C-13.2-3.232-14.976-2.416-14.992-.928Zm1.76,0c-.016-.672,1.056-1.008,3.168-1.024,2.1.016,3.152.352,3.168,1.024C-6.912-.24-7.968.08-10.064.064-12.176.08-13.248-.24-13.232-.928ZM8.5-12.736H6.736V-4.48H8.5V-7.808H10.48v-1.44H8.5ZM-2.64-10.048H5.744v-1.376H2.416v-1.408H.688v1.408H-2.64ZM-1.9-7.072c-.016,1.52,1.392,2.5,3.456,2.5,2.048,0,3.44-.976,3.456-2.5C4.992-8.56,3.6-9.552,1.552-9.536-.512-9.552-1.92-8.56-1.9-7.072ZM-.656,1.216H8.5V-3.936H6.736v1.248H1.072V-3.936H-.656ZM-.24-7.072c0-.736.72-1.2,1.792-1.184,1.072-.016,1.792.448,1.792,1.184,0,.768-.72,1.216-1.792,1.216S-.24-6.3-.24-7.072ZM1.072-.16V-1.344H6.736V-.16Zm15.9.16.944-2.784h4.272L23.12,0H25.3L21.328-11.328H18.8L14.832,0Zm1.5-4.448,1.536-4.544h.1l1.52,4.544ZM26.672,0h2.016V-3.84h2.176c2.624.016,4.032-1.552,4.032-3.744,0-2.144-1.392-3.728-4-3.744H26.672Zm2.016-5.5V-9.6h1.92a1.912,1.912,0,0,1,2.208,2.016A1.948,1.948,0,0,1,30.608-5.5Zm9.888-5.824H36.56V0h2.016Zm12.544,0H44.656V-9.92h4.752a10.647,10.647,0,0,1-.368,2.08l-5.12.32.256,1.472,4.32-.384a10.106,10.106,0,0,1-4.64,4.288l.96,1.312C49.856-3.424,51.12-7.088,51.12-11.328Zm-.032,5.536H54V1.376h1.728V-12.736H54v5.5H51.088ZM69.872-12.7H68.208v8.288h1.664ZM58.448-5.12h.928A22.162,22.162,0,0,0,64.4-5.568l-.16-1.376a21.464,21.464,0,0,1-4.1.384v-5.184h-1.7Zm1.728,2.752h8V1.376h1.7V-3.776h-9.7ZM62.64-8.544h2.72v4h1.632v-7.9H65.36v2.5H62.64Zm20.768-4.192H81.68v5.12H79.024V-6.24H81.68V1.408h1.728Zm-11.2,10.88H73.3a37.493,37.493,0,0,0,6.4-.416L79.5-3.648a37.113,37.113,0,0,1-5.568.384V-6.176h4.32V-7.552h-4.32v-2.56H78.8V-11.52H72.208Z" transform="translate(960 7123)" fill="#fff"/>
    </g>
    <g id="그룹_4985" data-name="그룹 4985" transform="translate(0 -10)">
      <rect id="사각형_2065-3" data-name="사각형 2065" width="738" height="59" rx="6" transform="translate(591 6688)" fill="#006476"/>
      <path id="패스_27419" data-name="패스 27419" d="M-85.272,0h2.016V-4.8h4.736V-6.528h-4.736V-9.6h5.216v-1.728h-7.232Zm8.736,0h1.984V-4.992a1.834,1.834,0,0,1,1.92-1.856,4.165,4.165,0,0,1,.928.128V-8.544a3.407,3.407,0,0,0-.736-.064,2.117,2.117,0,0,0-2.08,1.536h-.1V-8.48h-1.92Zm9.456.16c2.464.016,4.048-1.744,4.064-4.352-.016-2.656-1.6-4.4-4.064-4.416-2.5.016-4.08,1.76-4.064,4.416C-71.16-1.584-69.576.176-67.08.16Zm-2.048-4.384c-.016-1.552.672-2.8,2.048-2.784,1.36-.016,2.032,1.232,2.048,2.784-.016,1.568-.688,2.8-2.048,2.784C-68.456-1.424-69.144-2.656-69.128-4.224ZM-59.5-4.96A1.752,1.752,0,0,1-57.7-6.912,1.588,1.588,0,0,1-56.04-5.088V0h1.984V-5.408c.016-2.032-1.136-3.184-2.88-3.2A2.545,2.545,0,0,0-59.464-7.04h-.128V-8.48H-61.48V0H-59.5Zm11.584-3.52h-1.664v-2.048H-51.56V-8.48h-1.216v1.536h1.216v4.736C-51.576-.624-50.424.112-48.936.128a8.167,8.167,0,0,0,1.152-.1V-1.6a8.688,8.688,0,0,1-.9.032c-.5,0-.9-.16-.9-.992V-6.944h1.664ZM-42.728.16c1.984.016,3.344-.96,3.712-2.432h-1.952a1.837,1.837,0,0,1-1.728.9,2.11,2.11,0,0,1-2.176-2.3h5.92v-.64c0-2.976-1.792-4.272-3.872-4.288-2.416.016-4.016,1.792-4,4.416C-46.84-1.536-45.272.176-42.728.16Zm-2.144-5.216a2.057,2.057,0,0,1,2.08-1.984,1.874,1.874,0,0,1,1.92,1.984Zm9.472.1a1.752,1.752,0,0,1,1.792-1.952,1.588,1.588,0,0,1,1.664,1.824V0h1.984V-5.408c.016-2.032-1.136-3.184-2.88-3.2A2.545,2.545,0,0,0-35.368-7.04H-35.5V-8.48h-1.888V0H-35.4ZM-24.872.16a2.633,2.633,0,0,0,2.432-1.5h.1V0h1.952V-11.328h-1.984V-7.1h-.064a2.607,2.607,0,0,0-2.432-1.5c-1.968.016-3.52,1.552-3.52,4.384C-28.392-1.44-26.888.144-24.872.16Zm-1.472-4.416c-.016-1.568.672-2.7,2.016-2.72,1.28.016,2,1.088,1.984,2.72.016,1.664-.72,2.768-1.984,2.784C-25.656-1.488-26.36-2.64-26.344-4.256Zm24.16-1.12h-5.6V-6.432h4.16V-7.776h-8.064v-.992h7.616v-1.28h-7.616v-.96H-3.72v-1.344h-9.728v5.92h3.936v1.056H-15.08V-4h12.9ZM-13.576-.928c.016,1.5,1.792,2.3,4.928,2.3,3.12,0,4.9-.8,4.9-2.3,0-1.488-1.776-2.3-4.9-2.3C-11.784-3.232-13.56-2.416-13.576-.928Zm1.76,0c-.016-.672,1.056-1.008,3.168-1.024,2.1.016,3.152.352,3.168,1.024C-5.5-.24-6.552.08-8.648.064-10.76.08-11.832-.24-11.816-.928ZM9.912-12.736H8.152V-4.48h1.76V-7.808H11.9v-1.44H9.912ZM-1.224-10.048H7.16v-1.376H3.832v-1.408H2.1v1.408H-1.224Zm.736,2.976C-.5-5.552.9-4.576,2.968-4.576c2.048,0,3.44-.976,3.456-2.5C6.408-8.56,5.016-9.552,2.968-9.536.9-9.552-.5-8.56-.488-7.072ZM.76,1.216H9.912V-3.936H8.152v1.248H2.488V-3.936H.76Zm.416-8.288c0-.736.72-1.2,1.792-1.184C4.04-8.272,4.76-7.808,4.76-7.072c0,.768-.72,1.216-1.792,1.216S1.176-6.3,1.176-7.072ZM2.488-.16V-1.344H8.152V-.16Zm15.9.16.944-2.784h4.272L24.536,0h2.176L22.744-11.328H20.216L16.248,0Zm1.5-4.448,1.536-4.544h.1l1.52,4.544ZM28.088,0H30.1V-3.84H32.28c2.624.016,4.032-1.552,4.032-3.744,0-2.144-1.392-3.728-4-3.744H28.088ZM30.1-5.5V-9.6h1.92a1.912,1.912,0,0,1,2.208,2.016A1.948,1.948,0,0,1,32.024-5.5Zm9.888-5.824H37.976V0h2.016Zm12.544,0H46.072V-9.92h4.752a10.647,10.647,0,0,1-.368,2.08l-5.12.32.256,1.472,4.32-.384a10.106,10.106,0,0,1-4.64,4.288l.96,1.312C51.272-3.424,52.536-7.088,52.536-11.328ZM52.5-5.792h2.912V1.376h1.728V-12.736H55.416v5.5H52.5ZM71.288-12.7H69.624v8.288h1.664ZM59.864-5.12h.928a22.162,22.162,0,0,0,5.024-.448l-.16-1.376a21.464,21.464,0,0,1-4.1.384v-5.184h-1.7Zm1.728,2.752h8V1.376h1.7V-3.776h-9.7Zm2.464-6.176h2.72v4h1.632v-7.9H66.776v2.5h-2.72Zm20.768-4.192H83.1v5.12H80.44V-6.24H83.1V1.408h1.728Zm-11.2,10.88h1.088a37.493,37.493,0,0,0,6.4-.416L80.92-3.648a37.113,37.113,0,0,1-5.568.384V-6.176h4.32V-7.552h-4.32v-2.56h4.864V-11.52H73.624Z" transform="translate(960 6723)" fill="#fff"/>
    </g>
    <g id="그룹_4982" data-name="그룹 4982" transform="translate(0 20.5)">
      <line id="선_55" data-name="선 55" x2="29.5" transform="translate(817.5 6888.5)" fill="none" stroke="#10e4ff" stroke-width="1" stroke-dasharray="4 4"/>
      <line id="선_56" data-name="선 56" x2="29.5" transform="translate(817.5 6906.5)" fill="none" stroke="#10e4ff" stroke-width="1" stroke-dasharray="4 4"/>
    </g>
    <g id="그룹_4983" data-name="그룹 4983" transform="translate(256 20.5)">
      <line id="선_55-2" data-name="선 55" x2="29.5" transform="translate(817.5 6888.5)" fill="none" stroke="#10e4ff" stroke-width="1" stroke-dasharray="4 4"/>
      <line id="선_56-2" data-name="선 56" x2="29.5" transform="translate(817.5 6906.5)" fill="none" stroke="#10e4ff" stroke-width="1" stroke-dasharray="4 4"/>
    </g>
    <g id="그룹_4952" data-name="그룹 4952" transform="translate(1 17)">
      <rect id="사각형_2069" data-name="사각형 2069" width="226" height="281" rx="6" transform="translate(846 6760)" fill="#182e3c"/>
      <g id="구성_요소_16_572" data-name="구성 요소 16 – 572" transform="translate(863 6829)">
        <rect id="사각형_2072-18" data-name="사각형 2072" width="93" height="32" rx="4" fill="#2a4252"/>
        <path id="패스_27432" data-name="패스 27432" d="M-6.89-8.476V-9.7h-1.2V-8.58a4.09,4.09,0,0,1-2.808,3.848l.65.962A4.664,4.664,0,0,0-7.475-6.539,4.617,4.617,0,0,0-4.784-4.082l.65-.962A3.708,3.708,0,0,1-6.89-8.476Zm-2.47,7.41C-9.36.286-7.9,1.066-5.538,1.066c2.327,0,3.77-.78,3.77-2.132,0-1.326-1.443-2.093-3.77-2.106C-7.9-3.159-9.36-2.392-9.36-1.066Zm1.2,0c0-.715.975-1.144,2.626-1.144,1.625,0,2.587.429,2.6,1.144C-2.951-.3-3.913.1-5.538.1-7.189.1-8.164-.3-8.164-1.066Zm5.1-2.366h1.2v-2.99H-.234V-7.436H-1.872V-10.3h-1.2ZM10.79-4.862H.416v.988H4.992v1.222H1.664V.936H9.516V-2.652H6.188V-3.874h4.6ZM1.378-8.97H3.042v2.184H1.43v.962H9.776v-.962H8.164V-8.97H9.828v-.988H1.378ZM2.86-.052V-1.716H8.346V-.052ZM4.238-6.786V-8.97h2.73v2.184Z" transform="translate(46.5 21)" fill="#ddd"/>
      </g>
      <g id="구성_요소_16_573" data-name="구성 요소 16 – 573" transform="translate(863 6869)">
        <rect id="사각형_2072-19" data-name="사각형 2072" width="93" height="32" rx="4" fill="#2a4252"/>
        <path id="패스_27434" data-name="패스 27434" d="M-11.622-1.352H-22.048V-.338h10.426Zm-9.542-6.864h1.742v3.8h-1.716v.962h8.528V-4.42h-1.716v-3.8h1.742V-9.2h-8.58Zm2.938,3.8v-3.8h2.73v3.8ZM-.39-1.3H-5.044v-2H-1.4V-4.29H-8.346V-5.928h6.682V-9.49h-7.9V-8.5H-2.86v1.586H-9.542V-3.3h3.3v2h-4.576V-.286H-.39Zm11.232-.052H6.188V-3.978H9.594V-9.386H1.612v5.408h3.38v2.626H.416V-.338H10.842ZM2.782-4.914v-3.51H8.4v3.51Zm12.9-3.328v-1.4h-1.2v1.4a4.356,4.356,0,0,1-2.834,4.03l.65.936a4.863,4.863,0,0,0,2.782-2.9,4.7,4.7,0,0,0,2.626,2.717l.676-.936A4.112,4.112,0,0,1,15.678-8.242ZM13.7.832h7.7V-.13H14.924V-2.678H13.7Zm4.03-6.24h2.21V-1.82h1.2V-10.3h-1.2v1.612h-2.21V-7.7h2.21V-6.37h-2.21Z" transform="translate(46.5 21)" fill="#ddd"/>
      </g>
      <g id="구성_요소_16_574" data-name="구성 요소 16 – 574" transform="translate(863 6909)">
        <rect id="사각형_2072-20" data-name="사각형 2072" width="93" height="32" rx="4" fill="#2a4252"/>
        <path id="패스_27436" data-name="패스 27436" d="M-.442-3.9H-10.816v.988H-6.24V1.066h1.17V-2.912H-.442Zm-9.8-1.794.468.936A5.629,5.629,0,0,0-5.629-7.241,5.659,5.659,0,0,0-1.456-4.758l.442-.936c-2.158-.3-3.913-1.573-3.926-2.964H-1.4V-9.62h-8.45v.962h3.536C-6.344-7.267-8.1-5.993-10.244-5.694ZM10.816-4.55H.416v.988H5.122v2.21h1.17v-2.21h4.524ZM1.69.832H9.672V-.13H2.912V-2.444H1.69ZM1.742-5.72H9.464V-9.776H1.742Zm1.17-.962V-8.814H8.268v2.132Z" transform="translate(46.5 21)" fill="#ddd"/>
      </g>
      <g id="구성_요소_16_575" data-name="구성 요소 16 – 575" transform="translate(863 6949)">
        <rect id="사각형_2072-21" data-name="사각형 2072" width="93" height="32" rx="4" fill="#2a4252"/>
        <path id="패스_27438" data-name="패스 27438" d="M-1.326-10.3h-1.2v2.912H-4.654V-6.4h2.132v2.86h1.2Zm-9.49,5.746.624.962a4.843,4.843,0,0,0,2.873-2.8A4.549,4.549,0,0,0-4.628-3.9L-4-4.862a3.737,3.737,0,0,1-2.73-3.432v-.234H-4.29v-.988h-6.136v.988h2.47v.26A4.1,4.1,0,0,1-10.816-4.55ZM-9-1.066C-9,.286-7.527,1.066-5.148,1.066S-1.3.286-1.3-1.066-2.756-3.211-5.148-3.2C-7.527-3.211-9-2.418-9-1.066Zm1.2,0c0-.767.988-1.209,2.652-1.222,1.664.013,2.652.455,2.652,1.222S-3.484.143-5.148.13C-6.812.143-7.8-.3-7.8-1.066ZM4.368-8.216V-9.594h-1.2v1.352A4,4,0,0,1,.338-4.42l.65.962A4.729,4.729,0,0,0,3.809-6.214a4.612,4.612,0,0,0,2.717,2.5L7.15-4.68A3.841,3.841,0,0,1,4.368-8.216ZM2.158.832h7.7V-.13H3.38v-2.6H2.158ZM8.164-1.924h1.2V-5.85H11V-6.89H9.36V-10.3h-1.2Z" transform="translate(46.5 21)" fill="#ddd"/>
      </g>
      <g id="구성_요소_16_576" data-name="구성 요소 16 – 576" transform="translate(863 6989)">
        <rect id="사각형_2072-22" data-name="사각형 2072" width="194" height="32" rx="4" fill="#2a4252"/>
        <path id="패스_27440" data-name="패스 27440" d="M-12.246-7.41V-9.36h-1.222v1.95A5.733,5.733,0,0,1-16.51-2.262l.728,1.014A6.009,6.009,0,0,0-12.844-4.94,5.807,5.807,0,0,0-9.958-1.508l.7-.936A5.547,5.547,0,0,1-12.246-7.41Zm4.03,8.5h1.222V-10.3H-8.216ZM.572-8.684v-.858H-.676v.858c-.026,1.859-1.989,3.6-4.134,4l.52,1.014A6.231,6.231,0,0,0-.039-6.877,6.085,6.085,0,0,0,4.186-3.666L4.732-4.68C2.548-5.083.585-6.825.572-8.684ZM-5.2-.416H5.226V-1.43H-5.2ZM10.868-9.568H6.552v5.486H7.28a21.94,21.94,0,0,0,4.186-.286l-.1-.962A20.577,20.577,0,0,1,7.7-5.044V-6.422h2.73v-.936H7.7V-8.58h3.172ZM8.138.936H15.73v-3.9H8.138Zm1.2-.988V-2H14.56v1.95ZM10.946-6.5h1.4v2.938h1.144v-6.552H12.35v2.626h-1.4Zm3.64,3.042H15.73V-10.3H14.586Z" transform="translate(97 21)" fill="#ddd"/>
      </g>
      <g id="구성_요소_16_577" data-name="구성 요소 16 – 577" transform="translate(964 6829)">
        <rect id="사각형_2072-23" data-name="사각형 2072" width="93" height="32" rx="4" fill="#2a4252"/>
        <path id="패스_27433" data-name="패스 27433" d="M-1.612-9.2H-9.724v.988h6.916v.13A25.813,25.813,0,0,1-3.25-2.912l1.2.13a25.553,25.553,0,0,0,.442-5.3Zm-9.2,8.736H-.442v-.988H-5.668v-4h-1.2v4h-3.952ZM10.114-10.3H8.97v2.782H7.592v-2.574H6.448v6.422H7.592v-2.86H8.97v2.938h1.144Zm-9.7,5.9.6.91c2.9-1.209,4.381-3.224,4.394-5.98H.91V-8.5H4.16C3.965-6.708,2.7-5.291.416-4.394ZM2.34-2.132H8.918v3.2h1.2v-4.16H2.34Z" transform="translate(46.5 21)" fill="#ddd"/>
      </g>
      <g id="구성_요소_16_578" data-name="구성 요소 16 – 578" transform="translate(964 6869)">
        <rect id="사각형_2072-24" data-name="사각형 2072" width="93" height="32" rx="4" fill="#2a4252"/>
        <path id="패스_27435" data-name="패스 27435" d="M-1.326-10.3h-1.2V-7.2H-4.706v.962h2.184v4.29h1.2Zm-9.49,5.954.624.988A4.707,4.707,0,0,0-7.332-6.1a4.532,4.532,0,0,0,2.7,2.483L-4-4.576a3.72,3.72,0,0,1-2.73-3.406v-.442H-4.29v-.988h-6.136v.988h2.47v.442A3.967,3.967,0,0,1-10.816-4.342ZM-8.71.832h7.67V-.13H-7.514V-2.7h-1.2ZM4.6-7.41V-9.36H3.38v1.95A5.733,5.733,0,0,1,.338-2.262l.728,1.014A6.009,6.009,0,0,0,4-4.94,5.807,5.807,0,0,0,6.89-1.508l.7-.936A5.547,5.547,0,0,1,4.6-7.41Zm4.03,8.5H9.854V-10.3H8.632Z" transform="translate(46.5 21)" fill="#ddd"/>
      </g>
      <g id="구성_요소_16_579" data-name="구성 요소 16 – 579" transform="translate(964 6909)">
        <rect id="사각형_2072-25" data-name="사각형 2072" width="93" height="32" rx="4" fill="#2a4252"/>
        <path id="패스_27437" data-name="패스 27437" d="M-9.282-9.23h-1.144v7.514h4.42V-9.23H-7.124v2.7H-9.282Zm0,6.526v-2.86h2.158V-2.7ZM-4.732.52h1.144V-4.862h1.4V1.066H-1.04V-10.3H-2.184V-5.85h-1.4v-4.238H-4.732ZM6.188-6.318h-1.2v1.612H.416v.962H10.79v-.962h-4.6ZM1.014-6.63l.442.936A5.725,5.725,0,0,0,5.59-8.112,5.721,5.721,0,0,0,9.7-5.694l.494-.936C7.982-6.916,6.2-8.19,6.214-9.646v-.468H4.992v.468C4.979-8.2,3.2-6.916,1.014-6.63ZM1.638-.91C1.651.351,3.12,1.066,5.59,1.066S9.516.351,9.516-.91c0-1.287-1.456-2-3.926-2S1.651-2.2,1.638-.91Zm1.248,0c-.026-.7.949-1.066,2.7-1.066S8.307-1.612,8.32-.91C8.307-.234,7.332.143,5.59.13,3.835.143,2.86-.234,2.886-.91Z" transform="translate(46.5 21)" fill="#ddd"/>
      </g>
      <g id="구성_요소_16_580" data-name="구성 요소 16 – 580" transform="translate(964 6949)">
        <rect id="사각형_2072-26" data-name="사각형 2072" width="93" height="32" rx="4" fill="#2a4252"/>
        <path id="패스_27439" data-name="패스 27439" d="M-18.46-9.2h-8.112v.988h6.916v.13A25.813,25.813,0,0,1-20.1-2.912l1.2.13a25.553,25.553,0,0,0,.442-5.3Zm-9.2,8.736H-17.29v-.988h-5.226v-4h-1.2v4h-3.952ZM-6.734-10.3H-7.878v2.782H-9.256v-2.574H-10.4v6.422h1.144v-2.86h1.378v2.938h1.144Zm-9.7,5.9.6.91c2.9-1.209,4.381-3.224,4.394-5.98h-4.5V-8.5h3.25C-12.883-6.708-14.144-5.291-16.432-4.394Zm1.924,2.262H-7.93v3.2h1.2v-4.16h-7.774ZM-1.092-7.41V-9.36H-2.314v1.95A5.859,5.859,0,0,1-5.252-2.262L-4.5-1.3A6.042,6.042,0,0,0-1.69-4.992,5.714,5.714,0,0,0,1.092-1.508L1.82-2.47A5.459,5.459,0,0,1-1.092-7.41ZM.572-5.538H3.094v6.63h1.2V-10.3h-1.2v3.77H.572ZM15.47-10.3H14.248V1.092H15.47ZM6.656-1.612h5.46V-9.36h-1.17v2.938H7.878V-9.36H6.656ZM7.878-2.626v-2.86h3.068v2.86ZM23.036-8.684v-.858H21.788v.858c-.026,1.859-1.989,3.6-4.134,4l.52,1.014a6.231,6.231,0,0,0,4.251-3.211A6.085,6.085,0,0,0,26.65-3.666L27.2-4.68C25.012-5.083,23.049-6.825,23.036-8.684ZM17.264-.416H27.69V-1.43H17.264Z" transform="translate(46.5 21)" fill="#ddd"/>
      </g>
      <path id="패스_27431" data-name="패스 27431" d="M-30.768-9.344v-2.24h-1.76v2.24c-.032,2.64-1.312,5.36-3.616,6.432l1.12,1.408a7.122,7.122,0,0,0,3.376-4.368A6.794,6.794,0,0,0-28.336-1.76l1.056-1.376C-29.52-4.144-30.784-6.72-30.768-9.344Zm1.92,2.592h2.976v8.16h1.728V-12.736h-1.728V-8.16h-2.976Zm18.432-5.984h-1.76V1.408h1.76ZM-21.424-1.92h6.88v-9.664h-1.728v3.52H-19.7v-3.52h-1.728ZM-19.7-3.36V-6.688h3.424V-3.36ZM-1.04-10.784V-11.84H-2.9v1.056C-2.912-8.624-5.04-6.432-7.952-5.92l.768,1.472A7.61,7.61,0,0,0-1.952-8.272a7.361,7.361,0,0,0,5.2,3.824l.8-1.472C1.088-6.416-1.056-8.608-1.04-10.784ZM-8.336-.416H4.56v-1.44h-12.9ZM20.592-11.872H10.8v1.408h8.064a22.021,22.021,0,0,1-.432,4.608H9.3v1.408h5.5V1.408h1.728V-4.448H22.16V-5.856H20.192a24.248,24.248,0,0,0,.4-4.768Zm7.68,1.152v-1.248H26.544v1.344a4.9,4.9,0,0,1-3.52,4.7l.928,1.376a5.72,5.72,0,0,0,3.5-3.344A5.412,5.412,0,0,0,30.672-4.96L31.6-6.336A4.482,4.482,0,0,1,28.272-10.72ZM25.36-1.344c-.016,1.744,1.824,2.72,4.8,2.72,2.992,0,4.816-.976,4.832-2.72-.016-1.712-1.84-2.7-4.832-2.72C27.184-4.048,25.344-3.056,25.36-1.344Zm1.728,0c-.016-.88,1.1-1.344,3.072-1.344s3.088.464,3.1,1.344c-.016.88-1.136,1.36-3.1,1.344C28.192.016,27.072-.464,27.088-1.344Zm3.3-7.232H33.2v4.16h1.728v-8.32H33.2v2.72H30.384Z" transform="translate(959 6793)" fill="#fff"/>
      <line id="선_46" data-name="선 46" x2="194" transform="translate(862.5 6813)" fill="none" stroke="#2a4252" stroke-width="1"/>
    </g>
    <g id="그룹_5007" data-name="그룹 5007">
      <line id="선_55-3" data-name="선 55" x2="40" transform="translate(960 7058) rotate(90)" fill="none" stroke="#10e4ff" stroke-width="1" stroke-dasharray="3 4"/>
      <g id="그룹_4990" data-name="그룹 4990" transform="translate(332.5 -214.5)">
        <circle id="타원_43" data-name="타원 43" cx="5.5" cy="5.5" r="5.5" transform="translate(622 7307)" fill="#10e4ff" opacity="0.2"/>
        <circle id="타원_44" data-name="타원 44" cx="2.5" cy="2.5" r="2.5" transform="translate(625 7310)" fill="#10e4ff"/>
      </g>
      <g id="그룹_5006" data-name="그룹 5006" transform="translate(332.5 -254.5)">
        <circle id="타원_43-2" data-name="타원 43" cx="5.5" cy="5.5" r="5.5" transform="translate(622 7307)" fill="#10e4ff" opacity="0.2"/>
        <circle id="타원_44-2" data-name="타원 44" cx="2.5" cy="2.5" r="2.5" transform="translate(625 7310)" fill="#10e4ff"/>
      </g>
    </g>
    <g id="그룹_5008" data-name="그룹 5008" transform="translate(0 -321)">
      <line id="선_55-4" data-name="선 55" x2="40" transform="translate(960 7058) rotate(90)" fill="none" stroke="#10e4ff" stroke-width="1" stroke-dasharray="3 4"/>
      <g id="그룹_4990-2" data-name="그룹 4990" transform="translate(332.5 -214.5)">
        <circle id="타원_43-3" data-name="타원 43" cx="5.5" cy="5.5" r="5.5" transform="translate(622 7307)" fill="#10e4ff" opacity="0.2"/>
        <circle id="타원_44-3" data-name="타원 44" cx="2.5" cy="2.5" r="2.5" transform="translate(625 7310)" fill="#10e4ff"/>
      </g>
      <g id="그룹_5006-2" data-name="그룹 5006" transform="translate(332.5 -254.5)">
        <circle id="타원_43-4" data-name="타원 43" cx="5.5" cy="5.5" r="5.5" transform="translate(622 7307)" fill="#10e4ff" opacity="0.2"/>
        <circle id="타원_44-4" data-name="타원 44" cx="2.5" cy="2.5" r="2.5" transform="translate(625 7310)" fill="#10e4ff"/>
      </g>
    </g>
  </g>
</svg>
