<svg xmlns="http://www.w3.org/2000/svg" width="272" height="382" viewBox="0 0 272 382">
  <g id="그룹_5865" data-name="그룹 5865" transform="translate(-44 -7258)">
    <rect id="사각형_2448" data-name="사각형 2448" width="272" height="382" rx="6" transform="translate(44 7258)" fill="#182e3c"/>
    <g id="사각형_2067" data-name="사각형 2067" transform="translate(56 7274)" fill="none" stroke="#3f4b64" stroke-width="1">
      <rect width="120" height="100" rx="6" stroke="none"/>
      <rect x="0.5" y="0.5" width="119" height="99" rx="5.5" fill="none"/>
    </g>
    <g id="사각형_2449" data-name="사각형 2449" transform="translate(186 7274)" fill="none" stroke="#3f4b64" stroke-width="1">
      <rect width="120" height="100" rx="6" stroke="none"/>
      <rect x="0.5" y="0.5" width="119" height="99" rx="5.5" fill="none"/>
    </g>
    <g id="그룹_5009" data-name="그룹 5009" transform="translate(81 7292.079)">
      <g id="monitor">
        <path id="패스_25742" data-name="패스 25742" d="M65.9,25H4.1A4.111,4.111,0,0,0,0,29.109V69.93a4.111,4.111,0,0,0,4.1,4.109H65.9A4.111,4.111,0,0,0,70,69.93V29.109A4.111,4.111,0,0,0,65.9,25Z" transform="translate(0 -25)" fill="#2a4252"/>
        <path id="패스_25743" data-name="패스 25743" d="M126.941,418.976H115.833V413H94.165v5.976H83.057a2.037,2.037,0,1,0,0,4.074h43.884a2.037,2.037,0,1,0,0-4.074Z" transform="translate(-69.999 -359.886)" fill="#2a4252"/>
      </g>
      <path id="패스_27410" data-name="패스 27410" d="M-10.764,0H-4.94V-1.2H-9.36V-4H-5.3V-5.2H-9.36V-7.982h4.368V-9.2h-5.772ZM-3.3,0h1.4V-3.484H.039L1.924,0H3.51L1.482-3.718a2.559,2.559,0,0,0,1.69-2.6c0-1.69-1.053-2.873-3.2-2.886H-3.3Zm1.4-4.68v-3.3H-.156c1.352-.013,1.911.637,1.924,1.664C1.755-5.278,1.2-4.68-.156-4.68ZM4.706,0h1.4V-3.224H7.982a2.866,2.866,0,0,0,3.2-2.99,2.872,2.872,0,0,0-3.2-2.99H4.706Zm1.4-4.42V-7.982H7.852A1.664,1.664,0,0,1,9.776-6.214,1.687,1.687,0,0,1,7.852-4.42Z" transform="translate(35 29.947)" fill="#fff"/>
    </g>
    <g id="그룹_5862" data-name="그룹 5862" transform="translate(211 7292.079)">
      <g id="monitor-2" data-name="monitor">
        <path id="패스_25742-2" data-name="패스 25742" d="M65.9,25H4.1A4.111,4.111,0,0,0,0,29.109V69.93a4.111,4.111,0,0,0,4.1,4.109H65.9A4.111,4.111,0,0,0,70,69.93V29.109A4.111,4.111,0,0,0,65.9,25Z" transform="translate(0 -25)" fill="#2a4252"/>
        <path id="패스_25743-2" data-name="패스 25743" d="M126.941,418.976H115.833V413H94.165v5.976H83.057a2.037,2.037,0,1,0,0,4.074h43.884a2.037,2.037,0,1,0,0-4.074Z" transform="translate(-69.999 -359.886)" fill="#2a4252"/>
      </g>
      <path id="패스_27411" data-name="패스 27411" d="M-12.246,0l.832-2.418h3.588L-6.994,0h1.508L-8.814-9.2h-1.612l-3.3,9.2ZM-11-3.588l1.352-3.926h.078l1.339,3.926ZM-4.316,0h1.4V-3.484H-.975L.91,0H2.5L.468-3.718a2.559,2.559,0,0,0,1.69-2.6c0-1.69-1.053-2.873-3.2-2.886H-4.316Zm1.4-4.68v-3.3H-1.17C.182-7.995.741-7.345.754-6.318.741-5.278.182-4.68-1.17-4.68ZM3.692-9.2V0H5.018V-6.656H5.1L7.8-.026H8.918l2.7-6.6H11.7V0h1.326V-9.2h-1.69L8.424-2.08h-.1L5.382-9.2Z" transform="translate(35 29.947)" fill="#fff"/>
    </g>
    <g id="사각형_2444" data-name="사각형 2444" transform="translate(56 7384)" fill="none" stroke="#3f4b64" stroke-width="1">
      <rect width="120" height="100" rx="6" stroke="none"/>
      <rect x="0.5" y="0.5" width="119" height="99" rx="5.5" fill="none"/>
    </g>
    <g id="사각형_2450" data-name="사각형 2450" transform="translate(186 7384)" fill="none" stroke="#3f4b64" stroke-width="1">
      <rect width="120" height="100" rx="6" stroke="none"/>
      <rect x="0.5" y="0.5" width="119" height="99" rx="5.5" fill="none"/>
    </g>
    <g id="그룹_5841" data-name="그룹 5841" transform="translate(81 7402.079)">
      <g id="monitor-3" data-name="monitor">
        <path id="패스_25742-3" data-name="패스 25742" d="M65.9,25H4.1A4.111,4.111,0,0,0,0,29.109V69.93a4.111,4.111,0,0,0,4.1,4.109H65.9A4.111,4.111,0,0,0,70,69.93V29.109A4.111,4.111,0,0,0,65.9,25Z" transform="translate(0 -25)" fill="#2a4252"/>
        <path id="패스_25743-3" data-name="패스 25743" d="M126.941,418.976H115.833V413H94.165v5.976H83.057a2.037,2.037,0,1,0,0,4.074h43.884a2.037,2.037,0,1,0,0-4.074Z" transform="translate(-69.999 -359.886)" fill="#2a4252"/>
      </g>
      <path id="패스_27412" data-name="패스 27412" d="M-5.46-4.6c0-2.938-1.755-4.719-4.134-4.706-2.392-.013-4.147,1.768-4.16,4.706C-13.741-1.664-11.986.13-9.594.13S-5.46-1.651-5.46-4.6Zm-6.89,0c0-2.223,1.17-3.445,2.756-3.432C-8.021-8.047-6.838-6.825-6.838-4.6S-8.021-1.157-9.594-1.144C-11.18-1.157-12.35-2.366-12.35-4.6Zm8.476-4.6V0h1.326V-6.656h.078l2.7,6.63H1.352l2.7-6.6h.078V0H5.46V-9.2H3.77L.858-2.08h-.1L-2.184-9.2ZM12.35-6.76H13.7c-.052-1.5-1.352-2.561-3.224-2.548C8.619-9.321,7.215-8.268,7.2-6.682,7.215-5.4,8.125-4.641,9.62-4.238l1.066.286c.988.26,1.742.585,1.742,1.4,0,.884-.845,1.482-2.028,1.482-1.066,0-1.95-.481-2.028-1.482h-1.4C7.059-.871,8.346.156,10.4.156c2.171,0,3.419-1.144,3.406-2.7.013-1.651-1.456-2.3-2.626-2.574l-.91-.234c-.715-.195-1.664-.533-1.664-1.4,0-.78.715-1.352,1.846-1.352C11.505-8.112,12.246-7.618,12.35-6.76Z" transform="translate(35 29.947)" fill="#fff"/>
    </g>
    <g id="그룹_5863" data-name="그룹 5863" transform="translate(211 7402.079)">
      <g id="monitor-4" data-name="monitor">
        <path id="패스_25742-4" data-name="패스 25742" d="M65.9,25H4.1A4.111,4.111,0,0,0,0,29.109V69.93a4.111,4.111,0,0,0,4.1,4.109H65.9A4.111,4.111,0,0,0,70,69.93V29.109A4.111,4.111,0,0,0,65.9,25Z" transform="translate(0 -25)" fill="#2a4252"/>
        <path id="패스_25743-4" data-name="패스 25743" d="M126.941,418.976H115.833V413H94.165v5.976H83.057a2.037,2.037,0,1,0,0,4.074h43.884a2.037,2.037,0,1,0,0-4.074Z" transform="translate(-69.999 -359.886)" fill="#2a4252"/>
      </g>
      <path id="패스_27413" data-name="패스 27413" d="M-11.8,0h1.4V-3.224h1.872a2.866,2.866,0,0,0,3.2-2.99,2.872,2.872,0,0,0-3.2-2.99H-11.8Zm1.4-4.42V-7.982h1.742A1.664,1.664,0,0,1-6.734-6.214,1.687,1.687,0,0,1-8.658-4.42ZM4.108-4.6c0-2.938-1.755-4.719-4.134-4.706C-2.418-9.321-4.173-7.54-4.186-4.6-4.173-1.664-2.418.13-.026.13S4.108-1.651,4.108-4.6Zm-6.89,0c0-2.223,1.17-3.445,2.756-3.432C1.547-8.047,2.73-6.825,2.73-4.6S1.547-1.157-.026-1.144C-1.612-1.157-2.782-2.366-2.782-4.6ZM10.712-6.76h1.352c-.052-1.5-1.352-2.561-3.224-2.548-1.859-.013-3.263,1.04-3.276,2.626.013,1.287.923,2.041,2.418,2.444l1.066.286c.988.26,1.742.585,1.742,1.4,0,.884-.845,1.482-2.028,1.482-1.066,0-1.95-.481-2.028-1.482H5.33C5.421-.871,6.708.156,8.762.156c2.171,0,3.419-1.144,3.406-2.7.013-1.651-1.456-2.3-2.626-2.574l-.91-.234c-.715-.195-1.664-.533-1.664-1.4,0-.78.715-1.352,1.846-1.352C9.867-8.112,10.608-7.618,10.712-6.76Z" transform="translate(35 29.947)" fill="#fff"/>
    </g>
    <g id="사각형_2446" data-name="사각형 2446" transform="translate(56 7494)" fill="none" stroke="#3f4b64" stroke-width="1">
      <rect width="120" height="100" rx="6" stroke="none"/>
      <rect x="0.5" y="0.5" width="119" height="99" rx="5.5" fill="none"/>
    </g>
    <g id="사각형_2451" data-name="사각형 2451" transform="translate(186 7494)" fill="none" stroke="#3f4b64" stroke-width="1">
      <rect width="120" height="100" rx="6" stroke="none"/>
      <rect x="0.5" y="0.5" width="119" height="99" rx="5.5" fill="none"/>
    </g>
    <g id="그룹_5843" data-name="그룹 5843" transform="translate(81 7512.079)">
      <g id="monitor-5" data-name="monitor">
        <path id="패스_25742-5" data-name="패스 25742" d="M65.9,25H4.1A4.111,4.111,0,0,0,0,29.109V69.93a4.111,4.111,0,0,0,4.1,4.109H65.9A4.111,4.111,0,0,0,70,69.93V29.109A4.111,4.111,0,0,0,65.9,25Z" transform="translate(0 -25)" fill="#2a4252"/>
        <path id="패스_25743-5" data-name="패스 25743" d="M126.941,418.976H115.833V413H94.165v5.976H83.057a2.037,2.037,0,1,0,0,4.074h43.884a2.037,2.037,0,1,0,0-4.074Z" transform="translate(-69.999 -359.886)" fill="#2a4252"/>
      </g>
      <path id="패스_27414" data-name="패스 27414" d="M-1.326-10.3h-1.2V-8.71H-5.005a5.614,5.614,0,0,0,.091-1.066h-5.122v.988h3.8c-.195,1.677-1.677,2.938-4.394,3.536l.416.988c2.522-.572,4.238-1.742,4.94-3.51h2.756v1.248H-5.434v.936h2.912V-4.5h1.2ZM-8.762-3.068h6.214v1.014H-8.736V.962H-.988V0H-7.54V-1.144h6.214V-4.03H-8.762ZM10.166-10.3H9.022V1.066h1.144ZM.26-2.054l.728.884A5.663,5.663,0,0,0,3.276-4.6,5.287,5.287,0,0,0,5.512-1.43l.728-.884a5.414,5.414,0,0,1-2.392-4.81v-.91H5.8v-.988H.6v.988h2.08v.91A5.863,5.863,0,0,1,.26-2.054ZM4.966-5.278H6.734V.494H7.878V-10.062H6.734v3.8H4.966Z" transform="translate(35 22.947)" fill="#fff"/>
      <path id="패스_27415" data-name="패스 27415" d="M-19.459.11c1.562,0,2.717-.946,2.706-2.222a1.789,1.789,0,0,0-1.606-1.87v-.066a1.732,1.732,0,0,0,1.32-1.738,2.163,2.163,0,0,0-2.376-2.09A2.327,2.327,0,0,0-21.989-5.83h.924a1.473,1.473,0,0,1,1.628-1.21,1.288,1.288,0,0,1,1.452,1.3c.011.792-.649,1.331-1.606,1.32h-.616v.858h.616c1.221,0,1.892.6,1.892,1.452,0,.8-.737,1.364-1.76,1.364-.935,0-1.672-.462-1.716-1.21h-.99C-22.11-.726-21,.11-19.459.11ZM-15.367,0h.946V-3.674a1.366,1.366,0,0,1,1.452-1.364,2.185,2.185,0,0,1,.55.066v-.946c-.1,0-.33-.011-.462,0A1.561,1.561,0,0,0-14.4-4.95h-.066v-.88h-.9Zm5.885.132A1.83,1.83,0,0,0-7.788-.9H-7.7V0h.9V-7.788h-.924v2.882h-.066A1.8,1.8,0,0,0-9.482-5.918c-1.463.011-2.486,1.166-2.486,3.014S-10.945.121-9.482.132Zm-1.54-3.058c-.011-1.21.539-2.156,1.672-2.156,1.078,0,1.65.869,1.65,2.156C-7.7-1.606-8.294-.7-9.35-.7-10.461-.7-11.033-1.683-11.022-2.926Zm8.558,5.1h.946V-.9h.066A1.816,1.816,0,0,0,.242.132C1.7.121,2.717-1.045,2.728-2.9,2.717-4.752,1.7-5.907.242-5.918A1.813,1.813,0,0,0-1.452-4.906h-.11V-5.83h-.9Zm.924-5.1c0-1.287.572-2.156,1.65-2.156,1.133,0,1.683.946,1.694,2.156C1.793-1.683,1.221-.7.11-.7-.957-.7-1.54-1.606-1.54-2.926ZM3.652-1.65a1.8,1.8,0,0,0,2,1.782A1.82,1.82,0,0,0,7.37-.792h.044V0h.924V-3.85a1.953,1.953,0,0,0-2.2-2.068c-1.287.011-2.2.66-2.31,1.606H4.8a1.215,1.215,0,0,1,1.3-.792c.891,0,1.331.429,1.32,1.166v.484c-.264,0-1.188.055-1.562.088C4.829-3.3,3.652-2.992,3.652-1.65Zm.924.044c0-.638.539-.935,1.386-.99l1.452-.11v.594A1.476,1.476,0,0,1,5.786-.682C5.093-.682,4.576-.99,4.576-1.606ZM9.812,0h.946V-3.674A1.366,1.366,0,0,1,12.21-5.038a2.185,2.185,0,0,1,.55.066v-.946c-.1,0-.33-.011-.462,0a1.561,1.561,0,0,0-1.518.968h-.066v-.88h-.9ZM16.6-5.83H15.367V-7.238h-.946V-5.83h-.88v.77h.88v3.63a1.491,1.491,0,0,0,1.606,1.5,2.48,2.48,0,0,0,.638-.044V-.836a4.244,4.244,0,0,1-.55.022c-.385.011-.759-.11-.748-.858V-5.06H16.6Zm1.76,8.008A1.764,1.764,0,0,0,20.119.836L22.583-5.83H21.571L19.987-1.21h-.066L18.315-5.83h-.99L19.481.044l-.176.44c-.308.858-.627.88-.99.88-.154,0-.363-.011-.462-.022v.814A2.371,2.371,0,0,0,18.359,2.178Z" transform="translate(35 36.813)" fill="#10e4ff"/>
    </g>
    <g id="그룹_5864" data-name="그룹 5864" transform="translate(211 7512.079)">
      <g id="monitor-6" data-name="monitor">
        <path id="패스_25742-6" data-name="패스 25742" d="M65.9,25H4.1A4.111,4.111,0,0,0,0,29.109V69.93a4.111,4.111,0,0,0,4.1,4.109H65.9A4.111,4.111,0,0,0,70,69.93V29.109A4.111,4.111,0,0,0,65.9,25Z" transform="translate(0 -25)" fill="#2a4252"/>
        <path id="패스_25743-6" data-name="패스 25743" d="M126.941,418.976H115.833V413H94.165v5.976H83.057a2.037,2.037,0,1,0,0,4.074h43.884a2.037,2.037,0,1,0,0-4.074Z" transform="translate(-69.999 -359.886)" fill="#2a4252"/>
      </g>
      <path id="패스_27416" data-name="패스 27416" d="M-9.282-9.23h-1.144v7.514h4.42V-9.23H-7.124v2.7H-9.282Zm0,6.526v-2.86h2.158V-2.7ZM-4.732.52h1.144V-4.862h1.4V1.066H-1.04V-10.3H-2.184V-5.85h-1.4v-4.238H-4.732ZM6.188-6.318h-1.2v1.612H.416v.962H10.79v-.962h-4.6ZM1.014-6.63l.442.936A5.725,5.725,0,0,0,5.59-8.112,5.721,5.721,0,0,0,9.7-5.694l.494-.936C7.982-6.916,6.2-8.19,6.214-9.646v-.468H4.992v.468C4.979-8.2,3.2-6.916,1.014-6.63ZM1.638-.91C1.651.351,3.12,1.066,5.59,1.066S9.516.351,9.516-.91c0-1.287-1.456-2-3.926-2S1.651-2.2,1.638-.91Zm1.248,0c-.026-.7.949-1.066,2.7-1.066S8.307-1.612,8.32-.91C8.307-.234,7.332.143,5.59.13,3.835.143,2.86-.234,2.886-.91Z" transform="translate(35 22.947)" fill="#fff"/>
      <path id="패스_27417" data-name="패스 27417" d="M-19.459.11c1.562,0,2.717-.946,2.706-2.222a1.789,1.789,0,0,0-1.606-1.87v-.066a1.732,1.732,0,0,0,1.32-1.738,2.163,2.163,0,0,0-2.376-2.09A2.327,2.327,0,0,0-21.989-5.83h.924a1.473,1.473,0,0,1,1.628-1.21,1.288,1.288,0,0,1,1.452,1.3c.011.792-.649,1.331-1.606,1.32h-.616v.858h.616c1.221,0,1.892.6,1.892,1.452,0,.8-.737,1.364-1.76,1.364-.935,0-1.672-.462-1.716-1.21h-.99C-22.11-.726-21,.11-19.459.11ZM-15.367,0h.946V-3.674a1.366,1.366,0,0,1,1.452-1.364,2.185,2.185,0,0,1,.55.066v-.946c-.1,0-.33-.011-.462,0A1.561,1.561,0,0,0-14.4-4.95h-.066v-.88h-.9Zm5.885.132A1.83,1.83,0,0,0-7.788-.9H-7.7V0h.9V-7.788h-.924v2.882h-.066A1.8,1.8,0,0,0-9.482-5.918c-1.463.011-2.486,1.166-2.486,3.014S-10.945.121-9.482.132Zm-1.54-3.058c-.011-1.21.539-2.156,1.672-2.156,1.078,0,1.65.869,1.65,2.156C-7.7-1.606-8.294-.7-9.35-.7-10.461-.7-11.033-1.683-11.022-2.926Zm8.558,5.1h.946V-.9h.066A1.816,1.816,0,0,0,.242.132C1.7.121,2.717-1.045,2.728-2.9,2.717-4.752,1.7-5.907.242-5.918A1.813,1.813,0,0,0-1.452-4.906h-.11V-5.83h-.9Zm.924-5.1c0-1.287.572-2.156,1.65-2.156,1.133,0,1.683.946,1.694,2.156C1.793-1.683,1.221-.7.11-.7-.957-.7-1.54-1.606-1.54-2.926ZM3.652-1.65a1.8,1.8,0,0,0,2,1.782A1.82,1.82,0,0,0,7.37-.792h.044V0h.924V-3.85a1.953,1.953,0,0,0-2.2-2.068c-1.287.011-2.2.66-2.31,1.606H4.8a1.215,1.215,0,0,1,1.3-.792c.891,0,1.331.429,1.32,1.166v.484c-.264,0-1.188.055-1.562.088C4.829-3.3,3.652-2.992,3.652-1.65Zm.924.044c0-.638.539-.935,1.386-.99l1.452-.11v.594A1.476,1.476,0,0,1,5.786-.682C5.093-.682,4.576-.99,4.576-1.606ZM9.812,0h.946V-3.674A1.366,1.366,0,0,1,12.21-5.038a2.185,2.185,0,0,1,.55.066v-.946c-.1,0-.33-.011-.462,0a1.561,1.561,0,0,0-1.518.968h-.066v-.88h-.9ZM16.6-5.83H15.367V-7.238h-.946V-5.83h-.88v.77h.88v3.63a1.491,1.491,0,0,0,1.606,1.5,2.48,2.48,0,0,0,.638-.044V-.836a4.244,4.244,0,0,1-.55.022c-.385.011-.759-.11-.748-.858V-5.06H16.6Zm1.76,8.008A1.764,1.764,0,0,0,20.119.836L22.583-5.83H21.571L19.987-1.21h-.066L18.315-5.83h-.99L19.481.044l-.176.44c-.308.858-.627.88-.99.88-.154,0-.363-.011-.462-.022v.814A2.371,2.371,0,0,0,18.359,2.178Z" transform="translate(35 36.813)" fill="#10e4ff"/>
    </g>
    <path id="패스_27418" data-name="패스 27418" d="M-37.425,0h4.5c2.385,0,3.645-1.245,3.66-2.91A2.462,2.462,0,0,0-31.6-5.49v-.12a2.274,2.274,0,0,0,1.92-2.28c-.015-1.59-1.185-2.715-3.51-2.73h-4.23Zm2.19-1.8V-4.65h1.92a1.55,1.55,0,0,1,1.77,1.5c0,.81-.555,1.335-1.83,1.35Zm0-4.35V-8.82h1.74c1,0,1.575.525,1.59,1.29a1.462,1.462,0,0,1-1.62,1.38ZM-26.115,0l.8-2.43h3.84l.8,2.43h2.37l-3.66-10.62h-2.85L-28.485,0Zm1.35-4.17,1.32-4.05h.09l1.32,4.05ZM-10.53-6.9h2.22a4.252,4.252,0,0,0-4.59-3.84c-2.79-.015-4.92,1.98-4.92,5.43S-15.72.15-12.9.15A4.351,4.351,0,0,0-8.31-3.6h-2.22a2.2,2.2,0,0,1-2.31,1.8c-1.635-.015-2.745-1.215-2.73-3.51-.015-2.22,1.08-3.5,2.73-3.48A2.152,2.152,0,0,1-10.53-6.9ZM-6.75,0h2.19V-3.03l1.11-1.35L-.51,0H2.13L-1.86-5.85,2.1-10.62H-.57L-4.41-5.91h-.15v-4.71H-6.75ZM7.395-6.15H2.565v1.71h4.83ZM9.255,0H16.4V-1.83h-4.95V-4.41h4.56v-1.8h-4.56V-8.79h4.92v-1.83H9.255Zm17.67-10.62h-2.19v6.75h-.09l-4.65-6.75h-1.92V0h2.19V-6.75h.09L25,0h1.92ZM32.445,0c3.24,0,5.205-2,5.19-5.31.015-3.315-1.95-5.3-5.13-5.31h-3.78V0Zm-1.53-1.89V-8.73h1.47c1.995.015,3.06,1.05,3.06,3.42s-1.065,3.42-3.09,3.42Z" transform="translate(180 7620)" fill="#fff"/>
  </g>
</svg>
