<svg xmlns="http://www.w3.org/2000/svg" width="780" height="189.5" viewBox="0 0 780 189.5">
  <g id="그룹_5016" data-name="그룹 5016" transform="translate(-570 -7256.5)">
    <g id="사각형_2067" data-name="사각형 2067" transform="translate(570 7295)" fill="none" stroke="#3f4b64" stroke-width="1">
      <rect width="116" height="116" rx="6" stroke="none"/>
      <rect x="0.5" y="0.5" width="115" height="115" rx="5.5" fill="none"/>
    </g>
    <g id="사각형_2067-2" data-name="사각형 2067" transform="translate(702 7295.447)" fill="none" stroke="#3f4b64" stroke-width="1">
      <rect width="116" height="116" rx="6" stroke="none"/>
      <rect x="0.5" y="0.5" width="115" height="115" rx="5.5" fill="none"/>
    </g>
    <g id="사각형_2067-3" data-name="사각형 2067" transform="translate(834 7295.447)" fill="none" stroke="#3f4b64" stroke-width="1">
      <rect width="116" height="116" rx="6" stroke="none"/>
      <rect x="0.5" y="0.5" width="115" height="115" rx="5.5" fill="none"/>
    </g>
    <g id="사각형_2067-4" data-name="사각형 2067" transform="translate(966 7295.447)" fill="none" stroke="#3f4b64" stroke-width="1">
      <rect width="116" height="116" rx="6" stroke="none"/>
      <rect x="0.5" y="0.5" width="115" height="115" rx="5.5" fill="none"/>
    </g>
    <g id="사각형_2067-5" data-name="사각형 2067" transform="translate(1098 7295.447)" fill="none" stroke="#3f4b64" stroke-width="1">
      <rect width="116" height="116" rx="6" stroke="none"/>
      <rect x="0.5" y="0.5" width="115" height="115" rx="5.5" fill="none"/>
    </g>
    <g id="사각형_2067-6" data-name="사각형 2067" transform="translate(1234 7295.447)" fill="none" stroke="#3f4b64" stroke-width="1">
      <rect width="116" height="116" rx="6" stroke="none"/>
      <rect x="0.5" y="0.5" width="115" height="115" rx="5.5" fill="none"/>
    </g>
    <text id="Back-end" transform="translate(960 7442)" fill="#fff" font-size="16" font-family="Pretendard-SemiBold, Pretendard" font-weight="600"><tspan x="-40.2" y="0">BACK-END</tspan></text>
    <path id="패스_25740" data-name="패스 25740" d="M-3797,20122v-38.447h664V20122" transform="translate(4424.5 -12826.553)" fill="none" stroke="#10e4ff" stroke-width="1" stroke-dasharray="3 4"/>
    <path id="패스_25741" data-name="패스 25741" d="M0,0V39" transform="translate(760.5 7256.947)" fill="none" stroke="#10e4ff" stroke-width="1" stroke-dasharray="3 4"/>
    <line id="선_51" data-name="선 51" y2="39" transform="translate(892.5 7256.947)" fill="none" stroke="#10e4ff" stroke-width="1" stroke-dasharray="3 4"/>
    <line id="선_52" data-name="선 52" y2="39" transform="translate(1024.5 7256.947)" fill="none" stroke="#10e4ff" stroke-width="1" stroke-dasharray="3 4"/>
    <line id="선_53" data-name="선 53" y2="39" transform="translate(1156.5 7256.947)" fill="none" stroke="#10e4ff" stroke-width="1" stroke-dasharray="3 4"/>
    <g id="그룹_4992" data-name="그룹 4992" transform="translate(0 -17.053)">
      <circle id="타원_43" data-name="타원 43" cx="5.5" cy="5.5" r="5.5" transform="translate(622 7307)" fill="#10e4ff" opacity="0.2"/>
      <circle id="타원_44" data-name="타원 44" cx="2.5" cy="2.5" r="2.5" transform="translate(625 7310)" fill="#10e4ff"/>
    </g>
    <g id="그룹_4993" data-name="그룹 4993" transform="translate(133 -17.053)">
      <circle id="타원_43-2" data-name="타원 43" cx="5.5" cy="5.5" r="5.5" transform="translate(622 7307)" fill="#10e4ff" opacity="0.2"/>
      <circle id="타원_44-2" data-name="타원 44" cx="2.5" cy="2.5" r="2.5" transform="translate(625 7310)" fill="#10e4ff"/>
    </g>
    <g id="그룹_4994" data-name="그룹 4994" transform="translate(265 -17.053)">
      <circle id="타원_43-3" data-name="타원 43" cx="5.5" cy="5.5" r="5.5" transform="translate(622 7307)" fill="#10e4ff" opacity="0.2"/>
      <circle id="타원_44-3" data-name="타원 44" cx="2.5" cy="2.5" r="2.5" transform="translate(625 7310)" fill="#10e4ff"/>
    </g>
    <g id="그룹_4995" data-name="그룹 4995" transform="translate(397 -17.053)">
      <circle id="타원_43-4" data-name="타원 43" cx="5.5" cy="5.5" r="5.5" transform="translate(622 7307)" fill="#10e4ff" opacity="0.2"/>
      <circle id="타원_44-4" data-name="타원 44" cx="2.5" cy="2.5" r="2.5" transform="translate(625 7310)" fill="#10e4ff"/>
    </g>
    <g id="그룹_4996" data-name="그룹 4996" transform="translate(529 -17.053)">
      <circle id="타원_43-5" data-name="타원 43" cx="5.5" cy="5.5" r="5.5" transform="translate(622 7307)" fill="#10e4ff" opacity="0.2"/>
      <circle id="타원_44-5" data-name="타원 44" cx="2.5" cy="2.5" r="2.5" transform="translate(625 7310)" fill="#10e4ff"/>
    </g>
    <g id="그룹_4997" data-name="그룹 4997" transform="translate(664 -17.053)">
      <circle id="타원_43-6" data-name="타원 43" cx="5.5" cy="5.5" r="5.5" transform="translate(622 7307)" fill="#10e4ff" opacity="0.2"/>
      <circle id="타원_44-6" data-name="타원 44" cx="2.5" cy="2.5" r="2.5" transform="translate(625 7310)" fill="#10e4ff"/>
    </g>
    <g id="그룹_5009" data-name="그룹 5009">
      <g id="monitor" transform="translate(593 7300.865)">
        <path id="패스_25742" data-name="패스 25742" d="M65.9,25H4.1A4.111,4.111,0,0,0,0,29.109V69.93a4.111,4.111,0,0,0,4.1,4.109H65.9A4.111,4.111,0,0,0,70,69.93V29.109A4.111,4.111,0,0,0,65.9,25Z" transform="translate(0 0)" fill="#2a4252"/>
        <path id="패스_25743" data-name="패스 25743" d="M126.941,418.976H115.833V413H94.165v5.976H83.057a2.037,2.037,0,1,0,0,4.074h43.884a2.037,2.037,0,1,0,0-4.074Z" transform="translate(-69.999 -334.886)" fill="#2a4252"/>
      </g>
      <text id="ERP" transform="translate(628 7355.813)" fill="#fff" font-size="13" font-family="Pretendard-Medium, Pretendard" font-weight="500"><tspan x="-11.7" y="0">ERP</tspan></text>
    </g>
    <g id="그룹_5010" data-name="그룹 5010" transform="translate(132.5)">
      <g id="monitor-2" data-name="monitor" transform="translate(593 7300.865)">
        <path id="패스_25742-2" data-name="패스 25742" d="M65.9,25H4.1A4.111,4.111,0,0,0,0,29.109V69.93a4.111,4.111,0,0,0,4.1,4.109H65.9A4.111,4.111,0,0,0,70,69.93V29.109A4.111,4.111,0,0,0,65.9,25Z" transform="translate(0 0)" fill="#2a4252"/>
        <path id="패스_25743-2" data-name="패스 25743" d="M126.941,418.976H115.833V413H94.165v5.976H83.057a2.037,2.037,0,1,0,0,4.074h43.884a2.037,2.037,0,1,0,0-4.074Z" transform="translate(-69.999 -334.886)" fill="#2a4252"/>
      </g>
      <text id="Arm" transform="translate(628 7355.813)" fill="#fff" font-size="13" font-family="Pretendard-Medium, Pretendard" font-weight="500"><tspan x="-13.962" y="0">ARM</tspan></text>
    </g>
    <g id="그룹_5011" data-name="그룹 5011" transform="translate(264)">
      <g id="monitor-3" data-name="monitor" transform="translate(593 7300.865)">
        <path id="패스_25742-3" data-name="패스 25742" d="M65.9,25H4.1A4.111,4.111,0,0,0,0,29.109V69.93a4.111,4.111,0,0,0,4.1,4.109H65.9A4.111,4.111,0,0,0,70,69.93V29.109A4.111,4.111,0,0,0,65.9,25Z" transform="translate(0 0)" fill="#2a4252"/>
        <path id="패스_25743-3" data-name="패스 25743" d="M126.941,418.976H115.833V413H94.165v5.976H83.057a2.037,2.037,0,1,0,0,4.074h43.884a2.037,2.037,0,1,0,0-4.074Z" transform="translate(-69.999 -334.886)" fill="#2a4252"/>
      </g>
      <text id="Oms" transform="translate(628 7355.813)" fill="#fff" font-size="13" font-family="Pretendard-Medium, Pretendard" font-weight="500"><tspan x="-14.378" y="0">OMS</tspan></text>
    </g>
    <g id="그룹_5012" data-name="그룹 5012" transform="translate(396)">
      <g id="monitor-4" data-name="monitor" transform="translate(593 7300.865)">
        <path id="패스_25742-4" data-name="패스 25742" d="M65.9,25H4.1A4.111,4.111,0,0,0,0,29.109V69.93a4.111,4.111,0,0,0,4.1,4.109H65.9A4.111,4.111,0,0,0,70,69.93V29.109A4.111,4.111,0,0,0,65.9,25Z" transform="translate(0 0)" fill="#2a4252"/>
        <path id="패스_25743-4" data-name="패스 25743" d="M126.941,418.976H115.833V413H94.165v5.976H83.057a2.037,2.037,0,1,0,0,4.074h43.884a2.037,2.037,0,1,0,0-4.074Z" transform="translate(-69.999 -334.886)" fill="#2a4252"/>
      </g>
      <text id="pos" transform="translate(628 7355.813)" fill="#fff" font-size="13" font-family="Pretendard-Medium, Pretendard" font-weight="500"><tspan x="-12.74" y="0">POS</tspan></text>
    </g>
    <g id="그룹_5013" data-name="그룹 5013" transform="translate(528)">
      <g id="monitor-5" data-name="monitor" transform="translate(593 7300.865)">
        <path id="패스_25742-5" data-name="패스 25742" d="M65.9,25H4.1A4.111,4.111,0,0,0,0,29.109V69.93a4.111,4.111,0,0,0,4.1,4.109H65.9A4.111,4.111,0,0,0,70,69.93V29.109A4.111,4.111,0,0,0,65.9,25Z" transform="translate(0 0)" fill="#2a4252"/>
        <path id="패스_25743-5" data-name="패스 25743" d="M126.941,418.976H115.833V413H94.165v5.976H83.057a2.037,2.037,0,1,0,0,4.074h43.884a2.037,2.037,0,1,0,0-4.074Z" transform="translate(-69.999 -334.886)" fill="#2a4252"/>
      </g>
      <g id="그룹_5014" data-name="그룹 5014" transform="translate(0 -10)">
        <text id="결제" transform="translate(628 7358.813)" fill="#fff" font-size="13" font-family="Pretendard-Medium, Pretendard" font-weight="500"><tspan x="-11.232" y="0">결제</tspan></text>
        <text id="_3rd_party" data-name="3rd party" transform="translate(628 7372.813)" fill="#10e4ff" font-size="12" font-family="Pretendard-Regular, Pretendard"><tspan x="-24.948" y="0">3rd party</tspan></text>
      </g>
    </g>
    <g id="그룹_5015" data-name="그룹 5015" transform="translate(663.5)">
      <g id="monitor-6" data-name="monitor" transform="translate(593 7300.865)">
        <path id="패스_25742-6" data-name="패스 25742" d="M65.9,25H4.1A4.111,4.111,0,0,0,0,29.109V69.93a4.111,4.111,0,0,0,4.1,4.109H65.9A4.111,4.111,0,0,0,70,69.93V29.109A4.111,4.111,0,0,0,65.9,25Z" transform="translate(0 0)" fill="#2a4252"/>
        <path id="패스_25743-6" data-name="패스 25743" d="M126.941,418.976H115.833V413H94.165v5.976H83.057a2.037,2.037,0,1,0,0,4.074h43.884a2.037,2.037,0,1,0,0-4.074Z" transform="translate(-69.999 -334.886)" fill="#2a4252"/>
      </g>
      <g id="그룹_5014-2" data-name="그룹 5014" transform="translate(0 -10)">
        <text id="배송" transform="translate(628 7358.813)" fill="#fff" font-size="13" font-family="Pretendard-Medium, Pretendard" font-weight="500"><tspan x="-11.232" y="0">배송</tspan></text>
        <text id="_3rd_party-2" data-name="3rd party" transform="translate(628 7372.813)" fill="#10e4ff" font-size="12" font-family="Pretendard-Regular, Pretendard"><tspan x="-24.948" y="0">3rd party</tspan></text>
      </g>
    </g>
  </g>
</svg>
