<svg xmlns="http://www.w3.org/2000/svg" width="272" height="322" viewBox="0 0 272 322">
  <g id="그룹_5827" data-name="그룹 5827" transform="translate(-44 -5604)">
    <rect id="사각형_2064" data-name="사각형 2064" width="272" height="322" rx="6" transform="translate(44 5604)" fill="#182e3c"/>
    <path id="패스_27410" data-name="패스 27410" d="M-13.38-1.65H-25.47V-.3h12.09Zm-11.1-7.74h1.92v4.2h-1.89V-3.9h9.96V-5.19h-1.89v-4.2h1.95v-1.32H-24.48Zm3.54,4.2v-4.2h2.97v4.2Zm20.52.66H-5.67V-5.7h3.99V-6.96H-9.39V-8.07h7.47v-3.54h-9.12v1.29h7.47v1.11h-7.44V-5.7h3.72v1.17h-5.25v1.32H-.42ZM-10.98,1.29h9.33V0H-9.36V-2.49h-1.62Zm22.17-6.3H3.57V-6.69h7.2V-7.98H3.57V-9.57H11.1v-1.32H1.92v7.2h9.27ZM.45-.3H12.54V-1.65H.45ZM25.47-6.39H20.22V-7.41h3.69v-4.11h-9v4.11H18.6v1.02H13.41v1.32H25.47ZM14.82,1.2h9.51V-.06H16.44v-.96h7.53V-4.29H14.82v1.26h7.53v.84H14.82Zm1.71-9.87v-1.59h5.76v1.59Z" transform="translate(180 5634)" fill="#fff"/>
    <g id="mo-다이어그램-박스" transform="translate(60 5662)">
      <rect id="사각형_2072" data-name="사각형 2072" width="240" height="28" rx="4" fill="#2a4252"/>
      <path id="패스_27423" data-name="패스 27423" d="M-5.52-8.4H-9.7v6.72H-5.52v-2.9H-4.3V.528h1.248V-9.36H-4.3v3.72H-5.52ZM-8.472-2.712V-7.368h1.728v4.656Zm6.336,3.744H-.888V-9.552H-2.136Zm11.3-10.56h-1.3V-1.9h1.3ZM.552-6.192a2.652,2.652,0,0,0,2.856,2.64A2.645,2.645,0,0,0,6.24-6.192a2.652,2.652,0,0,0-2.832-2.64A2.659,2.659,0,0,0,.552-6.192Zm1.272,0A1.468,1.468,0,0,1,3.408-7.7a1.474,1.474,0,0,1,1.56,1.512A1.468,1.468,0,0,1,3.408-4.68,1.462,1.462,0,0,1,1.824-6.192ZM2.16.84h7.3V-.216H3.48V-2.664H2.16Z" transform="translate(120 18)" fill="#ddd"/>
    </g>
    <g id="mo-다이어그램-박스-2" data-name="mo-다이어그램-박스" transform="translate(60 5698)">
      <rect id="사각형_2072-2" data-name="사각형 2072" width="116" height="28" rx="4" fill="#2a4252"/>
      <path id="패스_27412" data-name="패스 27412" d="M-19.284-7.872v-1.1h-1.3v.984a3.674,3.674,0,0,1-2.568,3.528l.7,1.032A4.191,4.191,0,0,0-19.92-5.88a4.045,4.045,0,0,0,2.436,2.136l.7-1.008A3.3,3.3,0,0,1-19.284-7.872ZM-21.708-.984c0,1.284,1.368,2.016,3.576,2.016S-14.58.3-14.58-.984c0-1.26-1.356-2-3.552-1.992C-20.34-2.988-21.708-2.244-21.708-.984Zm1.3,0c0-.624.828-.972,2.28-.984,1.452.012,2.268.36,2.28.984-.012.648-.828.984-2.28.984S-20.412-.336-20.412-.984ZM-16-3.216h1.32V-5.9h1.488v-1.08h-1.488V-9.552H-16Zm12.984-1.32H-12.66V-3.5h4.152v1.032h-3.024V.912h7.344V-2.472H-7.212V-3.5h4.2ZM-11.8-8.184h1.464v1.8h-1.416v1.056h7.776V-6.384H-5.364v-1.8H-3.9V-9.24h-7.9Zm1.56,8.04v-1.32H-5.46v1.32Zm1.2-6.24v-1.8H-6.66v1.8ZM1,0H2.508V-2.88H4.14A2.7,2.7,0,0,0,7.164-5.688a2.713,2.713,0,0,0-3-2.808H1ZM2.508-4.128V-7.2h1.44A1.434,1.434,0,0,1,5.6-5.688a1.461,1.461,0,0,1-1.656,1.56ZM11.292,0c2.58,0,4.1-1.6,4.1-4.248S13.872-8.484,11.34-8.5H8.412V0ZM9.924-1.32V-7.176h1.32c1.74.012,2.64.984,2.64,2.928s-.9,2.928-2.664,2.928ZM16.764,0h1.512V-2.88h1.632a2.7,2.7,0,0,0,3.024-2.808,2.713,2.713,0,0,0-3-2.808H16.764Zm1.512-4.128V-7.2h1.44a1.434,1.434,0,0,1,1.656,1.512,1.461,1.461,0,0,1-1.656,1.56Z" transform="translate(58 18)" fill="#ddd"/>
    </g>
    <g id="mo-다이어그램-박스-3" data-name="mo-다이어그램-박스" transform="translate(60 5806)">
      <rect id="사각형_2072-3" data-name="사각형 2072" width="116" height="28" rx="4" fill="#2a4252"/>
      <path id="패스_27417" data-name="패스 27417" d="M-11.736-8.592h-7.632v1.056h6.312a22.888,22.888,0,0,1-.408,4.848l1.32.12a26.425,26.425,0,0,0,.408-4.992Zm-8.64,8.256h9.648V-1.392h-4.8v-3.7h-1.3v3.7h-3.552ZM-.96-9.528H-2.184v2.5H-3.312v-2.3H-4.536v5.952h1.224V-5.952h1.128v2.616H-.96ZM-10.08-4.2l.624.96C-6.72-4.344-5.388-6.18-5.4-8.808H-9.6v1.056h2.868C-6.936-6.192-8.016-4.992-10.08-4.2Zm1.824,2.352h6v2.88h1.3V-2.88h-7.3Zm17.664-7.7H8.184v7.944H9.408ZM.288-4.032l.72.984A4.026,4.026,0,0,0,3-5.292a3.6,3.6,0,0,0,1.848,1.98L5.592-4.32A3.233,3.233,0,0,1,3.624-7.392v-1.44H2.352v1.44A3.722,3.722,0,0,1,.288-4.032ZM2.3.84H9.7V-.216H3.624V-2.568H2.3ZM4.632-5.976H6.048V-1.92H7.3V-9.36H6.048v2.328H4.632ZM19.608-9.552h-1.3v3.84H16.32V-4.68h1.992V1.056h1.3Zm-8.4,8.16h.816a28.12,28.12,0,0,0,4.8-.312L16.68-2.736a27.835,27.835,0,0,1-4.176.288V-4.632h3.24V-5.664H12.5v-1.92h3.648V-8.64H11.208Z" transform="translate(58 18)" fill="#ddd"/>
    </g>
    <g id="mo-다이어그램-박스-4" data-name="mo-다이어그램-박스" transform="translate(60 5734)">
      <rect id="사각형_2072-4" data-name="사각형 2072" width="116" height="28" rx="4" fill="#2a4252"/>
      <path id="패스_27413" data-name="패스 27413" d="M-6.384-9.552H-7.7V1.056h1.32ZM-14.856-5.04c-.012,2.3,1.152,3.756,2.76,3.744,1.6.012,2.76-1.44,2.76-3.744,0-2.28-1.164-3.732-2.76-3.744C-13.7-8.772-14.868-7.32-14.856-5.04Zm1.248,0c0-1.608.612-2.568,1.512-2.568s1.5.96,1.512,2.568c-.012,1.632-.624,2.58-1.512,2.568C-13-2.46-13.608-3.408-13.608-5.04ZM4.224-9.552H3v8.016H4.224Zm-8.64,6.12H-.24V-5.52H.888v3.648H2.112V-9.36H.888v2.784H-.24V-8.712h-1.2v1.68H-3.192v-1.68H-4.416Zm1.224-1.056v-1.56H-1.44v1.56ZM-2.88.84H4.512V-.216H-1.56V-2.592H-2.88ZM14.136-4.008H8.04V-5.352H13.8V-6.384H8.04V-7.656h6.024V-8.712H6.72v5.76h7.416ZM5.544-.24h9.672V-1.32H5.544Z" transform="translate(58 18)" fill="#ddd"/>
    </g>
    <g id="mo-다이어그램-박스-5" data-name="mo-다이어그램-박스" transform="translate(60 5842)">
      <rect id="사각형_2072-5" data-name="사각형 2072" width="116" height="28" rx="4" fill="#2a4252"/>
      <path id="패스_27419" data-name="패스 27419" d="M-12.876-3.648h-9.648v1.056h4.152V1.032h1.3V-2.592h4.2ZM-22.02-5.376l.48,1.032A5.129,5.129,0,0,0-17.7-6.588a5.085,5.085,0,0,0,3.84,2.244l.48-1.032c-2.088-.264-3.468-1.368-3.564-2.544h3.18V-8.952h-7.872V-7.92h3.18C-18.564-6.744-19.956-5.64-22.02-5.376ZM-2.484-4.248h-9.7v1.032h4.3v1.944h1.3V-3.216h4.1ZM-11,.84h7.44V-.216H-9.708V-2.232H-11Zm.048-6.072h7.224v-3.84h-7.224Zm1.272-1.032V-8.04h4.656v1.776ZM2.028-8.88H.732L-2,1.272h1.3Zm9.336-.672h-1.3v1.416H7.92A4.93,4.93,0,0,0,8-9.1H3.228V-8.04H6.564C6.372-6.624,5.136-5.532,2.652-5.016L3.084-3.96C5.436-4.488,7-5.532,7.644-7.152h2.424V-6.1H7.524v.984h2.544V-4.2h1.3ZM4.4.936h7.248V-.1H5.7V-.984h5.664V-3.768H4.4v1.032h5.664v.768H4.4ZM21.972-9.552H20.748V1.032h1.224ZM12.684-1.968l.792.96a5.162,5.162,0,0,0,2.052-3.048,4.634,4.634,0,0,0,2,2.808l.768-.96a4.922,4.922,0,0,1-2.16-4.44v-.72h1.7V-8.424h-4.8v1.056h1.848v.72A5.422,5.422,0,0,1,12.684-1.968ZM17.076-4.8h1.536V.528h1.224V-9.336H18.612v3.48H17.076Z" transform="translate(58 18)" fill="#ddd"/>
    </g>
    <g id="mo-다이어그램-박스-6" data-name="mo-다이어그램-박스" transform="translate(60 5770)">
      <rect id="사각형_2072-6" data-name="사각형 2072" width="116" height="28" rx="4" fill="#2a4252"/>
      <path id="패스_27415" data-name="패스 27415" d="M-17.052-8.9H-21.9v1.056h3.444c-.228,1.548-1.632,2.784-4,3.432l.528,1.008C-18.852-4.26-17.052-6.18-17.052-8.9ZM-20.628.912h6.96V-3.144h-6.96ZM-19.356-.12V-2.112h4.392V-.12ZM-17-5.88h2.04v2.3h1.3V-9.528h-1.3V-6.96H-17Zm8.16-1.752v-1.3h-1.272v1.3a3.464,3.464,0,0,1-2.136,3.168l.7,1.008A3.937,3.937,0,0,0-9.48-5.64,3.615,3.615,0,0,0-7.5-3.72l.7-1.008A3.048,3.048,0,0,1-8.844-7.632Zm-1.512,6.048H-4.4V1.032h1.3V-2.616h-7.248Zm3.744-1.608h1.2v-2.64h1.08v2.688h1.224V-9.528H-4.332v2.616h-1.08V-9.36h-1.2ZM2.028-8.88H.732L-2,1.272h1.3ZM12.156-3.192H2.508v1.08H6.66V1.056h1.3V-2.112h4.2Zm-9.12-1.68L3.492-3.84a5.285,5.285,0,0,0,3.828-2,5.3,5.3,0,0,0,3.8,2l.48-1.032c-2.124-.252-3.516-1.344-3.612-2.4h3.252V-8.3H7.956V-9.552H6.66V-8.3H3.4v1.032H6.648C6.54-6.216,5.148-5.124,3.036-4.872Zm13.632-2.16V-7.2h2.208V-8.232H16.692V-9.48h-1.32v1.248H13.164V-7.2h2.208v.168a3.364,3.364,0,0,1-2.544,3.168l.648,1.008a4.149,4.149,0,0,0,2.568-2.268,4.115,4.115,0,0,0,2.568,2.1l.624-1.008A3.281,3.281,0,0,1,16.668-7.032ZM14.8.84H22V-.216h-5.9V-2.352H14.8ZM18.54-5.328h1.9V-1.68h1.3V-9.528h-1.3v3.144h-1.9Z" transform="translate(58 18)" fill="#ddd"/>
    </g>
    <g id="mo-다이어그램-박스-7" data-name="mo-다이어그램-박스" transform="translate(60 5878)">
      <rect id="사각형_2072-7" data-name="사각형 2072" width="116" height="28" rx="4" fill="#2a4252"/>
      <path id="패스_27421" data-name="패스 27421" d="M-12.948-9.552h-1.3v2.64h-1.8v1.08h1.8v2.568h1.3Zm-8.9,5.232.7,1.032a4.353,4.353,0,0,0,2.6-2.472,4.063,4.063,0,0,0,2.46,2.184l.672-1.032a3.354,3.354,0,0,1-2.5-3.12V-7.8h2.184V-8.856h-5.712V-7.8h2.208v.072A3.667,3.667,0,0,1-21.852-4.32Zm1.728,3.336c-.012,1.284,1.368,2.028,3.6,2.04C-14.28,1.044-12.912.3-12.9-.984c-.012-1.26-1.38-2-3.624-2.016C-18.756-2.988-20.136-2.244-20.124-.984Zm1.3,0c-.012-.648.828-1.008,2.3-1.008s2.316.36,2.328,1.008c-.012.672-.852,1.02-2.328,1.008C-18,.036-18.84-.312-18.828-.984ZM-2.6-9.552h-1.32V1.032H-2.6Zm-8.76,7.68.672,1.032A7.769,7.769,0,0,0-5.748-8.424h-5.088v1.032H-7.08C-7.32-4.98-8.6-3.192-11.364-1.872ZM10.26-8.9H2.916v1.056H8.964A16.516,16.516,0,0,1,8.64-4.392H1.788v1.056H5.916V1.056h1.3V-3.336h4.224V-4.392H9.96a18.186,18.186,0,0,0,.3-3.576ZM21.8-4.368H17.628V-5.424h3.12V-6.48h-6.12V-8.088h6.024V-9.12h-7.32v3.7h2.976v1.056H12.156v1.032H21.8Zm-8.592,2.9h6.144V1.08h1.272V-2.5H13.212Z" transform="translate(58 18)" fill="#ddd"/>
    </g>
    <g id="mo-다이어그램-박스-8" data-name="mo-다이어그램-박스" transform="translate(184 5698)">
      <rect id="사각형_2072-8" data-name="사각형 2072" width="116" height="28" rx="4" fill="#2a4252"/>
      <path id="패스_27411" data-name="패스 27411" d="M-13.248-9.528h-1.3v2.784h-1.872v1.056h1.872V-1.8h1.3ZM-22.128-4.1l.672,1.056a4.291,4.291,0,0,0,2.592-2.424,4.12,4.12,0,0,0,2.472,2.208L-15.72-4.3a3.381,3.381,0,0,1-2.5-3.144v-.288h2.184V-8.784h-5.712v1.056h2.208v.288A3.557,3.557,0,0,1-22.128-4.1ZM-20.184.84h7.2V-.216h-5.9V-2.472h-1.3ZM-7.752-7.008v-1.68h-1.3v1.68a5.209,5.209,0,0,1-2.808,4.824l.792,1.1A5.379,5.379,0,0,0-8.388-4.4a5.194,5.194,0,0,0,2.6,3.06l.768-1.032A5.031,5.031,0,0,1-7.752-7.008Zm3.5,8.064h1.32V-9.552h-1.32ZM1.92,0H3.432V-2.88H5.064A2.7,2.7,0,0,0,8.088-5.688a2.713,2.713,0,0,0-3-2.808H1.92ZM3.432-4.128V-7.2h1.44A1.434,1.434,0,0,1,6.528-5.688a1.461,1.461,0,0,1-1.656,1.56ZM9.336,0h5.256V-1.272H10.848V-8.5H9.336Zm6.5,0h1.512V-2.88h1.632a2.7,2.7,0,0,0,3.024-2.808,2.713,2.713,0,0,0-3-2.808H15.84Zm1.512-4.128V-7.2h1.44a1.434,1.434,0,0,1,1.656,1.512,1.461,1.461,0,0,1-1.656,1.56Z" transform="translate(58 18)" fill="#ddd"/>
    </g>
    <g id="mo-다이어그램-박스-9" data-name="mo-다이어그램-박스" transform="translate(184 5806)">
      <rect id="사각형_2072-9" data-name="사각형 2072" width="116" height="28" rx="4" fill="#2a4252"/>
      <path id="패스_27418" data-name="패스 27418" d="M-16.584-7.632v-.12h2.208V-8.808h-5.76v1.056H-17.9v.12A3.513,3.513,0,0,1-20.5-4.3l.648,1.032a4.261,4.261,0,0,0,2.64-2.412,4.052,4.052,0,0,0,2.5,2.076l.624-1.008A3.215,3.215,0,0,1-16.584-7.632ZM-19.056-.984c0,1.26,1.368,2.016,3.576,2.016s3.552-.756,3.552-2.016S-13.272-3-15.48-3-19.056-2.256-19.056-.984Zm1.3,0c0-.648.828-1,2.28-.984,1.452-.012,2.268.336,2.28.984-.012.648-.828,1-2.28.984C-16.932.012-17.76-.336-17.76-.984Zm4.416-2.256h1.32V-5.928h1.488v-1.08h-1.488V-9.552h-1.32ZM-1.728-9.552h-1.3V1.032h1.3V-4.416H-.1v-1.1H-1.728ZM-9.648-1.44H-4.56V-8.688h-1.3v2.64h-2.5v-2.64h-1.3Zm1.3-1.08v-2.5h2.5v2.5ZM8.832-8.9H1.488v1.056H7.536a16.516,16.516,0,0,1-.324,3.456H.36v1.056H4.488V1.056h1.3V-3.336h4.224V-4.392H8.532a18.186,18.186,0,0,0,.3-3.576ZM19.56-9.552h-1.3V1.032h1.3ZM11.328-1.608h.912a26.376,26.376,0,0,0,5.232-.5l-.168-1.1a23.93,23.93,0,0,1-4.68.48V-8.52h-1.3Z" transform="translate(58 18)" fill="#ddd"/>
    </g>
    <g id="mo-다이어그램-박스-10" data-name="mo-다이어그램-박스" transform="translate(184 5734)">
      <rect id="사각형_2072-10" data-name="사각형 2072" width="116" height="28" rx="4" fill="#2a4252"/>
      <path id="패스_27414" data-name="패스 27414" d="M-6.36-9.552H-7.68V1.032h1.32Zm-8.76,7.68.672,1.032A7.769,7.769,0,0,0-9.5-8.424h-5.088v1.032h3.756C-11.076-4.98-12.36-3.192-15.12-1.872ZM1.8-8.712H-.672v-.912h-1.32v.912H-4.464v.96H1.8Zm-6.576,5.04.168,1.008A42.5,42.5,0,0,0,2.04-3.072l-.1-.888c-.84.108-1.728.168-2.616.216V-4.32C.516-4.464,1.284-5.028,1.3-5.856,1.284-6.828.228-7.452-1.32-7.44c-1.584-.012-2.616.612-2.616,1.584,0,.828.744,1.38,1.944,1.536V-3.7C-2.988-3.672-3.936-3.672-4.776-3.672ZM-3.288-.96H2.688V1.032h1.32v-3h-7.3Zm.6-4.9c0-.456.54-.708,1.368-.72.8.012,1.356.264,1.368.72-.012.444-.564.7-1.368.7C-2.148-5.16-2.688-5.412-2.688-5.856ZM2.688-2.4h1.32V-9.528H2.688ZM14.4-9.528H13.1v2.784H11.232v1.056H13.1V-1.8h1.3ZM5.52-4.1l.672,1.056A4.291,4.291,0,0,0,8.784-5.472a4.12,4.12,0,0,0,2.472,2.208L11.928-4.3a3.381,3.381,0,0,1-2.5-3.144v-.288h2.184V-8.784H5.9v1.056H8.112v.288A3.557,3.557,0,0,1,5.52-4.1ZM7.464.84h7.2V-.216H8.76V-2.472h-1.3Z" transform="translate(58 18)" fill="#ddd"/>
    </g>
    <g id="mo-다이어그램-박스-11" data-name="mo-다이어그램-박스" transform="translate(184 5842)">
      <rect id="사각형_2072-11" data-name="사각형 2072" width="116" height="28" rx="4" fill="#2a4252"/>
      <path id="패스_27420" data-name="패스 27420" d="M-46-8.592h-1.248v7.08h4.176v-7.08h-1.2V-6.12H-46Zm0,6.024v-2.52h1.728v2.52Zm3.96,3.1h1.224v-4.92h1.128V1.032h1.248V-9.552h-1.248v4.1h-1.128V-9.36h-1.224Zm10.3-6.336h-1.3v1.392h-4.152v1.032h9.648V-4.416h-4.2Zm-4.944-.432.48,1.032A5.292,5.292,0,0,0-32.388-7.38,5.24,5.24,0,0,0-28.6-5.208l.5-1.032c-2.208-.276-3.636-1.44-3.624-2.736v-.408h-1.32v.408C-33.048-7.716-34.488-6.516-36.684-6.24Zm.6,5.424c.012,1.188,1.392,1.848,3.7,1.848s3.672-.66,3.672-1.848c0-1.212-1.368-1.884-3.672-1.872C-34.692-2.7-36.072-2.028-36.084-.816Zm1.344,0c-.012-.6.8-.888,2.352-.888s2.364.288,2.376.888c-.012.564-.84.864-2.376.864S-34.752-.252-34.74-.816ZM-23-8.88h-1.3L-27.036,1.272h1.3Zm9.168.288h-7.728v1.056h6.408v.048a22.055,22.055,0,0,1-.36,4.68l1.272.12a24.044,24.044,0,0,0,.408-4.8ZM-22.524-.336h9.648V-1.392h-3.552V-4.776h-1.3v3.384h-1.344V-4.776h-1.3v3.384h-2.16ZM-3.78-9.552h-1.3v8.28h1.3V-4.92h1.44V-6H-3.78Zm-8.472,6.168.144,1.008a38.393,38.393,0,0,0,6.576-.48l-.1-.912c-.852.132-1.752.216-2.664.276V-4.1c1.164-.156,1.9-.732,1.9-1.584,0-1.032-1.02-1.644-2.544-1.632-1.548-.012-2.568.6-2.568,1.632,0,.852.744,1.428,1.92,1.584v.672C-10.548-3.4-11.46-3.384-12.252-3.384Zm.264-4.3h6.072v-.936H-8.292v-.96h-1.3v.96h-2.4ZM-10.74.84H-3.4V-.216H-9.42V-1.824h-1.32Zm.48-6.528c0-.492.48-.756,1.32-.768.8.012,1.3.276,1.3.768,0,.456-.492.732-1.3.744C-9.78-4.956-10.26-5.232-10.26-5.688ZM2.028-8.88H.732L-2,1.272h1.3Zm8.832-.648H9.54v7.776h1.32V-5.4h1.488V-6.48H10.86ZM2.868-3.48h5.04v-5.3h-1.3v1.608H4.14V-8.784H2.868ZM4.068.84h7.2V-.216h-5.9V-2.544h-1.3ZM4.14-4.512V-6.168H6.612v1.656Zm18.384-.024H12.876V-3.5h4.152v1.032H14V.912h7.344V-2.472H18.324V-3.5h4.2ZM13.74-8.184H15.2v1.8H13.788v1.056h7.776V-6.384H20.172v-1.8h1.464V-9.24h-7.9ZM15.3-.144v-1.32h4.776v1.32Zm1.2-6.24v-1.8h2.376v1.8Zm10.56-2.5h-1.3L23.028,1.272h1.3Zm8.856-.672h-1.3v8.28h1.3V-4.92h1.44V-6h-1.44ZM27.444-3.384l.144,1.008a38.393,38.393,0,0,0,6.576-.48l-.1-.912c-.852.132-1.752.216-2.664.276V-4.1c1.164-.156,1.9-.732,1.9-1.584,0-1.032-1.02-1.644-2.544-1.632-1.548-.012-2.568.6-2.568,1.632,0,.852.744,1.428,1.92,1.584v.672C29.148-3.4,28.236-3.384,27.444-3.384Zm.264-4.3H33.78v-.936H31.4v-.96h-1.3v.96h-2.4ZM28.956.84H36.3V-.216H30.276V-1.824h-1.32Zm.48-6.528c0-.492.48-.756,1.32-.768.8.012,1.3.276,1.3.768,0,.456-.492.732-1.3.744C29.916-4.956,29.436-5.232,29.436-5.688Zm10.992-3.7H39.156v3.528h7.152V-9.384h-1.3v.84H40.428Zm-2.52,5.256H42.06v.768H39.036v.96H45.06v.7H39.036V.96h7.608V-.048H40.332V-.792h6.024V-3.36h-3v-.768h4.2v-1.08H37.908Zm2.52-2.712v-.768h4.584v.768Z" transform="translate(58 18)" fill="#ddd"/>
    </g>
    <g id="mo-다이어그램-박스-12" data-name="mo-다이어그램-박스" transform="translate(184 5770)">
      <rect id="사각형_2072-12" data-name="사각형 2072" width="116" height="28" rx="4" fill="#2a4252"/>
      <path id="패스_27416" data-name="패스 27416" d="M-5.52-1.344h-9.672V-.288H-5.52Zm-8.616-1.9h7.512V-8.832h-1.3v1.824h-4.92V-8.832h-1.3Zm1.3-1.032V-6h4.92v1.728ZM4.224-9.528H3V-6.48H1.872V-9.336H.672V-1.92h1.2v-3.5H3V-1.68H4.224Zm-8.616,6.36h.72A19.686,19.686,0,0,0,.24-3.456L.12-4.488A17.129,17.129,0,0,1-3.12-4.2V-5.472H-.384V-8.664H-4.392v1.032h2.76v1.2h-2.76ZM-2.88.84H4.512V-.216H-1.56V-2.4H-2.88ZM14.136-4.584H7.992V-7.56H14.04V-8.64H6.72v5.112h7.416ZM5.544-.312h9.672v-1.08H5.544Z" transform="translate(58 18)" fill="#ddd"/>
    </g>
    <g id="mo-다이어그램-박스-13" data-name="mo-다이어그램-박스" transform="translate(184 5878)">
      <rect id="사각형_2072-13" data-name="사각형 2072" width="116" height="28" rx="4" fill="#2a4252"/>
      <path id="패스_27422" data-name="패스 27422" d="M-11.568-9.528h-1.3v6h1.3ZM-20.184-6.5a2.619,2.619,0,0,0,2.856,2.52A2.611,2.611,0,0,0-14.5-6.5a2.576,2.576,0,0,0-2.832-2.52A2.584,2.584,0,0,0-20.184-6.5Zm1.272,0A1.4,1.4,0,0,1-17.328-7.92,1.408,1.408,0,0,1-15.768-6.5a1.428,1.428,0,0,1-1.56,1.416A1.423,1.423,0,0,1-18.912-6.5ZM-18.6.912h7.032V-3.024H-18.6Zm1.3-1.056V-1.992h4.464V-.144ZM-6-7.7v-.144h2.232V-8.88H-9.6v1.032h2.28V-7.7A3.591,3.591,0,0,1-9.936-4.368l.672,1.008a4.288,4.288,0,0,0,2.628-2.4A4.136,4.136,0,0,0-4.08-3.576l.672-1.008A3.355,3.355,0,0,1-6-7.7Zm-2.424,6.1H-2.5v2.64h1.3v-3.7H-8.424ZM-2.5-3.168h1.3V-9.552H-2.5ZM9.24-9.528H7.92V-3.36H5.856v.912H7.92v.912H9.24ZM.312-4.776.456-3.744c.84,0,1.788,0,2.784-.036v1.956h1.3V-3.852c.888-.06,1.8-.156,2.664-.3l-.072-.936A62.046,62.046,0,0,1,.312-4.776Zm.792-2.5C1.116-6.144,2.2-5.412,3.768-5.424c1.536.012,2.616-.72,2.616-1.848S5.3-9.156,3.768-9.144C2.184-9.156,1.116-8.4,1.1-7.272ZM1.7.84H9.48V-.216H3.024V-2.3H1.7Zm.648-8.112c-.012-.576.564-.924,1.416-.912.8-.012,1.38.336,1.392.912-.012.576-.588.9-1.392.912C2.916-6.372,2.34-6.7,2.352-7.272Zm18.024,2.16h-4.2v-.816h2.952V-9.216h-7.2v3.288H14.88v.816H10.728v1.056h9.648ZM11.856.96h7.608V-.048H13.152V-.816h6.024V-3.432h-7.32v1.008H17.88v.672H11.856Zm1.368-7.9V-8.208h4.608v1.272Z" transform="translate(58 18)" fill="#ddd"/>
    </g>
    <line id="선_44" data-name="선 44" x2="240" transform="translate(60 5650)" fill="none" stroke="#2a4252" stroke-width="1"/>
  </g>
</svg>
