<svg xmlns="http://www.w3.org/2000/svg" width="240" height="565" viewBox="0 0 240 565">
  <g id="그룹_5018" data-name="그룹 5018" transform="translate(-270 -6635)">
    <rect id="사각형_2064" data-name="사각형 2064" width="240" height="565" rx="6" transform="translate(270 6635)" fill="#182e3c"/>
    <path id="패스_27410" data-name="패스 27410" d="M-14.272-1.76h-12.9V-.32h12.9Zm-11.84-8.256h2.048v4.48H-26.08V-4.16h10.624V-5.536h-2.016v-4.48h2.08v-1.408h-10.72Zm3.776,4.48v-4.48h3.168v4.48Zm21.888.7h-5.6V-6.08h4.256V-7.424h-8.224V-8.608h7.968v-3.776h-9.728v1.376h7.968v1.184h-7.936V-6.08h3.968v1.248h-5.6v1.408H-.448ZM-11.712,1.376H-1.76V0H-9.984V-2.656h-1.728Zm23.648-6.72H3.808V-7.136h7.68V-8.512H3.808v-1.7H11.84v-1.408H2.048v7.68h9.888ZM.48-.32h12.9V-1.76H.48Zm26.688-6.5h-5.6V-7.9H25.5v-4.384H15.9V-7.9H19.84v1.088H14.3v1.408H27.168Zm-11.36,8.1H25.952V-.064H17.536V-1.088h8.032V-4.576h-9.76v1.344H23.84v.9H15.808ZM17.632-9.248v-1.7h6.144v1.7Z" transform="translate(391 6668)" fill="#fff"/>
    <g id="구성_요소_16_581" data-name="구성 요소 16 – 581" transform="translate(286 7104)">
      <rect id="사각형_2072" data-name="사각형 2072" width="209" height="32" rx="4" fill="#2a4252"/>
      <path id="패스_27423" data-name="패스 27423" d="M-12.61-10.3h-1.2v6.474h1.2Zm-9.2,3.276a2.789,2.789,0,0,0,3.042,2.678A2.781,2.781,0,0,0-15.756-7.02a2.777,2.777,0,0,0-3.016-2.7A2.786,2.786,0,0,0-21.814-7.02Zm1.17,0a1.679,1.679,0,0,1,1.872-1.664,1.648,1.648,0,0,1,1.82,1.664,1.651,1.651,0,0,1-1.82,1.638A1.682,1.682,0,0,1-20.644-7.02ZM-20.1.936h7.488v-4.16H-20.1Zm1.2-.988v-2.21h5.122v2.21ZM-6.6-8.268V-8.58h2.5v-.962h-6.266v.962h2.548v.312A4.018,4.018,0,0,1-10.686-4.6l.624.91A4.733,4.733,0,0,0-7.189-6.37,4.655,4.655,0,0,0-4.368-3.9l.624-.936A3.765,3.765,0,0,1-6.6-8.268Zm-2.47,6.4h6.5V1.066h1.2V-2.86h-7.7Zm6.5-1.56h1.2V-10.3h-1.2ZM9.88-10.3H8.658v6.682H6.4v.858H8.658v1.092H9.88ZM.364-5.1l.156.962c.923,0,1.989,0,3.094-.039v2.145h1.2v-2.21A28.422,28.422,0,0,0,7.8-4.576l-.078-.858A66.618,66.618,0,0,1,.364-5.1Zm.884-2.756c0,1.222,1.157,1.989,2.834,1.976C5.746-5.863,6.9-6.63,6.916-7.852c-.013-1.2-1.17-2-2.834-2S1.248-9.048,1.248-7.852ZM1.95.832h8.216V-.13H3.146V-2.5H1.95Zm.442-8.684c0-.676.689-1.1,1.69-1.092.975-.013,1.677.416,1.69,1.092-.013.676-.715,1.1-1.69,1.092C3.081-6.747,2.392-7.176,2.392-7.852Zm19.63,2.418H17.394v-.988h3.3v-3.51H12.974v3.51h3.25v.988H11.648v.988H22.022ZM12.9-2.7h6.63v.858h-6.6V.962h8.112V.026H14.092V-.962h6.63V-3.64H12.9Zm1.274-4.68V-8.97h5.3v1.586Z" transform="translate(104 21)" fill="#ddd"/>
    </g>
    <g id="구성_요소_16_582" data-name="구성 요소 16 – 582" transform="translate(286 7064)">
      <rect id="사각형_2072-2" data-name="사각형 2072" width="209" height="32" rx="4" fill="#2a4252"/>
      <path id="패스_27422" data-name="패스 27422" d="M-14.144-10.3h-1.2v2.912h-2.132V-6.4h2.132v2.86h1.2Zm-9.49,5.746.624.962a4.843,4.843,0,0,0,2.873-2.8A4.549,4.549,0,0,0-17.446-3.9l.624-.962a3.737,3.737,0,0,1-2.73-3.432v-.234h2.444v-.988h-6.136v.988h2.47v.26A4.1,4.1,0,0,1-23.634-4.55Zm1.82,3.484c0,1.352,1.469,2.132,3.848,2.132s3.848-.78,3.848-2.132S-15.574-3.211-17.966-3.2C-20.345-3.211-21.814-2.418-21.814-1.066Zm1.2,0c0-.767.988-1.209,2.652-1.222,1.664.013,2.652.455,2.652,1.222S-16.3.143-17.966.13C-19.63.143-20.618-.3-20.618-1.066Zm17.68-9.23H-4.16V1.066h1.222Zm-9.36,8.32.65.988c3.9-1.872,5.317-4.758,5.33-8.086h-5.408v.962h4.173C-7.787-5.46-9.256-3.406-12.3-1.976ZM11.05-9.568H3.276v.962H9.854v.026a17.269,17.269,0,0,1-.338,3.874H2v.988h4.55v4.81H7.774v-4.81h4.6v-.988H10.738A18.733,18.733,0,0,0,11.05-8.58ZM23.608-4.68H19.032V-5.928h3.406v-.988H15.73v-1.95h6.6v-.962h-7.8v3.9H17.81V-4.68H13.234v.988H23.608Zm-9.23,2.938h6.786V1.144h1.2V-2.7H14.378Z" transform="translate(104 21)" fill="#ddd"/>
    </g>
    <g id="구성_요소_16_583" data-name="구성 요소 16 – 583" transform="translate(286 7024)">
      <rect id="사각형_2072-3" data-name="사각형 2072" width="208" height="32" rx="4" fill="#2a4252"/>
      <path id="패스_27421" data-name="패스 27421" d="M-59.241-9.23h-1.144v7.514h4.42V-9.23h-1.118v2.7h-2.158Zm0,6.526v-2.86h2.158V-2.7ZM-54.691.52h1.144V-4.862h1.4V1.066H-51V-10.3h-1.144V-5.85h-1.4v-4.238h-1.144Zm10.92-6.838h-1.2v1.612h-4.576v.962h10.374v-.962h-4.6Zm-5.174-.312.442.936a5.725,5.725,0,0,0,4.134-2.418,5.721,5.721,0,0,0,4.108,2.418l.494-.936c-2.21-.286-3.991-1.56-3.978-3.016v-.468h-1.222v.468C-44.98-8.2-46.761-6.916-48.945-6.63Zm.624,5.72c.013,1.261,1.482,1.976,3.952,1.976S-40.443.351-40.443-.91c0-1.287-1.456-2-3.926-2S-48.308-2.2-48.321-.91Zm1.248,0c-.026-.7.949-1.066,2.7-1.066s2.717.364,2.73,1.066c-.013.676-.988,1.053-2.73,1.04C-46.124.143-47.1-.234-47.073-.91Zm15.86-8.71h-1.222l-2.964,11h1.222Zm13,.416H-26.4v.988h6.968v.234a22.618,22.618,0,0,1-.39,4.966l1.2.13a28.5,28.5,0,0,0,.416-5.1ZM-27.469-.468H-17.1v-.988H-21V-5.148h-1.17v3.692H-23.8V-5.148h-1.222v3.692h-2.444ZM-7.293-10.3h-1.2V-1.4h1.2V-5.382h1.638V-6.4H-7.293Zm-9.022,6.682.13.962a41.882,41.882,0,0,0,7.15-.52L-9.139-4c-.949.143-1.976.234-2.99.286v-.741c1.274-.143,2.08-.767,2.08-1.7,0-1.1-1.066-1.755-2.7-1.742-1.625-.013-2.7.637-2.7,1.742,0,.949.832,1.573,2.132,1.716v.793C-14.4-3.627-15.431-3.614-16.315-3.614Zm.286-4.732h6.578V-9.23h-2.678v-1.092h-1.2V-9.23h-2.7ZM-14.651.832h7.774V-.13h-6.552V-2h-1.222Zm.364-6.994c-.026-.585.572-.923,1.534-.936.975.013,1.56.351,1.56.936,0,.559-.585.91-1.56.91S-14.313-5.6-14.287-6.162ZM2.093-9.62H.871l-2.964,11H-.871ZM14.781-10.3h-1.2v8.372h1.2v-4h1.638v-.988H14.781Zm-8.5,6.474h5.356V-9.464h-1.2v1.82H7.475v-1.82h-1.2Zm1.2-.962V-6.708h2.964v1.924Zm.1,5.616h7.7V-.13h-6.5V-2.756h-1.2ZM27.443-4.862H17.069v.988h4.576v1.222H18.317V.936h7.852V-2.652H22.841V-3.874h4.6ZM18.031-8.97H19.7v2.184H18.083v.962h8.346v-.962H24.817V-8.97h1.664v-.988h-8.45ZM19.513-.052V-1.716H25V-.052Zm1.378-6.734V-8.97h2.73v2.184ZM35.4-9.62H34.177l-2.964,11h1.222ZM48.087-10.3h-1.2V-1.4h1.2V-5.382h1.638V-6.4H48.087ZM39.065-3.614l.13.962a41.882,41.882,0,0,0,7.15-.52L46.241-4c-.949.143-1.976.234-2.99.286v-.741c1.274-.143,2.08-.767,2.08-1.7,0-1.1-1.066-1.755-2.7-1.742-1.625-.013-2.7.637-2.7,1.742,0,.949.832,1.573,2.132,1.716v.793C40.976-3.627,39.949-3.614,39.065-3.614Zm.286-4.732h6.578V-9.23H43.251v-1.092h-1.2V-9.23h-2.7ZM40.729.832H48.5V-.13H41.951V-2H40.729Zm.364-6.994c-.026-.585.572-.923,1.534-.936.975.013,1.56.351,1.56.936,0,.559-.585.91-1.56.91S41.067-5.6,41.093-6.162Zm11.83-3.952h-1.2v3.77H59.4v-3.77H58.2v.988H52.923ZM50.375-4.55h4.576v.988H51.623v.91h6.63v.858h-6.6V.962h8.112V.026H52.819V-.91h6.63V-3.562h-3.3V-4.55h4.6v-.988H50.375Zm2.548-2.7v-.988H58.2v.988Z" transform="translate(104 21)" fill="#ddd"/>
    </g>
    <g id="구성_요소_16_584" data-name="구성 요소 16 – 584" transform="translate(286 6984)">
      <rect id="사각형_2072-4" data-name="사각형 2072" width="209" height="32" rx="4" fill="#2a4252"/>
      <path id="패스_27420" data-name="패스 27420" d="M-17.1-3.9H-27.469v.988h4.576V1.066h1.17V-2.912H-17.1Zm-9.8-1.794.468.936a5.629,5.629,0,0,0,4.147-2.483,5.659,5.659,0,0,0,4.173,2.483l.442-.936c-2.158-.3-3.913-1.573-3.926-2.964h3.536V-9.62h-8.45v.962h3.536C-23-7.267-24.752-5.993-26.9-5.694ZM-5.837-4.55h-10.4v.988h4.706v2.21h1.17v-2.21h4.524ZM-14.963.832h7.982V-.13h-6.76V-2.444h-1.222Zm.052-6.552h7.722V-9.776h-7.722Zm1.17-.962V-8.814h5.356v2.132ZM2.093-9.62H.871l-2.964,11H-.871ZM15.327-10.3h-1.2V-8.71H11.648a5.614,5.614,0,0,0,.091-1.066H6.617v.988h3.8C10.218-7.111,8.736-5.85,6.019-5.252l.416.988c2.522-.572,4.238-1.742,4.94-3.51h2.756v1.248H11.219v.936h2.912V-4.5h1.2ZM7.891-3.068h6.214v1.014H7.917V.962h7.748V0H9.113V-1.144h6.214V-4.03H7.891ZM26.819-10.3H25.675V1.066h1.144ZM16.913-2.054l.728.884A5.663,5.663,0,0,0,19.929-4.6,5.287,5.287,0,0,0,22.165-1.43l.728-.884A5.414,5.414,0,0,1,20.5-7.124v-.91h1.95v-.988h-5.2v.988h2.08v.91A5.863,5.863,0,0,1,16.913-2.054Zm4.706-3.224h1.768V.494h1.144V-10.062H23.387v3.8H21.619Z" transform="translate(104 21)" fill="#ddd"/>
    </g>
    <g id="구성_요소_16_585" data-name="구성 요소 16 – 585" transform="translate(286 6944)">
      <rect id="사각형_2072-5" data-name="사각형 2072" width="209" height="32" rx="4" fill="#2a4252"/>
      <path id="패스_27419" data-name="패스 27419" d="M-18.07-8.19V-8.5h2.444V-9.49h-6.162V-8.5h2.522v.312a3.972,3.972,0,0,1-2.86,3.64l.6.962a4.692,4.692,0,0,0,2.873-2.717,4.347,4.347,0,0,0,2.743,2.353l.572-.936A3.569,3.569,0,0,1-18.07-8.19Zm-2.522,7.124c0,1.339,1.443,2.132,3.822,2.132,2.34,0,3.77-.793,3.77-2.132S-14.43-3.2-16.77-3.2C-19.149-3.2-20.592-2.418-20.592-1.066Zm1.2,0c0-.754.975-1.17,2.626-1.17,1.625,0,2.587.416,2.6,1.17-.013.754-.975,1.17-2.6,1.17C-18.421.1-19.4-.312-19.4-1.066Zm5.1-2.392h1.2V-6.474h1.638V-7.488H-13.1V-10.3h-1.2ZM-1.95-10.3h-1.2V1.066h1.2V-4.862H-.13V-5.9H-1.95Zm-8.424,8.684h5.382V-9.36h-1.2v2.938h-2.99V-9.36h-1.2Zm1.2-1.014v-2.86h2.99v2.86ZM9.464-9.568H1.69v.962H8.268v.026A17.269,17.269,0,0,1,7.93-4.706H.416v.988h4.55v4.81H6.188v-4.81h4.6v-.988H9.152A18.733,18.733,0,0,0,9.464-8.58ZM21.086-10.3h-1.2V1.066h1.2ZM12.35-1.82h.962a26.21,26.21,0,0,0,5.616-.546L18.772-3.38a25.7,25.7,0,0,1-5.226.52V-9.178h-1.2Z" transform="translate(104 21)" fill="#ddd"/>
    </g>
    <g id="구성_요소_16_586" data-name="구성 요소 16 – 586" transform="translate(286 6904)">
      <rect id="사각형_2072-6" data-name="사각형 2072" width="209" height="32" rx="4" fill="#2a4252"/>
      <path id="패스_27418" data-name="패스 27418" d="M-12.844-9.2h-8.112v.988h6.916v.13a25.813,25.813,0,0,1-.442,5.174l1.2.13a25.553,25.553,0,0,0,.442-5.3Zm-9.2,8.736h10.374v-.988H-16.9v-4h-1.2v4h-3.952ZM-1.118-10.3H-2.262v2.782H-3.64v-2.574H-4.784v6.422H-3.64v-2.86h1.378v2.938h1.144Zm-9.7,5.9.6.91c2.9-1.209,4.381-3.224,4.394-5.98h-4.5V-8.5h3.25C-7.267-6.708-8.528-5.291-10.816-4.394Zm1.924,2.262h6.578v3.2h1.2v-4.16H-8.892ZM10.114-10.3H8.97v8.528h1.144ZM.39-4.29l.676.936A4.462,4.462,0,0,0,3.289-5.915,4.078,4.078,0,0,0,5.382-3.64l.676-.936a3.617,3.617,0,0,1-2.21-3.3V-9.516H2.7v1.638A4.111,4.111,0,0,1,.39-4.29ZM2.574.832h7.878V-.13H3.77V-2.808h-1.2Zm2.47-7.358H6.708v4.42H7.852v-7.982H6.708v2.574H5.044ZM21.138-10.3h-1.2v4.212H17.68v.962h2.262V1.092h1.2Zm-8.97,8.71h.884a32.611,32.611,0,0,0,5.2-.338l-.13-.988a27.223,27.223,0,0,1-4.732.338V-5.122H17v-.962H13.39v-2.21H17.5v-.988h-5.33Z" transform="translate(104 21)" fill="#ddd"/>
    </g>
    <g id="구성_요소_16_587" data-name="구성 요소 16 – 587" transform="translate(286 6864)">
      <rect id="사각형_2072-7" data-name="사각형 2072" width="209" height="32" rx="4" fill="#2a4252"/>
      <path id="패스_27417" data-name="패스 27417" d="M-6.006-1.378H-16.432V-.39H-6.006Zm-9.23-2.158h7.982v-5.98h-1.2v2.054h-5.59V-9.516h-1.2Zm1.2-.962V-6.526h5.59V-4.5ZM4.5-10.3H3.354v3.354H1.976v-3.146H.832v7.956H1.976V-5.954H3.354V-1.82H4.5Zm-9.2,6.812h.78A23.234,23.234,0,0,0,.338-3.8l-.13-.988a19.006,19.006,0,0,1-3.744.338V-5.98H-.39V-9.334H-4.706v.962H-1.56v1.456H-4.706ZM-3.042.832H4.836V-.13H-1.846V-2.6h-1.2Zm18.3-5.72H8.528V-8.294h6.63v-.988H7.332v5.356h7.93ZM6.032-.416H16.458V-1.43H6.032Z" transform="translate(104 21)" fill="#ddd"/>
    </g>
    <g id="구성_요소_16_588" data-name="구성 요소 16 – 588" transform="translate(286 6824)">
      <rect id="사각형_2072-8" data-name="사각형 2072" width="209" height="32" rx="4" fill="#2a4252"/>
      <path id="패스_27416" data-name="패스 27416" d="M-21.593-9.568h-5.174v.962h3.9c-.247,1.794-1.859,3.224-4.5,3.952l.494.936C-23.569-4.641-21.593-6.7-21.593-9.568ZM-25.415.936h7.436V-3.38h-7.436Zm1.17-.962V-2.418h5.07V-.026Zm2.7-6.422h2.366v2.6h1.2V-10.3h-1.2v2.86h-2.366Zm8.788-1.716V-9.62h-1.17v1.456a3.837,3.837,0,0,1-2.366,3.432l.65.936a4.33,4.33,0,0,0,2.3-2.444,4.061,4.061,0,0,0,2.2,2.158l.65-.936A3.384,3.384,0,0,1-12.753-8.164Zm-1.508,6.318h6.526V1.066h1.2v-3.9h-7.722Zm4.134-1.638h1.118V-6.4h1.326v2.99h1.144V-10.3H-7.683v2.912H-9.009v-2.7h-1.118ZM2.093-9.62H.871l-2.964,11H-.871ZM16.211-3.432H5.837v.988h4.576V1.092h1.2V-2.444h4.6ZM6.461-5.2l.416.962a5.71,5.71,0,0,0,4.147-2.275,5.746,5.746,0,0,0,4.121,2.275l.442-.962c-2.171-.273-3.9-1.482-3.952-2.756h3.588v-.962H11.609V-10.3h-1.2v1.378H6.825v.962h3.588C10.348-6.669,8.619-5.473,6.461-5.2ZM21.047-7.592v-.26h2.47V-8.84H21.073v-1.378H19.851V-8.84h-2.47v.988h2.47v.26a3.7,3.7,0,0,1-2.782,3.484l.6.962A4.629,4.629,0,0,0,20.488-5.72a4.457,4.457,0,0,0,2.8,2.366l.6-.936A3.665,3.665,0,0,1,21.047-7.592ZM19.175.832h7.67V-.13H20.371V-2.574h-1.2Zm3.978-6.708h2.21V-1.82h1.2V-10.3h-1.2v3.458h-2.21Z" transform="translate(104 21)" fill="#ddd"/>
    </g>
    <g id="구성_요소_16_589" data-name="구성 요소 16 – 589" transform="translate(286 6784)">
      <rect id="사각형_2072-9" data-name="사각형 2072" width="100" height="32" rx="4" fill="#2a4252"/>
      <path id="패스_27414" data-name="패스 27414" d="M-6.994-10.3H-8.216V1.092h1.222ZM-16.042-5.46c0,2.457,1.235,4,2.938,4s2.951-1.547,2.938-4c.013-2.431-1.235-3.978-2.938-3.978S-16.042-7.891-16.042-5.46Zm1.17,0c0-1.781.728-2.9,1.768-2.912,1.053.013,1.781,1.131,1.768,2.912.013,1.807-.715,2.925-1.768,2.912C-14.144-2.535-14.872-3.653-14.872-5.46ZM4.5-10.3H3.354v8.632H4.5Zm-9.2,6.526H-.26V-6.058h1.4v4.03H2.288v-8.06H1.144v3.042H-.26v-2.34H-1.378V-7.54H-3.562V-9.386H-4.706Zm1.144-.988V-6.6h2.184v1.846Zm.52,5.59H4.836V-.13H-1.846v-2.7h-1.2Zm18.3-5.07H8.554V-5.876H14.9v-.962H8.554V-8.372h6.6V-9.36H7.332v6.084h7.93ZM6.032-.364H16.458v-.988H6.032Z" transform="translate(50 21)" fill="#ddd"/>
    </g>
    <g id="구성_요소_16_590" data-name="구성 요소 16 – 590" transform="translate(394 6784)">
      <rect id="사각형_2072-10" data-name="사각형 2072" width="100" height="32" rx="4" fill="#2a4252"/>
      <path id="패스_27415" data-name="패스 27415" d="M-6.968-10.3H-8.19V1.066h1.222Zm-9.36,8.32.65.988c3.9-1.872,5.317-4.758,5.33-8.086h-5.408v.962h4.173C-11.817-5.46-13.286-3.406-16.328-1.976ZM1.95-9.334H-.832v-1.04h-1.2v1.04H-4.784v.91H1.95Zm-7.1,5.408.182.962a46.35,46.35,0,0,0,7.2-.468l-.078-.832c-.949.13-1.976.208-2.99.26V-4.68c1.326-.13,2.184-.741,2.184-1.664,0-1.04-1.118-1.7-2.756-1.69-1.677-.013-2.769.65-2.756,1.69-.013.91.819,1.521,2.132,1.664v.728C-3.146-3.926-4.212-3.926-5.148-3.926ZM-3.51-1.2H3.016V1.066H4.238V-2.158H-3.51Zm.494-5.148c0-.546.624-.871,1.612-.884.949.013,1.6.338,1.612.884-.013.533-.663.871-1.612.858C-2.392-5.473-3.016-5.811-3.016-6.344ZM3.016-2.652H4.238V-10.27H3.016ZM15.522-10.3h-1.2V-7.2H12.142v.962h2.184v4.29h1.2ZM6.032-4.342l.624.988A4.707,4.707,0,0,0,9.516-6.1a4.532,4.532,0,0,0,2.7,2.483l.624-.962a3.72,3.72,0,0,1-2.73-3.406v-.442h2.444v-.988H6.422v.988h2.47v.442A3.967,3.967,0,0,1,6.032-4.342ZM8.138.832h7.67V-.13H9.334V-2.7h-1.2Z" transform="translate(50 21)" fill="#ddd"/>
    </g>
    <g id="구성_요소_16_591" data-name="구성 요소 16 – 591" transform="translate(286 6744)">
      <rect id="사각형_2072-11" data-name="사각형 2072" width="100" height="32" rx="4" fill="#2a4252"/>
      <path id="패스_27412" data-name="패스 27412" d="M-20.891-8.476V-9.7h-1.2V-8.58A4.09,4.09,0,0,1-24.9-4.732l.65.962a4.664,4.664,0,0,0,2.769-2.769,4.617,4.617,0,0,0,2.691,2.457l.65-.962A3.708,3.708,0,0,1-20.891-8.476Zm-2.47,7.41c0,1.352,1.456,2.132,3.822,2.132,2.327,0,3.77-.78,3.77-2.132,0-1.326-1.443-2.093-3.77-2.106C-21.905-3.159-23.361-2.392-23.361-1.066Zm1.2,0c0-.715.975-1.144,2.626-1.144,1.625,0,2.587.429,2.6,1.144C-16.952-.3-17.914.1-19.539.1-21.19.1-22.165-.3-22.165-1.066Zm5.1-2.366h1.2v-2.99h1.638V-7.436h-1.638V-10.3h-1.2Zm13.858-1.43H-13.585v.988h4.576v1.222h-3.328V.936h7.852V-2.652H-7.813V-3.874h4.6ZM-12.623-8.97h1.664v2.184h-1.612v.962h8.346v-.962H-5.837V-8.97h1.664v-.988h-8.45Zm1.482,8.918V-1.716h5.486V-.052Zm1.378-6.734V-8.97h2.73v2.184ZM1.339,0h1.4V-3.224H4.615a2.866,2.866,0,0,0,3.2-2.99,2.872,2.872,0,0,0-3.2-2.99H1.339Zm1.4-4.42V-7.982H4.485A1.664,1.664,0,0,1,6.409-6.214,1.687,1.687,0,0,1,4.485-4.42ZM12.259,0c2.8,0,4.407-1.742,4.42-4.6-.013-2.873-1.625-4.589-4.342-4.6H9.269V0ZM10.673-1.222v-6.76h1.586c2,.013,3.029,1.209,3.042,3.38-.013,2.171-1.04,3.38-3.12,3.38ZM18.239,0h1.4V-3.224h1.872a2.866,2.866,0,0,0,3.2-2.99,2.872,2.872,0,0,0-3.2-2.99H18.239Zm1.4-4.42V-7.982h1.742a1.664,1.664,0,0,1,1.924,1.768A1.687,1.687,0,0,1,21.385-4.42Z" transform="translate(50 21)" fill="#ddd"/>
    </g>
    <g id="구성_요소_16_592" data-name="구성 요소 16 – 592" transform="translate(286 6704)">
      <rect id="사각형_2072-12" data-name="사각형 2072" width="209" height="32" rx="4" fill="#2a4252"/>
      <path id="패스_27411" data-name="패스 27411" d="M-6.006-9.022h-4.42v7.1h4.42V-5.07H-4.5V.52h1.17V-10.088H-4.5v4.03H-6.006ZM-9.282-2.886V-8.06H-7.15v5.174Zm7.1,3.952H-1.04V-10.3H-2.184ZM9.854-10.3h-1.2v8.268h1.2ZM.65-6.708A2.845,2.845,0,0,0,3.692-3.874,2.838,2.838,0,0,0,6.708-6.708,2.841,2.841,0,0,0,3.692-9.516,2.848,2.848,0,0,0,.65-6.708Zm1.17,0A1.772,1.772,0,0,1,3.692-8.476a1.743,1.743,0,0,1,1.82,1.768,1.741,1.741,0,0,1-1.82,1.794A1.769,1.769,0,0,1,1.82-6.708Zm.6,7.54h7.774V-.13H3.614V-2.86h-1.2Z" transform="translate(104 21)" fill="#ddd"/>
    </g>
    <g id="구성_요소_16_593" data-name="구성 요소 16 – 593" transform="translate(394 6744)">
      <rect id="사각형_2072-13" data-name="사각형 2072" width="100" height="32" rx="4" fill="#2a4252"/>
      <path id="패스_27413" data-name="패스 27413" d="M-14.339-10.3h-1.2V-7.2h-2.184v.962h2.184v4.29h1.2Zm-9.49,5.954.624.988A4.707,4.707,0,0,0-20.345-6.1a4.532,4.532,0,0,0,2.7,2.483l.624-.962a3.72,3.72,0,0,1-2.73-3.406v-.442H-17.3v-.988h-6.136v.988h2.47v.442A3.967,3.967,0,0,1-23.829-4.342ZM-21.723.832h7.67V-.13h-6.474V-2.7h-1.2ZM-8.411-7.41V-9.36H-9.633v1.95a5.733,5.733,0,0,1-3.042,5.148l.728,1.014A6.009,6.009,0,0,0-9.009-4.94,5.807,5.807,0,0,0-6.123-1.508l.7-.936A5.547,5.547,0,0,1-8.411-7.41Zm4.03,8.5h1.222V-10.3H-4.381ZM2.327,0h1.4V-3.224H5.6a2.866,2.866,0,0,0,3.2-2.99A2.872,2.872,0,0,0,5.6-9.2H2.327Zm1.4-4.42V-7.982H5.473A1.664,1.664,0,0,1,7.4-6.214,1.687,1.687,0,0,1,5.473-4.42ZM10.257,0h5.564V-1.2h-4.16V-9.2h-1.4Zm6.994,0h1.4V-3.224h1.872a2.866,2.866,0,0,0,3.2-2.99,2.872,2.872,0,0,0-3.2-2.99H17.251Zm1.4-4.42V-7.982H20.4a1.664,1.664,0,0,1,1.924,1.768A1.687,1.687,0,0,1,20.4-4.42Z" transform="translate(50 21)" fill="#ddd"/>
    </g>
    <line id="선_44" data-name="선 44" x2="208" transform="translate(286.5 6688)" fill="none" stroke="#2a4252" stroke-width="1"/>
  </g>
</svg>
