<svg xmlns="http://www.w3.org/2000/svg" width="780" height="185.66" viewBox="0 0 780 185.66">
  <g id="그룹_5016" data-name="그룹 5016" transform="translate(-570 -7256.5)">
    <g id="사각형_2067" data-name="사각형 2067" transform="translate(570 7295)" fill="none" stroke="#3f4b64" stroke-width="1">
      <rect width="116" height="116" rx="6" stroke="none"/>
      <rect x="0.5" y="0.5" width="115" height="115" rx="5.5" fill="none"/>
    </g>
    <g id="사각형_2067-2" data-name="사각형 2067" transform="translate(702 7295.447)" fill="none" stroke="#3f4b64" stroke-width="1">
      <rect width="116" height="116" rx="6" stroke="none"/>
      <rect x="0.5" y="0.5" width="115" height="115" rx="5.5" fill="none"/>
    </g>
    <g id="사각형_2067-3" data-name="사각형 2067" transform="translate(834 7295.447)" fill="none" stroke="#3f4b64" stroke-width="1">
      <rect width="116" height="116" rx="6" stroke="none"/>
      <rect x="0.5" y="0.5" width="115" height="115" rx="5.5" fill="none"/>
    </g>
    <g id="사각형_2067-4" data-name="사각형 2067" transform="translate(966 7295.447)" fill="none" stroke="#3f4b64" stroke-width="1">
      <rect width="116" height="116" rx="6" stroke="none"/>
      <rect x="0.5" y="0.5" width="115" height="115" rx="5.5" fill="none"/>
    </g>
    <g id="사각형_2067-5" data-name="사각형 2067" transform="translate(1098 7295.447)" fill="none" stroke="#3f4b64" stroke-width="1">
      <rect width="116" height="116" rx="6" stroke="none"/>
      <rect x="0.5" y="0.5" width="115" height="115" rx="5.5" fill="none"/>
    </g>
    <g id="사각형_2067-6" data-name="사각형 2067" transform="translate(1234 7295.447)" fill="none" stroke="#3f4b64" stroke-width="1">
      <rect width="116" height="116" rx="6" stroke="none"/>
      <rect x="0.5" y="0.5" width="115" height="115" rx="5.5" fill="none"/>
    </g>
    <path id="패스_27426" data-name="패스 27426" d="M-39.144,0h4.576c2.576,0,3.856-1.312,3.84-3.072a2.605,2.605,0,0,0-2.4-2.784v-.128a2.371,2.371,0,0,0,1.984-2.4c-.016-1.68-1.232-2.928-3.68-2.944h-4.32Zm2.016-1.7V-5.024h2.3a1.843,1.843,0,0,1,2.048,1.792c0,.9-.624,1.536-2.112,1.536Zm0-4.8V-9.632h2.112c1.2,0,1.824.64,1.824,1.5A1.691,1.691,0,0,1-35.08-6.5ZM-27.656,0l.944-2.784h4.272L-21.512,0h2.176L-23.3-11.328h-2.528L-29.8,0Zm1.5-4.448,1.536-4.544h.1L-23-4.448Zm15.28-3.04h2.048a4.489,4.489,0,0,0-4.768-3.968c-2.976-.016-5.184,2.144-5.184,5.792S-16.6.16-13.592.16a4.577,4.577,0,0,0,4.768-3.9h-2.048a2.614,2.614,0,0,1-2.72,2.08c-1.824-.016-3.152-1.392-3.136-4-.016-2.544,1.3-3.984,3.168-3.968A2.541,2.541,0,0,1-10.872-7.488ZM-7.064,0h2.016V-3.36l1.28-1.5L-.376,0H2.056L-2.36-6.24l4.384-5.088h-2.5L-4.888-6.112h-.16v-5.216H-7.064Zm14.4-6.464H2.248v1.632H7.336ZM9.416,0h7.392V-1.7H11.432V-4.8h4.96V-6.528h-4.96V-9.6h5.344v-1.728H9.416ZM28.008-11.328H25.992v7.744h-.1l-5.344-7.744H18.728V0h2.016V-7.712h.1L26.216,0h1.792ZM33.96,0c3.44,0,5.472-2.128,5.472-5.664s-2.032-5.648-5.408-5.664h-3.9V0ZM32.136-1.76V-9.568H33.9c2.32.016,3.52,1.312,3.52,3.9s-1.2,3.9-3.552,3.9Z" transform="translate(960 7442)" fill="#fff"/>
    <path id="패스_25740" data-name="패스 25740" d="M-3797,20122v-38.447h664V20122" transform="translate(4424.5 -12826.553)" fill="none" stroke="#10e4ff" stroke-width="1" stroke-dasharray="3 4"/>
    <path id="패스_25741" data-name="패스 25741" d="M0,0V39" transform="translate(760.5 7256.947)" fill="none" stroke="#10e4ff" stroke-width="1" stroke-dasharray="3 4"/>
    <line id="선_51" data-name="선 51" y2="39" transform="translate(892.5 7256.947)" fill="none" stroke="#10e4ff" stroke-width="1" stroke-dasharray="3 4"/>
    <line id="선_52" data-name="선 52" y2="39" transform="translate(1024.5 7256.947)" fill="none" stroke="#10e4ff" stroke-width="1" stroke-dasharray="3 4"/>
    <line id="선_53" data-name="선 53" y2="39" transform="translate(1156.5 7256.947)" fill="none" stroke="#10e4ff" stroke-width="1" stroke-dasharray="3 4"/>
    <g id="그룹_4992" data-name="그룹 4992" transform="translate(0 -17.053)">
      <circle id="타원_43" data-name="타원 43" cx="5.5" cy="5.5" r="5.5" transform="translate(622 7307)" fill="#10e4ff" opacity="0.2"/>
      <circle id="타원_44" data-name="타원 44" cx="2.5" cy="2.5" r="2.5" transform="translate(625 7310)" fill="#10e4ff"/>
    </g>
    <g id="그룹_4993" data-name="그룹 4993" transform="translate(133 -17.053)">
      <circle id="타원_43-2" data-name="타원 43" cx="5.5" cy="5.5" r="5.5" transform="translate(622 7307)" fill="#10e4ff" opacity="0.2"/>
      <circle id="타원_44-2" data-name="타원 44" cx="2.5" cy="2.5" r="2.5" transform="translate(625 7310)" fill="#10e4ff"/>
    </g>
    <g id="그룹_4994" data-name="그룹 4994" transform="translate(265 -17.053)">
      <circle id="타원_43-3" data-name="타원 43" cx="5.5" cy="5.5" r="5.5" transform="translate(622 7307)" fill="#10e4ff" opacity="0.2"/>
      <circle id="타원_44-3" data-name="타원 44" cx="2.5" cy="2.5" r="2.5" transform="translate(625 7310)" fill="#10e4ff"/>
    </g>
    <g id="그룹_4995" data-name="그룹 4995" transform="translate(397 -17.053)">
      <circle id="타원_43-4" data-name="타원 43" cx="5.5" cy="5.5" r="5.5" transform="translate(622 7307)" fill="#10e4ff" opacity="0.2"/>
      <circle id="타원_44-4" data-name="타원 44" cx="2.5" cy="2.5" r="2.5" transform="translate(625 7310)" fill="#10e4ff"/>
    </g>
    <g id="그룹_4996" data-name="그룹 4996" transform="translate(529 -17.053)">
      <circle id="타원_43-5" data-name="타원 43" cx="5.5" cy="5.5" r="5.5" transform="translate(622 7307)" fill="#10e4ff" opacity="0.2"/>
      <circle id="타원_44-5" data-name="타원 44" cx="2.5" cy="2.5" r="2.5" transform="translate(625 7310)" fill="#10e4ff"/>
    </g>
    <g id="그룹_4997" data-name="그룹 4997" transform="translate(664 -17.053)">
      <circle id="타원_43-6" data-name="타원 43" cx="5.5" cy="5.5" r="5.5" transform="translate(622 7307)" fill="#10e4ff" opacity="0.2"/>
      <circle id="타원_44-6" data-name="타원 44" cx="2.5" cy="2.5" r="2.5" transform="translate(625 7310)" fill="#10e4ff"/>
    </g>
    <g id="그룹_5009" data-name="그룹 5009">
      <g id="monitor" transform="translate(593 7300.865)">
        <path id="패스_25742" data-name="패스 25742" d="M65.9,25H4.1A4.111,4.111,0,0,0,0,29.109V69.93a4.111,4.111,0,0,0,4.1,4.109H65.9A4.111,4.111,0,0,0,70,69.93V29.109A4.111,4.111,0,0,0,65.9,25Z" transform="translate(0 0)" fill="#2a4252"/>
        <path id="패스_25743" data-name="패스 25743" d="M126.941,418.976H115.833V413H94.165v5.976H83.057a2.037,2.037,0,1,0,0,4.074h43.884a2.037,2.037,0,1,0,0-4.074Z" transform="translate(-69.999 -334.886)" fill="#2a4252"/>
      </g>
      <path id="패스_27418" data-name="패스 27418" d="M-10.764,0H-4.94V-1.2H-9.36V-4H-5.3V-5.2H-9.36V-7.982h4.368V-9.2h-5.772ZM-3.3,0h1.4V-3.484H.039L1.924,0H3.51L1.482-3.718a2.559,2.559,0,0,0,1.69-2.6c0-1.69-1.053-2.873-3.2-2.886H-3.3Zm1.4-4.68v-3.3H-.156c1.352-.013,1.911.637,1.924,1.664C1.755-5.278,1.2-4.68-.156-4.68ZM4.706,0h1.4V-3.224H7.982a2.866,2.866,0,0,0,3.2-2.99,2.872,2.872,0,0,0-3.2-2.99H4.706Zm1.4-4.42V-7.982H7.852A1.664,1.664,0,0,1,9.776-6.214,1.687,1.687,0,0,1,7.852-4.42Z" transform="translate(628 7355.813)" fill="#fff"/>
    </g>
    <g id="그룹_5010" data-name="그룹 5010" transform="translate(132.5)">
      <g id="monitor-2" data-name="monitor" transform="translate(593 7300.865)">
        <path id="패스_25742-2" data-name="패스 25742" d="M65.9,25H4.1A4.111,4.111,0,0,0,0,29.109V69.93a4.111,4.111,0,0,0,4.1,4.109H65.9A4.111,4.111,0,0,0,70,69.93V29.109A4.111,4.111,0,0,0,65.9,25Z" transform="translate(0 0)" fill="#2a4252"/>
        <path id="패스_25743-2" data-name="패스 25743" d="M126.941,418.976H115.833V413H94.165v5.976H83.057a2.037,2.037,0,1,0,0,4.074h43.884a2.037,2.037,0,1,0,0-4.074Z" transform="translate(-69.999 -334.886)" fill="#2a4252"/>
      </g>
      <path id="패스_27419" data-name="패스 27419" d="M-12.246,0l.832-2.418h3.588L-6.994,0h1.508L-8.814-9.2h-1.612l-3.3,9.2ZM-11-3.588l1.352-3.926h.078l1.339,3.926ZM-4.316,0h1.4V-3.484H-.975L.91,0H2.5L.468-3.718a2.559,2.559,0,0,0,1.69-2.6c0-1.69-1.053-2.873-3.2-2.886H-4.316Zm1.4-4.68v-3.3H-1.17C.182-7.995.741-7.345.754-6.318.741-5.278.182-4.68-1.17-4.68ZM3.692-9.2V0H5.018V-6.656H5.1L7.8-.026H8.918l2.7-6.6H11.7V0h1.326V-9.2h-1.69L8.424-2.08h-.1L5.382-9.2Z" transform="translate(628 7355.813)" fill="#fff"/>
    </g>
    <g id="그룹_5011" data-name="그룹 5011" transform="translate(264)">
      <g id="monitor-3" data-name="monitor" transform="translate(593 7300.865)">
        <path id="패스_25742-3" data-name="패스 25742" d="M65.9,25H4.1A4.111,4.111,0,0,0,0,29.109V69.93a4.111,4.111,0,0,0,4.1,4.109H65.9A4.111,4.111,0,0,0,70,69.93V29.109A4.111,4.111,0,0,0,65.9,25Z" transform="translate(0 0)" fill="#2a4252"/>
        <path id="패스_25743-3" data-name="패스 25743" d="M126.941,418.976H115.833V413H94.165v5.976H83.057a2.037,2.037,0,1,0,0,4.074h43.884a2.037,2.037,0,1,0,0-4.074Z" transform="translate(-69.999 -334.886)" fill="#2a4252"/>
      </g>
      <path id="패스_27420" data-name="패스 27420" d="M-5.46-4.6c0-2.938-1.755-4.719-4.134-4.706-2.392-.013-4.147,1.768-4.16,4.706C-13.741-1.664-11.986.13-9.594.13S-5.46-1.651-5.46-4.6Zm-6.89,0c0-2.223,1.17-3.445,2.756-3.432C-8.021-8.047-6.838-6.825-6.838-4.6S-8.021-1.157-9.594-1.144C-11.18-1.157-12.35-2.366-12.35-4.6Zm8.476-4.6V0h1.326V-6.656h.078l2.7,6.63H1.352l2.7-6.6h.078V0H5.46V-9.2H3.77L.858-2.08h-.1L-2.184-9.2ZM12.35-6.76H13.7c-.052-1.5-1.352-2.561-3.224-2.548C8.619-9.321,7.215-8.268,7.2-6.682,7.215-5.4,8.125-4.641,9.62-4.238l1.066.286c.988.26,1.742.585,1.742,1.4,0,.884-.845,1.482-2.028,1.482-1.066,0-1.95-.481-2.028-1.482h-1.4C7.059-.871,8.346.156,10.4.156c2.171,0,3.419-1.144,3.406-2.7.013-1.651-1.456-2.3-2.626-2.574l-.91-.234c-.715-.195-1.664-.533-1.664-1.4,0-.78.715-1.352,1.846-1.352C11.505-8.112,12.246-7.618,12.35-6.76Z" transform="translate(628 7355.813)" fill="#fff"/>
    </g>
    <g id="그룹_5012" data-name="그룹 5012" transform="translate(396)">
      <g id="monitor-4" data-name="monitor" transform="translate(593 7300.865)">
        <path id="패스_25742-4" data-name="패스 25742" d="M65.9,25H4.1A4.111,4.111,0,0,0,0,29.109V69.93a4.111,4.111,0,0,0,4.1,4.109H65.9A4.111,4.111,0,0,0,70,69.93V29.109A4.111,4.111,0,0,0,65.9,25Z" transform="translate(0 0)" fill="#2a4252"/>
        <path id="패스_25743-4" data-name="패스 25743" d="M126.941,418.976H115.833V413H94.165v5.976H83.057a2.037,2.037,0,1,0,0,4.074h43.884a2.037,2.037,0,1,0,0-4.074Z" transform="translate(-69.999 -334.886)" fill="#2a4252"/>
      </g>
      <path id="패스_27421" data-name="패스 27421" d="M-11.8,0h1.4V-3.224h1.872a2.866,2.866,0,0,0,3.2-2.99,2.872,2.872,0,0,0-3.2-2.99H-11.8Zm1.4-4.42V-7.982h1.742A1.664,1.664,0,0,1-6.734-6.214,1.687,1.687,0,0,1-8.658-4.42ZM4.108-4.6c0-2.938-1.755-4.719-4.134-4.706C-2.418-9.321-4.173-7.54-4.186-4.6-4.173-1.664-2.418.13-.026.13S4.108-1.651,4.108-4.6Zm-6.89,0c0-2.223,1.17-3.445,2.756-3.432C1.547-8.047,2.73-6.825,2.73-4.6S1.547-1.157-.026-1.144C-1.612-1.157-2.782-2.366-2.782-4.6ZM10.712-6.76h1.352c-.052-1.5-1.352-2.561-3.224-2.548-1.859-.013-3.263,1.04-3.276,2.626.013,1.287.923,2.041,2.418,2.444l1.066.286c.988.26,1.742.585,1.742,1.4,0,.884-.845,1.482-2.028,1.482-1.066,0-1.95-.481-2.028-1.482H5.33C5.421-.871,6.708.156,8.762.156c2.171,0,3.419-1.144,3.406-2.7.013-1.651-1.456-2.3-2.626-2.574l-.91-.234c-.715-.195-1.664-.533-1.664-1.4,0-.78.715-1.352,1.846-1.352C9.867-8.112,10.608-7.618,10.712-6.76Z" transform="translate(628 7355.813)" fill="#fff"/>
    </g>
    <g id="그룹_5013" data-name="그룹 5013" transform="translate(528)">
      <g id="monitor-5" data-name="monitor" transform="translate(593 7300.865)">
        <path id="패스_25742-5" data-name="패스 25742" d="M65.9,25H4.1A4.111,4.111,0,0,0,0,29.109V69.93a4.111,4.111,0,0,0,4.1,4.109H65.9A4.111,4.111,0,0,0,70,69.93V29.109A4.111,4.111,0,0,0,65.9,25Z" transform="translate(0 0)" fill="#2a4252"/>
        <path id="패스_25743-5" data-name="패스 25743" d="M126.941,418.976H115.833V413H94.165v5.976H83.057a2.037,2.037,0,1,0,0,4.074h43.884a2.037,2.037,0,1,0,0-4.074Z" transform="translate(-69.999 -334.886)" fill="#2a4252"/>
      </g>
      <g id="그룹_5014" data-name="그룹 5014" transform="translate(0 -10)">
        <path id="패스_27422" data-name="패스 27422" d="M-1.326-10.3h-1.2V-8.71H-5.005a5.614,5.614,0,0,0,.091-1.066h-5.122v.988h3.8c-.195,1.677-1.677,2.938-4.394,3.536l.416.988c2.522-.572,4.238-1.742,4.94-3.51h2.756v1.248H-5.434v.936h2.912V-4.5h1.2ZM-8.762-3.068h6.214v1.014H-8.736V.962H-.988V0H-7.54V-1.144h6.214V-4.03H-8.762ZM10.166-10.3H9.022V1.066h1.144ZM.26-2.054l.728.884A5.663,5.663,0,0,0,3.276-4.6,5.287,5.287,0,0,0,5.512-1.43l.728-.884a5.414,5.414,0,0,1-2.392-4.81v-.91H5.8v-.988H.6v.988h2.08v.91A5.863,5.863,0,0,1,.26-2.054ZM4.966-5.278H6.734V.494H7.878V-10.062H6.734v3.8H4.966Z" transform="translate(628 7358.813)" fill="#fff"/>
        <path id="패스_27423" data-name="패스 27423" d="M-21.228.12c1.7,0,2.964-1.032,2.952-2.424a1.952,1.952,0,0,0-1.752-2.04v-.072a1.889,1.889,0,0,0,1.44-1.9,2.359,2.359,0,0,0-2.592-2.28A2.538,2.538,0,0,0-23.988-6.36h1.008A1.607,1.607,0,0,1-21.2-7.68,1.4,1.4,0,0,1-19.62-6.264c.012.864-.708,1.452-1.752,1.44h-.672v.936h.672c1.332,0,2.064.66,2.064,1.584,0,.876-.8,1.488-1.92,1.488-1.02,0-1.824-.5-1.872-1.32h-1.08C-24.12-.792-22.908.12-21.228.12ZM-16.764,0h1.032V-4.008A1.49,1.49,0,0,1-14.148-5.5a2.384,2.384,0,0,1,.6.072V-6.456c-.108,0-.36-.012-.5,0A1.7,1.7,0,0,0-15.708-5.4h-.072v-.96h-.984Zm6.42.144A2,2,0,0,0-8.5-.984h.1V0h.984V-8.5H-8.424v3.144H-8.5a1.963,1.963,0,0,0-1.848-1.1c-1.6.012-2.712,1.272-2.712,3.288S-11.94.132-10.344.144Zm-1.68-3.336c-.012-1.32.588-2.352,1.824-2.352,1.176,0,1.8.948,1.8,2.352,0,1.44-.648,2.424-1.8,2.424C-11.412-.768-12.036-1.836-12.024-3.192Zm9.336,5.568h1.032V-.984h.072A1.981,1.981,0,0,0,.264.144c1.6-.012,2.7-1.284,2.712-3.312C2.964-5.184,1.86-6.444.264-6.456a1.978,1.978,0,0,0-1.848,1.1H-1.7V-6.36h-.984ZM-1.68-3.192c0-1.4.624-2.352,1.8-2.352,1.236,0,1.836,1.032,1.848,2.352C1.956-1.836,1.332-.768.12-.768-1.044-.768-1.68-1.752-1.68-3.192ZM3.984-1.8A1.966,1.966,0,0,0,6.168.144,1.985,1.985,0,0,0,8.04-.864h.048V0H9.1V-4.2A2.131,2.131,0,0,0,6.7-6.456c-1.4.012-2.4.72-2.52,1.752H5.232a1.326,1.326,0,0,1,1.416-.864c.972,0,1.452.468,1.44,1.272v.528c-.288,0-1.3.06-1.7.1C5.268-3.6,3.984-3.264,3.984-1.8Zm1.008.048c0-.7.588-1.02,1.512-1.08l1.584-.12V-2.3A1.61,1.61,0,0,1,6.312-.744C5.556-.744,4.992-1.08,4.992-1.752ZM10.7,0h1.032V-4.008A1.49,1.49,0,0,1,13.32-5.5a2.384,2.384,0,0,1,.6.072V-6.456c-.108,0-.36-.012-.5,0A1.7,1.7,0,0,0,11.76-5.4h-.072v-.96H10.7Zm7.4-6.36H16.764V-7.9H15.732V-6.36h-.96v.84h.96v3.96A1.627,1.627,0,0,0,17.484.072a2.705,2.705,0,0,0,.7-.048V-.912a4.63,4.63,0,0,1-.6.024c-.42.012-.828-.12-.816-.936v-3.7h1.344Zm1.92,8.736A1.925,1.925,0,0,0,21.948.912L24.636-6.36h-1.1L21.8-1.32h-.072L19.98-6.36H18.9L21.252.048l-.192.48c-.336.936-.684.96-1.08.96-.168,0-.4-.012-.5-.024v.888A2.587,2.587,0,0,0,20.028,2.376Z" transform="translate(628 7372.813)" fill="#10e4ff"/>
      </g>
    </g>
    <g id="그룹_5015" data-name="그룹 5015" transform="translate(663.5)">
      <g id="monitor-6" data-name="monitor" transform="translate(593 7300.865)">
        <path id="패스_25742-6" data-name="패스 25742" d="M65.9,25H4.1A4.111,4.111,0,0,0,0,29.109V69.93a4.111,4.111,0,0,0,4.1,4.109H65.9A4.111,4.111,0,0,0,70,69.93V29.109A4.111,4.111,0,0,0,65.9,25Z" transform="translate(0 0)" fill="#2a4252"/>
        <path id="패스_25743-6" data-name="패스 25743" d="M126.941,418.976H115.833V413H94.165v5.976H83.057a2.037,2.037,0,1,0,0,4.074h43.884a2.037,2.037,0,1,0,0-4.074Z" transform="translate(-69.999 -334.886)" fill="#2a4252"/>
      </g>
      <g id="그룹_5014-2" data-name="그룹 5014" transform="translate(0 -10)">
        <path id="패스_27424" data-name="패스 27424" d="M-9.282-9.23h-1.144v7.514h4.42V-9.23H-7.124v2.7H-9.282Zm0,6.526v-2.86h2.158V-2.7ZM-4.732.52h1.144V-4.862h1.4V1.066H-1.04V-10.3H-2.184V-5.85h-1.4v-4.238H-4.732ZM6.188-6.318h-1.2v1.612H.416v.962H10.79v-.962h-4.6ZM1.014-6.63l.442.936A5.725,5.725,0,0,0,5.59-8.112,5.721,5.721,0,0,0,9.7-5.694l.494-.936C7.982-6.916,6.2-8.19,6.214-9.646v-.468H4.992v.468C4.979-8.2,3.2-6.916,1.014-6.63ZM1.638-.91C1.651.351,3.12,1.066,5.59,1.066S9.516.351,9.516-.91c0-1.287-1.456-2-3.926-2S1.651-2.2,1.638-.91Zm1.248,0c-.026-.7.949-1.066,2.7-1.066S8.307-1.612,8.32-.91C8.307-.234,7.332.143,5.59.13,3.835.143,2.86-.234,2.886-.91Z" transform="translate(628 7358.813)" fill="#fff"/>
        <path id="패스_27425" data-name="패스 27425" d="M-21.228.12c1.7,0,2.964-1.032,2.952-2.424a1.952,1.952,0,0,0-1.752-2.04v-.072a1.889,1.889,0,0,0,1.44-1.9,2.359,2.359,0,0,0-2.592-2.28A2.538,2.538,0,0,0-23.988-6.36h1.008A1.607,1.607,0,0,1-21.2-7.68,1.4,1.4,0,0,1-19.62-6.264c.012.864-.708,1.452-1.752,1.44h-.672v.936h.672c1.332,0,2.064.66,2.064,1.584,0,.876-.8,1.488-1.92,1.488-1.02,0-1.824-.5-1.872-1.32h-1.08C-24.12-.792-22.908.12-21.228.12ZM-16.764,0h1.032V-4.008A1.49,1.49,0,0,1-14.148-5.5a2.384,2.384,0,0,1,.6.072V-6.456c-.108,0-.36-.012-.5,0A1.7,1.7,0,0,0-15.708-5.4h-.072v-.96h-.984Zm6.42.144A2,2,0,0,0-8.5-.984h.1V0h.984V-8.5H-8.424v3.144H-8.5a1.963,1.963,0,0,0-1.848-1.1c-1.6.012-2.712,1.272-2.712,3.288S-11.94.132-10.344.144Zm-1.68-3.336c-.012-1.32.588-2.352,1.824-2.352,1.176,0,1.8.948,1.8,2.352,0,1.44-.648,2.424-1.8,2.424C-11.412-.768-12.036-1.836-12.024-3.192Zm9.336,5.568h1.032V-.984h.072A1.981,1.981,0,0,0,.264.144c1.6-.012,2.7-1.284,2.712-3.312C2.964-5.184,1.86-6.444.264-6.456a1.978,1.978,0,0,0-1.848,1.1H-1.7V-6.36h-.984ZM-1.68-3.192c0-1.4.624-2.352,1.8-2.352,1.236,0,1.836,1.032,1.848,2.352C1.956-1.836,1.332-.768.12-.768-1.044-.768-1.68-1.752-1.68-3.192ZM3.984-1.8A1.966,1.966,0,0,0,6.168.144,1.985,1.985,0,0,0,8.04-.864h.048V0H9.1V-4.2A2.131,2.131,0,0,0,6.7-6.456c-1.4.012-2.4.72-2.52,1.752H5.232a1.326,1.326,0,0,1,1.416-.864c.972,0,1.452.468,1.44,1.272v.528c-.288,0-1.3.06-1.7.1C5.268-3.6,3.984-3.264,3.984-1.8Zm1.008.048c0-.7.588-1.02,1.512-1.08l1.584-.12V-2.3A1.61,1.61,0,0,1,6.312-.744C5.556-.744,4.992-1.08,4.992-1.752ZM10.7,0h1.032V-4.008A1.49,1.49,0,0,1,13.32-5.5a2.384,2.384,0,0,1,.6.072V-6.456c-.108,0-.36-.012-.5,0A1.7,1.7,0,0,0,11.76-5.4h-.072v-.96H10.7Zm7.4-6.36H16.764V-7.9H15.732V-6.36h-.96v.84h.96v3.96A1.627,1.627,0,0,0,17.484.072a2.705,2.705,0,0,0,.7-.048V-.912a4.63,4.63,0,0,1-.6.024c-.42.012-.828-.12-.816-.936v-3.7h1.344Zm1.92,8.736A1.925,1.925,0,0,0,21.948.912L24.636-6.36h-1.1L21.8-1.32h-.072L19.98-6.36H18.9L21.252.048l-.192.48c-.336.936-.684.96-1.08.96-.168,0-.4-.012-.5-.024v.888A2.587,2.587,0,0,0,20.028,2.376Z" transform="translate(628 7372.813)" fill="#10e4ff"/>
      </g>
    </g>
  </g>
</svg>
