<svg xmlns="http://www.w3.org/2000/svg" width="272" height="241" viewBox="0 0 272 241">
  <g id="그룹_5830" data-name="그룹 5830" transform="translate(-44 -6002)">
    <g id="그룹_5829" data-name="그룹 5829" transform="translate(-16 13)">
      <rect id="사각형_2065" data-name="사각형 2065" width="272" height="42" rx="6" transform="translate(60 5989)" fill="#10e4ff"/>
      <path id="패스_27410" data-name="패스 27410" d="M-43.2-11.19c-2.1,0-3.7,1.35-3.69,3.27a3.215,3.215,0,0,0,2.76,3.165V-2.88c-1.2.03-2.34.03-3.33.03l.21,1.53a48.358,48.358,0,0,0,8.46-.6l-.15-1.35c-1.065.15-2.205.255-3.33.315V-4.74a3.242,3.242,0,0,0,2.76-3.18A3.382,3.382,0,0,0-43.2-11.19Zm-1.83,3.27A1.657,1.657,0,0,1-43.2-9.6a1.715,1.715,0,0,1,1.89,1.68A1.733,1.733,0,0,1-43.2-6.24,1.673,1.673,0,0,1-45.03-7.92Zm6.87,9.3h1.86V-12h-1.86Zm15.78-5.67H-34.56v1.47h5.13V1.35h1.86V-2.82h5.19ZM-33.15-5.58h9.33v-5.88h-1.86v1.53h-5.61v-1.53h-1.86Zm1.86-1.5V-8.46h5.61v1.38ZM-15.87,0l.8-2.43h3.84l.8,2.43h2.37l-3.66-10.62h-2.85L-18.24,0Zm1.35-4.17,1.32-4.05h.09l1.32,4.05ZM-6.87,0h2.19V-3.45h1.92c2.43,0,3.84-1.47,3.84-3.57s-1.38-3.585-3.81-3.6H-6.87Zm2.19-5.22V-8.79h1.56A1.659,1.659,0,0,1-1.2-7.02a1.7,1.7,0,0,1-1.92,1.8Zm9.36-5.4H2.49V0H4.68Zm11.58-.09H10.11v1.5H14.4a9.8,9.8,0,0,1-.3,1.8l-4.71.27.27,1.59,3.855-.345A9.242,9.242,0,0,1,9.33-2.07L10.35-.66C15.15-3.165,16.26-6.6,16.26-10.71Zm-.03,5.37h2.58V1.35h1.86V-12H18.81v5.13H16.23ZM27.99-11.1H22.92v6.84h.9a29.279,29.279,0,0,0,4.83-.27L28.44-6a22,22,0,0,1-3.72.27V-6.99h2.79V-8.43H24.72v-1.2h3.27ZM24.6-1.65h7.38v3h1.86v-4.5H24.6Zm3.48-5.46h1.35v3.36H31.2v-7.98H29.43v3.15H28.08Zm3.99,3.45h1.77v-8.31H32.07ZM46.59-12H44.76v4.74H42.39v1.5h2.37V1.38h1.83ZM35.97-1.65h1.05a37.344,37.344,0,0,0,5.97-.36l-.18-1.5a29.444,29.444,0,0,1-4.98.33V-5.67H41.7V-7.14H37.83V-9.36h4.35v-1.5H35.97Z" transform="translate(196 6015)" fill="#111"/>
    </g>
    <g id="그룹_5828" data-name="그룹 5828" transform="translate(0 461)">
      <rect id="사각형_2064" data-name="사각형 2064" width="272" height="178" rx="6" transform="translate(44 5604)" fill="#182e3c"/>
      <path id="패스_27411" data-name="패스 27411" d="M-42.4-11.13c-2.085.015-3.645,1.32-3.63,3.21a3.139,3.139,0,0,0,2.82,3.105v2.01c-1.23.045-2.415.045-3.42.045l.18,1.32a47.029,47.029,0,0,0,8.49-.57l-.12-1.2c-1.125.165-2.325.27-3.51.33V-4.815a3.151,3.151,0,0,0,2.82-3.105C-38.775-9.81-40.305-11.115-42.4-11.13Zm-2.04,3.21a1.827,1.827,0,0,1,2.04-1.8,1.827,1.827,0,0,1,2.04,1.8,1.844,1.844,0,0,1-2.04,1.8A1.844,1.844,0,0,1-44.445-7.92Zm7.14,9.24h1.62V-11.94h-1.62Zm15.66-5.55h-12.12v1.29h5.22V1.29h1.62V-2.94h5.28ZM-32.3-5.61h9.15V-11.4h-1.62v1.62h-5.91V-11.4H-32.3Zm1.62-1.32V-8.49h5.91v1.56Zm24.48-4.98h-1.62v9.54h1.62Zm-10.77,4.17a3.315,3.315,0,0,0,3.57,3.3,3.306,3.306,0,0,0,3.54-3.3,3.315,3.315,0,0,0-3.54-3.3A3.324,3.324,0,0,0-16.965-7.74Zm1.59,0A1.835,1.835,0,0,1-13.4-9.63a1.843,1.843,0,0,1,1.95,1.89A1.835,1.835,0,0,1-13.4-5.85,1.827,1.827,0,0,1-15.375-7.74Zm.42,8.79h9.12V-.27h-7.47V-3.33h-1.65ZM6.855-11.94H5.235v4.8H2.745v1.29h2.49V1.32h1.62Zm-10.5,10.2h1.02a35.15,35.15,0,0,0,6-.39L3.2-3.42a34.793,34.793,0,0,1-5.22.36V-5.79h4.05V-7.08h-4.05v-2.4h4.56V-10.8h-6.18ZM20.2-11.94h-1.56V1.29H20.2ZM8.565-3.15l.18,1.35a38.046,38.046,0,0,0,6.51-.48l-.12-1.2q-.562.067-1.17.135V-9.06h.93v-1.32H8.835v1.32h.93v5.9ZM11.2-3.2V-9.06h1.26v5.82Zm3.36-2.385h1.47V.63h1.53V-11.64h-1.53v4.59h-1.47Zm18.12-6.36h-1.65V1.32h1.65ZM22.1-6.3c-.015,2.88,1.44,4.7,3.45,4.68,2,.015,3.45-1.8,3.45-4.68,0-2.85-1.455-4.665-3.45-4.68C23.535-10.965,22.08-9.15,22.1-6.3Zm1.56,0c0-2.01.765-3.21,1.89-3.21s1.875,1.2,1.89,3.21c-.015,2.04-.78,3.225-1.89,3.21C24.42-3.075,23.655-4.26,23.655-6.3Zm17.82-3.81v-.99h-1.74v.99C39.72-8.085,37.725-6.03,35-5.55l.72,1.38A7.134,7.134,0,0,0,40.62-7.755,6.9,6.9,0,0,0,45.5-4.17l.75-1.38C43.47-6.015,41.46-8.07,41.475-10.11ZM34.635-.39h12.09V-1.74H34.635Z" transform="translate(180 5634)" fill="#fff"/>
      <g id="mo-다이어그램-박스" transform="translate(60 5662)">
        <rect id="사각형_2072" data-name="사각형 2072" width="116" height="28" rx="4" fill="#2a4252"/>
        <path id="패스_27412" data-name="패스 27412" d="M-7.26,0h1.512V-2.88h1.632A2.7,2.7,0,0,0-1.092-5.688a2.713,2.713,0,0,0-3-2.808H-7.26Zm1.512-4.128V-7.2h1.44A1.434,1.434,0,0,1-2.652-5.688a1.461,1.461,0,0,1-1.656,1.56ZM5.844-5.784H7.4A3.444,3.444,0,0,0,3.8-8.592C1.6-8.6-.06-6.96-.06-4.248S1.524.12,3.852.12a3.363,3.363,0,0,0,3.6-3.552V-4.44H4.02v1.2H5.988A1.942,1.942,0,0,1,3.876-1.248c-1.428-.012-2.412-1.08-2.4-3-.012-1.92.984-2.988,2.352-2.976A1.974,1.974,0,0,1,5.844-5.784Z" transform="translate(58 18)" fill="#ddd"/>
      </g>
      <g id="mo-다이어그램-박스-2" data-name="mo-다이어그램-박스" transform="translate(60 5698)">
        <rect id="사각형_2072-2" data-name="사각형 2072" width="116" height="28" rx="4" fill="#2a4252"/>
        <path id="패스_27414" data-name="패스 27414" d="M-17.856-9.144h-1.272v4.3h2.9v.96h-4.152v1.056h9.648V-3.888H-14.9v-.96h2.928v-4.3h-1.3v1.152h-4.584ZM-19.2.84h7.368V-.216H-17.88V-2.16H-19.2ZM-17.856-5.9v-1.08h4.584V-5.9ZM-1.2-9.528H-2.5V-1.9h1.3ZM-9.816-6.192A2.652,2.652,0,0,0-6.96-3.552a2.645,2.645,0,0,0,2.832-2.64A2.652,2.652,0,0,0-6.96-8.832,2.659,2.659,0,0,0-9.816-6.192Zm1.272,0A1.468,1.468,0,0,1-6.96-7.7,1.474,1.474,0,0,1-5.4-6.192,1.468,1.468,0,0,1-6.96-4.68,1.462,1.462,0,0,1-8.544-6.192ZM-8.208.84h7.3V-.216H-6.888V-2.664h-1.32ZM9.168-9.528h-1.3V-1.9h1.3ZM.552-6.192a2.652,2.652,0,0,0,2.856,2.64A2.645,2.645,0,0,0,6.24-6.192a2.652,2.652,0,0,0-2.832-2.64A2.659,2.659,0,0,0,.552-6.192Zm1.272,0A1.468,1.468,0,0,1,3.408-7.7a1.474,1.474,0,0,1,1.56,1.512A1.468,1.468,0,0,1,3.408-4.68,1.462,1.462,0,0,1,1.824-6.192ZM2.16.84h7.3V-.216H3.48V-2.664H2.16ZM20.376-4.608H10.728v1.056h9.648ZM11.184-6.12l.456,1.032c1.92-.2,3.324-.972,3.9-2.04.564,1.08,1.992,1.836,3.924,2.04L19.92-6.12c-2.016-.192-3.276-1-3.48-1.872h3.072V-9.048h-7.92v1.056H14.64C14.436-7.1,13.152-6.312,11.184-6.12Zm.648,5.208c.012,1.248,1.4,1.944,3.7,1.944S19.2.336,19.2-.912s-1.38-1.944-3.672-1.944S11.844-2.148,11.832-.912Zm1.344,0c-.012-.612.816-.924,2.352-.936,1.524.012,2.364.324,2.376.936-.012.612-.852.924-2.376.912C13.992.012,13.164-.3,13.176-.912Z" transform="translate(58 18)" fill="#ddd"/>
      </g>
      <g id="mo-다이어그램-박스-3" data-name="mo-다이어그램-박스" transform="translate(60 5734)">
        <rect id="사각형_2072-3" data-name="사각형 2072" width="116" height="28" rx="4" fill="#2a4252"/>
        <path id="패스_27416" data-name="패스 27416" d="M-6.756-5.616H-5.22A3.367,3.367,0,0,0-8.8-8.592c-2.232-.012-3.888,1.608-3.888,4.344S-11.052.12-8.8.12A3.432,3.432,0,0,0-5.22-2.808H-6.756A1.96,1.96,0,0,1-8.8-1.248c-1.368-.012-2.364-1.044-2.352-3-.012-1.908.972-2.988,2.376-2.976A1.905,1.905,0,0,1-6.756-5.616ZM-3.9,0h1.512V-3.12H-.8L.876,0h1.7L.732-3.36A2.41,2.41,0,0,0,2.268-5.784c0-1.608-1.044-2.7-3-2.712H-3.9Zm1.512-4.368V-7.2h1.44C.192-7.212.708-6.672.708-5.784c0,.912-.516,1.4-1.656,1.416ZM3.588-8.5V0H5.052V-5.856h.072L7.476-.024h1.1l2.352-5.808H11V0h1.464V-8.5H10.6L8.076-2.328h-.1L5.46-8.5Z" transform="translate(58 18)" fill="#ddd"/>
      </g>
      <g id="mo-다이어그램-박스-4" data-name="mo-다이어그램-박스" transform="translate(184 5662)">
        <rect id="사각형_2072-4" data-name="사각형 2072" width="116" height="28" rx="4" fill="#2a4252"/>
        <path id="패스_27413" data-name="패스 27413" d="M-10.728-5.256h-9.648v1.032h4.152v.792h-3.024v1.008h6.024v.672h-6.024V.96h7.608V-.048h-6.312V-.816h6.024V-3.432h-3v-.792h4.2Zm-8.448-.672h7.2V-9.216h-7.2Zm1.3-1.008V-8.208h4.608v1.272ZM-.336-3.288h-9.7V-2.28H-7.68V1.032h1.32V-2.28h2.376V1.032h1.3V-2.28H-.336ZM-8.9-8.136h6.1V-7.2H-8.856v3.024h7.632V-5.232H-7.56V-6.24h6.1V-9.192H-8.9ZM4.92-8.808H.744v5.256h.72a20.823,20.823,0,0,0,3.888-.264l-.12-1.056a18.587,18.587,0,0,1-3.216.24v-1.1H4.8V-6.744H2.016V-7.776h2.9ZM2.16-1.584H8.112V1.032h1.3V-2.616H2.16Zm3.7-1.584h1.2V-5.832H8.184V-3.1H9.408V-9.528H8.184v2.64H7.056V-9.336h-1.2Zm6.432-5.424H11.04v7.08h4.176v-7.08h-1.2V-6.12H12.288Zm0,6.024v-2.52h1.728v2.52Zm3.96,3.1h1.224v-4.92H18.6V1.032h1.248V-9.552H18.6v4.1H17.472V-9.36H16.248Z" transform="translate(58 18)" fill="#ddd"/>
      </g>
      <g id="mo-다이어그램-박스-5" data-name="mo-다이어그램-박스" transform="translate(184 5698)">
        <rect id="사각형_2072-5" data-name="사각형 2072" width="116" height="28" rx="4" fill="#2a4252"/>
        <path id="패스_27415" data-name="패스 27415" d="M-12.708-9.552h-1.224V1.032h1.224ZM-22-1.968l.792.96a5.162,5.162,0,0,0,2.052-3.048,4.634,4.634,0,0,0,2,2.808l.768-.96a4.922,4.922,0,0,1-2.16-4.44v-.72h1.7V-8.424h-4.8v1.056h1.848v.72A5.422,5.422,0,0,1-22-1.968ZM-17.6-4.8h1.536V.528h1.224V-9.336h-1.224v3.48H-17.6ZM-2.316-8.448H-5.988V-9.576H-7.26v1.128h-3.7v1.032h8.64Zm-9.12,6.72h2.328V1.056h1.32V-1.728h2.376V1.056h1.3V-1.728h2.352V-2.784h-9.672Zm1.224-3.408c0,1.14,1.344,1.788,3.6,1.776,2.22.012,3.576-.636,3.576-1.776,0-1.164-1.356-1.8-3.576-1.8C-8.868-6.936-10.212-6.3-10.212-5.136Zm1.368,0c-.024-.552.756-.816,2.232-.816,1.44,0,2.22.264,2.232.816-.012.516-.792.792-2.232.792C-8.088-4.344-8.868-4.62-8.844-5.136Zm13.872-1.2v-.288H6.852V-7.68H5V-9.168H3.78V-7.68H1.932v1.056H3.78v.288a4.848,4.848,0,0,1-2.16,4.3l.768.984A4.714,4.714,0,0,0,4.416-3.864,4.346,4.346,0,0,0,6.444-1.3l.744-.96A4.409,4.409,0,0,1,5.028-6.336ZM7.4.528H8.628V-4.32h1.1V1.032H10.98V-9.552H9.732V-5.4h-1.1V-9.36H7.4Zm6.648-9.6h-1.3v4.608h.84a26.1,26.1,0,0,0,4.872-.408L18.3-5.928a24.629,24.629,0,0,1-4.248.384Zm0,9.984h7.272V-.144H15.348V-.96h5.664V-3.72h-6.96v1.032h5.664v.744H14.052Zm2.9-7.824h2.76v2.76h1.3v-5.4h-1.3v1.584h-2.76Z" transform="translate(58 18)" fill="#ddd"/>
      </g>
      <g id="mo-다이어그램-박스-6" data-name="mo-다이어그램-박스" transform="translate(184 5734)">
        <rect id="사각형_2072-6" data-name="사각형 2072" width="116" height="28" rx="4" fill="#2a4252"/>
        <path id="패스_27417" data-name="패스 27417" d="M-6.744-7.248h1.7V-8.28h-1.7V-9.408H-7.968V-8.28H-9.72v1.032h1.752a3.127,3.127,0,0,1-2.04,2.9l.648.96a3.641,3.641,0,0,0,2.028-2.04,3.4,3.4,0,0,0,2,1.824l.6-.96A2.869,2.869,0,0,1-6.744-7.248ZM-8.712-.024-8.256.984A5.02,5.02,0,0,0-4.584-1.068,5,5,0,0,0-.912.984L-.456-.024c-2.124-.288-3.48-1.428-3.48-2.64v-.192h-1.3v.192C-5.244-1.452-6.588-.312-8.712-.024Zm4.248-3.288h1.248V-5.88h1.032V-2.4H-.96V-9.528H-2.184V-6.96H-3.216v-2.4H-4.464ZM2.88-9.264H1.608V-5.3H4.536v.984H.36v1.032h9.648V-4.32H5.832V-5.3H8.76v-3.96h-1.3v1.008H2.88ZM1.032-.024,1.512.984A5.159,5.159,0,0,0,5.172-.924,5.142,5.142,0,0,0,8.856.984L9.312-.024c-2.2-.24-3.492-1.284-3.48-2.448v-.216H4.512v.216C4.5-1.308,3.2-.264,1.032-.024ZM2.88-6.312v-.936H7.464v.936Z" transform="translate(58 18)" fill="#ddd"/>
      </g>
      <line id="선_44" data-name="선 44" x2="240" transform="translate(60 5650)" fill="none" stroke="#2a4252" stroke-width="1"/>
    </g>
    <g id="그룹_5005" data-name="그룹 5005" transform="translate(6887.5 5424) rotate(90)">
      <g id="그룹_5000" data-name="그룹 5000" transform="translate(7748 5746.5) rotate(90)">
        <line id="선_54" data-name="선 54" y2="24" transform="translate(961 7106)" fill="none" stroke="#10e4ff" stroke-width="1" stroke-dasharray="3 4"/>
      </g>
      <g id="그룹_5001" data-name="그룹 5001" transform="translate(7955 6080) rotate(90)">
        <circle id="타원_43" data-name="타원 43" cx="5.5" cy="5.5" r="5.5" transform="translate(622 7307)" fill="#10e4ff" opacity="0.2"/>
        <circle id="타원_44" data-name="타원 44" cx="2.5" cy="2.5" r="2.5" transform="translate(625 7310)" fill="#10e4ff"/>
      </g>
    </g>
  </g>
</svg>
