<svg xmlns="http://www.w3.org/2000/svg" width="272" height="922" viewBox="0 0 272 922">
  <g id="그룹_5838" data-name="그룹 5838" transform="translate(-44 -6285)">
    <g id="사각형_2073" data-name="사각형 2073" transform="translate(44 6285)" fill="none" stroke="#3f4b64" stroke-width="1">
      <rect width="272" height="922" rx="6" stroke="none"/>
      <rect x="0.5" y="0.5" width="271" height="921" rx="5.5" fill="none"/>
    </g>
    <g id="그룹_4985" data-name="그룹 4985" transform="translate(-535 -387)">
      <rect id="사각형_2065" data-name="사각형 2065" width="248" height="42" rx="6" transform="translate(591 6688)" fill="#006476"/>
      <path id="패스_27410" data-name="패스 27410" d="M-80.7,0h2.19V-4.41h4.32v-1.8h-4.32V-8.79h4.8v-1.83H-80.7Zm8.235,0h2.16V-4.53A1.632,1.632,0,0,1-68.6-6.18a3.258,3.258,0,0,1,.93.12V-8.01a4.924,4.924,0,0,0-.69-.06,1.923,1.923,0,0,0-1.92,1.5h-.09V-7.95h-2.1Zm9.2.15c2.4,0,3.885-1.65,3.9-4.11a3.782,3.782,0,0,0-3.9-4.11A3.8,3.8,0,0,0-67.2-3.96,3.782,3.782,0,0,0-63.27.15Zm-1.71-4.11c-.015-1.4.57-2.445,1.71-2.43,1.11-.015,1.7,1.035,1.68,2.43.015,1.395-.57,2.43-1.68,2.43C-64.41-1.53-64.995-2.565-64.98-3.96Zm9.12-.66a1.507,1.507,0,0,1,1.53-1.65,1.4,1.4,0,0,1,1.44,1.59V0h2.16V-5.07a2.678,2.678,0,0,0-2.73-3,2.443,2.443,0,0,0-2.4,1.5h-.09V-7.95h-2.07V0h2.16Zm11.01-3.33h-1.5V-9.87h-2.16v1.92h-1.11v1.62h1.11v4.17C-48.525-.6-47.46.105-45.87.12c.51-.015.9-.06,1.14-.09V-1.68c-.27.015-.645.045-.87.03-.435,0-.75-.165-.75-.78v-3.9h1.5Zm4.89,8.1c1.95,0,3.255-.945,3.57-2.4h-2.07a1.539,1.539,0,0,1-1.47.78,1.759,1.759,0,0,1-1.83-1.95h5.43v-.6c0-2.715-1.65-4.035-3.72-4.05-2.34.015-3.855,1.68-3.87,4.14C-43.9-1.425-42.42.15-39.96.15Zm-1.8-4.92a1.71,1.71,0,0,1,1.74-1.68,1.625,1.625,0,0,1,1.65,1.68Zm8.94.15a1.507,1.507,0,0,1,1.53-1.65,1.4,1.4,0,0,1,1.44,1.59V0h2.16V-5.07a2.678,2.678,0,0,0-2.73-3,2.443,2.443,0,0,0-2.4,1.5h-.09V-7.95h-2.07V0h2.16ZM-23.07.12a2.317,2.317,0,0,0,2.25-1.38h.12V0h2.13V-10.62h-2.16v3.99h-.09a2.354,2.354,0,0,0-2.25-1.44c-1.755.015-3.24,1.38-3.24,4.11C-26.31-1.305-24.885.135-23.07.12Zm-1.02-4.11c0-1.38.585-2.34,1.71-2.34,1.08,0,1.68.915,1.68,2.34s-.615,2.385-1.68,2.4C-23.49-1.605-24.09-2.58-24.09-3.99ZM-1.65-5.1H-6.84v-.84h3.87V-7.35h-7.5v-.78h7.08V-9.48h-7.08v-.75h7.38v-1.44h-9.24v5.73H-8.7v.84h-5.16v1.44H-1.65ZM-12.42-.84c-.015,1.425,1.68,2.19,4.65,2.19,2.955,0,4.635-.765,4.65-2.19-.015-1.41-1.695-2.205-4.65-2.19C-10.74-3.045-12.435-2.25-12.42-.84Zm1.86,0c-.015-.57.885-.825,2.79-.81,1.89-.015,2.775.24,2.79.81-.015.555-.9.81-2.79.81S-10.575-.285-10.56-.84ZM9.72-12H7.83v7.83H9.72V-7.23h1.8V-8.76H9.72ZM-.87-9.33H7.05V-10.8H4.02v-1.29H2.16v1.29H-.87ZM-.21-6.6c0,1.41,1.335,2.355,3.3,2.34,1.935.015,3.285-.93,3.3-2.34-.015-1.425-1.365-2.355-3.3-2.37C1.125-8.955-.21-8.025-.21-6.6ZM.99,1.2H9.72V-3.66H7.83v1.02H2.85V-3.66H.99Zm.63-7.8C1.6-7.23,2.2-7.605,3.09-7.59c.9-.015,1.5.36,1.5.99s-.6.99-1.5.99S1.6-5.955,1.62-6.6ZM2.85-.27V-1.2H7.83v.93ZM17.82,0l.8-2.43h3.84L23.25,0h2.37L21.96-10.62H19.11L15.45,0Zm1.35-4.17,1.32-4.05h.09L21.9-4.17ZM26.82,0h2.19V-3.45h1.92c2.43,0,3.84-1.47,3.84-3.57s-1.38-3.585-3.81-3.6H26.82Zm2.19-5.22V-8.79h1.56a1.659,1.659,0,0,1,1.92,1.77,1.7,1.7,0,0,1-1.92,1.8Zm9.36-5.4H36.18V0h2.19Zm11.58-.09H43.8v1.5h4.29a9.8,9.8,0,0,1-.3,1.8l-4.71.27.27,1.59,3.855-.345A9.242,9.242,0,0,1,43.02-2.07L44.04-.66C48.84-3.165,49.95-6.6,49.95-10.71Zm-.03,5.37H52.5V1.35h1.86V-12H52.5v5.13H49.92Zm17.7-6.63h-1.8v7.86h1.8ZM56.7-4.68h.93a20.475,20.475,0,0,0,4.71-.42l-.21-1.47a19.47,19.47,0,0,1-3.57.36v-4.83H56.7Zm1.68,2.64h7.38V1.35h1.86V-3.54H58.38Zm2.34-5.88h2.4v3.69h1.74v-7.5H63.12v2.31h-2.4ZM80.28-12H78.45v4.74H76.08v1.5h2.37V1.38h1.83ZM69.66-1.65h1.05a37.344,37.344,0,0,0,5.97-.36l-.18-1.5a29.444,29.444,0,0,1-4.98.33V-5.67h3.87V-7.14H71.52V-9.36h4.35v-1.5H69.66Z" transform="translate(715 6715)" fill="#fff"/>
    </g>
    <g id="그룹_5834" data-name="그룹 5834" transform="translate(-535 461)">
      <rect id="사각형_2065-2" data-name="사각형 2065" width="248" height="42" rx="6" transform="translate(591 6688)" fill="#006476"/>
      <path id="패스_27440" data-name="패스 27440" d="M-79.32,0h4.5c2.385,0,3.645-1.245,3.66-2.91A2.462,2.462,0,0,0-73.5-5.49v-.12a2.274,2.274,0,0,0,1.92-2.28c-.015-1.59-1.185-2.715-3.51-2.73h-4.23Zm2.19-1.8V-4.65h1.92a1.55,1.55,0,0,1,1.77,1.5c0,.81-.555,1.335-1.83,1.35Zm0-4.35V-8.82h1.74c1,0,1.575.525,1.59,1.29a1.462,1.462,0,0,1-1.62,1.38Zm6.93,3.93A2.33,2.33,0,0,0-67.56.15a2.383,2.383,0,0,0,2.31-1.26h.09V0h2.04V-5.37c0-1.9-1.635-2.685-3.36-2.7-2.115.015-3.33,1.1-3.45,2.49h2.07c.105-.555.57-.885,1.32-.9.795.015,1.26.39,1.26,1.08v.63l-1.98.09C-68.775-4.575-70.2-4.005-70.2-2.22Zm2.07-.06c0-.615.48-.975,1.23-1.05.36-.03,1.29-.075,1.62-.09v.57a1.536,1.536,0,0,1-1.68,1.5C-67.635-1.35-68.13-1.68-68.13-2.28ZM-57.87.15a3.183,3.183,0,0,0,3.51-3.03H-56.4a1.429,1.429,0,0,1-1.47,1.32c-1.035,0-1.725-.885-1.71-2.43-.015-1.5.675-2.37,1.71-2.37A1.435,1.435,0,0,1-56.4-5.04h2.04c-.09-1.815-1.47-3.015-3.54-3.03a3.79,3.79,0,0,0-3.9,4.11C-61.785-1.53-60.33.15-57.87.15ZM-53.01,0h2.16V-2.52l.615-.7L-48.03,0h2.55l-3.135-4.5,2.985-3.45h-2.49l-2.61,3.03h-.12v-5.7h-2.16Zm11.67.15c1.95,0,3.255-.945,3.57-2.4h-2.07a1.539,1.539,0,0,1-1.47.78,1.759,1.759,0,0,1-1.83-1.95h5.43v-.6c0-2.715-1.65-4.035-3.72-4.05-2.34.015-3.855,1.68-3.87,4.14C-45.285-1.425-43.8.15-41.34.15Zm-1.8-4.92A1.71,1.71,0,0,1-41.4-6.45a1.625,1.625,0,0,1,1.65,1.68Zm8.94.15a1.507,1.507,0,0,1,1.53-1.65,1.4,1.4,0,0,1,1.44,1.59V0h2.16V-5.07a2.678,2.678,0,0,0-2.73-3,2.443,2.443,0,0,0-2.4,1.5h-.09V-7.95h-2.07V0h2.16ZM-24.45.12A2.317,2.317,0,0,0-22.2-1.26h.12V0h2.13V-10.62h-2.16v3.99h-.09a2.354,2.354,0,0,0-2.25-1.44c-1.755.015-3.24,1.38-3.24,4.11C-27.69-1.305-26.265.135-24.45.12Zm-1.02-4.11c0-1.38.585-2.34,1.71-2.34,1.08,0,1.68.915,1.68,2.34s-.615,2.385-1.68,2.4C-24.87-1.605-25.47-2.58-25.47-3.99ZM-3.03-5.1H-8.22v-.84h3.87V-7.35h-7.5v-.78h7.08V-9.48h-7.08v-.75h7.38v-1.44h-9.24v5.73h3.63v.84h-5.16v1.44H-3.03ZM-13.8-.84c-.015,1.425,1.68,2.19,4.65,2.19,2.955,0,4.635-.765,4.65-2.19-.015-1.41-1.695-2.205-4.65-2.19C-12.12-3.045-13.815-2.25-13.8-.84Zm1.86,0c-.015-.57.885-.825,2.79-.81,1.89-.015,2.775.24,2.79.81-.015.555-.9.81-2.79.81C-11.055-.03-11.955-.285-11.94-.84ZM8.34-12H6.45v7.83H8.34V-7.23h1.8V-8.76H8.34ZM-2.25-9.33H5.67V-10.8H2.64v-1.29H.78v1.29H-2.25Zm.66,2.73c0,1.41,1.335,2.355,3.3,2.34C3.645-4.245,5-5.19,5.01-6.6,5-8.025,3.645-8.955,1.71-8.97-.255-8.955-1.59-8.025-1.59-6.6Zm1.2,7.8H8.34V-3.66H6.45v1.02H1.47V-3.66H-.39ZM.24-6.6c-.015-.63.585-1.005,1.47-.99.9-.015,1.5.36,1.5.99s-.6.99-1.5.99S.225-5.955.24-6.6ZM1.47-.27V-1.2H6.45v.93ZM16.44,0l.8-2.43h3.84L21.87,0h2.37L20.58-10.62H17.73L14.07,0Zm1.35-4.17,1.32-4.05h.09l1.32,4.05ZM25.44,0h2.19V-3.45h1.92c2.43,0,3.84-1.47,3.84-3.57s-1.38-3.585-3.81-3.6H25.44Zm2.19-5.22V-8.79h1.56a1.659,1.659,0,0,1,1.92,1.77,1.7,1.7,0,0,1-1.92,1.8Zm9.36-5.4H34.8V0h2.19Zm11.58-.09H42.42v1.5h4.29a9.8,9.8,0,0,1-.3,1.8l-4.71.27.27,1.59,3.855-.345A9.242,9.242,0,0,1,41.64-2.07L42.66-.66C47.46-3.165,48.57-6.6,48.57-10.71Zm-.03,5.37h2.58V1.35h1.86V-12H51.12v5.13H48.54Zm17.7-6.63h-1.8v7.86h1.8ZM55.32-4.68h.93a20.475,20.475,0,0,0,4.71-.42l-.21-1.47a19.47,19.47,0,0,1-3.57.36v-4.83H55.32ZM57-2.04h7.38V1.35h1.86V-3.54H57Zm2.34-5.88h2.4v3.69h1.74v-7.5H61.74v2.31h-2.4ZM78.9-12H77.07v4.74H74.7v1.5h2.37V1.38H78.9ZM68.28-1.65h1.05a37.344,37.344,0,0,0,5.97-.36l-.18-1.5a29.444,29.444,0,0,1-4.98.33V-5.67h3.87V-7.14H70.14V-9.36h4.35v-1.5H68.28Z" transform="translate(715 6715)" fill="#fff"/>
    </g>
    <g id="그룹_5836" data-name="그룹 5836" transform="translate(0 -28)">
      <g id="그룹_5831" data-name="그룹 5831" transform="translate(0 18)">
        <rect id="사각형_2064" data-name="사각형 2064" width="248" height="250" rx="6" transform="translate(56 6379)" fill="#182e3c"/>
        <path id="패스_27411" data-name="패스 27411" d="M-28.155-5.04H-33.4v-.99h3.9V-7.29h-7.56v-.93h7.14v-1.2h-7.14v-.9h7.47v-1.26h-9.12v5.55h3.69v.99h-5.22v1.29h12.09ZM-38.835-.87c.015,1.41,1.68,2.16,4.62,2.16s4.59-.75,4.59-2.16-1.665-2.16-4.59-2.16S-38.82-2.265-38.835-.87Zm1.65,0c-.015-.63.99-.945,2.97-.96,1.965.015,2.955.33,2.97.96-.015.645-1,.945-2.97.93C-36.195.075-37.2-.225-37.185-.87Zm20.37-11.07h-1.65V-4.2h1.65V-7.32h1.86V-8.67h-1.86Zm-10.44,2.52h7.86v-1.29h-3.12v-1.32h-1.62v1.32h-3.12Zm.69,2.79c-.015,1.425,1.305,2.34,3.24,2.34,1.92,0,3.225-.915,3.24-2.34-.015-1.395-1.32-2.325-3.24-2.31C-25.26-8.955-26.58-8.025-26.565-6.63Zm1.17,7.77h8.58V-3.69h-1.65v1.17h-5.31V-3.69H-25.4Zm.39-7.77c0-.69.675-1.125,1.68-1.11,1-.015,1.68.42,1.68,1.11,0,.72-.675,1.14-1.68,1.14S-25.005-5.91-25.005-6.63Zm1.23,6.48V-1.26h5.31V-.15ZM-8.685-11.1h-1.53v6.33H-5V-11.1H-6.5v1.95h-2.19Zm0,5.04V-7.89H-6.5v1.83Zm.21,4.08h7.44V1.29H.585V-3.3h-9.06ZM-3.8-4.05h1.5V-7.29h1.35v3.33H.585v-7.95H-.945v3.3H-2.3v-3.06H-3.8Zm12.06-7.14c-2.835,0-4.935,1.425-4.92,3.57-.015,1.995,1.7,3.3,4.11,3.555V-1.65H2.235V-.3h12.09V-1.65H9.045V-4.065c2.415-.24,4.14-1.56,4.14-3.555C13.185-9.765,11.085-11.19,8.265-11.19ZM4.935-7.62C4.92-9,6.315-9.885,8.265-9.87,10.2-9.885,11.58-9,11.6-7.62,11.58-6.18,10.2-5.34,8.265-5.34S4.92-6.18,4.935-7.62Zm21.3-4.32h-1.65V1.29h1.65ZM15.165-3.18l.15,1.35a55.1,55.1,0,0,0,8.37-.51l-.06-1.2c-.615.075-1.245.12-1.89.165V-9.33h1.29v-1.32h-7.5v1.32h1.26v6.15Zm3.21-.03V-9.33h1.77v6.06C19.545-3.24,18.96-3.225,18.375-3.21ZM35-10.11v-.99h-1.74v.99c-.015,2.025-2.01,4.08-4.74,4.56l.72,1.38A7.134,7.134,0,0,0,34.14-7.755,6.9,6.9,0,0,0,39.015-4.17l.75-1.38C36.99-6.015,34.98-8.07,35-10.11ZM28.155-.39h12.09V-1.74H28.155Z" transform="translate(180 6409)" fill="#fff"/>
        <g id="mo-다이어그램-박스" transform="translate(72 6437)">
          <rect id="사각형_2072" data-name="사각형 2072" width="104" height="28" rx="4" fill="#2a4252"/>
          <path id="패스_27412" data-name="패스 27412" d="M-11.544-9.552h-1.32V1.032h1.32Zm-8.76,7.68.672,1.032a7.769,7.769,0,0,0,4.944-7.584h-5.088v1.032h3.756C-16.26-4.98-17.544-3.192-20.3-1.872ZM-7.488-9.144H-8.76v4.3h2.9v.96h-4.152v1.056H-.36V-3.888H-4.536v-.96h2.928v-4.3H-2.9v1.152H-7.488ZM-8.832.84h7.368V-.216H-7.512V-2.16h-1.32ZM-7.488-5.9v-1.08H-2.9V-5.9Zm16.7-3.648H7.92v1.7H5.808v1.056H7.92v2.664h1.3ZM.288-5.112l.7,1.032A4.062,4.062,0,0,0,3.552-6.4,4.091,4.091,0,0,0,6-4.3L6.7-5.3A3.206,3.206,0,0,1,4.2-8.352v-.84H2.88v.84A3.367,3.367,0,0,1,.288-5.112ZM2.256.912h7.3V-.12h-6V-.936H9.216V-3.672H2.256V-2.64H7.92V-1.9H2.256ZM19.584-9.552h-1.3v2.64h-1.8v1.08h1.8v2.568h1.3ZM10.68-4.32l.7,1.032a4.353,4.353,0,0,0,2.6-2.472,4.063,4.063,0,0,0,2.46,2.184l.672-1.032a3.354,3.354,0,0,1-2.5-3.12V-7.8H16.8V-8.856H11.088V-7.8H13.3v.072A3.667,3.667,0,0,1,10.68-4.32ZM12.408-.984C12.4.3,13.776,1.044,16.008,1.056,18.252,1.044,19.62.3,19.632-.984c-.012-1.26-1.38-2-3.624-2.016C13.776-2.988,12.4-2.244,12.408-.984Zm1.3,0c-.012-.648.828-1.008,2.3-1.008s2.316.36,2.328,1.008c-.012.672-.852,1.02-2.328,1.008C14.532.036,13.692-.312,13.7-.984Z" transform="translate(52 18)" fill="#ddd"/>
        </g>
        <g id="mo-다이어그램-박스-2" data-name="mo-다이어그램-박스" transform="translate(72 6473)">
          <rect id="사각형_2072-2" data-name="사각형 2072" width="104" height="28" rx="4" fill="#2a4252"/>
          <path id="패스_27414" data-name="패스 27414" d="M-12.876-3.648h-9.648v1.056h4.152V1.032h1.3V-2.592h4.2ZM-22.02-5.376l.48,1.032A5.129,5.129,0,0,0-17.7-6.588a5.085,5.085,0,0,0,3.84,2.244l.48-1.032c-2.088-.264-3.468-1.368-3.564-2.544h3.18V-8.952h-7.872V-7.92h3.18C-18.564-6.744-19.956-5.64-22.02-5.376ZM-2.484-4.248h-9.7v1.032h4.3v1.944h1.3V-3.216h4.1ZM-11,.84h7.44V-.216H-9.708V-2.232H-11Zm.048-6.072h7.224v-3.84h-7.224Zm1.272-1.032V-8.04h4.656v1.776ZM2.028-8.88H.732L-2,1.272h1.3Zm2.04.288H2.82v7.08H7v-7.08H5.8V-6.12H4.068Zm0,6.024v-2.52H5.8v2.52Zm3.96,3.1H9.252v-4.92H10.38V1.032h1.248V-9.552H10.38v4.1H9.252V-9.36H8.028Zm10.3-6.336h-1.3v1.392H12.876v1.032h9.648V-4.416h-4.2ZM13.38-6.24l.48,1.032A5.292,5.292,0,0,0,17.676-7.38a5.24,5.24,0,0,0,3.792,2.172l.5-1.032c-2.208-.276-3.636-1.44-3.624-2.736v-.408h-1.32v.408C17.016-7.716,15.576-6.516,13.38-6.24Zm.6,5.424c.012,1.188,1.392,1.848,3.7,1.848s3.672-.66,3.672-1.848c0-1.212-1.368-1.884-3.672-1.872C15.372-2.7,13.992-2.028,13.98-.816Zm1.344,0c-.012-.6.8-.888,2.352-.888s2.364.288,2.376.888c-.012.564-.84.864-2.376.864S15.312-.252,15.324-.816Z" transform="translate(52 18)" fill="#ddd"/>
        </g>
        <g id="mo-다이어그램-박스-3" data-name="mo-다이어그램-박스" transform="translate(72 6545)">
          <rect id="사각형_2072-3" data-name="사각형 2072" width="104" height="28" rx="4" fill="#2a4252"/>
          <path id="패스_27418" data-name="패스 27418" d="M-11.52-9.528h-1.3v2.784h-1.872v1.056h1.872V-1.8h1.3ZM-20.4-4.1l.672,1.056a4.291,4.291,0,0,0,2.592-2.424,4.12,4.12,0,0,0,2.472,2.208l.672-1.032a3.381,3.381,0,0,1-2.5-3.144v-.288H-14.3V-8.784h-5.712v1.056h2.208v.288A3.557,3.557,0,0,1-20.4-4.1ZM-18.456.84h7.2V-.216h-5.9V-2.472h-1.3ZM-6.024-7.008v-1.68h-1.3v1.68a5.209,5.209,0,0,1-2.808,4.824l.792,1.1A5.379,5.379,0,0,0-6.66-4.4a5.194,5.194,0,0,0,2.6,3.06l.768-1.032A5.031,5.031,0,0,1-6.024-7.008Zm3.5,8.064H-1.2V-9.552H-2.52ZM6.264-8.76H.864V-7.7H4.98a14.887,14.887,0,0,1-.252,2.568L6-5.016a17.142,17.142,0,0,0,.264-3.12ZM.24-4.176.36-3.12a40.057,40.057,0,0,0,6.552-.456L6.84-4.512a31.052,31.052,0,0,1-3.24.264V-6.36H2.3V-4.2C1.56-4.188.864-4.176.24-4.176ZM1.824.84h7.32V-.216H3.12V-2.328h-1.3Zm5.64-2.448H8.808V-5.16h1.368V-6.24H8.808V-9.552H7.464ZM19.536-9.552h-1.3V1.056h1.3ZM11.3-1.44h.936a30.566,30.566,0,0,0,5.28-.384L17.4-2.88a30.066,30.066,0,0,1-4.752.36V-4.656H16.3v-3.96H11.3V-7.56h3.648v1.872H11.3Z" transform="translate(52 18)" fill="#ddd"/>
        </g>
        <g id="mo-다이어그램-박스-4" data-name="mo-다이어그램-박스" transform="translate(72 6509)">
          <rect id="사각형_2072-4" data-name="사각형 2072" width="104" height="28" rx="4" fill="#2a4252"/>
          <path id="패스_27416" data-name="패스 27416" d="M-6.072-9.552H-7.3V1.032h1.224Zm-9.216,7.44.744.912a7.678,7.678,0,0,0,3.12-3.144h1.9v4.9H-8.3v-9.84H-9.528v3.912H-11a9.339,9.339,0,0,0,.42-2.88h-4.152V-7.2h2.844A6.267,6.267,0,0,1-15.288-2.112ZM-.84-7.008v-1.68h-1.3v1.68A5.209,5.209,0,0,1-4.944-2.184l.792,1.1A5.379,5.379,0,0,0-1.476-4.4a5.194,5.194,0,0,0,2.6,3.06L1.9-2.376A5.031,5.031,0,0,1-.84-7.008Zm3.5,8.064h1.32V-9.552H2.664ZM11.5-8.616H5.808v1.032H6.72v3.3l-1.2.012.12,1.056a41.848,41.848,0,0,0,6.384-.408l-.1-.96c-.444.048-.9.1-1.368.132V-7.584H11.5ZM7.1.84h7.2V-.216H8.4V-2.5H7.1Zm.888-5.16V-7.584h1.32v3.216C8.868-4.344,8.424-4.332,7.992-4.32Zm4.584,2.568H13.9V-5.4h1.488V-6.48H13.9V-9.528h-1.32Z" transform="translate(52 18)" fill="#ddd"/>
        </g>
        <g id="mo-다이어그램-박스-5" data-name="mo-다이어그램-박스" transform="translate(72 6581)">
          <rect id="사각형_2072-5" data-name="사각형 2072" width="104" height="28" rx="4" fill="#2a4252"/>
          <path id="패스_27420" data-name="패스 27420" d="M-.36-4.032h-4.2v-.792h3.12V-5.832H-7.488v-.744h5.712v-.96H-7.488v-.72h5.976V-9.264h-7.3v4.44h2.952v.792h-4.176V-3H-.36ZM-8.9-.7c.012,1.128,1.344,1.728,3.7,1.728S-1.536.432-1.536-.7-2.868-2.424-5.208-2.424-8.892-1.812-8.9-.7Zm1.32,0c-.012-.5.792-.756,2.376-.768,1.572.012,2.364.264,2.376.768-.012.516-.8.756-2.376.744C-6.792.06-7.6-.18-7.584-.7ZM9.48-9.552H8.256V1.032H9.48ZM.24-2.112l.768.912A7.417,7.417,0,0,0,4.6-5.64H6.072v1.584H4.416V-3H6.072V.552H7.3v-9.84H6.072V-6.7H4.824a9.446,9.446,0,0,0,.12-1.56H.816V-7.2h2.82A6.267,6.267,0,0,1,.24-2.112Z" transform="translate(52 18)" fill="#ddd"/>
        </g>
        <g id="mo-다이어그램-박스-6" data-name="mo-다이어그램-박스" transform="translate(184 6437)">
          <rect id="사각형_2072-6" data-name="사각형 2072" width="104" height="28" rx="4" fill="#2a4252"/>
          <path id="패스_27413" data-name="패스 27413" d="M-16.632-7.872v-1.1h-1.3v.984A3.674,3.674,0,0,1-20.5-4.464l.7,1.032A4.191,4.191,0,0,0-17.268-5.88a4.045,4.045,0,0,0,2.436,2.136l.7-1.008A3.3,3.3,0,0,1-16.632-7.872ZM-19.056-.984c0,1.284,1.368,2.016,3.576,2.016S-11.928.3-11.928-.984c0-1.26-1.356-2-3.552-1.992C-17.688-2.988-19.056-2.244-19.056-.984Zm1.3,0c0-.624.828-.972,2.28-.984,1.452.012,2.268.36,2.28.984-.012.648-.828.984-2.28.984S-17.76-.336-17.76-.984Zm4.416-2.232h1.32V-5.9h1.488v-1.08h-1.488V-9.552h-1.32ZM-.36-4.536h-9.648V-3.5h4.152v1.032H-8.88V.912h7.344V-2.472H-4.56V-3.5h4.2ZM-9.144-8.184H-7.68v1.8H-9.1v1.056H-1.32V-6.384H-2.712v-1.8h1.464V-9.24h-7.9Zm1.56,8.04v-1.32h4.776v1.32Zm1.2-6.24v-1.8h2.376v1.8ZM6.264-8.76H.864V-7.7H4.98a14.887,14.887,0,0,1-.252,2.568L6-5.016a17.142,17.142,0,0,0,.264-3.12ZM.24-4.176.36-3.12a40.057,40.057,0,0,0,6.552-.456L6.84-4.512a31.052,31.052,0,0,1-3.24.264V-6.36H2.3V-4.2C1.56-4.188.864-4.176.24-4.176ZM1.824.84h7.32V-.216H3.12V-2.328h-1.3Zm5.64-2.448H8.808V-5.16h1.368V-6.24H8.808V-9.552H7.464ZM19.536-9.552h-1.3V1.056h1.3ZM11.3-1.44h.936a30.566,30.566,0,0,0,5.28-.384L17.4-2.88a30.066,30.066,0,0,1-4.752.36V-4.656H16.3v-3.96H11.3V-7.56h3.648v1.872H11.3Z" transform="translate(52 18)" fill="#ddd"/>
        </g>
        <g id="mo-다이어그램-박스-7" data-name="mo-다이어그램-박스" transform="translate(184 6473)">
          <rect id="사각형_2072-7" data-name="사각형 2072" width="104" height="28" rx="4" fill="#2a4252"/>
          <path id="패스_27415" data-name="패스 27415" d="M-11.568-9.552h-1.3V1.032h1.3ZM-20.328-1.9l.168,1.08a42.885,42.885,0,0,0,6.768-.432l-.1-.96c-.888.12-1.824.192-2.76.228V-2.9c1.188-.192,1.98-.912,1.968-1.92.012-1.2-1.068-1.992-2.616-1.992s-2.616.792-2.616,1.992c0,1.008.78,1.728,1.968,1.92v.972C-18.54-1.908-19.488-1.9-20.328-1.9Zm.216-5.4h6.432V-8.328h-2.544V-9.5h-1.32v1.176h-2.568Zm1.848,2.472c-.012-.624.564-1,1.368-.984.816-.012,1.38.36,1.392.984-.012.6-.576.96-1.392.96S-18.276-4.224-18.264-4.824Zm17.136-4.7h-1.32V-3.36H-4.512v.912h2.064v.912h1.32Zm-8.928,4.752.144,1.032c.84,0,1.788,0,2.784-.036v1.956h1.3V-3.852c.888-.06,1.8-.156,2.664-.3l-.072-.936A62.046,62.046,0,0,1-10.056-4.776Zm.792-2.5c.012,1.128,1.092,1.86,2.664,1.848,1.536.012,2.616-.72,2.616-1.848S-5.064-9.156-6.6-9.144C-8.184-9.156-9.252-8.4-9.264-7.272Zm.6,8.112H-.888V-.216H-7.344V-2.3h-1.32Zm.648-8.112c-.012-.576.564-.924,1.416-.912.8-.012,1.38.336,1.392.912-.012.576-.588.9-1.392.912C-7.452-6.372-8.028-6.7-8.016-7.272ZM6.264-8.76H.864V-7.7H4.98a14.887,14.887,0,0,1-.252,2.568L6-5.016a17.142,17.142,0,0,0,.264-3.12ZM.24-4.176.36-3.12a40.057,40.057,0,0,0,6.552-.456L6.84-4.512a31.052,31.052,0,0,1-3.24.264V-6.36H2.3V-4.2C1.56-4.188.864-4.176.24-4.176ZM1.824.84h7.32V-.216H3.12V-2.328h-1.3Zm5.64-2.448H8.808V-5.16h1.368V-6.24H8.808V-9.552H7.464ZM19.536-9.552h-1.3V1.056h1.3ZM11.3-1.44h.936a30.566,30.566,0,0,0,5.28-.384L17.4-2.88a30.066,30.066,0,0,1-4.752.36V-4.656H16.3v-3.96H11.3V-7.56h3.648v1.872H11.3Z" transform="translate(52 18)" fill="#ddd"/>
        </g>
        <g id="mo-다이어그램-박스-8" data-name="mo-다이어그램-박스" transform="translate(184 6545)">
          <rect id="사각형_2072-8" data-name="사각형 2072" width="104" height="28" rx="4" fill="#2a4252"/>
          <path id="패스_27419" data-name="패스 27419" d="M-10.7-1.32h-9.672V-.24H-10.7Zm-8.88-6.192h1.536v3.36H-19.56V-3.12h7.968V-4.152H-13.1v-3.36h1.56V-8.568h-8.04Zm2.832,3.36v-3.36h2.376v3.36ZM-.336-1.272H-4.56V-3h3.312V-4.056H-7.56V-5.424h6.072V-8.832H-8.88v1.056h6.12v1.32h-6.1V-3h3.024v1.728h-4.176v1.08H-.336ZM10.032-1.32H5.808v-2.3h3.12V-8.736H1.416v5.112h3.12v2.3H.36V-.24h9.672ZM2.688-4.656V-7.68H7.632v3.024ZM14.568-7.68V-8.952h-1.3V-7.68a3.856,3.856,0,0,1-2.568,3.7l.7,1.032a4.368,4.368,0,0,0,2.532-2.58A4.293,4.293,0,0,0,16.32-3.1l.72-1.032A3.712,3.712,0,0,1,14.568-7.68ZM12.6.84h7.224V-.216h-5.9V-2.448H12.6Zm3.768-5.784h1.92V-1.68h1.3V-9.528h-1.3v1.44h-1.92v1.056h1.92V-6h-1.92Z" transform="translate(52 18)" fill="#ddd"/>
        </g>
        <g id="mo-다이어그램-박스-9" data-name="mo-다이어그램-박스" transform="translate(184 6509)">
          <rect id="사각형_2072-9" data-name="사각형 2072" width="104" height="28" rx="4" fill="#2a4252"/>
          <path id="패스_27417" data-name="패스 27417" d="M-11.736-8.592h-7.632v1.056h6.312a22.888,22.888,0,0,1-.408,4.848l1.32.12a26.425,26.425,0,0,0,.408-4.992Zm-8.64,8.256h9.648V-1.392h-4.8v-3.7h-1.3v3.7h-3.552ZM-.96-9.528H-2.184v2.5H-3.312v-2.3H-4.536v5.952h1.224V-5.952h1.128v2.616H-.96ZM-10.08-4.2l.624.96C-6.72-4.344-5.388-6.18-5.4-8.808H-9.6v1.056h2.868C-6.936-6.192-8.016-4.992-10.08-4.2Zm1.824,2.352h6v2.88h1.3V-2.88h-7.3Zm12.6-4.7V-7.44H6.672V-8.5H.7V-7.44H3.024v.888A5.138,5.138,0,0,1,.312-1.992L1.056-.96A5.441,5.441,0,0,0,3.708-4.236,5.086,5.086,0,0,0,6.36-1.224l.72-1.032A4.7,4.7,0,0,1,4.344-6.552Zm3.5,7.584h1.32V-9.552H7.848Zm11.76-10.56h-1.32V-3.36H16.224v.912h2.064v.912h1.32ZM10.68-4.776l.144,1.032c.84,0,1.788,0,2.784-.036v1.956h1.3V-3.852c.888-.06,1.8-.156,2.664-.3L17.5-5.088A62.046,62.046,0,0,1,10.68-4.776Zm.792-2.5c.012,1.128,1.092,1.86,2.664,1.848,1.536.012,2.616-.72,2.616-1.848s-1.08-1.884-2.616-1.872C12.552-9.156,11.484-8.4,11.472-7.272Zm.6,8.112h7.776V-.216H13.392V-2.3h-1.32Zm.648-8.112c-.012-.576.564-.924,1.416-.912.8-.012,1.38.336,1.392.912-.012.576-.588.9-1.392.912C13.284-6.372,12.708-6.7,12.72-7.272Z" transform="translate(52 18)" fill="#ddd"/>
        </g>
        <g id="mo-다이어그램-박스-10" data-name="mo-다이어그램-박스" transform="translate(184 6581)">
          <rect id="사각형_2072-10" data-name="사각형 2072" width="104" height="28" rx="4" fill="#2a4252"/>
          <path id="패스_27421" data-name="패스 27421" d="M-6.384-9.552H-7.7V1.056h1.32Zm-8.16,8.064h.888a26.756,26.756,0,0,0,5.136-.36l-.12-1.08a24.3,24.3,0,0,1-4.584.312v-4.9h3.792v-1.08h-5.112ZM-1.032-6.552V-7.44H1.176V-8.5H-4.656V-7.44h2.328v.888a5.221,5.221,0,0,1-2.736,4.56L-4.3-.96a5.464,5.464,0,0,0,2.628-3.3A5.216,5.216,0,0,0,.888-1.224l.72-1.032A4.851,4.851,0,0,1-1.032-6.552ZM2.16,1.032h1.3V-4.344H5.088v-1.08H3.456V-9.552H2.16ZM14.352-9.528h-1.3V-1.9h1.3ZM5.736-6.192a2.652,2.652,0,0,0,2.856,2.64,2.645,2.645,0,0,0,2.832-2.64,2.652,2.652,0,0,0-2.832-2.64A2.659,2.659,0,0,0,5.736-6.192Zm1.272,0A1.468,1.468,0,0,1,8.592-7.7a1.474,1.474,0,0,1,1.56,1.512A1.468,1.468,0,0,1,8.592-4.68,1.462,1.462,0,0,1,7.008-6.192ZM7.344.84h7.3V-.216H8.664V-2.664H7.344Z" transform="translate(52 18)" fill="#ddd"/>
        </g>
        <line id="선_44" data-name="선 44" x2="216" transform="translate(72 6425)" fill="none" stroke="#2a4252" stroke-width="1"/>
      </g>
      <g id="그룹_5832" data-name="그룹 5832" transform="translate(0 288)">
        <rect id="사각형_2064-2" data-name="사각형 2064" width="248" height="250" rx="6" transform="translate(56 6379)" fill="#182e3c"/>
        <path id="패스_27422" data-name="패스 27422" d="M-28.845-8.76v-2.1H-30.5v2.1c-.03,2.475-1.23,5.025-3.39,6.03l1.05,1.32a6.677,6.677,0,0,0,3.165-4.1A6.369,6.369,0,0,0-26.565-1.65l.99-1.29A6.224,6.224,0,0,1-28.845-8.76Zm1.8,2.43h2.79V1.32h1.62V-11.94h-1.62v4.29h-2.79Zm17.28-5.61h-1.65V1.32h1.65ZM-20.085-1.8h6.45v-9.06h-1.62v3.3h-3.21v-3.3h-1.62Zm1.62-1.35V-6.27h3.21v3.12Zm17.49-6.96v-.99h-1.74v.99c-.015,2.025-2.01,4.08-4.74,4.56l.72,1.38A7.134,7.134,0,0,0-1.83-7.755,6.9,6.9,0,0,0,3.045-4.17l.75-1.38C1.02-6.015-.99-8.07-.975-10.11ZM-7.815-.39H4.275V-1.74H-7.815Zm27.12-10.74h-9.18v1.32h7.56a20.645,20.645,0,0,1-.405,4.32H8.715v1.32h5.16V1.32h1.62V-4.17h5.28V-5.49H18.93a22.732,22.732,0,0,0,.375-4.47Zm7.2,1.08v-1.17h-1.62v1.26a4.59,4.59,0,0,1-3.3,4.41l.87,1.29A5.362,5.362,0,0,0,25.74-7.4,5.074,5.074,0,0,0,28.755-4.65l.87-1.29A4.2,4.2,0,0,1,26.5-10.05Zm-2.73,8.79c-.015,1.635,1.71,2.55,4.5,2.55,2.805,0,4.515-.915,4.53-2.55C32.79-2.865,31.08-3.8,28.275-3.81,25.485-3.8,23.76-2.865,23.775-1.26Zm1.62,0c-.015-.825,1.035-1.26,2.88-1.26s2.9.435,2.91,1.26C31.17-.435,30.12.015,28.275,0,26.43.015,25.38-.435,25.395-1.26Zm3.09-6.78h2.64v3.9h1.62v-7.8h-1.62v2.55h-2.64Z" transform="translate(180 6409)" fill="#fff"/>
        <g id="mo-다이어그램-박스-11" data-name="mo-다이어그램-박스" transform="translate(72 6437)">
          <rect id="사각형_2072-11" data-name="사각형 2072" width="104" height="28" rx="4" fill="#2a4252"/>
          <path id="패스_27423" data-name="패스 27423" d="M-6.264-7.872v-1.1h-1.3v.984a3.674,3.674,0,0,1-2.568,3.528l.7,1.032A4.191,4.191,0,0,0-6.9-5.88,4.045,4.045,0,0,0-4.464-3.744l.7-1.008A3.3,3.3,0,0,1-6.264-7.872ZM-8.688-.984C-8.688.3-7.32,1.032-5.112,1.032S-1.56.3-1.56-.984c0-1.26-1.356-2-3.552-1.992C-7.32-2.988-8.688-2.244-8.688-.984Zm1.3,0c0-.624.828-.972,2.28-.984,1.452.012,2.268.36,2.28.984C-2.844-.336-3.66,0-5.112,0S-7.392-.336-7.392-.984Zm4.416-2.232h1.32V-5.9H-.168v-1.08H-1.656V-9.552h-1.32Zm12.984-1.32H.36V-3.5H4.512v1.032H1.488V.912H8.832V-2.472H5.808V-3.5h4.2ZM1.224-8.184H2.688v1.8H1.272v1.056H9.048V-6.384H7.656v-1.8H9.12V-9.24h-7.9Zm1.56,8.04v-1.32H7.56v1.32Zm1.2-6.24v-1.8H6.36v1.8Z" transform="translate(52 18)" fill="#ddd"/>
        </g>
        <g id="mo-다이어그램-박스-12" data-name="mo-다이어그램-박스" transform="translate(72 6473)">
          <rect id="사각형_2072-12" data-name="사각형 2072" width="104" height="28" rx="4" fill="#2a4252"/>
          <path id="패스_27425" data-name="패스 27425" d="M-10.7-1.32h-9.672V-.24H-10.7Zm-8.88-6.192h1.536v3.36H-19.56V-3.12h7.968V-4.152H-13.1v-3.36h1.56V-8.568h-8.04Zm2.832,3.36v-3.36h2.376v3.36ZM-.336-1.272H-4.56V-3h3.312V-4.056H-7.56V-5.424h6.072V-8.832H-8.88v1.056h6.12v1.32h-6.1V-3h3.024v1.728h-4.176v1.08H-.336ZM10.032-1.32H5.808v-2.3h3.12V-8.736H1.416v5.112h3.12v2.3H.36V-.24h9.672ZM2.688-4.656V-7.68H7.632v3.024ZM14.568-7.68V-8.952h-1.3V-7.68a3.856,3.856,0,0,1-2.568,3.7l.7,1.032a4.368,4.368,0,0,0,2.532-2.58A4.293,4.293,0,0,0,16.32-3.1l.72-1.032A3.712,3.712,0,0,1,14.568-7.68ZM12.6.84h7.224V-.216h-5.9V-2.448H12.6Zm3.768-5.784h1.92V-1.68h1.3V-9.528h-1.3v1.44h-1.92v1.056h1.92V-6h-1.92Z" transform="translate(52 18)" fill="#ddd"/>
        </g>
        <g id="mo-다이어그램-박스-13" data-name="mo-다이어그램-박스" transform="translate(72 6545)">
          <rect id="사각형_2072-13" data-name="사각형 2072" width="104" height="28" rx="4" fill="#2a4252"/>
          <path id="패스_27429" data-name="패스 27429" d="M-1.152-9.552h-1.3v2.64h-1.8v1.08h1.8v2.568h1.3Zm-8.9,5.232.7,1.032a4.353,4.353,0,0,0,2.6-2.472A4.063,4.063,0,0,0-4.3-3.576l.672-1.032a3.354,3.354,0,0,1-2.5-3.12V-7.8h2.184V-8.856H-9.648V-7.8H-7.44v.072A3.667,3.667,0,0,1-10.056-4.32ZM-8.328-.984C-8.34.3-6.96,1.044-4.728,1.056-2.484,1.044-1.116.3-1.1-.984c-.012-1.26-1.38-2-3.624-2.016C-6.96-2.988-8.34-2.244-8.328-.984Zm1.3,0c-.012-.648.828-1.008,2.3-1.008s2.316.36,2.328,1.008C-2.412-.312-3.252.036-4.728.024-6.2.036-7.044-.312-7.032-.984ZM4.152-7.68V-8.9H2.832V-7.68A3.58,3.58,0,0,1,.216-4.2L.96-3.168A4.234,4.234,0,0,0,3.528-5.6,4.1,4.1,0,0,0,6-3.384l.672-1.032A3.414,3.414,0,0,1,4.152-7.68ZM1.92.84h7.2V-.216H3.264v-2.3H1.92ZM7.392-1.776h1.32V-5.328H10.2v-1.1H8.712v-3.12H7.392Z" transform="translate(52 18)" fill="#ddd"/>
        </g>
        <g id="mo-다이어그램-박스-14" data-name="mo-다이어그램-박스" transform="translate(72 6509)">
          <rect id="사각형_2072-14" data-name="사각형 2072" width="104" height="28" rx="4" fill="#2a4252"/>
          <path id="패스_27427" data-name="패스 27427" d="M-.36-3.648h-9.648v1.056h4.152V1.032h1.3V-2.592h4.2ZM-9.5-5.376l.48,1.032a5.129,5.129,0,0,0,3.84-2.244,5.085,5.085,0,0,0,3.84,2.244l.48-1.032C-2.952-5.64-4.332-6.744-4.428-7.92h3.18V-8.952H-9.12V-7.92h3.18C-6.048-6.744-7.44-5.64-9.5-5.376ZM10.032-4.248H.336v1.032h4.3v1.944h1.3V-3.216h4.1ZM1.512.84h7.44V-.216H2.808V-2.232h-1.3ZM1.56-5.232H8.784v-3.84H1.56ZM2.832-6.264V-8.04H7.488v1.776Z" transform="translate(52 18)" fill="#ddd"/>
        </g>
        <g id="mo-다이어그램-박스-15" data-name="mo-다이어그램-박스" transform="translate(72 6581)">
          <rect id="사각형_2072-15" data-name="사각형 2072" width="216" height="28" rx="4" fill="#2a4252"/>
          <path id="패스_27431" data-name="패스 27431" d="M-11.208-7.008v-1.68h-1.3v1.68a5.209,5.209,0,0,1-2.808,4.824l.792,1.1A5.379,5.379,0,0,0-11.844-4.4a5.194,5.194,0,0,0,2.6,3.06l.768-1.032A5.031,5.031,0,0,1-11.208-7.008Zm3.5,8.064h1.32V-9.552H-7.7ZM.648-8.088V-8.88H-.744v.792C-.756-6.468-2.352-4.824-4.536-4.44l.576,1.1A5.707,5.707,0,0,0-.036-6.2a5.521,5.521,0,0,0,3.9,2.868l.6-1.1C2.244-4.812.636-6.456.648-8.088ZM-4.824-.312H4.848v-1.08H-4.824ZM10.008-8.9H5.976V-3.7h.7a21.366,21.366,0,0,0,3.864-.264l-.12-1.032a17.284,17.284,0,0,1-3.192.24v-1.08H9.6V-6.84H7.224V-7.848h2.784ZM7.44.912h7.152V-2.76H7.44Zm1.3-1.056V-1.728H13.3V-.144ZM10.08-5.9h1.176v2.616H12.5v-6.1H11.256V-6.96H10.08Zm3.288,2.688h1.224V-9.552H13.368Z" transform="translate(108 18)" fill="#ddd"/>
        </g>
        <g id="mo-다이어그램-박스-16" data-name="mo-다이어그램-박스" transform="translate(184 6437)">
          <rect id="사각형_2072-16" data-name="사각형 2072" width="104" height="28" rx="4" fill="#2a4252"/>
          <path id="패스_27424" data-name="패스 27424" d="M-1.368-8.592H-9v1.056h6.312A22.888,22.888,0,0,1-3.1-2.688l1.32.12A26.425,26.425,0,0,0-1.368-7.56Zm-8.64,8.256H-.36V-1.392h-4.8v-3.7h-1.3v3.7h-3.552ZM9.408-9.528H8.184v2.5H7.056v-2.3H5.832v5.952H7.056V-5.952H8.184v2.616H9.408ZM.288-4.2l.624.96c2.736-1.1,4.068-2.94,4.056-5.568H.768v1.056H3.636C3.432-6.192,2.352-4.992.288-4.2ZM2.112-1.848h6v2.88h1.3V-2.88h-7.3Z" transform="translate(52 18)" fill="#ddd"/>
        </g>
        <g id="mo-다이어그램-박스-17" data-name="mo-다이어그램-박스" transform="translate(184 6473)">
          <rect id="사각형_2072-17" data-name="사각형 2072" width="104" height="28" rx="4" fill="#2a4252"/>
          <path id="패스_27426" data-name="패스 27426" d="M-1.152-9.528h-1.3v2.784H-4.32v1.056h1.872V-1.8h1.3ZM-10.032-4.1l.672,1.056A4.291,4.291,0,0,0-6.768-5.472,4.12,4.12,0,0,0-4.3-3.264L-3.624-4.3A3.381,3.381,0,0,1-6.12-7.44v-.288h2.184V-8.784H-9.648v1.056H-7.44v.288A3.557,3.557,0,0,1-10.032-4.1ZM-8.088.84h7.2V-.216h-5.9V-2.472h-1.3ZM4.344-7.008v-1.68h-1.3v1.68A5.209,5.209,0,0,1,.24-2.184l.792,1.1A5.379,5.379,0,0,0,3.708-4.4a5.194,5.194,0,0,0,2.6,3.06L7.08-2.376A5.031,5.031,0,0,1,4.344-7.008Zm3.5,8.064h1.32V-9.552H7.848Z" transform="translate(52 18)" fill="#ddd"/>
        </g>
        <g id="mo-다이어그램-박스-18" data-name="mo-다이어그램-박스" transform="translate(184 6545)">
          <rect id="사각형_2072-18" data-name="사각형 2072" width="104" height="28" rx="4" fill="#2a4252"/>
          <path id="패스_27430" data-name="패스 27430" d="M-16.92-8.592h-7.632v1.056h6.312a22.888,22.888,0,0,1-.408,4.848l1.32.12A26.425,26.425,0,0,0-16.92-7.56ZM-25.56-.336h9.648V-1.392h-4.8v-3.7h-1.3v3.7H-25.56ZM-6.144-9.528H-7.368v2.5H-8.5v-2.3H-9.72v5.952H-8.5V-5.952h1.128v2.616h1.224ZM-15.264-4.2l.624.96c2.736-1.1,4.068-2.94,4.056-5.568h-4.2v1.056h2.868C-12.12-6.192-13.2-4.992-15.264-4.2Zm1.824,2.352h6v2.88h1.3V-2.88h-7.3ZM-.912-7.008v-1.68h-1.32v1.68A5.335,5.335,0,0,1-4.944-2.184l.84,1.056A5.342,5.342,0,0,0-1.572-4.4,5.1,5.1,0,0,0,.912-1.32L1.7-2.352A4.979,4.979,0,0,1-.912-7.008ZM.528-5.064H2.76v6.12h1.3V-9.552H2.76V-6.12H.528ZM14.352-9.552h-1.32V1.056h1.32ZM6.1-1.44h5.16V-8.688H9.96v2.64H7.392v-2.64H6.1Zm1.3-1.08v-2.5H9.96v2.5ZM21.384-8.088V-8.88H19.992v.792C19.98-6.468,18.384-4.824,16.2-4.44l.576,1.1A5.707,5.707,0,0,0,20.7-6.2a5.521,5.521,0,0,0,3.9,2.868l.6-1.1C22.98-4.812,21.372-6.456,21.384-8.088ZM15.912-.312h9.672v-1.08H15.912Z" transform="translate(52 18)" fill="#ddd"/>
        </g>
        <g id="mo-다이어그램-박스-19" data-name="mo-다이어그램-박스" transform="translate(184 6509)">
          <rect id="사각형_2072-19" data-name="사각형 2072" width="104" height="28" rx="4" fill="#2a4252"/>
          <path id="패스_27428" data-name="패스 27428" d="M-8.448-8.592H-9.7v7.08H-5.52v-7.08h-1.2V-6.12H-8.448Zm0,6.024v-2.52H-6.72v2.52Zm3.96,3.1h1.224v-4.92h1.128V1.032H-.888V-9.552H-2.136v4.1H-3.264V-9.36H-4.488Zm10.3-6.336h-1.3v1.392H.36v1.032h9.648V-4.416h-4.2ZM.864-6.24l.48,1.032A5.292,5.292,0,0,0,5.16-7.38,5.24,5.24,0,0,0,8.952-5.208l.5-1.032C7.248-6.516,5.82-7.68,5.832-8.976v-.408H4.512v.408C4.5-7.716,3.06-6.516.864-6.24Zm.6,5.424C1.476.372,2.856,1.032,5.16,1.032S8.832.372,8.832-.816c0-1.212-1.368-1.884-3.672-1.872C2.856-2.7,1.476-2.028,1.464-.816Zm1.344,0c-.012-.6.8-.888,2.352-.888s2.364.288,2.376.888C7.524-.252,6.7.048,5.16.048S2.8-.252,2.808-.816Z" transform="translate(52 18)" fill="#ddd"/>
        </g>
        <line id="선_44-2" data-name="선 44" x2="216" transform="translate(72 6425)" fill="none" stroke="#2a4252" stroke-width="1"/>
      </g>
      <g id="그룹_5833" data-name="그룹 5833" transform="translate(0 558)">
        <rect id="사각형_2064-3" data-name="사각형 2064" width="248" height="214" rx="6" transform="translate(56 6379)" fill="#182e3c"/>
        <path id="패스_27432" data-name="패스 27432" d="M-28.815-11.94h-1.56V1.29h1.56ZM-39.8-1.74h.9a23.13,23.13,0,0,0,4.83-.36l-.15-1.35a19.143,19.143,0,0,1-3.99.36v-6h3.45v-1.29H-39.8Zm4.14-3.96h2.55V.66h1.53V-11.67H-33.1v4.65h-2.55Zm19.41-6.24H-17.9V1.32h1.65ZM-26.835-6.3c-.015,2.88,1.44,4.7,3.45,4.68,2,.015,3.45-1.8,3.45-4.68,0-2.85-1.455-4.665-3.45-4.68C-25.4-10.965-26.85-9.15-26.835-6.3Zm1.56,0c0-2.01.765-3.21,1.89-3.21s1.875,1.2,1.89,3.21c-.015,2.04-.78,3.225-1.89,3.21C-24.51-3.075-25.275-4.26-25.275-6.3ZM-3.2-11.94h-1.62v4.8h-2.49v1.29h2.49V1.32H-3.2ZM-13.7-1.74h1.02a35.15,35.15,0,0,0,6-.39l-.18-1.29a34.793,34.793,0,0,1-5.22.36V-5.79h4.05V-7.08h-4.05v-2.4h4.56V-10.8H-13.7Zm27.03-10.2h-1.65v4.68H9.165v1.35h2.52V1.32h1.65ZM2.055-2.49l.96,1.29A6.989,6.989,0,0,0,6.27-5.43,6.458,6.458,0,0,0,9.495-1.5l.96-1.29a6.129,6.129,0,0,1-3.36-5.64V-9.3h2.85v-1.32H2.595V-9.3h2.82v.87A6.58,6.58,0,0,1,2.055-2.49Zm17.88-7.05v-.15h2.76v-1.32h-7.2v1.32h2.79v.15a4.391,4.391,0,0,1-3.24,4.17l.81,1.29a5.327,5.327,0,0,0,3.3-3.015,5.066,5.066,0,0,0,3.12,2.6l.78-1.26A4.019,4.019,0,0,1,19.935-9.54Zm-3.09,8.31c0,1.575,1.71,2.52,4.47,2.52s4.44-.945,4.44-2.52c0-1.59-1.68-2.52-4.44-2.52S16.845-2.82,16.845-1.23Zm1.62,0c0-.81,1.035-1.245,2.85-1.23,1.815-.015,2.835.42,2.85,1.23C24.15-.42,23.13.015,21.315,0,19.5.015,18.465-.42,18.465-1.23Zm5.52-2.82h1.65V-7.41h1.86V-8.76h-1.86v-3.18h-1.65Zm16.26,2.4h-5.31V-4.71h-1.62v3.06h-5.16V-.33h12.09ZM28.485-5.73l.72,1.35a6.917,6.917,0,0,0,4.92-3.435,6.944,6.944,0,0,0,4.95,3.435l.69-1.35C36.99-6.18,34.98-8.16,35-10.17v-.96h-1.74v.96C33.24-8.175,31.275-6.18,28.485-5.73Z" transform="translate(180 6409)" fill="#fff"/>
        <g id="mo-다이어그램-박스-20" data-name="mo-다이어그램-박스" transform="translate(72 6437)">
          <rect id="사각형_2072-20" data-name="사각형 2072" width="104" height="28" rx="4" fill="#2a4252"/>
          <path id="패스_27433" data-name="패스 27433" d="M-15.648-7.872v-1.1h-1.3v.984a3.674,3.674,0,0,1-2.568,3.528l.7,1.032A4.191,4.191,0,0,0-16.284-5.88a4.045,4.045,0,0,0,2.436,2.136l.7-1.008A3.3,3.3,0,0,1-15.648-7.872ZM-18.072-.984C-18.072.3-16.7,1.032-14.5,1.032S-10.944.3-10.944-.984c0-1.26-1.356-2-3.552-1.992C-16.7-2.988-18.072-2.244-18.072-.984Zm1.3,0c0-.624.828-.972,2.28-.984,1.452.012,2.268.36,2.28.984-.012.648-.828.984-2.28.984S-16.776-.336-16.776-.984Zm4.416-2.232h1.32V-5.9h1.488v-1.08H-11.04V-9.552h-1.32ZM.624-4.536H-9.024V-3.5h4.152v1.032H-7.9V.912H-.552V-2.472H-3.576V-3.5h4.2ZM-8.16-8.184H-6.7v1.8H-8.112v1.056H-.336V-6.384H-1.728v-1.8H-.264V-9.24h-7.9ZM-6.6-.144v-1.32h4.776v1.32Zm1.2-6.24v-1.8h2.376v1.8ZM7.512,0c2.58,0,4.1-1.6,4.1-4.248S10.092-8.484,7.56-8.5H4.632V0ZM6.144-1.32V-7.176h1.32c1.74.012,2.64.984,2.64,2.928S9.2-1.32,7.44-1.32ZM12.984,0h3.432c1.932,0,2.892-.984,2.88-2.3a1.954,1.954,0,0,0-1.8-2.088v-.1a1.778,1.778,0,0,0,1.488-1.8c-.012-1.26-.924-2.2-2.76-2.208h-3.24ZM14.5-1.272v-2.5h1.728A1.382,1.382,0,0,1,17.76-2.424c0,.672-.468,1.152-1.584,1.152Zm0-3.6V-7.224H16.08c.9,0,1.368.48,1.368,1.128a1.268,1.268,0,0,1-1.416,1.224Z" transform="translate(52 18)" fill="#ddd"/>
        </g>
        <g id="mo-다이어그램-박스-21" data-name="mo-다이어그램-박스" transform="translate(72 6473)">
          <rect id="사각형_2072-21" data-name="사각형 2072" width="104" height="28" rx="4" fill="#2a4252"/>
          <path id="패스_27435" data-name="패스 27435" d="M-9.744-3.648h-9.648v1.056h4.152V1.032h1.3V-2.592h4.2Zm-9.144-1.728.48,1.032a5.129,5.129,0,0,0,3.84-2.244,5.085,5.085,0,0,0,3.84,2.244l.48-1.032c-2.088-.264-3.468-1.368-3.564-2.544h3.18V-8.952H-18.5V-7.92h3.18C-15.432-6.744-16.824-5.64-18.888-5.376ZM.648-4.248h-9.7v1.032h4.3v1.944h1.3V-3.216h4.1ZM-7.872.84h7.44V-.216H-6.576V-2.232h-1.3Zm.048-6.072H-.6v-3.84H-7.824Zm1.272-1.032V-8.04H-1.9v1.776ZM7.512,0c2.58,0,4.1-1.6,4.1-4.248S10.092-8.484,7.56-8.5H4.632V0ZM6.144-1.32V-7.176h1.32c1.74.012,2.64.984,2.64,2.928S9.2-1.32,7.44-1.32ZM12.984,0h3.432c1.932,0,2.892-.984,2.88-2.3a1.954,1.954,0,0,0-1.8-2.088v-.1a1.778,1.778,0,0,0,1.488-1.8c-.012-1.26-.924-2.2-2.76-2.208h-3.24ZM14.5-1.272v-2.5h1.728A1.382,1.382,0,0,1,17.76-2.424c0,.672-.468,1.152-1.584,1.152Zm0-3.6V-7.224H16.08c.9,0,1.368.48,1.368,1.128a1.268,1.268,0,0,1-1.416,1.224Z" transform="translate(52 18)" fill="#ddd"/>
        </g>
        <g id="mo-다이어그램-박스-22" data-name="mo-다이어그램-박스" transform="translate(72 6545)">
          <rect id="사각형_2072-22" data-name="사각형 2072" width="216" height="28" rx="4" fill="#2a4252"/>
          <path id="패스_27439" data-name="패스 27439" d="M-20.928-9.552h-1.32V1.032h1.32Zm-8.76,7.68.672,1.032a7.769,7.769,0,0,0,4.944-7.584H-29.16v1.032H-25.4C-25.644-4.98-26.928-3.192-29.688-1.872Zm19.08-7.2h-7.92V-8.04h3.06c-.108,1-1.392,1.968-3.444,2.208l.48,1.032A4.774,4.774,0,0,0-14.58-7.02,4.774,4.774,0,0,0-10.728-4.8l.5-1.032c-2.064-.24-3.36-1.2-3.468-2.208h3.084Zm-8.808,5.9h4.3v1.944h1.3V-3.168h4.1V-4.224h-9.7ZM-18.24.84h7.44V-.216h-6.144V-2.208h-1.3ZM-.168-9.552h-1.3v2.64h-1.8v1.08h1.8v2.568h1.3Zm-8.9,5.232.7,1.032a4.353,4.353,0,0,0,2.6-2.472,4.063,4.063,0,0,0,2.46,2.184l.672-1.032a3.354,3.354,0,0,1-2.5-3.12V-7.8h2.184V-8.856H-8.664V-7.8h2.208v.072A3.667,3.667,0,0,1-9.072-4.32ZM-7.344-.984C-7.356.3-5.976,1.044-3.744,1.056-1.5,1.044-.132.3-.12-.984-.132-2.244-1.5-2.988-3.744-3-5.976-2.988-7.356-2.244-7.344-.984Zm1.3,0c-.012-.648.828-1.008,2.3-1.008s2.316.36,2.328,1.008C-1.428-.312-2.268.036-3.744.024-5.22.036-6.06-.312-6.048-.984ZM11.016-1.3H6.792V-3.36h3.12v-5.5h-1.3V-7.1H3.7V-8.856H2.4v5.5H5.52V-1.3H1.344V-.24h9.672ZM3.7-4.416V-6.072h4.92v1.656ZM17.88,0c2.58,0,4.1-1.6,4.1-4.248S20.46-8.484,17.928-8.5H15V0ZM16.512-1.32V-7.176h1.32c1.74.012,2.64.984,2.64,2.928s-.9,2.928-2.664,2.928ZM23.352,0h3.432c1.932,0,2.892-.984,2.88-2.3a1.954,1.954,0,0,0-1.8-2.088v-.1a1.778,1.778,0,0,0,1.488-1.8c-.012-1.26-.924-2.2-2.76-2.208h-3.24Zm1.512-1.272v-2.5h1.728a1.382,1.382,0,0,1,1.536,1.344c0,.672-.468,1.152-1.584,1.152Zm0-3.6V-7.224h1.584c.9,0,1.368.48,1.368,1.128A1.268,1.268,0,0,1,26.4-4.872Z" transform="translate(108 18)" fill="#ddd"/>
        </g>
        <g id="mo-다이어그램-박스-23" data-name="mo-다이어그램-박스" transform="translate(72 6509)">
          <rect id="사각형_2072-23" data-name="사각형 2072" width="104" height="28" rx="4" fill="#2a4252"/>
          <path id="패스_27437" data-name="패스 27437" d="M-17.832-8.592H-19.08v7.08H-14.9v-7.08h-1.2V-6.12h-1.728Zm0,6.024v-2.52H-16.1v2.52Zm3.96,3.1h1.224v-4.92h1.128V1.032h1.248V-9.552H-11.52v4.1h-1.128V-9.36h-1.224Zm10.3-6.336h-1.3v1.392H-9.024v1.032H.624V-4.416h-4.2ZM-8.52-6.24l.48,1.032A5.292,5.292,0,0,0-4.224-7.38,5.24,5.24,0,0,0-.432-5.208l.5-1.032c-2.208-.276-3.636-1.44-3.624-2.736v-.408h-1.32v.408C-4.884-7.716-6.324-6.516-8.52-6.24Zm.6,5.424c.012,1.188,1.392,1.848,3.7,1.848S-.552.372-.552-.816c0-1.212-1.368-1.884-3.672-1.872C-6.528-2.7-7.908-2.028-7.92-.816Zm1.344,0c-.012-.6.8-.888,2.352-.888s2.364.288,2.376.888c-.012.564-.84.864-2.376.864S-6.588-.252-6.576-.816ZM7.512,0c2.58,0,4.1-1.6,4.1-4.248S10.092-8.484,7.56-8.5H4.632V0ZM6.144-1.32V-7.176h1.32c1.74.012,2.64.984,2.64,2.928S9.2-1.32,7.44-1.32ZM12.984,0h3.432c1.932,0,2.892-.984,2.88-2.3a1.954,1.954,0,0,0-1.8-2.088v-.1a1.778,1.778,0,0,0,1.488-1.8c-.012-1.26-.924-2.2-2.76-2.208h-3.24ZM14.5-1.272v-2.5h1.728A1.382,1.382,0,0,1,17.76-2.424c0,.672-.468,1.152-1.584,1.152Zm0-3.6V-7.224H16.08c.9,0,1.368.48,1.368,1.128a1.268,1.268,0,0,1-1.416,1.224Z" transform="translate(52 18)" fill="#ddd"/>
        </g>
        <g id="mo-다이어그램-박스-24" data-name="mo-다이어그램-박스" transform="translate(184 6437)">
          <rect id="사각형_2072-24" data-name="사각형 2072" width="104" height="28" rx="4" fill="#2a4252"/>
          <path id="패스_27434" data-name="패스 27434" d="M-10.584-9.552h-1.3V1.032h1.3ZM-19.344-1.9l.168,1.08a42.885,42.885,0,0,0,6.768-.432l-.1-.96c-.888.12-1.824.192-2.76.228V-2.9c1.188-.192,1.98-.912,1.968-1.92.012-1.2-1.068-1.992-2.616-1.992s-2.616.792-2.616,1.992c0,1.008.78,1.728,1.968,1.92v.972C-17.556-1.908-18.5-1.9-19.344-1.9Zm.216-5.4H-12.7V-8.328H-15.24V-9.5h-1.32v1.176h-2.568Zm1.848,2.472c-.012-.624.564-1,1.368-.984.816-.012,1.38.36,1.392.984-.012.6-.576.96-1.392.96S-17.292-4.224-17.28-4.824Zm17.136-4.7h-1.32V-3.36H-3.528v.912h2.064v.912h1.32ZM-9.072-4.776l.144,1.032c.84,0,1.788,0,2.784-.036v1.956h1.3V-3.852c.888-.06,1.8-.156,2.664-.3l-.072-.936A62.046,62.046,0,0,1-9.072-4.776Zm.792-2.5c.012,1.128,1.092,1.86,2.664,1.848C-4.08-5.412-3-6.144-3-7.272S-4.08-9.156-5.616-9.144C-7.2-9.156-8.268-8.4-8.28-7.272ZM-7.68.84H.1V-.216H-6.36V-2.3H-7.68Zm.648-8.112c-.012-.576.564-.924,1.416-.912.8-.012,1.38.336,1.392.912-.012.576-.588.9-1.392.912C-6.468-6.372-7.044-6.7-7.032-7.272ZM7.512,0c2.58,0,4.1-1.6,4.1-4.248S10.092-8.484,7.56-8.5H4.632V0ZM6.144-1.32V-7.176h1.32c1.74.012,2.64.984,2.64,2.928S9.2-1.32,7.44-1.32ZM12.984,0h3.432c1.932,0,2.892-.984,2.88-2.3a1.954,1.954,0,0,0-1.8-2.088v-.1a1.778,1.778,0,0,0,1.488-1.8c-.012-1.26-.924-2.2-2.76-2.208h-3.24ZM14.5-1.272v-2.5h1.728A1.382,1.382,0,0,1,17.76-2.424c0,.672-.468,1.152-1.584,1.152Zm0-3.6V-7.224H16.08c.9,0,1.368.48,1.368,1.128a1.268,1.268,0,0,1-1.416,1.224Z" transform="translate(52 18)" fill="#ddd"/>
        </g>
        <g id="mo-다이어그램-박스-25" data-name="mo-다이어그램-박스" transform="translate(184 6473)">
          <rect id="사각형_2072-25" data-name="사각형 2072" width="104" height="28" rx="4" fill="#2a4252"/>
          <path id="패스_27436" data-name="패스 27436" d="M-10.536-9.552h-1.3v1.416H-13.98A4.93,4.93,0,0,0-13.9-9.1h-4.776V-8.04h3.336c-.192,1.416-1.428,2.508-3.912,3.024l.432,1.056c2.352-.528,3.912-1.572,4.56-3.192h2.424V-6.1h-2.544v.984h2.544V-4.2h1.3ZM-17.5.936h7.248V-.1H-16.2V-.984h5.664V-3.768H-17.5v1.032h5.664v.768H-17.5ZM.072-9.552H-1.152V1.032H.072ZM-9.216-1.968l.792.96A5.162,5.162,0,0,0-6.372-4.056a4.634,4.634,0,0,0,2,2.808l.768-.96a4.922,4.922,0,0,1-2.16-4.44v-.72h1.7V-8.424h-4.8v1.056h1.848v.72A5.422,5.422,0,0,1-9.216-1.968ZM-4.824-4.8h1.536V.528h1.224V-9.336H-3.288v3.48H-4.824ZM7.512,0c2.58,0,4.1-1.6,4.1-4.248S10.092-8.484,7.56-8.5H4.632V0ZM6.144-1.32V-7.176h1.32c1.74.012,2.64.984,2.64,2.928S9.2-1.32,7.44-1.32ZM12.984,0h3.432c1.932,0,2.892-.984,2.88-2.3a1.954,1.954,0,0,0-1.8-2.088v-.1a1.778,1.778,0,0,0,1.488-1.8c-.012-1.26-.924-2.2-2.76-2.208h-3.24ZM14.5-1.272v-2.5h1.728A1.382,1.382,0,0,1,17.76-2.424c0,.672-.468,1.152-1.584,1.152Zm0-3.6V-7.224H16.08c.9,0,1.368.48,1.368,1.128a1.268,1.268,0,0,1-1.416,1.224Z" transform="translate(52 18)" fill="#ddd"/>
        </g>
        <g id="mo-다이어그램-박스-26" data-name="mo-다이어그램-박스" transform="translate(184 6509)">
          <rect id="사각형_2072-26" data-name="사각형 2072" width="104" height="28" rx="4" fill="#2a4252"/>
          <path id="패스_27438" data-name="패스 27438" d="M-22.788-9.552h-1.248v4.1h-1.128V-9.36h-1.224V.528h1.224v-4.92h1.128V1.032h1.248ZM-31.6-1.68h4.176V-8.4H-31.6Zm1.224-1.032V-7.368h1.728v4.656Zm18.456-2.256H-21.54v.96h4.176v.768h-3.048V-2.3h6.024v.672h-6.024V.96H-12.8V-.024h-6.312v-.72h6.024v-2.5h-3v-.768h4.176Zm-9.192-1.32.36.96c1.92-.108,3.348-.624,4.02-1.488.66.864,2.088,1.38,4,1.488l.384-.96c-2.1-.108-3.336-.672-3.612-1.416h3.108v-.984h-3.24v-.888h-1.3v.888H-20.6V-7.7h3.084C-17.8-6.96-19.02-6.4-21.108-6.288ZM-7.356-8.88h-1.3L-11.388,1.272h1.3ZM1.98-9.552H.684v2.64h-1.8v1.08h1.8v2.568h1.3Zm-8.9,5.232.7,1.032a4.353,4.353,0,0,0,2.6-2.472,4.063,4.063,0,0,0,2.46,2.184l.672-1.032a3.354,3.354,0,0,1-2.5-3.12V-7.8H-.8V-8.856H-6.516V-7.8h2.208v.072A3.667,3.667,0,0,1-6.924-4.32ZM-5.2-.984C-5.208.3-3.828,1.044-1.6,1.056.648,1.044,2.016.3,2.028-.984,2.016-2.244.648-2.988-1.6-3-3.828-2.988-5.208-2.244-5.2-.984Zm1.3,0c-.012-.648.828-1.008,2.3-1.008S.72-1.632.732-.984C.72-.312-.12.036-1.6.024-3.072.036-3.912-.312-3.9-.984ZM7.284-7.68V-8.9H5.964V-7.68A3.58,3.58,0,0,1,3.348-4.2l.744,1.032A4.234,4.234,0,0,0,6.66-5.6a4.1,4.1,0,0,0,2.472,2.22L9.8-4.416A3.414,3.414,0,0,1,7.284-7.68ZM5.052.84h7.2V-.216H6.4v-2.3H5.052Zm5.472-2.616h1.32V-5.328h1.488v-1.1H11.844v-3.12h-1.32ZM20.028,0c2.58,0,4.1-1.6,4.1-4.248S22.608-8.484,20.076-8.5H17.148V0ZM18.66-1.32V-7.176h1.32c1.74.012,2.64.984,2.64,2.928s-.9,2.928-2.664,2.928ZM25.5,0h3.432c1.932,0,2.892-.984,2.88-2.3a1.954,1.954,0,0,0-1.8-2.088v-.1a1.778,1.778,0,0,0,1.488-1.8c-.012-1.26-.924-2.2-2.76-2.208H25.5Zm1.512-1.272v-2.5H28.74a1.382,1.382,0,0,1,1.536,1.344c0,.672-.468,1.152-1.584,1.152Zm0-3.6V-7.224H28.6c.9,0,1.368.48,1.368,1.128a1.268,1.268,0,0,1-1.416,1.224Z" transform="translate(52 18)" fill="#ddd"/>
        </g>
        <line id="선_44-3" data-name="선 44" x2="216" transform="translate(72 6425)" fill="none" stroke="#2a4252" stroke-width="1"/>
      </g>
      <g id="그룹_4982" data-name="그룹 4982" transform="translate(7077.5 5829.5) rotate(90)">
        <line id="선_55" data-name="선 55" x2="20" transform="translate(817.5 6888.5)" fill="none" stroke="#10e4ff" stroke-width="1" stroke-dasharray="4 4"/>
        <line id="선_56" data-name="선 56" x2="20" transform="translate(817.5 6906.5)" fill="none" stroke="#10e4ff" stroke-width="1" stroke-dasharray="4 4"/>
      </g>
      <g id="그룹_5835" data-name="그룹 5835" transform="translate(7077.5 6099.5) rotate(90)">
        <line id="선_55-2" data-name="선 55" x2="20" transform="translate(817.5 6888.5)" fill="none" stroke="#10e4ff" stroke-width="1" stroke-dasharray="4 4"/>
        <line id="선_56-2" data-name="선 56" x2="20" transform="translate(817.5 6906.5)" fill="none" stroke="#10e4ff" stroke-width="1" stroke-dasharray="4 4"/>
      </g>
    </g>
    <g id="그룹_5008" data-name="그룹 5008" transform="translate(-780 -715.5)">
      <line id="선_55-3" data-name="선 55" x2="25.693" transform="translate(960 7058) rotate(90)" fill="none" stroke="#10e4ff" stroke-width="1" stroke-dasharray="3 4"/>
      <g id="그룹_4990" data-name="그룹 4990" transform="translate(954.5 7078.193)">
        <circle id="타원_43" data-name="타원 43" cx="5.5" cy="5.5" r="5.5" fill="#10e4ff" opacity="0.2"/>
        <circle id="타원_44" data-name="타원 44" cx="2.5" cy="2.5" r="2.5" transform="translate(3 3)" fill="#10e4ff"/>
      </g>
      <g id="그룹_5006" data-name="그룹 5006" transform="translate(954.5 7052.5)">
        <circle id="타원_43-2" data-name="타원 43" cx="5.5" cy="5.5" r="5.5" fill="#10e4ff" opacity="0.2"/>
        <circle id="타원_44-2" data-name="타원 44" cx="2.5" cy="2.5" r="2.5" transform="translate(3 3)" fill="#10e4ff"/>
      </g>
    </g>
    <g id="그룹_5837" data-name="그룹 5837" transform="translate(-780 65.5)">
      <line id="선_55-4" data-name="선 55" x2="25.693" transform="translate(960 7058) rotate(90)" fill="none" stroke="#10e4ff" stroke-width="1" stroke-dasharray="3 4"/>
      <g id="그룹_4990-2" data-name="그룹 4990" transform="translate(954.5 7078.193)">
        <circle id="타원_43-3" data-name="타원 43" cx="5.5" cy="5.5" r="5.5" fill="#10e4ff" opacity="0.2"/>
        <circle id="타원_44-3" data-name="타원 44" cx="2.5" cy="2.5" r="2.5" transform="translate(3 3)" fill="#10e4ff"/>
      </g>
      <g id="그룹_5006-2" data-name="그룹 5006" transform="translate(954.5 7052.5)">
        <circle id="타원_43-4" data-name="타원 43" cx="5.5" cy="5.5" r="5.5" fill="#10e4ff" opacity="0.2"/>
        <circle id="타원_44-4" data-name="타원 44" cx="2.5" cy="2.5" r="2.5" transform="translate(3 3)" fill="#10e4ff"/>
      </g>
    </g>
  </g>
</svg>
