<svg xmlns="http://www.w3.org/2000/svg" width="240" height="522" viewBox="0 0 240 522">
  <g id="그룹_5017" data-name="그룹 5017" transform="translate(-1410 -6678)">
    <rect id="사각형_2065" data-name="사각형 2065" width="240" height="58" rx="6" transform="translate(1410 6678)" fill="#10e4ff"/>
    <g id="그룹_4965" data-name="그룹 4965" transform="translate(0 89)">
      <rect id="사각형_2074" data-name="사각형 2074" width="240" height="331" rx="6" transform="translate(1410 6780)" fill="#182e3c"/>
      <path id="패스_27411" data-name="패스 27411" d="M-45.232-11.872c-2.224.016-3.888,1.408-3.872,3.424A3.348,3.348,0,0,0-46.1-5.136v2.144c-1.312.048-2.576.048-3.648.048l.192,1.408A50.165,50.165,0,0,0-40.5-2.144l-.128-1.28c-1.2.176-2.48.288-3.744.352V-5.136A3.362,3.362,0,0,0-41.36-8.448C-41.36-10.464-42.992-11.856-45.232-11.872Zm-2.176,3.424a1.949,1.949,0,0,1,2.176-1.92,1.949,1.949,0,0,1,2.176,1.92,1.967,1.967,0,0,1-2.176,1.92A1.967,1.967,0,0,1-47.408-8.448Zm7.616,9.856h1.728V-12.736h-1.728Zm16.7-5.92H-36.016v1.376h5.568V1.376h1.728V-3.136h5.632Zm-11.36-1.472h9.76V-12.16h-1.728v1.728h-6.3V-12.16h-1.728Zm1.728-1.408V-9.056h6.3v1.664ZM-6.608-12.7H-8.336V-2.528h1.728ZM-18.1-8.256a3.536,3.536,0,0,0,3.808,3.52,3.527,3.527,0,0,0,3.776-3.52,3.536,3.536,0,0,0-3.776-3.52A3.545,3.545,0,0,0-18.1-8.256Zm1.7,0a1.958,1.958,0,0,1,2.112-2.016,1.966,1.966,0,0,1,2.08,2.016,1.957,1.957,0,0,1-2.08,2.016A1.949,1.949,0,0,1-16.4-8.256Zm.448,9.376h9.728V-.288h-7.968V-3.552h-1.76ZM7.312-12.736H5.584v5.12H2.928V-6.24H5.584V1.408H7.312Zm-11.2,10.88H-2.8a37.493,37.493,0,0,0,6.4-.416L3.408-3.648a37.113,37.113,0,0,1-5.568.384V-6.176H2.16V-7.552H-2.16v-2.56H2.7V-11.52H-3.888Zm25.44-10.88H19.888V1.376h1.664ZM9.136-3.36l.192,1.44a40.583,40.583,0,0,0,6.944-.512l-.128-1.28q-.6.072-1.248.144v-6.1h.992v-1.408H9.424v1.408h.992v6.288Zm2.816-.048V-9.664H13.3v6.208Zm3.584-2.544H17.1V.672h1.632V-12.416H17.1v4.9H15.536Zm19.328-6.784H33.1V1.408h1.76ZM23.568-6.72c-.016,3.072,1.536,5.008,3.68,4.992,2.128.016,3.68-1.92,3.68-4.992,0-3.04-1.552-4.976-3.68-4.992C25.1-11.7,23.552-9.76,23.568-6.72Zm1.664,0c0-2.144.816-3.424,2.016-3.424,1.184,0,2,1.28,2.016,3.424-.016,2.176-.832,3.44-2.016,3.424C26.048-3.28,25.232-4.544,25.232-6.72ZM44.24-10.784V-11.84H42.384v1.056c-.016,2.16-2.144,4.352-5.056,4.864L38.1-4.448a7.61,7.61,0,0,0,5.232-3.824,7.361,7.361,0,0,0,5.2,3.824l.8-1.472C46.368-6.416,44.224-8.608,44.24-10.784ZM36.944-.416h12.9v-1.44h-12.9Z" transform="translate(1531 6813)" fill="#fff"/>
      <g id="구성_요소_16_594" data-name="구성 요소 16 – 594" transform="translate(1426 7049)">
        <rect id="사각형_2072" data-name="사각형 2072" width="208" height="32" rx="4" fill="#2a4252"/>
        <path id="패스_27417" data-name="패스 27417" d="M-7.384-7.878V-7.9h1.95V-8.84h-1.95v-1.3H-8.5v1.3h-2V-7.9h2v.026a3.6,3.6,0,0,1-2.262,3.3l.6.884A4.014,4.014,0,0,0-7.917-6.071,3.934,3.934,0,0,0-5.668-3.926l.546-.91A3.343,3.343,0,0,1-7.384-7.878Zm-2,7.956.442.936A5.435,5.435,0,0,0-4.966-1.3,5.41,5.41,0,0,0-.988,1.014L-.546.078c-2.132-.3-3.822-1.521-3.822-2.938v-.234h-1.2v.234C-5.577-1.443-7.241-.221-9.386.078Zm4.68-3.666h1.144v-2.86h1.3V-2.6h1.144v-7.7H-2.262v2.86h-1.3v-2.652H-4.706Zm7.67-6.4h-1.2v4.212h3.25V-4.6H.416v.962H10.79V-4.6H6.214v-1.17H9.438V-9.984h-1.2v1.17H2.964ZM1.2.078l.442.936A5.506,5.506,0,0,0,5.6-1.144,5.513,5.513,0,0,0,9.594,1.014L10.01.078C7.8-.182,6.2-1.3,6.214-2.652v-.286H4.992v.286C4.979-1.3,3.38-.182,1.2.078ZM2.964-6.734V-7.878H8.242v1.144Z" transform="translate(104 21)" fill="#ddd"/>
      </g>
      <g id="구성_요소_16_595" data-name="구성 요소 16 – 595" transform="translate(1426 6849)">
        <rect id="사각형_2072-2" data-name="사각형 2072" width="208" height="32" rx="4" fill="#2a4252"/>
        <path id="패스_27412" data-name="패스 27412" d="M-7.683,0h1.4V-3.224h1.872a2.866,2.866,0,0,0,3.2-2.99,2.872,2.872,0,0,0-3.2-2.99H-7.683Zm1.4-4.42V-7.982h1.742A1.664,1.664,0,0,1-2.613-6.214,1.687,1.687,0,0,1-4.537-4.42ZM6.461-6.292h1.43A3.683,3.683,0,0,0,4.069-9.308C1.677-9.321-.052-7.527-.065-4.6-.052-1.69,1.638.13,4.121.13a3.63,3.63,0,0,0,3.848-3.8v-1.04H4.329v1.144H6.591a2.307,2.307,0,0,1-2.47,2.418C2.509-1.157,1.339-2.366,1.339-4.6s1.183-3.445,2.73-3.432A2.353,2.353,0,0,1,6.461-6.292Z" transform="translate(104 21)" fill="#ddd"/>
      </g>
      <g id="구성_요소_16_596" data-name="구성 요소 16 – 596" transform="translate(1426 6889)">
        <rect id="사각형_2072-3" data-name="사각형 2072" width="208" height="32" rx="4" fill="#2a4252"/>
        <path id="패스_27413" data-name="패스 27413" d="M-11.674-5.59H-22.048v.962h4.576v.988H-20.8V-2.7h6.63v.858h-6.6V.962h8.112V.026H-19.6V-.962h6.63V-3.64h-3.3v-.988h4.6Zm-9.048-.832H-13v-3.51h-7.722Zm1.2-.962V-8.97h5.3v1.586ZM-.416-3.536h-10.4V-2.6H-8.19V1.066h1.2V-2.6h2.756V1.066h1.2V-2.6H-.416ZM-9.594-8.892h6.708v1.144H-9.568V-4.6H-1.4V-5.59H-8.346V-6.838h6.682V-9.88h-7.93ZM5.33-9.49H.884v5.564h.728A20.279,20.279,0,0,0,5.85-4.238l-.1-.988a20.5,20.5,0,0,1-3.692.312v-1.4H5.2v-.936H2.054V-8.5H5.33ZM2.392-1.846H8.918V1.066h1.2v-3.9H2.392ZM6.448-3.458H7.592V-6.4H8.97V-3.38h1.144V-10.3H8.97v2.912H7.592v-2.7H6.448ZM13.182-9.23H12.038v7.514h4.42V-9.23H15.34v2.7H13.182Zm0,6.526v-2.86H15.34V-2.7ZM17.732.52h1.144V-4.862h1.4V1.066h1.144V-10.3H20.28V-5.85h-1.4v-4.238H17.732Z" transform="translate(104 21)" fill="#ddd"/>
      </g>
      <g id="구성_요소_16_597" data-name="구성 요소 16 – 597" transform="translate(1426 6929)">
        <rect id="사각형_2072-4" data-name="사각형 2072" width="208" height="32" rx="4" fill="#2a4252"/>
        <path id="패스_27414" data-name="패스 27414" d="M-19.5-9.854h-1.2v4.576h3.224v1.144h-4.576v.962h10.374v-.962H-16.25V-5.278h3.224V-9.854h-1.2v1.326H-19.5ZM-20.722.832h7.878V-.13h-6.682V-2.34h-1.2ZM-19.5-6.24V-7.566h5.278V-6.24ZM-1.378-10.3h-1.2v8.268h1.2Zm-9.2,3.588A2.845,2.845,0,0,0-7.54-3.874,2.838,2.838,0,0,0-4.524-6.708,2.841,2.841,0,0,0-7.54-9.516,2.848,2.848,0,0,0-10.582-6.708Zm1.17,0A1.772,1.772,0,0,1-7.54-8.476,1.743,1.743,0,0,1-5.72-6.708,1.741,1.741,0,0,1-7.54-4.914,1.769,1.769,0,0,1-9.412-6.708Zm.6,7.54H-1.04V-.13H-7.618V-2.86h-1.2ZM9.854-10.3h-1.2v8.268h1.2ZM.65-6.708A2.845,2.845,0,0,0,3.692-3.874,2.838,2.838,0,0,0,6.708-6.708,2.841,2.841,0,0,0,3.692-9.516,2.848,2.848,0,0,0,.65-6.708Zm1.17,0A1.772,1.772,0,0,1,3.692-8.476a1.743,1.743,0,0,1,1.82,1.768,1.741,1.741,0,0,1-1.82,1.794A1.769,1.769,0,0,1,1.82-6.708Zm.6,7.54h7.774V-.13H3.614V-2.86h-1.2Zm19.6-5.772H11.648v.988H22.022ZM12.194-6.5l.416.962c1.976-.221,3.6-1.053,4.225-2.249.624,1.2,2.249,2.028,4.225,2.249L21.5-6.5c-2.106-.208-3.718-1.144-3.861-2.236h3.445V-9.75H12.61v1.014h3.419C15.873-7.631,14.261-6.708,12.194-6.5Zm.676,5.486c.013,1.339,1.495,2.08,3.952,2.08s3.926-.741,3.926-2.08c0-1.313-1.469-2.067-3.926-2.08C14.365-3.081,12.883-2.327,12.87-1.014Zm1.248,0c-.026-.728.975-1.118,2.7-1.118s2.717.39,2.73,1.118c-.013.728-1,1.118-2.73,1.118S14.092-.286,14.118-1.014Z" transform="translate(104 21)" fill="#ddd"/>
      </g>
      <g id="구성_요소_16_598" data-name="구성 요소 16 – 598" transform="translate(1426 6969)">
        <rect id="사각형_2072-5" data-name="사각형 2072" width="208" height="32" rx="4" fill="#2a4252"/>
        <path id="패스_27415" data-name="패스 27415" d="M-13.884-10.3h-1.144V1.066h1.144ZM-23.79-2.054l.728.884A5.663,5.663,0,0,0-20.774-4.6,5.287,5.287,0,0,0-18.538-1.43l.728-.884A5.414,5.414,0,0,1-20.2-7.124v-.91h1.95v-.988h-5.2v.988h2.08v.91A5.863,5.863,0,0,1-23.79-2.054Zm4.706-3.224h1.768V.494h1.144V-10.062h-1.144v3.8h-1.768ZM-2.6-9.074H-6.63v-1.274h-1.2v1.274h-4.056v.962H-2.6Zm-9.8,7.02h2.626V1.092h1.2V-2.054h2.756V1.092h1.2V-2.054h2.652v-.962H-12.4ZM-11-5.616c-.013,1.209,1.4,1.9,3.77,1.9s3.783-.689,3.8-1.9c-.013-1.235-1.43-1.911-3.8-1.9C-9.594-7.527-11.011-6.851-11-5.616Zm1.248,0c-.013-.65.9-.988,2.522-.988s2.535.338,2.548.988c-.013.624-.91.975-2.548.962C-8.853-4.641-9.763-4.992-9.75-5.616Zm15.158-1.2v-.442h2.08v-.988H5.408V-9.88H4.264v1.638H2.184v.988h2.08v.442a5.413,5.413,0,0,1-2.392,4.68l.7.884A5.316,5.316,0,0,0,4.849-4.433,5.056,5.056,0,0,0,7.124-1.482l.7-.91A4.9,4.9,0,0,1,5.408-6.812ZM8.19.52H9.308V-4.758h1.378V1.066H11.83V-10.3H10.686v4.524H9.308v-4.316H8.19Zm6.916-10.3h-1.2v4.914h.884A27.2,27.2,0,0,0,20.02-5.3l-.156-.988a25.487,25.487,0,0,1-4.758.416Zm.182,6.786H21.5v.962H15.314V.936h7.774V-.052H16.51V-1.118h6.214V-3.952H15.288Zm3.094-4.524h3.146v3.068h1.2V-10.3h-1.2V-8.5H18.382Z" transform="translate(104 21)" fill="#ddd"/>
      </g>
      <g id="구성_요소_16_599" data-name="구성 요소 16 – 599" transform="translate(1426 7009)">
        <rect id="사각형_2072-6" data-name="사각형 2072" width="208" height="32" rx="4" fill="#2a4252"/>
        <path id="패스_27416" data-name="패스 27416" d="M-7.033-6.188H-5.6a3.613,3.613,0,0,0-3.8-3.12c-2.392-.013-4.147,1.768-4.16,4.706C-13.546-1.664-11.8.13-9.4.13A3.67,3.67,0,0,0-5.6-2.964h-1.43A2.284,2.284,0,0,1-9.4-1.144c-1.573-.013-2.756-1.209-2.756-3.458,0-2.223,1.17-3.445,2.756-3.432A2.233,2.233,0,0,1-7.033-6.188ZM-4.1,0h1.4V-3.484H-.754L1.131,0H2.717L.689-3.718a2.559,2.559,0,0,0,1.69-2.6c0-1.69-1.053-2.873-3.2-2.886H-4.1Zm1.4-4.68v-3.3H-.949C.4-7.995.962-7.345.975-6.318.962-5.278.4-4.68-.949-4.68ZM3.913-9.2V0H5.239V-6.656h.078l2.7,6.63H9.139l2.7-6.6h.078V0h1.326V-9.2h-1.69L8.645-2.08h-.1L5.6-9.2Z" transform="translate(104 21)" fill="#ddd"/>
      </g>
      <line id="선_49" data-name="선 49" x2="208" transform="translate(1426.5 6833)" fill="none" stroke="#2a4252" stroke-width="1"/>
    </g>
    <path id="패스_27410" data-name="패스 27410" d="M-45.872-11.872c-2.224.016-3.888,1.408-3.872,3.424a3.348,3.348,0,0,0,3.008,3.312v2.144c-1.312.048-2.576.048-3.648.048l.192,1.408a50.165,50.165,0,0,0,9.056-.608l-.128-1.28c-1.2.176-2.48.288-3.744.352V-5.136A3.362,3.362,0,0,0-42-8.448C-42-10.464-43.632-11.856-45.872-11.872Zm-2.176,3.424a1.949,1.949,0,0,1,2.176-1.92A1.949,1.949,0,0,1-43.7-8.448a1.967,1.967,0,0,1-2.176,1.92A1.967,1.967,0,0,1-48.048-8.448Zm7.616,9.856H-38.7V-12.736h-1.728Zm16.7-5.92H-36.656v1.376h5.568V1.376h1.728V-3.136h5.632Zm-11.36-1.472h9.76V-12.16h-1.728v1.728h-6.3V-12.16h-1.728Zm1.728-1.408V-9.056h6.3v1.664ZM-17.008,0l.944-2.784h4.272L-10.864,0h2.176l-3.968-11.328h-2.528L-19.152,0Zm1.5-4.448,1.536-4.544h.1l1.52,4.544ZM-7.312,0H-5.3V-3.84H-3.12C-.5-3.824.912-5.392.912-7.584c0-2.144-1.392-3.728-4-3.744H-7.312ZM-5.3-5.5V-9.6h1.92A1.912,1.912,0,0,1-1.168-7.584,1.948,1.948,0,0,1-3.376-5.5Zm9.888-5.824H2.576V0H4.592Zm12.544,0H10.672V-9.92h4.752a10.647,10.647,0,0,1-.368,2.08l-5.12.32.256,1.472,4.32-.384a10.106,10.106,0,0,1-4.64,4.288l.96,1.312C15.872-3.424,17.136-7.088,17.136-11.328ZM17.1-5.792h2.912V1.376h1.728V-12.736H20.016v5.5H17.1Zm12.608-5.984H24.336V-4.64h.928a30.353,30.353,0,0,0,5.152-.32l-.16-1.408A20.566,20.566,0,0,1,26-6.048V-7.584h3.168V-8.928H26v-1.44h3.712ZM26.1-1.952h8V1.376h1.728V-3.36H26.1ZM29.808-7.68h1.568v3.616H33.04v-8.384H31.376v3.36H29.808Zm4.384,3.712h1.632V-12.7H34.192Zm15.232-8.768H47.7v5.12H45.04V-6.24H47.7V1.408h1.728Zm-11.2,10.88h1.088a37.493,37.493,0,0,0,6.4-.416L45.52-3.648a37.113,37.113,0,0,1-5.568.384V-6.176h4.32V-7.552h-4.32v-2.56h4.864V-11.52H38.224Z" transform="translate(1530 6713)" fill="#111"/>
    <g id="그룹_5005" data-name="그룹 5005" transform="translate(8237.5 6226) rotate(90)">
      <g id="그룹_5000" data-name="그룹 5000" transform="translate(7748 5746.5) rotate(90)">
        <line id="선_54" data-name="선 54" y2="132" transform="translate(961 7106)" fill="none" stroke="#10e4ff" stroke-width="1" stroke-dasharray="3 4"/>
      </g>
      <g id="그룹_5001" data-name="그룹 5001" transform="translate(7955 6080) rotate(90)">
        <circle id="타원_43" data-name="타원 43" cx="5.5" cy="5.5" r="5.5" transform="translate(622 7307)" fill="#10e4ff" opacity="0.2"/>
        <circle id="타원_44" data-name="타원 44" cx="2.5" cy="2.5" r="2.5" transform="translate(625 7310)" fill="#10e4ff"/>
      </g>
    </g>
  </g>
</svg>
