<svg xmlns="http://www.w3.org/2000/svg" width="14" height="14" viewBox="0 0 14 14">
  <path id="error_24dp_FILL0_wght300_GRAD0_opsz24" d="M107-849.514a.576.576,0,0,0,.424-.171.576.576,0,0,0,.171-.424.576.576,0,0,0-.171-.424A.576.576,0,0,0,107-850.7a.576.576,0,0,0-.424.171.576.576,0,0,0-.171.424.576.576,0,0,0,.171.424A.576.576,0,0,0,107-849.514Zm-.553-2.692h1.105v-4.421h-1.105ZM107-846a6.82,6.82,0,0,1-2.73-.551,7.07,7.07,0,0,1-2.223-1.5,7.07,7.07,0,0,1-1.5-2.222A6.813,6.813,0,0,1,100-853a6.819,6.819,0,0,1,.551-2.73,7.07,7.07,0,0,1,1.5-2.223,7.067,7.067,0,0,1,2.222-1.5A6.813,6.813,0,0,1,107-860a6.82,6.82,0,0,1,2.73.551,7.07,7.07,0,0,1,2.223,1.5,7.07,7.07,0,0,1,1.5,2.222A6.813,6.813,0,0,1,114-853a6.82,6.82,0,0,1-.551,2.73,7.072,7.072,0,0,1-1.5,2.223,7.069,7.069,0,0,1-2.222,1.5A6.813,6.813,0,0,1,107-846Zm0-1.105a5.689,5.689,0,0,0,4.182-1.713A5.689,5.689,0,0,0,112.895-853a5.689,5.689,0,0,0-1.713-4.182A5.689,5.689,0,0,0,107-858.895a5.689,5.689,0,0,0-4.182,1.713A5.689,5.689,0,0,0,101.105-853a5.689,5.689,0,0,0,1.713,4.182A5.689,5.689,0,0,0,107-847.105ZM107-853Z" transform="translate(-100 860)" fill="#e61e1e"/>
</svg>
