<svg id="그룹_5573" data-name="그룹 5573" xmlns="http://www.w3.org/2000/svg" xmlns:xlink="http://www.w3.org/1999/xlink" width="74" height="49" viewBox="0 0 74 49">
  <defs>
    <clipPath id="clip-path">
      <rect id="사각형_2348" data-name="사각형 2348" width="63.192" height="37.789" fill="none"/>
    </clipPath>
  </defs>
  <rect id="사각형_2347" data-name="사각형 2347" width="74" height="49" fill="#fff" opacity="0"/>
  <g id="그룹_5572" data-name="그룹 5572" transform="translate(5.629 5.606)">
    <g id="그룹_5571" data-name="그룹 5571" clip-path="url(#clip-path)">
      <path id="패스_26081" data-name="패스 26081" d="M27.627,13.724a6.359,6.359,0,0,0,.231,1.871,11.25,11.25,0,0,0,.673,1.513.914.914,0,0,1,.147.483.832.832,0,0,1-.4.631l-1.324.883a1.008,1.008,0,0,1-.546.189A.967.967,0,0,1,25.778,19a6.5,6.5,0,0,1-.757-.988c-.21-.357-.42-.757-.652-1.24a7.764,7.764,0,0,1-6.179,2.9,5.759,5.759,0,0,1-4.2-1.513,5.4,5.4,0,0,1-1.555-4.035,5.41,5.41,0,0,1,1.913-4.33,7.646,7.646,0,0,1,5.149-1.639,16.64,16.64,0,0,1,2.228.168c.778.105,1.576.273,2.417.462V7.251a4.657,4.657,0,0,0-.988-3.363,4.838,4.838,0,0,0-3.426-.967,9.562,9.562,0,0,0-2.27.273,16.747,16.747,0,0,0-2.27.715,6.031,6.031,0,0,1-.736.273,1.289,1.289,0,0,1-.336.063c-.294,0-.441-.21-.441-.652V2.564a1.33,1.33,0,0,1,.147-.736,1.574,1.574,0,0,1,.588-.441A12.1,12.1,0,0,1,17.056.441a12.742,12.742,0,0,1,3.279-.4c2.5,0,4.33.567,5.506,1.7a6.955,6.955,0,0,1,1.744,5.17v6.81Zm-8.533,3.195a6.811,6.811,0,0,0,2.165-.378,4.683,4.683,0,0,0,2-1.345,3.336,3.336,0,0,0,.715-1.345,7.545,7.545,0,0,0,.21-1.828v-.883a17.552,17.552,0,0,0-1.934-.357,15.837,15.837,0,0,0-1.976-.126,4.845,4.845,0,0,0-3.132.841,2.929,2.929,0,0,0-1.03,2.417,2.712,2.712,0,0,0,2.984,3.005m16.877,2.27a1.173,1.173,0,0,1-.8-.21,1.713,1.713,0,0,1-.441-.82L29.792,1.913a3.682,3.682,0,0,1-.189-.841.461.461,0,0,1,.5-.525h2.06a1.165,1.165,0,0,1,.82.21,1.72,1.72,0,0,1,.42.82L36.938,15.49,40.217,1.576a1.474,1.474,0,0,1,.4-.82,1.446,1.446,0,0,1,.841-.21h1.681a1.265,1.265,0,0,1,.841.21,1.416,1.416,0,0,1,.4.82L47.7,15.658,51.335,1.576a1.8,1.8,0,0,1,.42-.82,1.371,1.371,0,0,1,.82-.21h1.955a.467.467,0,0,1,.525.525,2.1,2.1,0,0,1-.042.336,2.99,2.99,0,0,1-.147.525L49.8,18.18a1.611,1.611,0,0,1-.441.82,1.345,1.345,0,0,1-.8.21H46.753a1.265,1.265,0,0,1-.841-.21,1.49,1.49,0,0,1-.4-.841L42.255,4.6,39.019,18.138a1.64,1.64,0,0,1-.4.841,1.3,1.3,0,0,1-.841.21Zm27.007.567a13.908,13.908,0,0,1-3.237-.378,9.561,9.561,0,0,1-2.417-.841,1.514,1.514,0,0,1-.652-.588,1.483,1.483,0,0,1-.126-.588V16.288c0-.441.168-.652.483-.652a1.19,1.19,0,0,1,.378.063c.126.042.315.126.525.21a11.432,11.432,0,0,0,2.312.736,12.621,12.621,0,0,0,2.5.252,5.671,5.671,0,0,0,3.069-.694,2.263,2.263,0,0,0,1.093-2,2.047,2.047,0,0,0-.567-1.471,5.273,5.273,0,0,0-2.123-1.093L61.171,10.7a6.41,6.41,0,0,1-3.363-2.144,5.007,5.007,0,0,1-1.051-3.047,4.678,4.678,0,0,1,.567-2.333A5.4,5.4,0,0,1,58.838,1.45,6.671,6.671,0,0,1,61.024.357,9.16,9.16,0,0,1,63.672,0,10.551,10.551,0,0,1,65.08.084c.483.063.925.147,1.366.231.42.105.82.21,1.2.336a4.587,4.587,0,0,1,.883.378,1.817,1.817,0,0,1,.631.525,1.133,1.133,0,0,1,.189.694v.988c0,.441-.168.673-.483.673a2.186,2.186,0,0,1-.8-.252,9.615,9.615,0,0,0-4.035-.82,5.425,5.425,0,0,0-2.8.588A2.029,2.029,0,0,0,60.246,5.3a1.985,1.985,0,0,0,.631,1.492,6.278,6.278,0,0,0,2.312,1.156l2.984.946a6.392,6.392,0,0,1,3.258,2.018A4.756,4.756,0,0,1,70.4,13.85a5.4,5.4,0,0,1-.546,2.438,5.652,5.652,0,0,1-1.534,1.85,6.775,6.775,0,0,1-2.333,1.177,9.994,9.994,0,0,1-3.005.441" transform="translate(-9.819)" fill="#252f3e"/>
      <path id="패스_26082" data-name="패스 26082" d="M57.131,118.5c-6.915,5.107-16.961,7.818-25.6,7.818A46.311,46.311,0,0,1,.28,114.406c-.652-.588-.063-1.387.715-.925a63.028,63.028,0,0,0,31.273,8.3,62.407,62.407,0,0,0,23.854-4.876c1.156-.525,2.144.757,1.009,1.6m2.879-3.279c-.883-1.135-5.843-.546-8.092-.273-.673.084-.778-.5-.168-.946,3.951-2.774,10.446-1.976,11.2-1.051.757.946-.21,7.44-3.909,10.551-.567.483-1.114.231-.862-.4.841-2.081,2.711-6.768,1.828-7.881" transform="translate(0 -88.534)" fill="#f90"/>
    </g>
  </g>
</svg>
