<svg id="그룹_5570" data-name="그룹 5570" xmlns="http://www.w3.org/2000/svg" xmlns:xlink="http://www.w3.org/1999/xlink" width="124.016" height="49" viewBox="0 0 124.016 49">
  <defs>
    <clipPath id="clip-path">
      <rect id="사각형_2346" data-name="사각형 2346" width="123.894" height="35.693" fill="none"/>
    </clipPath>
  </defs>
  <rect id="사각형_2345" data-name="사각형 2345" width="124" height="49" transform="translate(0.016)" fill="#fff" opacity="0"/>
  <g id="그룹_5569" data-name="그룹 5569" transform="translate(0 7)">
    <g id="그룹_5568" data-name="그룹 5568" clip-path="url(#clip-path)">
      <path id="패스_26080" data-name="패스 26080" d="M0,31.76c0-.01,2.634-4.582,5.852-10.16l5.853-10.143,6.821-5.724C22.278,2.585,25.357.005,25.369,0a1.185,1.185,0,0,1-.11.276c-.073.157-3.405,7.305-7.406,15.886l-7.274,15.6-5.29.007c-2.909,0-5.289,0-5.289-.01m101.748.052c-.009-.01-.017-3.346-.017-7.413V17h2.392v1.525c0,.839.01,1.525.023,1.525a1.341,1.341,0,0,0,.129-.305,5.264,5.264,0,0,1,1.336-2.058,3.461,3.461,0,0,1,1.89-.94,3.93,3.93,0,0,1,.789-.028,3.5,3.5,0,0,1,1.1.153l.1.032V19.39l-.283-.142a3.019,3.019,0,0,0-1.584-.318,2.857,2.857,0,0,0-.946.185,2.994,2.994,0,0,0-1.508,1.231,7.162,7.162,0,0,0-1,2.876c-.02.176-.031,1.609-.036,4.433l-.007,4.173h-1.178C102.3,31.83,101.757,31.821,101.748,31.812Zm-32.114-.361v-.379l4.376-6.016,4.376-6.016-3.962-.013-3.962-.013-.007-1.005L70.448,17H81.91v.679l-4.377,6.049c-2.407,3.327-4.377,6.054-4.377,6.062s1.946.012,4.325.012H81.8V31.83H69.634ZM63.141,23.8s-.734-1.995-1.632-4.423c-1.678-4.542-1.773-4.815-1.905-5.545-.062-.342-.094-.352-.131-.039a7.239,7.239,0,0,1-.229,1c-.044.137-.8,2.212-1.68,4.61s-1.6,4.371-1.6,4.384,1.615.023,3.588.023,3.588,0,3.588-.009M50.4,31.8c.006-.018,1.785-4.69,3.952-10.383l3.941-10.35h2.533l.105.269c.321.823,7.89,20.474,7.89,20.485s-.606.012-1.348.012H66.125l-1.091-2.9-1.091-2.9H55.158l-.038.1c-.021.054-.487,1.361-1.036,2.9l-1,2.806h-1.35A7.2,7.2,0,0,1,50.4,31.8Zm71.048-9.007a4.758,4.758,0,0,0-1.213-3.2,3.334,3.334,0,0,0-1.849-.9,5.462,5.462,0,0,0-1.435.041,3.75,3.75,0,0,0-1.959,1.041,5.338,5.338,0,0,0-1.3,2.075,6.67,6.67,0,0,0-.25,1.02l-.018.124h8.021Zm-4.559,9.378a6.34,6.34,0,0,1-2.781-.908,6.776,6.776,0,0,1-3.056-5.266,12.7,12.7,0,0,1-.029-2.684,8.72,8.72,0,0,1,1.714-4.282,8.741,8.741,0,0,1,1.035-1.035,6.451,6.451,0,0,1,2.642-1.261,8.6,8.6,0,0,1,2.143-.125,5.633,5.633,0,0,1,3.8,1.951,7.457,7.457,0,0,1,1.533,4.637c.011.3.013.836.005,1.183l-.013.631-5.237.007-5.238.006v.234a5.783,5.783,0,0,0,.472,2.211,4.866,4.866,0,0,0,1.065,1.558,4.686,4.686,0,0,0,2.655,1.123,10.392,10.392,0,0,0,1.735-.067,7.357,7.357,0,0,0,3.271-1.349c.109-.082.212-.158.231-.169a4.4,4.4,0,0,1,.033,1.091v1.112l-.248.153a8.664,8.664,0,0,1-3.509,1.216,20.178,20.178,0,0,1-2.219.033m-27.446.012c-2.7-.173-4.277-1.713-4.693-4.6-.111-.766-.111-.786-.123-5.764L84.614,17h2.393l.009,4.66c.009,4.2.014,4.692.054,4.987a4.417,4.417,0,0,0,1.039,2.584,2.983,2.983,0,0,0,1.676.878,6.364,6.364,0,0,0,1.607,0,3.549,3.549,0,0,0,1.821-.989,4.814,4.814,0,0,0,1.228-2.353l.071-.316.008-4.7.008-4.7h2.443V31.83H94.554V30.658a8.859,8.859,0,0,0-.028-1.163.969.969,0,0,0-.138.211,4.91,4.91,0,0,1-1.871,1.873A5.253,5.253,0,0,1,89.441,32.18ZM21.319,33.787c5.921-1.046,10.81-1.911,10.866-1.923l.1-.022L26.7,25.194c-3.074-3.657-5.59-6.663-5.59-6.68,0-.033,5.772-15.927,5.8-15.983.011-.019,3.939,6.762,9.521,16.438,5.227,9.059,9.536,16.527,9.575,16.6l.073.127-17.764,0-17.764,0Z" transform="translate(0 0)" fill="#1c87c8"/>
    </g>
  </g>
</svg>
