<svg xmlns="http://www.w3.org/2000/svg" width="180" height="68" viewBox="0 0 180 68">
  <g id="그룹_1040" data-name="그룹 1040" transform="translate(-1220 -13701)">
    <g id="사각형_601" data-name="사각형 601" transform="translate(1220 13701)" fill="none" stroke="#707070" stroke-width="1">
      <rect width="180" height="68" stroke="none"/>
      <rect x="0.5" y="0.5" width="179" height="67" fill="none"/>
    </g>
    <g id="Layer_1" data-name="Layer 1" transform="translate(1262 13717)" opacity="0.5">
      <g id="그룹_1038" data-name="그룹 1038" transform="translate(0 0)">
        <rect id="사각형_602" data-name="사각형 602" width="1.99" height="20.11" transform="translate(0.272 0.485)" fill="#fff"/>
        <path id="패스_442" data-name="패스 442" d="M99.17,1.941A8.344,8.344,0,0,0,94.924,3.1,8.39,8.39,0,0,0,91.79,6.231a8.661,8.661,0,0,0-1.126,4.389,8.178,8.178,0,0,0,2.493,6.045,8.228,8.228,0,0,0,6.013,2.466A8.71,8.71,0,0,0,103.519,18a8.172,8.172,0,0,0,3.12-3.107,8.66,8.66,0,0,0,1.122-4.371A8.313,8.313,0,0,0,103.488,3.1,8.563,8.563,0,0,0,99.17,1.941ZM99.081,0a10.43,10.43,0,0,1,7.642,3.04,10.123,10.123,0,0,1,3.076,7.491,10.148,10.148,0,0,1-3.067,7.478,10.176,10.176,0,0,1-7.482,3.067,10.344,10.344,0,0,1-7.545-3.058,10.025,10.025,0,0,1-3.076-7.393,10.694,10.694,0,0,1,1.4-5.359A10.344,10.344,0,0,1,99.085,0Z" transform="translate(-49.18 0)" fill="#fff"/>
        <path id="패스_443" data-name="패스 443" d="M144.98,11.483V19.2h2.5a9.046,9.046,0,0,0,3.24-.427,3.687,3.687,0,0,0,1.651-1.349,3.53,3.53,0,0,0-.249-4.326,4.473,4.473,0,0,0-2.4-1.366,17.813,17.813,0,0,0-3.6-.245H144.98Zm0-8.4V9.494h1.162a9.157,9.157,0,0,0,3.1-.387,3.372,3.372,0,0,0,1.571-1.228,3.174,3.174,0,0,0,.579-1.856,2.637,2.637,0,0,0-.97-2.159,4.947,4.947,0,0,0-3.1-.783h-2.341Zm-1.99-1.99h3.975a9.539,9.539,0,0,1,3.685.565A4.517,4.517,0,0,1,152.684,3.4a4.734,4.734,0,0,1,.748,2.608,4.75,4.75,0,0,1-.641,2.435,4.775,4.775,0,0,1-1.892,1.776,7.276,7.276,0,0,1,2.377,1.255,4.913,4.913,0,0,1,1.3,1.736,5.309,5.309,0,0,1,.463,2.212,5.432,5.432,0,0,1-1.772,4.1,6.626,6.626,0,0,1-4.749,1.678H142.99Z" transform="translate(-79.345 -0.605)" fill="#fff"/>
        <rect id="사각형_603" data-name="사각형 603" width="1.99" height="20.11" transform="translate(79.366 0.485)" fill="#fff"/>
        <path id="패스_444" data-name="패스 444" d="M190.386,3.08V1.09h10.536L192.576,19.2h7.909V21.2H189.46l8.4-18.116Z" transform="translate(-105.131 -0.605)" fill="#fff"/>
        <path id="패스_445" data-name="패스 445" d="M60.27,1.1V16.393L46.966,1.1,46.53,1.09,46.606,19.5l1.407,1.7h.605V6.035L61.81,21.2h.454V1.09Z" transform="translate(-25.819 -0.605)" fill="#fff"/>
        <path id="패스_446" data-name="패스 446" d="M29.8,1.1l-.481,0V16.393L16.021,1.1,15.58,1.09V21.2h2.088V6.035L30.86,21.2h.454L31.279,2.906Z" transform="translate(-8.645 -0.605)" fill="#fff"/>
        <path id="패스_447" data-name="패스 447" d="M9.111,67.253H7.3V56.33H9.111ZM5.564,60.113a5.008,5.008,0,0,1-1.157,3.418A5.408,5.408,0,0,1,.681,65.214a4.388,4.388,0,0,0-.249-.69A5.511,5.511,0,0,0,0,63.719,3.843,3.843,0,0,0,3.031,62.4a4.027,4.027,0,0,0,.7-2.488V57.986H.418V56.717H5.564v3.392Z" transform="translate(0 -31.257)" fill="#fff"/>
        <path id="패스_448" data-name="패스 448" d="M33.213,60.7a7.166,7.166,0,0,1-2.5-.677,4.658,4.658,0,0,1-1.6-1.193,3.747,3.747,0,0,1-1.647,1.22,7.424,7.424,0,0,1-2.257.614,5.829,5.829,0,0,0-.227-.717c-.129-.352-.214-.61-.263-.779a4.755,4.755,0,0,0,2.648-.757,1.98,1.98,0,0,0,.815-1.669h1.8a1.559,1.559,0,0,1-.036.369c-.022.089-.058.227-.093.423a5.089,5.089,0,0,0,1.682,1.18,6.72,6.72,0,0,0,2.185.552L33.218,60.7Zm.837,1.455H29.884v.6H33.4v2.818H26.875v.552h6.757V67.24H25.86a.794.794,0,0,1-.619-.3.987.987,0,0,1-.249-.677V64.427H31.62v-.516H24.992V62.753h3.142v-.6H24.36V60.906h9.694v1.246Z" transform="translate(-13.517 -31.485)" fill="#fff"/>
        <path id="패스_449" data-name="패스 449" d="M56.989,62.451H55.236v-.668H54.1V60.377h1.135v-.766H54.1V58.178h1.22v-2.15h1.674v6.423Zm-5.359-3.7a.9.9,0,0,0-1.549,0,1.483,1.483,0,0,0-.312.917,1.636,1.636,0,0,0,.32.957.932.932,0,0,0,.766.476.943.943,0,0,0,.766-.476,1.626,1.626,0,0,0,.32-.957A1.474,1.474,0,0,0,51.63,58.752Zm5.359,8.194H55.1v-2.8H48.666V62.771h8.323v4.171ZM54.2,58H52.73a1.69,1.69,0,0,1,.739.677,1.788,1.788,0,0,1,.32.979,2.62,2.62,0,0,1-.623,1.709,2.83,2.83,0,0,1-2.315.966,2.694,2.694,0,0,1-2.172-.917,2.469,2.469,0,0,1-.623-1.647,2.018,2.018,0,0,1,.334-1.144A1.993,1.993,0,0,1,49.071,58H47.58V56.674h2.412v-.9h1.754v.9h2.448V58Z" transform="translate(-26.402 -30.947)" fill="#fff"/>
        <path id="패스_450" data-name="패스 450" d="M81.078,64.018H79.311V56.34h1.767Zm.2,3.013H73.819a1.07,1.07,0,0,1-.766-.316,1.051,1.051,0,0,1-.334-.779V63.5h1.852V65.66h6.712ZM78.3,62.861a5,5,0,0,1-1.78-.779A4.613,4.613,0,0,1,75.19,60.5a3.789,3.789,0,0,1-1.326,1.66,6.154,6.154,0,0,1-1.562.717,5.22,5.22,0,0,0-.312-.828c-.111-.236-.236-.467-.369-.7a3.154,3.154,0,0,0,2.639-2.889V56.58h1.825v.752c-.009.534-.018.886-.022,1.042a2.708,2.708,0,0,0,.886,1.883A3.137,3.137,0,0,0,78.808,61.3l-.516,1.558Z" transform="translate(-39.742 -31.263)" fill="#fff"/>
        <path id="패스_451" data-name="패스 451" d="M105.279,62.576h-1.754v-.792h-1.135V60.377h1.135v-.766h-1.135V58.178h1.22v-2.15h1.669v6.547Zm-2.292,1.482a4.139,4.139,0,0,0-1.674-.289,4.056,4.056,0,0,0-1.66.289c-.392.169-.583.369-.583.605s.2.441.583.614a4.1,4.1,0,0,0,1.66.289,4.184,4.184,0,0,0,1.674-.289c.392-.178.583-.383.583-.614S103.374,64.227,102.987,64.058ZM99.92,58.752a.9.9,0,0,0-1.549,0,1.483,1.483,0,0,0-.312.917,1.636,1.636,0,0,0,.32.957.932.932,0,0,0,.766.476.943.943,0,0,0,.766-.476,1.626,1.626,0,0,0,.32-.957A1.474,1.474,0,0,0,99.92,58.752Zm4.438,7.478a5.921,5.921,0,0,1-3.129.717,5.509,5.509,0,0,1-3.045-.717,1.819,1.819,0,0,1-.966-1.545,1.84,1.84,0,0,1,.966-1.6,5.7,5.7,0,0,1,3.045-.677,6.173,6.173,0,0,1,3.129.677,1.843,1.843,0,0,1,1.042,1.6A1.769,1.769,0,0,1,104.358,66.23ZM102.484,58h-1.469a1.69,1.69,0,0,1,.739.677,1.8,1.8,0,0,1,.325.979,2.639,2.639,0,0,1-.619,1.709,2.833,2.833,0,0,1-2.319.966,2.694,2.694,0,0,1-2.172-.917,2.469,2.469,0,0,1-.623-1.647,2.018,2.018,0,0,1,.334-1.144A1.993,1.993,0,0,1,97.361,58H95.87V56.674h2.412v-.9h1.754v.9h2.448V58Z" transform="translate(-53.198 -30.947)" fill="#fff"/>
        <path id="패스_452" data-name="패스 452" d="M127.352,64.985a5.924,5.924,0,0,0-3.4,0c-.365.151-.547.334-.547.539s.182.392.547.552a4.547,4.547,0,0,0,1.7.263,4.647,4.647,0,0,0,1.7-.263c.383-.16.574-.343.574-.552S127.735,65.136,127.352,64.985Zm2.368-3.592a15.831,15.831,0,0,1-2.221-.187,3.76,3.76,0,0,1-1.865-.752,3.65,3.65,0,0,1-1.709.743,14.289,14.289,0,0,1-2.185.2c-.062-.276-.129-.556-.191-.837a5.7,5.7,0,0,0-.2-.712,8.315,8.315,0,0,0,2.292-.2c.734-.2,1.1-.574,1.1-1.117h-3.174V57.2h8.381v1.331h-3.356c0,.588.427.979,1.291,1.184a11.947,11.947,0,0,0,2.306.174l-.467,1.509Zm.908,1.518h-4.108v.5a7.346,7.346,0,0,1,2.257.476,1.783,1.783,0,0,1,1.122,1.682,1.742,1.742,0,0,1-1.064,1.5,6.6,6.6,0,0,1-3.187.654,6.517,6.517,0,0,1-3.174-.654,1.665,1.665,0,0,1-.062-3.08,6.443,6.443,0,0,1,2.221-.592v-.49H120.92V61.535h9.708v1.371Z" transform="translate(-67.098 -31.74)" fill="#fff"/>
        <path id="패스_453" data-name="패스 453" d="M153.881,62.58a4.619,4.619,0,0,1-2.519-1.1,7.033,7.033,0,0,1-1.576-1.772,4.4,4.4,0,0,1-1.6,1.95,5.6,5.6,0,0,1-2.306.89,5.63,5.63,0,0,0-.214-.708c-.093-.254-.187-.516-.276-.788a3.41,3.41,0,0,0,2.711-1.5,4.739,4.739,0,0,0,.872-2.813h1.8a6.878,6.878,0,0,1-.093.815c-.049.258-.1.543-.156.855a12.426,12.426,0,0,0,1.7,1.736,4.087,4.087,0,0,0,2.163,1.006l-.512,1.433Zm.837,4.126H145.01V65.335h3.774v-2.35h1.852v2.35h4.082Z" transform="translate(-80.465 -31.485)" fill="#fff"/>
        <path id="패스_454" data-name="패스 454" d="M178.111,67.253H176.3V56.33h1.816Zm-3.547-7.139a5.008,5.008,0,0,1-1.157,3.418,5.408,5.408,0,0,1-3.726,1.682,4.388,4.388,0,0,0-.249-.69,5.117,5.117,0,0,0-.432-.806,3.836,3.836,0,0,0,3.031-1.322,4.028,4.028,0,0,0,.708-2.488V57.986h-3.32V56.717h5.145v3.392Z" transform="translate(-93.777 -31.257)" fill="#fff"/>
        <path id="패스_455" data-name="패스 455" d="M199.954,65.744V64.676h-4.7v1.068h4.7Zm-3.32-7.513a1.426,1.426,0,0,0-1.108-.552,1.4,1.4,0,0,0-1.1.552,1.648,1.648,0,0,0-.418,1.082,1.665,1.665,0,0,0,.418,1.082,1.375,1.375,0,0,0,1.1.579,1.4,1.4,0,0,0,1.108-.579,1.678,1.678,0,0,0,.441-1.082A1.642,1.642,0,0,0,196.633,58.231Zm5.172,8.8h-7.286a1.114,1.114,0,0,1-.788-.316,1.023,1.023,0,0,1-.334-.779V62.624h1.852v.806h4.7v-.806h1.852v4.4Zm-1.816-8.381V56.33h1.789v5.92h-1.789v-2.1H198.7a2.95,2.95,0,0,1-1.1,1.5,3.327,3.327,0,0,1-2.043.668,3.223,3.223,0,0,1-2.39-.979,2.7,2.7,0,0,1,0-4,3.223,3.223,0,0,1,2.39-.979,3.341,3.341,0,0,1,2.1.7,3,3,0,0,1,1.077,1.585Z" transform="translate(-106.695 -31.257)" fill="#fff"/>
      </g>
    </g>
  </g>
</svg>
