<svg xmlns="http://www.w3.org/2000/svg" xmlns:xlink="http://www.w3.org/1999/xlink" width="60" height="60" viewBox="0 0 60 60">
  <defs>
    <clipPath id="clip-path">
      <rect id="사각형_426" data-name="사각형 426" width="30.645" height="30.638" fill="none"/>
    </clipPath>
  </defs>
  <g id="그룹_1030" data-name="그룹 1030" transform="translate(-242 -13664)">
    <g id="타원_17" data-name="타원 17" transform="translate(242 13664)" fill="none" stroke="#ccc" stroke-width="1">
      <circle cx="30" cy="30" r="30" stroke="none"/>
      <circle cx="30" cy="30" r="29.5" fill="none"/>
    </g>
    <g id="그룹_515" data-name="그룹 515" transform="translate(301.497 13679.895)">
      <g id="그룹_1028" data-name="그룹 1028" transform="translate(-44.497 -0.894)" clip-path="url(#clip-path)">
        <g id="그룹_1027" data-name="그룹 1027" transform="translate(0 0.003)">
          <g id="그룹_1026" data-name="그룹 1026">
            <path id="패스_416" data-name="패스 416" d="M-29.172,6.57a7.854,7.854,0,0,0-7.855,7.855,7.855,7.855,0,0,0,7.855,7.855,7.855,7.855,0,0,0,7.855-7.855h0A7.842,7.842,0,0,0-29.148,6.57Zm0,12.962a5.108,5.108,0,0,1-5.107-5.107,5.107,5.107,0,0,1,5.107-5.107,5.106,5.106,0,0,1,5.107,5.107A5.117,5.117,0,0,1-29.172,19.532ZM-19.163,6.249A1.832,1.832,0,0,1-21,8.075a1.834,1.834,0,0,1-1.826-1.837,1.832,1.832,0,0,1,1.832-1.826,1.828,1.828,0,0,1,1.832,1.824Zm5.2,1.86A9.064,9.064,0,0,0-16.435,1.69,9.125,9.125,0,0,0-22.854-.785c-2.529-.143-10.111-.143-12.64,0a9.111,9.111,0,0,0-6.421,2.466A9.1,9.1,0,0,0-44.39,8.1c-.143,2.529-.143,10.111,0,12.64a9.069,9.069,0,0,0,2.475,6.421A9.137,9.137,0,0,0-35.5,29.636c2.529.143,10.111.143,12.64,0a9.075,9.075,0,0,0,6.419-2.475,9.128,9.128,0,0,0,2.476-6.414c.143-2.529.143-10.1,0-12.634Zm-3.267,15.348a5.175,5.175,0,0,1-2.912,2.915c-2.017.8-6.8.616-9.032.616s-7.016.174-9.025-.616a5.174,5.174,0,0,1-2.912-2.912c-.8-2.017-.616-6.8-.616-9.032s-.178-7.022.616-9.032A5.164,5.164,0,0,1-38.2,2.482c2.017-.8,6.8-.616,9.032-.616s7.022-.178,9.032.616a5.167,5.167,0,0,1,2.906,2.912c.8,2.017.616,6.8.616,9.032S-16.428,21.447-17.228,23.457Z" transform="translate(44.497 0.892)" fill="#ccc"/>
          </g>
        </g>
      </g>
    </g>
  </g>
</svg>
