<svg xmlns="http://www.w3.org/2000/svg" xmlns:xlink="http://www.w3.org/1999/xlink" width="180" height="68" viewBox="0 0 180 68">
  <defs>
    <clipPath id="clip-path">
      <rect id="사각형_607" data-name="사각형 607" width="81.056" height="38" fill="none"/>
    </clipPath>
  </defs>
  <g id="그룹_1039" data-name="그룹 1039" transform="translate(-1520 -13701)">
    <g id="사각형_600" data-name="사각형 600" transform="translate(1520 13701)" fill="none" stroke="#707070" stroke-width="1">
      <rect width="180" height="68" stroke="none"/>
      <rect x="0.5" y="0.5" width="179" height="67" fill="none"/>
    </g>
    <g id="반복_그리드_1" data-name="반복 그리드 1" transform="translate(1569 13715)" opacity="0.5" clip-path="url(#clip-path)">
      <g id="그룹_1060" data-name="그룹 1060">
        <g id="그룹_1059" data-name="그룹 1059">
          <g id="그룹_1056" data-name="그룹 1056" clip-path="url(#clip-path)">
            <path id="패스_518" data-name="패스 518" d="M73.777,56.669l-3.855,3.49.921.9S73.759,58.5,73.8,58.468l2.953,2.588.92-.9L73.8,56.647Z" transform="translate(-38.039 -30.818)" fill="#fff"/>
            <path id="패스_519" data-name="패스 519" d="M119.447,75.765a1.573,1.573,0,1,1,1.744-1.566,1.664,1.664,0,0,1-1.744,1.566m0-4.261a2.724,2.724,0,1,0,3.1,2.7,2.921,2.921,0,0,0-3.1-2.7" transform="translate(-63.291 -38.899)" fill="#fff"/>
            <path id="패스_520" data-name="패스 520" d="M122.325,57.13h-7.362v1.134h2.583L114.89,60.69l.921.9s2.81-2.487,2.847-2.521l2.849,2.521.921-.9-2.658-2.426h2.585V57.13Z" transform="translate(-62.501 -31.08)" fill="#fff"/>
            <path id="패스_521" data-name="패스 521" d="M122.219,67.844H112.83V69h9.419V67.844Z" transform="translate(-61.38 -36.908)" fill="#fff"/>
            <path id="패스_522" data-name="패스 522" d="M62.718,57.1H61.269V67.626h1.48V57.1Z" transform="translate(-33.332 -31.066)" fill="#fff"/>
            <path id="패스_523" data-name="패스 523" d="M45.06,57.458h-.028v1.133h4.5V64h1.465V58.128c0-.468-.211-.666-.709-.666Z" transform="translate(-24.498 -31.258)" fill="#fff"/>
            <path id="패스_524" data-name="패스 524" d="M151.84,57.1h-1.45V67.626h1.48V57.1Z" transform="translate(-81.814 -31.066)" fill="#fff"/>
            <path id="패스_525" data-name="패스 525" d="M134.179,57.458h-.027v1.133h4.5V64h1.466V58.128c0-.468-.212-.666-.709-.666Z" transform="translate(-72.98 -31.258)" fill="#fff"/>
            <path id="패스_526" data-name="패스 526" d="M95.81,70.956H94.4v2.008H90.414v1.154h9.413V72.964H95.84V70.956Z" transform="translate(-49.186 -38.601)" fill="#fff"/>
            <path id="패스_527" data-name="패스 527" d="M98.573,61.864H94.242V60.278h4.332ZM100,57.458H98.573v1.663H94.242V57.458H92.783v4.926c.013.435.254.626.734.626l5.784.01c.47-.01.709-.2.726-.636V57.458Z" transform="translate(-50.475 -31.258)" fill="#fff"/>
            <path id="패스_528" data-name="패스 528" d="M166.306,67.844H156.92v1.131h9.419V67.844Z" transform="translate(-85.366 -36.908)" fill="#fff"/>
            <path id="패스_529" data-name="패스 529" d="M159.2,57.13h-.028v1.134H164.9v2.887h1.468V57.717c-.026-.405-.236-.585-.7-.585Z" transform="translate(-86.592 -31.08)" fill="#fff"/>
            <path id="패스_530" data-name="패스 530" d="M164.921,76.186h-4.355V74.145h4.355Zm.876-3.173H159.69c-.4,0-.57.162-.57.54v3.229c0,.378.17.539.57.539H165.8c.405,0,.571-.16.571-.539V73.553c0-.378-.17-.54-.571-.54" transform="translate(-86.564 -39.72)" fill="#fff"/>
            <path id="패스_531" data-name="패스 531" d="M77.482,67.568H68.1v1.154h3.988v1.046H69.252v1.15h5.658v.555H69.822c-.4,0-.57.162-.57.54v1.835c0,.378.17.538.57.538h6.542V73.237H70.7v-.616h5.09c.4,0,.57-.162.57-.54V70.309c0-.378-.17-.541-.57-.541H73.523V68.722h3.99V67.568Z" transform="translate(-37.047 -36.757)" fill="#fff"/>
            <path id="사각형_432" data-name="사각형 432" d="M0,0H20.564V20.561H0Z" fill="#afafaf"/>
            <rect id="사각형_433" data-name="사각형 433" width="3.305" height="12.541" transform="translate(35.544 4.215)" fill="#fff"/>
            <path id="패스_532" data-name="패스 532" d="M102.693,15.247h8.623v3.826h-8.623Zm11.94,4.283V14.8a2.19,2.19,0,0,0-2.269-2.261h-9.676V9.263h-3.3V19.3a2.452,2.452,0,0,0,.681,1.646,3.21,3.21,0,0,0,2.393.834h9.9a2.184,2.184,0,0,0,2.269-2.253" transform="translate(-54.069 -5.039)" fill="#fff"/>
            <path id="패스_533" data-name="패스 533" d="M156.286,19.074h-8.624v-7.1h8.623Zm.232-9.809h-9.087a3.216,3.216,0,0,0-2.392.833,2.464,2.464,0,0,0-.68,1.647v7.546c0,.025.044,2.494,3.067,2.494h9.093c3.025,0,3.069-2.468,3.069-2.493V11.736a2.458,2.458,0,0,0-.683-1.64,3.193,3.193,0,0,0-2.387-.833" transform="translate(-78.533 -5.04)" fill="#fff"/>
            <path id="패스_534" data-name="패스 534" d="M27.85,8.642V9.857h2.684V20.391h3.3V6.693Z" transform="translate(-15.151 -3.641)" fill="#fff"/>
            <path id="패스_535" data-name="패스 535" d="M49.127,15.4,55.588,9.35H51.346L45.1,15.4l6.306,6.381h4.228Z" transform="translate(-24.533 -5.087)" fill="#fff"/>
          </g>
        </g>
      </g>
    </g>
  </g>
</svg>
