<svg id="레이어_1" data-name="레이어 1" xmlns="http://www.w3.org/2000/svg" xmlns:xlink="http://www.w3.org/1999/xlink" width="327.02" height="46.864" viewBox="0 0 327.02 46.864">
  <defs>
    <linearGradient id="linear-gradient" y1="0.5" x2="1" y2="0.5" gradientUnits="objectBoundingBox">
      <stop offset="0.41" stop-color="#351d96"/>
      <stop offset="0.73" stop-color="#3f5bd5"/>
      <stop offset="0.96" stop-color="#4784fe"/>
    </linearGradient>
    <linearGradient id="linear-gradient-2" y1="0.5" x2="1" y2="0.5" gradientUnits="objectBoundingBox">
      <stop offset="0" stop-color="#4784fe"/>
      <stop offset="1" stop-color="#351d96"/>
    </linearGradient>
  </defs>
  <g id="그룹_4900" data-name="그룹 4900" transform="translate(0 0)">
    <g id="그룹_4898" data-name="그룹 4898" transform="translate(0 2.753)">
      <path id="패스_25726" data-name="패스 25726" d="M35.071,5.43H43.32V46.778H34.173V20.909L22.613,35.8H20.818L9.147,20.854V46.783H0V5.43H8.249l13.411,17.6Z" transform="translate(0 -5.43)" fill="#e5e5e5"/>
      <path id="패스_25727" data-name="패스 25727" d="M128.085,46.778l-2.92-7.443H105.806l-2.915,7.443H93.07L110.689,5.43h9.821l17.508,41.348ZM115.572,14.7,109.117,31H121.91l-6.343-16.3Z" transform="translate(-45.881 -5.43)" fill="#e5e5e5"/>
      <path id="패스_25728" data-name="패스 25728" d="M189.35,5.43h9.2v32.6h19.754v8.741H189.35V5.43Z" transform="translate(-93.345 -5.43)" fill="#e5e5e5"/>
      <path id="패스_25729" data-name="패스 25729" d="M256.75,5.43h9.2v32.6h19.754v8.741H256.75Z" transform="translate(-126.572 -5.43)" fill="#e5e5e5"/>
    </g>
    <path id="패스_25730" data-name="패스 25730" d="M587.336,13.314V16a1.5,1.5,0,0,0,.446,1.09,1.477,1.477,0,0,0,1.09.446h17.345a1.5,1.5,0,0,1,1.09.446,1.484,1.484,0,0,1,.446,1.09v8.832a1.5,1.5,0,0,1-.446,1.09,1.484,1.484,0,0,1-1.09.446H588.872a1.532,1.532,0,0,0-1.536,1.536v2.434a1.5,1.5,0,0,0,.446,1.09,1.469,1.469,0,0,0,1.09.446h19.906a1.5,1.5,0,0,1,1.09.446,1.484,1.484,0,0,1,.446,1.09v8.832a1.5,1.5,0,0,1-.446,1.09,1.476,1.476,0,0,1-1.09.446H576.2a1.532,1.532,0,0,1-1.541-1.536V1.536a1.489,1.489,0,0,1,.451-1.09A1.477,1.477,0,0,1,576.2,0h32.576a1.5,1.5,0,0,1,1.09.446,1.484,1.484,0,0,1,.446,1.09v8.706a1.5,1.5,0,0,1-.446,1.09,1.476,1.476,0,0,1-1.09.446H588.872a1.5,1.5,0,0,0-1.09.446,1.484,1.484,0,0,0-.446,1.09Z" transform="translate(-283.294 0)" fill="#fefefe"/>
    <g id="그룹_4899" data-name="그룹 4899" transform="translate(167.15 0.005)">
      <path id="패스_25731" data-name="패스 25731" d="M371.827,24.251a11.74,11.74,0,0,0-6.135-1.521,10.176,10.176,0,0,0-4.431.994,12.032,12.032,0,0,0-6.044,6.459,12.058,12.058,0,0,0,0,8.979,11.665,11.665,0,0,0,2.419,3.757,12.381,12.381,0,0,0,3.625,2.611,10.1,10.1,0,0,0,4.431.994,11.81,11.81,0,0,0,6.165-1.643,12.86,12.86,0,0,0,3.372-2.865,25.936,25.936,0,0,1-.01-14.744,12.556,12.556,0,0,0-3.392-3.027Z" transform="translate(-341.837 -11.21)" fill="none"/>
      <path id="패스_25732" data-name="패스 25732" d="M521.7,25.116a4.469,4.469,0,0,0-1.465-1.344,4.418,4.418,0,0,0-2.261-.543h-6.754a1.524,1.524,0,0,0-1.531,1.536V31.55a1.524,1.524,0,0,0,1.531,1.536h6.754a4.838,4.838,0,0,0,1.592-.289,4.638,4.638,0,0,0,1.526-.9,4.748,4.748,0,0,0,1.146-1.506,4.675,4.675,0,0,0,.446-2.114,6.251,6.251,0,0,0-.223-1.506,5.411,5.411,0,0,0-.766-1.663Z" transform="translate(-418.416 -11.457)" fill="none"/>
      <path id="패스_25733" data-name="패스 25733" d="M359.691,33.687a11.823,11.823,0,0,1-6.165,1.643,10.1,10.1,0,0,1-4.431-.994,12.289,12.289,0,0,1-3.625-2.611,11.72,11.72,0,0,1-2.418-3.757,12.169,12.169,0,0,1,2.418-12.8,12.115,12.115,0,0,1,3.625-2.642,10.1,10.1,0,0,1,4.431-.994,11.728,11.728,0,0,1,6.135,1.521,12.407,12.407,0,0,1,3.392,3.027,25.908,25.908,0,0,1,6.282-10.729,22.418,22.418,0,0,0-2.484-1.815A22.843,22.843,0,0,0,360.9.938,27.139,27.139,0,0,0,353.526.01a23.281,23.281,0,0,0-9.294,1.861,24.633,24.633,0,0,0-7.59,5.02,23.017,23.017,0,0,0-5.111,7.438,22.549,22.549,0,0,0-1.861,9.111,22.566,22.566,0,0,0,1.861,9.111,23.152,23.152,0,0,0,5.111,7.438,24.754,24.754,0,0,0,7.59,5.02,23.281,23.281,0,0,0,9.294,1.861,26.841,26.841,0,0,0,7.25-.923,23.469,23.469,0,0,0,5.983-2.591,22.354,22.354,0,0,0,2.566-1.846,25.958,25.958,0,0,1-6.257-10.678A12.861,12.861,0,0,1,359.7,33.7Z" transform="translate(-329.67 -0.01)" fill="#fefefe"/>
      <path id="패스_25734" data-name="패스 25734" d="M525.8,45.14q-2.114-2.814-4.8-6.206t-5.121-6.591a1.152,1.152,0,0,1-.223-1.055,1.763,1.763,0,0,1,.674-.928,11.742,11.742,0,0,0,2.753-2.4,16.294,16.294,0,0,0,2.114-3.23,17.865,17.865,0,0,0,1.856-7.869,17.876,17.876,0,0,0-1.247-6.784,16.162,16.162,0,0,0-3.458-5.314A15.343,15.343,0,0,0,513,1.277,18.371,18.371,0,0,0,506.152.03H486.246a1.5,1.5,0,0,0-1.09.446,1.484,1.484,0,0,0-.446,1.09V7.341a25.917,25.917,0,0,1,0,32.226v5.775a1.532,1.532,0,0,0,1.546,1.536h9.588a1.5,1.5,0,0,0,1.1-.446,1.481,1.481,0,0,0,.451-1.09V34.974a1.523,1.523,0,0,1,1.531-1.536h1.4a3,3,0,0,1,1.339.35,3.042,3.042,0,0,1,1.085.862q1.977,2.814,3.98,5.567t4.046,5.44a2.97,2.97,0,0,0,1.121.862,3.221,3.221,0,0,0,1.374.35h11.9A.8.8,0,0,0,526,46.26a1.176,1.176,0,0,0-.193-1.121ZM509.924,18.962a4.823,4.823,0,0,1-1.146,1.506,4.639,4.639,0,0,1-1.526.9,4.838,4.838,0,0,1-1.592.289h-6.754a1.524,1.524,0,0,1-1.531-1.536V13.334a1.524,1.524,0,0,1,1.531-1.536h6.754a4.418,4.418,0,0,1,2.261.543,4.469,4.469,0,0,1,1.465,1.344,5.465,5.465,0,0,1,.766,1.663,6.251,6.251,0,0,1,.223,1.506,4.674,4.674,0,0,1-.446,2.114Z" transform="translate(-406.101 -0.02)" fill="#fefefe"/>
    </g>
    <path id="패스_25735" data-name="패스 25735" d="M448.473,34.5a12.029,12.029,0,0,0-20.423-8.619,16.373,16.373,0,0,1,15.824,16.362,17.422,17.422,0,0,1-.1,1.795A12.015,12.015,0,0,0,448.473,34.5Z" transform="translate(-211.019 -11.077)" fill="url(#linear-gradient)"/>
    <path id="패스_25736" data-name="패스 25736" d="M424.51,29.2a12.031,12.031,0,0,0,15.728,18.157,16.107,16.107,0,0,0,.1-1.795A16.373,16.373,0,0,0,424.51,29.2Z" transform="translate(-207.479 -14.395)" fill="url(#linear-gradient-2)"/>
  </g>
</svg>
