<svg id="레이어_1" data-name="레이어 1" xmlns="http://www.w3.org/2000/svg" xmlns:xlink="http://www.w3.org/1999/xlink" width="140" height="20.063" viewBox="0 0 140 20.063">
  <defs>
    <linearGradient id="linear-gradient" y1="0.5" x2="1" y2="0.5" gradientUnits="objectBoundingBox">
      <stop offset="0.41" stop-color="#351d96"/>
      <stop offset="0.73" stop-color="#3f5bd5"/>
      <stop offset="0.96" stop-color="#4784fe"/>
    </linearGradient>
    <linearGradient id="linear-gradient-2" y1="0.5" x2="1" y2="0.5" gradientUnits="objectBoundingBox">
      <stop offset="0" stop-color="#4784fe"/>
      <stop offset="1" stop-color="#351d96"/>
    </linearGradient>
  </defs>
  <g id="그룹_7723" data-name="그룹 7723" transform="translate(0 0)">
    <g id="그룹_7721" data-name="그룹 7721" transform="translate(0 1.179)">
      <path id="패스_35416" data-name="패스 35416" d="M15.014,5.43h3.532v17.7H14.63V12.057L9.681,18.43H8.913l-5-6.4v11.1H0V5.43H3.532l5.741,7.534Z" transform="translate(0 -5.43)" fill="#595959"/>
      <path id="패스_35417" data-name="패스 35417" d="M108.06,23.131l-1.25-3.186H98.523l-1.248,3.186h-4.2l7.543-17.7h4.2l7.5,17.7ZM102.7,9.4,99.94,16.379h5.476L102.7,9.4Z" transform="translate(-72.868 -5.43)" fill="#595959"/>
      <path id="패스_35418" data-name="패스 35418" d="M189.35,5.43h3.94V19.387h8.457v3.742h-12.4Z" transform="translate(-148.249 -5.43)" fill="#595959"/>
      <path id="패스_35419" data-name="패스 35419" d="M256.75,5.43h3.94V19.387h8.457v3.742h-12.4Z" transform="translate(-201.02 -5.43)" fill="#595959"/>
    </g>
    <path id="패스_35420" data-name="패스 35420" d="M580.086,5.7V6.85a.644.644,0,0,0,.191.467.632.632,0,0,0,.467.191h7.426a.644.644,0,0,1,.467.191.636.636,0,0,1,.191.467v3.781a.644.644,0,0,1-.191.467.636.636,0,0,1-.467.191h-7.426a.656.656,0,0,0-.658.658V14.3a.644.644,0,0,0,.191.467.629.629,0,0,0,.467.191h8.522a.644.644,0,0,1,.467.191.635.635,0,0,1,.191.467V19.4a.644.644,0,0,1-.191.467.632.632,0,0,1-.467.191H575.32a.656.656,0,0,1-.66-.658V.658a.638.638,0,0,1,.193-.467A.632.632,0,0,1,575.32,0h13.946a.644.644,0,0,1,.467.191.635.635,0,0,1,.191.467V4.385a.644.644,0,0,1-.191.467.632.632,0,0,1-.467.191h-8.522a.644.644,0,0,0-.467.191A.635.635,0,0,0,580.086,5.7Z" transform="translate(-449.924 0)"/>
    <g id="그룹_7722" data-name="그룹 7722" transform="translate(71.559 0.002)">
      <path id="패스_35421" data-name="패스 35421" d="M361.832,23.381a5.026,5.026,0,0,0-2.626-.651,4.356,4.356,0,0,0-1.9.425,5.151,5.151,0,0,0-2.587,2.765,5.162,5.162,0,0,0,0,3.844,4.994,4.994,0,0,0,1.035,1.608,5.3,5.3,0,0,0,1.552,1.118,4.326,4.326,0,0,0,1.9.425,5.056,5.056,0,0,0,2.639-.7,5.505,5.505,0,0,0,1.443-1.226,11.1,11.1,0,0,1,0-6.312,5.375,5.375,0,0,0-1.452-1.3Z" transform="translate(-348.993 -17.798)" fill="none"/>
      <path id="패스_35422" data-name="패스 35422" d="M514.832,24.037a1.913,1.913,0,0,0-.627-.575,1.891,1.891,0,0,0-.968-.232h-2.891a.652.652,0,0,0-.656.658v2.9a.652.652,0,0,0,.656.658h2.891a2.071,2.071,0,0,0,.682-.124,1.986,1.986,0,0,0,.653-.384,2.033,2.033,0,0,0,.491-.645,2,2,0,0,0,.191-.905,2.674,2.674,0,0,0-.1-.645,2.317,2.317,0,0,0-.328-.712Z" transform="translate(-470.615 -18.19)" fill="none"/>
      <path id="패스_35423" data-name="패스 35423" d="M342.522,14.427a5.061,5.061,0,0,1-2.639.7,4.326,4.326,0,0,1-1.9-.425,5.261,5.261,0,0,1-1.552-1.118,5.017,5.017,0,0,1-1.035-1.608A5.21,5.21,0,0,1,336.434,6.5a5.186,5.186,0,0,1,1.552-1.131,4.326,4.326,0,0,1,1.9-.425,5.021,5.021,0,0,1,2.626.651,5.312,5.312,0,0,1,1.452,1.3A11.092,11.092,0,0,1,346.651,2.3a9.6,9.6,0,0,0-1.064-.777A9.779,9.779,0,0,0,343.041.407a11.619,11.619,0,0,0-3.158-.4,9.967,9.967,0,0,0-3.979.8,10.545,10.545,0,0,0-3.249,2.149,9.853,9.853,0,0,0-2.188,3.184,9.653,9.653,0,0,0-.8,3.9,9.661,9.661,0,0,0,.8,3.9,9.911,9.911,0,0,0,2.188,3.184,10.6,10.6,0,0,0,3.249,2.149,9.967,9.967,0,0,0,3.979.8,11.491,11.491,0,0,0,3.1-.4,10.047,10.047,0,0,0,2.561-1.109,9.568,9.568,0,0,0,1.1-.79,11.113,11.113,0,0,1-2.679-4.571,5.505,5.505,0,0,1-1.443,1.226Z" transform="translate(-329.67 -0.01)"/>
      <path id="패스_35424" data-name="패스 35424" d="M502.3,19.342q-.905-1.2-2.056-2.657t-2.192-2.822a.493.493,0,0,1-.1-.451.755.755,0,0,1,.289-.4,5.026,5.026,0,0,0,1.179-1.027,6.975,6.975,0,0,0,.905-1.383,7.648,7.648,0,0,0,.794-3.369,7.653,7.653,0,0,0-.534-2.9,6.919,6.919,0,0,0-1.48-2.275A6.568,6.568,0,0,0,496.822.564,7.865,7.865,0,0,0,493.89.03h-8.522a.644.644,0,0,0-.467.191.636.636,0,0,0-.191.467V3.16a11.1,11.1,0,0,1,0,13.8v2.472a.656.656,0,0,0,.662.658h4.1a.644.644,0,0,0,.469-.191.634.634,0,0,0,.193-.467V14.99a.652.652,0,0,1,.656-.658h.6a1.282,1.282,0,0,1,.573.15,1.3,1.3,0,0,1,.465.369q.847,1.2,1.7,2.383t1.732,2.329a1.272,1.272,0,0,0,.48.369,1.379,1.379,0,0,0,.588.15h5.1a.341.341,0,0,0,.356-.26.5.5,0,0,0-.082-.48ZM495.5,8.135a2.065,2.065,0,0,1-.491.645,1.986,1.986,0,0,1-.653.384,2.071,2.071,0,0,1-.682.124h-2.891a.652.652,0,0,1-.656-.658v-2.9a.652.652,0,0,1,.656-.658h2.891a1.891,1.891,0,0,1,.968.232,1.913,1.913,0,0,1,.627.575,2.34,2.34,0,0,1,.328.712,2.677,2.677,0,0,1,.1.645,2,2,0,0,1-.191.905Z" transform="translate(-451.057 -0.026)"/>
    </g>
    <path id="패스_35425" data-name="패스 35425" d="M436.793,27.621a5.15,5.15,0,0,0-8.743-3.69,7.009,7.009,0,0,1,6.774,7,7.456,7.456,0,0,1-.041.768A5.144,5.144,0,0,0,436.793,27.621Z" transform="translate(-335.137 -17.593)" fill="url(#linear-gradient)"/>
    <path id="패스_35426" data-name="패스 35426" d="M422.428,29.2a5.151,5.151,0,0,0,6.733,7.773,6.893,6.893,0,0,0,.041-.768,7.009,7.009,0,0,0-6.774-7Z" transform="translate(-329.516 -22.862)" fill="url(#linear-gradient-2)"/>
  </g>
</svg>
